<svg width="267" height="53" viewBox="0 0 267 53" fill="none" xmlns="http://www.w3.org/2000/svg">
<path d="M72.7815 18.034H68.3328L63.5028 34.6031H66.8076L67.6973 30.6822H72.9086L73.9255 34.6031H77.4844L72.7815 18.034ZM68.4599 28.0261L70.4936 20.5636L72.2731 28.0261H68.4599Z" fill="#D2D8E6"/>
<path d="M85.2368 28.7849C85.2368 31.8205 84.9826 32.5794 83.8386 32.5794C82.9489 32.5794 82.5676 31.8205 82.5676 28.6584C82.5676 26.0023 82.9489 24.864 83.9657 24.864C84.9826 24.864 85.2368 25.7494 85.2368 28.7849ZM85.491 24.3581C84.9826 23.4727 83.8386 22.8403 82.6947 22.8403C80.1526 22.8403 79.2628 24.864 79.2628 28.4055C79.2628 32.3264 79.7712 34.6031 82.6947 34.6031C83.8386 34.6031 84.7284 34.0972 85.2368 33.0853V34.3501C85.2368 36.6268 84.8555 37.0062 83.8386 37.0062C83.076 37.0062 82.8218 36.6268 82.8218 35.7414V35.362H79.517V35.9944C79.517 38.2711 80.7881 39.0299 83.8386 39.0299C87.2705 39.0299 88.5415 37.8916 88.5415 35.2355V23.0932H85.491V24.3581Z" fill="#D2D8E6"/>
<path d="M94.8998 18.034H91.5951V20.6901H94.8998V18.034ZM94.8998 23.0933H91.5951V34.6031H94.8998V23.0933Z" fill="#D2D8E6"/>
<path d="M101.255 18.034H97.9473V34.606H101.255V18.034Z" fill="#D2D8E6"/>
<path d="M113.2 28.282C113.2 24.614 112.183 22.9697 108.624 22.9697C105.447 22.9697 103.921 24.2345 103.921 28.7879C103.921 33.5942 105.447 34.859 108.624 34.859C111.548 34.859 112.946 33.5942 113.2 30.9381H109.768C109.768 32.3294 109.387 32.8353 108.497 32.8353C107.48 32.8353 107.226 31.3175 107.226 29.6733V29.5468H113.2V28.282ZM107.226 27.6496V27.3966C107.226 26.3847 107.48 24.867 108.624 24.867C109.387 24.867 109.895 25.4994 109.895 26.8907V27.6496H107.226Z" fill="#D2D8E6"/>
<path d="M119.05 23.0932H115.872V34.6031H119.177V27.0142C119.177 25.6229 119.812 24.864 120.575 24.864C121.211 24.864 121.719 25.3699 121.719 26.3818V34.6031H125.024V26.5082C125.024 24.1051 124.134 22.8403 122.1 22.8403C120.702 22.8403 119.685 23.4727 119.05 24.7375V23.0932Z" fill="#D2D8E6"/>
<path d="M133.667 32.7088C133.413 32.7088 132.904 32.8353 132.65 32.8353C131.887 32.8353 131.506 32.4558 131.506 31.191V25.2464H133.413V23.0962H131.506V19.9341L128.201 21.199V23.0962H126.676V25.2464H128.201V32.0764C128.201 34.1001 129.345 34.859 131.887 34.859C132.523 34.859 133.159 34.859 133.667 34.7325V32.7088Z" fill="#D2D8E6"/>
<path d="M150.571 18.034H139.767V20.6931H143.325V34.606H146.883V20.6931H150.571V18.034Z" fill="#D2D8E6"/>
<path d="M158.833 28.282C158.833 24.614 157.816 22.9697 154.257 22.9697C151.079 22.9697 149.681 24.2345 149.681 28.7879C149.681 33.5942 151.079 34.859 154.257 34.859C157.18 34.859 158.706 33.5942 158.833 30.9381H155.528C155.401 32.3294 155.02 32.8353 154.257 32.8353C153.113 32.8353 152.859 31.3175 152.859 29.6733V29.5468H158.833V28.282ZM152.859 27.6496V27.3966C152.859 26.3847 153.113 24.867 154.257 24.867C155.02 24.867 155.528 25.4994 155.528 26.8907V27.6496H152.859Z" fill="#D2D8E6"/>
<path d="M170.397 30.5577H167.093C167.093 32.0755 166.584 32.8344 165.695 32.8344C164.551 32.8344 164.296 31.443 164.296 29.1664C164.296 26.1308 164.551 24.9925 165.695 24.9925C166.457 24.9925 166.966 25.3719 167.093 27.0162H170.397C170.397 23.3482 167.728 22.8423 165.695 22.8423C161.754 22.8423 161.119 25.119 161.119 29.0399C161.119 32.4549 161.881 34.8581 165.567 34.8581C168.618 34.8581 170.397 33.5932 170.397 30.9371V30.5577Z" fill="#D2D8E6"/>
<path d="M182.217 26.5093C182.217 24.1061 181.328 22.8413 179.294 22.8413C177.896 22.8413 177.006 23.3472 176.37 24.4855V18.035H173.066V34.6041H176.37V27.0152C176.37 25.6239 176.879 24.865 177.641 24.865C178.404 24.865 178.785 25.3709 178.785 26.3828V34.6041H182.217V26.5093Z" fill="#D2D8E6"/>
<path d="M188.322 23.0932H185.145V34.6031H188.577V27.0142C188.577 25.6229 189.085 24.864 189.848 24.864C190.61 24.864 190.992 25.3699 190.992 26.3818V34.6031H194.296V26.5082C194.296 24.1051 193.407 22.8403 191.5 22.8403C190.102 22.8403 189.085 23.4727 188.322 24.7375V23.0932Z" fill="#D2D8E6"/>
<path d="M206.367 28.9144C206.367 24.867 205.478 22.8433 201.664 22.8433C197.851 22.8433 196.962 24.867 196.962 28.9144C196.962 32.9618 197.851 34.859 201.664 34.859C205.478 34.859 206.367 32.9618 206.367 28.9144ZM203.063 28.9144C203.063 31.697 202.808 32.8353 201.664 32.8353C200.393 32.8353 200.139 31.697 200.139 28.9144C200.139 26.0053 200.52 24.9935 201.664 24.9935C202.808 24.9935 203.063 26.1318 203.063 28.9144Z" fill="#D2D8E6"/>
<path d="M212.342 18.034H209.04V34.606H212.342V18.034Z" fill="#D2D8E6"/>
<path d="M224.417 28.9144C224.417 24.867 223.528 22.8433 219.714 22.8433C215.901 22.8433 215.011 24.867 215.011 28.9144C215.011 32.9618 215.901 34.859 219.714 34.859C223.528 34.859 224.417 32.9618 224.417 28.9144ZM221.113 28.9144C221.113 31.697 220.858 32.8353 219.714 32.8353C218.443 32.8353 218.189 31.697 218.189 28.9144C218.189 26.0053 218.57 24.9935 219.714 24.9935C220.858 24.9935 221.113 26.1318 221.113 28.9144Z" fill="#D2D8E6"/>
<path d="M232.934 28.7849C232.934 31.8205 232.68 32.5794 231.536 32.5794C230.646 32.5794 230.265 31.8205 230.265 28.6584C230.265 26.0023 230.646 24.864 231.663 24.864C232.807 24.864 232.934 25.7494 232.934 28.7849ZM233.189 24.3581C232.68 23.4727 231.536 22.8403 230.392 22.8403C227.85 22.8403 227.088 24.864 227.088 28.4055C227.088 32.3264 227.469 34.6031 230.392 34.6031C231.536 34.6031 232.426 34.0972 232.934 33.0853V34.3501C232.934 36.6268 232.553 37.0062 231.663 37.0062C230.774 37.0062 230.519 36.6268 230.519 35.7414V35.362H227.215V35.9944C227.215 38.2711 228.613 39.0299 231.536 39.0299C234.968 39.0299 236.239 37.8916 236.239 35.2355V23.0932H233.189V24.3581Z" fill="#D2D8E6"/>
<path d="M242.722 18.034H239.291V20.6901H242.722V18.034ZM242.722 23.0933H239.291V34.6031H242.722V23.0933Z" fill="#D2D8E6"/>
<path d="M254.542 28.282C254.542 24.614 253.525 22.9697 249.967 22.9697C246.789 22.9697 245.391 24.2345 245.391 28.7879C245.391 33.5942 246.789 34.859 249.967 34.859C252.89 34.859 254.288 33.5942 254.542 30.9381H251.11C251.11 32.3294 250.729 32.8353 249.839 32.8353C248.823 32.8353 248.568 31.3175 248.568 29.6733V29.5468H254.542V28.282ZM248.568 27.6496V27.3966C248.568 26.3847 248.823 24.867 249.967 24.867C250.729 24.867 251.238 25.4994 251.238 26.8907V27.6496H248.568Z" fill="#D2D8E6"/>
<path d="M265.602 26.5092C265.602 25.2444 265.347 24.4855 264.839 23.9796C264.076 23.2207 262.932 22.8412 261.28 22.8412C258.357 22.8412 256.577 24.1061 256.577 26.1298C256.577 27.774 257.213 28.5329 260.263 29.6713C262.17 30.4302 262.551 30.8096 262.551 31.442C262.551 32.4539 261.916 32.8333 261.026 32.8333C260.263 32.8333 259.755 32.4539 259.755 31.3155V30.9361H256.45C256.45 32.3274 256.704 32.9598 257.085 33.5922C257.721 34.4776 259.119 34.857 260.772 34.857C264.076 34.857 265.729 33.7187 265.729 31.3155C265.729 29.4183 264.966 28.7859 262.043 27.6476C260.263 26.8887 259.882 26.6357 259.882 26.0033C259.882 25.3709 260.263 24.865 261.026 24.865C261.916 24.865 262.297 25.3709 262.297 26.5092H265.602Z" fill="#D2D8E6"/>
<path d="M24.7365 16.6446L24.8616 16.5152L24.9917 16.3907L25.1168 16.2662H25.2419L25.372 16.1367H25.4971L25.6272 16.0122H25.7523L25.8774 15.8828H27.0234L27.1485 16.0122H27.4037V16.1367H27.6589L27.784 16.2662H27.9141L28.0392 16.3907L28.1693 16.5152L28.2945 16.7691V16.8986H28.4195L28.5496 17.0231V17.1476L28.6748 17.277V17.4015L28.8049 17.531V17.9094H28.93V18.5418L28.8049 18.6664V18.9203L28.6748 19.0448V19.2988H28.5496V19.4283H28.4195V19.5527H28.2945V19.6772L27.9141 20.0607L27.784 20.1851H27.6589V20.3097H27.5338L27.4037 20.439H27.1485V20.5636H25.7523V20.439H25.4971V20.3097H25.372L25.2419 20.1851H25.1168L24.4813 19.4283L24.3562 19.2988V19.0448H24.2261V18.7958L24.101 18.6664V17.78L24.2261 17.6555V17.4015H24.3562V17.1476L24.4813 17.0231V16.8986L24.7365 16.6446Z" fill="#D2D8E6"/>
<path d="M25.372 10.5745H25.4971V10.4451H25.6272L25.7523 10.3205V10.191H26.0076V10.0666H27.0234V10.191H27.2786V10.3205H27.4037L27.5338 10.4451H27.6589V10.5745H27.784V10.8235H27.9141V11.0775H28.0392V11.3314L28.1693 11.4559V11.8393H28.0392V12.2178H27.9141V12.4717H27.784V12.5962H27.6589V12.7207V12.8502H27.5338L27.4037 12.9747H27.2786V13.1041H27.0234H26.0076H25.7523V12.9747L25.6272 12.8502H25.4971V12.7207H25.372V12.5962H25.2419V12.4717H25.1168V12.3423V11.9638H24.9917V11.2069H25.1168V10.9529V10.8235L25.2419 10.699V10.5745H25.372Z" fill="#D2D8E6"/>
<path d="M25.7524 5.51523H26.0076V5.38575H26.2628V5.26129H27.0235V5.38575H27.2787V5.51523H27.4038H27.5339V5.63969H27.659V5.76422V5.8937V6.14763H27.7841V6.5261L27.659 6.65056V6.78003V6.90457V7.02903H27.5339V7.1585H27.4038V7.28296H27.2787L27.1486 7.41244H27.0235H26.2628H26.1327L26.0076 7.28296H25.8775V7.1585H25.7524V7.02903V6.90457L25.6273 6.78003V6.65056H25.4972V6.14763H25.6273V5.8937L25.7524 5.76422V5.63969V5.51523Z" fill="#D2D8E6"/>
<path d="M26.2628 1.2129V1.08844H26.3879H27.1485H27.2786V1.2129H27.4037V1.33736H27.5338V1.59137H27.6589V1.96976H27.5338V2.22377H27.4037V2.35325H27.2786H27.1485V2.47771H26.3879V2.35325H26.2628H26.1326V2.09924H26.0076V1.46683H26.1326V1.2129H26.2628Z" fill="#D2D8E6"/>
<path d="M28.2945 35.8709L27.9141 36.2493H27.784L27.6589 36.3738V36.5033H27.5338H27.4037H27.1485L27.0234 36.6278H25.8774L25.7523 36.5033H25.4971H25.372L25.2419 36.3738H25.1168V36.2493L24.4813 35.6169V35.4874L24.3562 35.363V35.2384H24.2261V34.855L24.101 34.7306V33.9736L24.2261 33.8442V33.4658H24.3562V33.3412L24.4813 33.2118V33.0873L25.1168 32.3254H25.2419L25.372 32.2009H25.4971V32.0764H25.7523H27.1485H27.4037L27.5338 32.2009H27.6589V32.3254H27.784L27.9141 32.4549L28.2945 32.8334V32.9578H28.4195V33.0873L28.5496 33.2118V33.3412H28.6748V33.4658L28.8049 33.5902V33.9736H28.93V34.606H28.8049V35.109L28.6748 35.2384L28.5496 35.363V35.4874L28.4195 35.6169V35.7414H28.2945V35.8709Z" fill="#D2D8E6"/>
<path d="M27.6589 42.0655H27.5338V42.195H27.4037H27.1485V42.3195H27.0234L26.8983 42.4439H25.8774V42.3195H25.7523L25.6272 42.195H25.4971H25.372V42.0655H25.2419V41.9409H25.1168V41.8115V41.687V41.5625H24.9917V41.3086H24.8616V40.5466H24.9917V40.2977H25.1168V40.1683V40.0438V39.9143H25.2419V39.7899H25.372V39.6652H25.4971H25.6272H25.7523V39.5359H25.8774L26.0075 39.4113H26.8983V39.5359H27.1485V39.6652H27.2786H27.4037H27.5338V39.7899H27.6589V39.9143V40.0438V40.1683H27.784V40.2977H27.9141V40.6761L28.0392 40.8007V41.0547L27.9141 41.1791V41.5625H27.784V41.687L27.6589 41.8115V41.9409V42.0655Z" fill="#D2D8E6"/>
<path d="M27.1485 47.0003V47.1248H27.0234V47.2542H26.7682H25.8775H25.7523L25.372 46.8708V46.7464H25.2419V46.6218H25.1168V45.9894L25.2419 45.86V45.606H25.372V45.4814H25.4971V45.357H25.6272H25.7523V45.2275H25.8775V45.103H26.6431V45.2275H26.8983L27.0234 45.357H27.1485V45.4814L27.2786 45.606V45.7355H27.4037V46.1139H27.5338V46.2384L27.4037 46.3678V46.6218L27.2786 46.7464V46.8708H27.1485V47.0003Z" fill="#D2D8E6"/>
<path d="M26.7682 51.2978L26.6431 51.4271H26.513V51.5517H26.2628V51.6812H26.1327V51.5517H25.7524V51.4271L25.4971 51.1732V51.0487H25.3721V50.5409L25.4971 50.4164L25.7524 50.1623V50.0328H26.513V50.1623H26.6431L26.8983 50.4164L27.0234 50.5409V51.0487H26.8983V51.1732L26.7682 51.2978Z" fill="#D2D8E6"/>
<path d="M16.855 27.8985L16.5998 27.6496L16.3446 27.3956V27.2661L16.2195 27.1417V27.0172V26.5093L16.0944 26.3847V26.0013L16.2195 25.8768V25.4984V25.3689V25.1199H16.3446L16.4747 24.9904V24.866H16.5998V24.7365L16.855 24.4875L16.9801 24.358H17.1102V24.2336H17.2353L17.3654 24.1041H17.4905V23.9796H17.7457V23.8551H19.1419L19.272 23.9796H19.3971V24.1041H19.5222L19.6523 24.2336H19.7774L20.0326 24.4875H20.1578V24.612L20.5431 24.9904V25.1199H20.6682V25.3689V25.6228L20.7933 25.7523V26.7632H20.6682V27.0172V27.2661L20.5431 27.3956V27.5201H20.4129V27.6496L20.1578 27.7741V27.8985H20.0326V28.028L19.9075 28.1525H19.7774V28.282H19.5222H19.3971V28.4065H19.1419L19.0168 28.5309H17.8709L17.7457 28.4065H17.4905V28.282H17.3654H17.2353L17.1102 28.1525H16.9801L16.855 27.8985Z" fill="#D2D8E6"/>
<path d="M10.7549 27.2661H10.6248V27.1417L10.4997 27.0172H10.3746V26.7632V26.3847H10.2445V25.8769H10.3746V25.6229V25.3689L10.4997 25.2445V25.1199H10.6248H10.7549V24.9905H10.88V24.866H11.0101V24.7365H11.2604V24.6121H12.4063V24.7365H12.5314L12.6615 24.866H12.7866V24.9905H12.9167V25.1199H13.0418V25.2445H13.1669V25.4984L13.297 25.6229V25.7523H13.4222V26.5093H13.297V26.7632L13.1669 26.8877V27.0172H13.0418V27.1417V27.2661H12.9167V27.3956H12.7866L12.6615 27.5201H12.5314V27.6496H12.4063H12.2812H11.3904H11.0101V27.5201L10.7549 27.2661Z" fill="#D2D8E6"/>
<path d="M5.79581 26.8878H5.6707V26.7632H5.54059V26.5093H5.41548V26.3848L5.29041 26.2553V25.7524H5.41548V25.4984H5.54059V25.3689H5.6707V25.2445L5.79581 25.12H5.92593H6.05104V24.9905H6.94175L7.06686 25.12H7.19697H7.32208L7.4472 25.3689V25.4984H7.57731V25.7524H7.70238V26.3848H7.57731V26.5093H7.4472V26.7632H7.32208V26.8878V27.0172H7.19697H6.94175L6.81167 27.1417H6.17611L6.05104 27.0172H5.92593H5.79581V26.8878Z" fill="#D2D8E6"/>
<path d="M1.47726 26.3847H1.34714H1.22203V26.1308H1.09192V25.7523H1.22203V25.4984H1.34714V25.3689H1.47726V25.2445H1.60237V25.1199H2.23789V25.2445H2.49308V25.3689H2.61819V25.6229H2.7483V26.2553H2.61819V26.3847H2.49308V26.5093H2.23789V26.6337H1.98267V26.7632L1.85755 26.6337H1.60237V26.5093H1.47726V26.3847Z" fill="#D2D8E6"/>
<path d="M36.3011 24.4875L36.5562 24.866V24.9904H36.6814V25.1199H36.8115V25.3689H36.9366V25.7523H37.0667V26.6337L36.9366 26.7632V27.0172H36.8115V27.2661L36.5562 27.5201V27.6496L36.0458 28.1525H35.9207V28.282H35.7957H35.5404V28.4065H35.2852V28.5309H34.0142V28.4065H33.7589V28.282H33.5037H33.3786V28.1525H33.2535L33.1234 28.028L32.7431 27.6496L32.618 27.3956V27.2661L32.4879 27.1417V27.0172H32.3628V26.5093H32.2327V25.8768L32.3628 25.7523V25.4984L32.4879 25.3689V25.1199H32.618L32.7431 24.9904V24.866V24.7365L33.3786 24.2336L33.5037 24.1041H33.6338L33.7589 23.9796H34.0142V23.8551H35.2852L35.4103 23.9796H35.5404L35.6655 24.1041H35.7957L35.9207 24.2336L36.0458 24.358L36.1759 24.4875H36.3011Z" fill="#D2D8E6"/>
<path d="M42.2761 25.1199H42.4012V25.2445H42.5313V25.3689H42.6564V25.6228H42.7865V25.7523L42.9117 25.8769V26.6337L42.7865 26.7632V27.0172H42.6564L42.5313 27.1417V27.2661H42.4012V27.3956H42.2761V27.5201V27.6496H42.0209H41.7657L41.6406 27.7741H40.88V27.6496H40.4946H40.3695V27.5201L40.2445 27.3956H40.1143V27.1417H39.9892V27.0172H39.8591V26.8877H39.734V26.3847V26.1308V25.7523H39.8591V25.4984L40.1143 25.2445V25.1199H40.2445H40.3695V24.9904H40.4946V24.866H40.7499V24.7365H41.7657L41.8958 24.866H42.0209L42.151 24.9904H42.2761V25.1199Z" fill="#D2D8E6"/>
<path d="M47.3603 25.6228V25.4984L47.4855 25.7523H47.6156V26.0013H47.7406V26.6337L47.6156 26.7632V27.0172H47.4855L47.3603 27.2661H47.2352V27.3956H46.98V27.5201H46.2144L46.0893 27.3956L45.9642 27.2661H45.8341V27.1417H45.709V27.0172H45.5788V26.8877H45.4537V25.8768H45.5788V25.7523H45.709V25.6228H45.8341V25.4984H45.9642L46.0893 25.3689V25.2444H46.98L47.1051 25.3689H47.2352V25.4984H47.3603V25.6228Z" fill="#D2D8E6"/>
<path d="M51.809 25.8769V26.0013V26.2552H51.9341V26.8877H51.809V27.0172L51.6839 27.1417H51.5538V27.2661H50.9183L50.7931 27.1417H50.663V27.0172H50.538V26.7632H50.4128V26.3847H50.538V26.1308V25.8769H50.663L50.7931 25.7523H51.0484H51.2986H51.4287H51.6839V25.8769H51.809Z" fill="#D2D8E6"/>
<path d="M18.5063 20.6931V20.0607L18.6365 19.9312V19.6772L18.7615 19.5527V19.4283V19.2988L18.8866 19.1743L19.0168 19.0448L19.3971 18.6664H19.5222L19.6523 18.5419H19.7774V18.4124H20.0326V18.2879H20.2878L20.4129 18.1634H21.3037V18.2879H21.684V18.4124H21.9392V18.5419L22.0643 18.6664H22.1944L22.5747 18.9203V19.0448L22.6998 19.1743V19.2988H22.8299V19.4283H22.955V19.5527L23.0851 19.6772V19.9312L23.2102 20.0607V21.196L23.0851 21.3255V21.4499L22.955 21.5745V21.704L22.8299 21.8284L22.6998 21.9579L22.5747 22.0823V22.2069L22.1944 22.5903H22.0643H21.9392V22.7148H21.684V22.8393H21.3037L21.1785 22.9688H20.4129V22.8393H20.0326V22.7148H19.7774V22.5903H19.6523H19.5222H19.3971L18.7615 21.9579V21.8284V21.704V21.5745L18.6365 21.4499V21.3255L18.5063 21.196V20.6931Z" fill="#D2D8E6"/>
<path d="M14.5681 15.8828V15.6338H14.6932V15.2504H14.8233V15.0014H14.9485L15.2036 14.618H15.3287V14.4935H15.4589L15.584 14.369H15.7091H15.8392H16.4747H16.5998H16.855V14.4935H16.9801V14.618H17.2353V14.7475H17.3654V14.8719L17.4905 15.0014V15.2504H17.6156V15.5044L17.7458 15.6338V16.2662H17.6156V16.5152H17.4905V16.7692V16.8986H17.3654L17.2353 17.0232L17.1102 17.1476H16.9801V17.2771H16.855V17.4016H16.3446V17.531H15.9643V17.4016H15.584V17.2771H15.4589L15.3287 17.1476H15.2036V17.0232H15.0735V16.8986H14.9485V16.7692L14.8233 16.6447V16.5152L14.6932 16.3908V16.2662L14.5681 16.1368V15.8828Z" fill="#D2D8E6"/>
<path d="M11.3905 12.0884H11.2604L11.3905 11.9638V11.7099L11.5156 11.5853V11.4559H11.6457V11.3314V11.207H11.7708H11.8959V11.0775H12.1511V10.9529H12.9167V11.0775H13.0418V11.207H13.1669H13.2971L13.4222 11.3314V11.4559H13.5522V11.7099H13.6774V12.4718H13.5522V12.5962L13.4222 12.7208V12.8502H13.2971V12.9747H13.1669V13.1042H13.0418H12.026H11.7708V12.9747H11.6457V12.8502V12.7208L11.5156 12.5962V12.4718H11.3905V12.0884Z" fill="#D2D8E6"/>
<path d="M8.46802 8.67726V8.54779H8.59313V8.29386H8.71824V8.1694H8.84835V8.04486H8.97346H9.7391H9.86417V8.1694H9.98928V8.42333H10.1194V9.05573H9.98928V9.30967H9.86417H9.7391V9.4342H9.48388L9.35376 9.55866H9.22865V9.4342H8.97346V9.30967H8.84835H8.71824V9.18027H8.59313V8.92626H8.46802V8.67726Z" fill="#D2D8E6"/>
<path d="M34.6497 31.947V32.7088H34.5246V32.8334L34.3945 32.9578V33.0873L34.2694 33.2118V33.3412L34.0142 33.5902L33.8891 33.7197L33.6339 33.9736H33.5038L33.3787 34.0982H33.1234V34.2226H32.7432V34.3521H31.8524L31.7273 34.2226H31.4721V34.0982H31.2169L30.9617 33.9736H30.8365L30.7114 33.7197L30.5814 33.5902L30.4562 33.4658L30.3261 33.3412H30.201V33.0873V32.8334H30.0759V32.7088L29.9458 32.5794V31.444L30.0759 31.3145V31.0606H30.201V30.8116L30.3261 30.6821V30.5577L30.4562 30.4282L30.5814 30.3037L30.8365 30.0497H30.9617L31.0918 29.9253H31.2169L31.347 29.7958H31.4721V29.6713H31.8524L31.9825 29.5468H32.7432V29.6713H32.9983L33.1234 29.7958H33.3787V29.9253L33.5038 30.0497H33.6339L34.2694 30.6821V30.8116H34.3945V30.9361L34.5246 31.0606V31.3145H34.6497V31.947Z" fill="#D2D8E6"/>
<path d="M38.4629 36.6278V37.0062V37.2603L38.3378 37.3848V37.5142L38.2077 37.6387L37.8274 37.8926V38.0171H37.7023L37.5722 38.1466H37.317V38.271H36.5563V38.1466H36.3011L36.176 38.0171H36.0459V37.8926H35.9208V37.7682H35.7957L35.6656 37.6387V37.5142H35.5405V37.3848L35.4104 37.2603V37.0062H35.2853V36.3739H35.4104V35.9954H35.5405V35.8709H35.6656V35.7415H35.7957V35.6169H35.9208V35.4875V35.363H36.0459V35.2385H36.3011H36.4313H36.6814L36.8115 35.1091H37.0668L37.1919 35.2385H37.4471H37.5722H37.8274V35.363V35.4875H37.9525V35.6169H38.0826V35.7415H38.2077V35.8709H38.3378V35.9954H38.4629V36.3739V36.6278Z" fill="#D2D8E6"/>
<path d="M41.6406 40.4222H41.7656L41.6406 40.5467V40.9302V41.0547L41.3853 41.3086V41.4331H41.1301V41.5625H41.005H40.2444H39.9892V41.4331H39.8591V41.3086H39.7339V41.1791V41.0547H39.6088V40.9302H39.4788V40.1683H39.6088V39.9143H39.7339V39.7899V39.6653H39.8591L39.9892 39.5359H40.1143L40.2444 39.4113H41.005V39.5359H41.2602V39.6653H41.3853H41.5154V39.7899H41.6406V40.0438V40.4222Z" fill="#D2D8E6"/>
<path d="M44.563 43.8383V44.0922H44.4379V44.2167H44.3078V44.3413L44.1827 44.4707V44.5952H43.422V44.4707H43.2919L43.0367 44.2167V44.0922H42.9116V43.4599H43.0367L43.2919 43.2059H43.422V43.0765H43.6723V42.9518L43.8024 43.0765H44.1827V43.2059L44.3078 43.3304V43.4599H44.4379L44.563 43.5843V43.8383Z" fill="#D2D8E6"/>
<path d="M20.9234 34.2226H20.4129L20.2878 34.0982H20.0326V33.9736H19.7774L19.5222 33.8442H19.3971V33.7197L19.272 33.5902L18.8866 33.3412V33.2118H18.7615V33.0873V32.9578V32.7088H18.6365V32.5794L18.5063 32.4549V31.3145L18.6365 31.1901V30.9361H18.7615V30.8116L18.8866 30.5577V30.4282L19.3971 29.9253H19.5222L19.6523 29.7958H19.7774L19.9075 29.6713H20.0326V29.5468H20.4129H20.543H21.3037H21.5589L21.684 29.6713H21.9392V29.7958L22.0643 29.9253H22.1944L22.5747 30.1792V30.3037L22.8299 30.5577V30.6821L22.955 30.8116L23.0851 30.9361V31.1901H23.2102V32.5794H23.0851V32.7088L22.955 32.8334V32.9578L22.8299 33.0873V33.2118L22.5747 33.3412V33.4658L22.4496 33.5902L22.3195 33.7197L22.1944 33.8442H22.0643L21.9392 33.9736H21.684V34.0982H21.3037V34.2226H20.9234Z" fill="#D2D8E6"/>
<path d="M16.2195 38.017H15.584V37.8926H15.4589L15.3287 37.7681H15.2036H15.0735L14.9485 37.6386V37.5142V37.3847H14.8233V37.2603L14.6932 37.1356L14.5681 37.0062V35.9954L14.6932 35.8709L14.8233 35.7414V35.6169H14.9485V35.4874L15.0735 35.2384H15.2036H15.3287L15.4589 35.109H15.584V34.9845H16.5998V35.109H16.855V35.2384H16.9801H17.1102L17.2353 35.363L17.3654 35.4874V35.6169H17.4905V35.7414V35.8709L17.6157 35.9954V37.0062L17.4905 37.1356V37.2603V37.3847H17.3654V37.5142L17.1102 37.7681H16.9801H16.855V37.8926H16.5998V38.017H16.2195Z" fill="#D2D8E6"/>
<path d="M12.4063 41.3086L12.2812 41.4331L12.1511 41.3086H12.026L11.8959 41.1792H11.6457V41.0547L11.3904 40.9303V40.8008H11.2604V40.6762L11.1353 40.5467V39.6653H11.2604V39.536H11.3904V39.4114H11.5156V39.2819H11.6457V39.1574L11.7708 39.033H12.026H12.1511H12.4063H12.7866V39.1574H13.0418V39.2819V39.4114H13.1669V39.536L13.297 39.6653L13.4222 39.7899V40.4222L13.297 40.5467V40.8008H13.1669V40.9303H13.0418V41.0547H12.9167L12.7866 41.1792H12.5314V41.3086H12.4063Z" fill="#D2D8E6"/>
<path d="M8.97339 44.0922H8.46794V43.9627V43.8383H8.33783V43.7088H8.21275V43.4599H8.08264V43.0764H8.21275V42.8274H8.33783L8.46794 42.6979V42.5734H8.84828V42.444H8.97339L9.10346 42.5734H9.35369V42.6979H9.4838V42.8274H9.60891V42.9518H9.73902V43.5843H9.60891V43.8383H9.4838V43.9627H9.22857V44.0922H8.97339Z" fill="#D2D8E6"/>
<path d="M32.2327 18.1634H32.7432H33.1234V18.2879H33.3787V18.4124H33.5038V18.5419H33.6339L33.8891 18.7959H34.0142V18.9203L34.1393 19.0448L34.2694 19.1743V19.2988L34.3945 19.4283L34.5246 19.5527V19.8067H34.6497V20.1851V20.3097V20.6931V21.196H34.5246V21.3255L34.3945 21.4499V21.5745L34.2694 21.704V21.8284L34.0142 21.9579V22.0824V22.2069H33.8891L33.6339 22.4608H33.5038V22.5903H33.3787H33.1234V22.7148H32.7432V22.8393H31.9825L31.8524 22.7148H31.4721V22.5903H31.347H31.2169H31.0918L30.9617 22.4608H30.8365V22.3364L30.5814 22.0824L30.4562 21.9579H30.3261V21.8284L30.201 21.704V21.5745V21.3255H30.0759V21.0716L29.9458 20.9421V20.0607L30.0759 19.9312V19.5527H30.201V19.4283V19.1743H30.3261V19.0448H30.4562V18.9203L30.5814 18.7959L30.8365 18.6664V18.5419H30.9617L31.0918 18.4124H31.2169L31.347 18.2879H31.4721V18.1634H31.7273H31.8524H32.2327Z" fill="#D2D8E6"/>
<path d="M36.9365 14.369H37.447H37.5721H37.8273V14.4935L37.9524 14.618H38.0825V14.7475H38.2076V14.8719H38.3377V15.0014H38.4628V15.2504V15.6338H38.5879V16.0123L38.4628 16.1368V16.3908V16.6447H38.3377V16.8986H38.2076H38.0825V17.0232H37.9524V17.1476H37.8273V17.2771H37.5721L37.447 17.4016H36.5562V17.2771H36.301L36.1759 17.1476H36.0458V17.0232H35.9207V16.8986H35.7956V16.7692L35.6655 16.6447V16.5152H35.5404V16.2662H35.4103V15.5044H35.5404V15.126H35.6655V15.0014H35.7956V14.8719H35.9207V14.7475V14.618H36.0458L36.1759 14.4935H36.301V14.369H36.5562H36.9365Z" fill="#D2D8E6"/>
<path d="M40.88 11.0775V10.9529L41.0051 11.0775L41.1302 11.207H41.3854H41.6406V11.3314V11.4559H41.7657V11.7099H41.8958V11.8394L42.0209 11.9638V12.4718H41.8958V12.7208H41.7657V12.9747H41.6406V13.1042H41.5155H41.3854V13.2286H41.0051V13.3532H40.6248V13.2286H40.3695V13.1042H40.2445H40.1143H39.9892V12.9747L39.8591 12.8502V12.7208H39.734V12.4718V11.9638V11.7099H39.8591V11.5853L39.9892 11.4559V11.3314H40.1143V11.207H40.3695H40.4946L40.6248 11.0775H40.88Z" fill="#D2D8E6"/>
<path d="M44.1826 8.29382H44.563V8.4233H44.6931L44.8182 8.54776V8.67723H44.9433V9.30964H44.8182V9.55863V9.6881H44.6931L44.563 9.81264H44.3077V9.94211H44.0575V9.81264H43.8023V9.6881H43.5471V9.55863V9.43417V9.30964H43.422V8.80177H43.5471V8.67723V8.54776H43.6722V8.4233H43.8023V8.29382H44.1826Z" fill="#D2D8E6"/>
</svg>
