<svg width="82" height="50" viewBox="0 0 82 50" fill="none" xmlns="http://www.w3.org/2000/svg">
<g clip-path="url(#clip0)">
<path d="M23.2358 17.8964C23.2358 18.8937 23.3434 19.7022 23.5317 20.2952C23.7468 20.8881 24.0157 21.535 24.3923 22.2358C24.5267 22.4514 24.5805 22.667 24.5805 22.8557C24.5805 23.1252 24.4191 23.3947 24.0695 23.6642L22.3753 24.7962C22.1332 24.958 21.8912 25.0388 21.676 25.0388C21.4071 25.0388 21.1382 24.904 20.8692 24.6615C20.4927 24.2572 20.17 23.826 19.9011 23.3947C19.6321 22.9365 19.3632 22.4244 19.0674 21.8045C16.9697 24.2841 14.3342 25.524 11.1608 25.524C8.90172 25.524 7.09987 24.8771 5.7821 23.5834C4.46432 22.2897 3.79199 20.5647 3.79199 18.4085C3.79199 16.1176 4.59879 14.2579 6.23928 12.8563C7.87977 11.4548 10.0581 10.754 12.8281 10.754C13.7425 10.754 14.6838 10.8349 15.6788 10.9697C16.6739 11.1044 17.6958 11.32 18.7716 11.5626V9.59509C18.7716 7.5467 18.3413 6.11823 17.5076 5.2827C16.647 4.44718 15.1947 4.04289 13.124 4.04289C12.1827 4.04289 11.2145 4.1507 10.2195 4.39327C9.22444 4.63584 8.25628 4.93232 7.31501 5.30965C6.88472 5.49832 6.562 5.60613 6.37375 5.66004C6.1855 5.71394 6.05103 5.74089 5.94346 5.74089C5.56695 5.74089 5.3787 5.47137 5.3787 4.90537V3.5847C5.3787 3.15346 5.43248 2.83003 5.56695 2.64137C5.70142 2.4527 5.94346 2.26403 6.31996 2.07537C7.26123 1.59022 8.39074 1.18594 9.70852 0.862509C11.0263 0.512128 12.4247 0.350414 13.9039 0.350414C17.1042 0.350414 19.4439 1.07813 20.9499 2.53356C22.429 3.98899 23.1821 6.19908 23.1821 9.16385V17.8964H23.2358ZM12.3172 21.9932C13.2046 21.9932 14.119 21.8315 15.0872 21.508C16.0553 21.1846 16.9159 20.5917 17.642 19.7831C18.0723 19.271 18.395 18.705 18.5564 18.0581C18.7178 17.4113 18.8253 16.6297 18.8253 15.7133V14.5813C18.0454 14.3926 17.2117 14.2309 16.3512 14.1231C15.4906 14.0153 14.6569 13.9614 13.8232 13.9614C12.0213 13.9614 10.7036 14.3118 9.81609 15.0395C8.92861 15.7672 8.49832 16.7914 8.49832 18.139C8.49832 19.4058 8.82104 20.3491 9.49337 20.996C10.1388 21.6698 11.0801 21.9932 12.3172 21.9932ZM33.9125 24.904C33.4284 24.904 33.1057 24.8232 32.8905 24.6345C32.6754 24.4728 32.4871 24.0955 32.3258 23.5834L26.0058 2.74918C25.8445 2.21013 25.7638 1.85975 25.7638 1.67108C25.7638 1.23984 25.979 0.997271 26.4093 0.997271H29.0448C29.5558 0.997271 29.9054 1.07813 30.0936 1.2668C30.3088 1.42851 30.4701 1.80584 30.6315 2.31794L35.1496 20.1604L39.3449 2.31794C39.4794 1.77889 39.6407 1.42851 39.8559 1.2668C40.071 1.10508 40.4475 0.997271 40.9316 0.997271H43.0831C43.5941 0.997271 43.9437 1.07813 44.1588 1.2668C44.374 1.42851 44.5622 1.80584 44.6698 2.31794L48.9189 20.376L53.5715 2.31794C53.7328 1.77889 53.9211 1.42851 54.1093 1.2668C54.3245 1.10508 54.6741 0.997271 55.1582 0.997271H57.6593C58.0895 0.997271 58.3316 1.21289 58.3316 1.67108C58.3316 1.80584 58.3047 1.94061 58.2778 2.10232C58.2509 2.26403 58.1971 2.47965 58.0895 2.77613L51.6083 23.6103C51.4469 24.1494 51.2586 24.4998 51.0435 24.6615C50.8284 24.8232 50.4787 24.931 50.0216 24.931H47.7087C47.1978 24.931 46.8481 24.8501 46.633 24.6615C46.4179 24.4728 46.2296 24.1224 46.122 23.5834L41.9536 6.19908L37.812 23.5564C37.6775 24.0955 37.5162 24.4459 37.301 24.6345C37.0859 24.8232 36.7094 24.904 36.2253 24.904H33.9125ZM68.4704 25.6318C67.0719 25.6318 65.6735 25.47 64.3288 25.1466C62.9841 24.8232 61.9353 24.4728 61.2361 24.0685C60.8058 23.826 60.5099 23.5564 60.4024 23.3139C60.2948 23.0713 60.241 22.8018 60.241 22.5592V21.1846C60.241 20.6186 60.4562 20.3491 60.8596 20.3491C61.0209 20.3491 61.1823 20.376 61.3436 20.43C61.505 20.4839 61.747 20.5917 62.016 20.6995C62.9303 21.1038 63.9254 21.4272 64.9742 21.6428C66.05 21.8584 67.0988 21.9662 68.1745 21.9662C69.8688 21.9662 71.1866 21.6698 72.101 21.0768C73.0153 20.4839 73.4994 19.6214 73.4994 18.5163C73.4994 17.7617 73.2574 17.1418 72.7733 16.6297C72.2892 16.1176 71.3748 15.6594 70.0571 15.2281L66.1575 14.0153C64.1943 13.3954 62.7421 12.479 61.8546 11.2661C60.9671 10.0802 60.5099 8.75956 60.5099 7.35804C60.5099 6.22604 60.752 5.2288 61.2361 4.36632C61.7201 3.50384 62.3656 2.74918 63.1724 2.15622C63.9792 1.53632 64.8935 1.07813 65.9693 0.7547C67.045 0.431271 68.1745 0.296509 69.3578 0.296509C69.9495 0.296509 70.568 0.323461 71.1597 0.404318C71.7782 0.485176 72.343 0.592985 72.9078 0.700795C73.4456 0.835557 73.9566 0.970319 74.4407 1.13203C74.9247 1.29375 75.3013 1.45546 75.5702 1.61718C75.9467 1.8328 76.2156 2.04841 76.377 2.29099C76.5383 2.50661 76.619 2.80308 76.619 3.18042V4.44718C76.619 5.01318 76.4039 5.30965 76.0005 5.30965C75.7853 5.30965 75.4357 5.20185 74.9785 4.98623C73.4456 4.28546 71.7244 3.93508 69.815 3.93508C68.2821 3.93508 67.0719 4.17765 66.2382 4.68975C65.4045 5.20185 64.9742 5.98346 64.9742 7.08851C64.9742 7.84318 65.2432 8.49004 65.781 9.00213C66.3189 9.51423 67.3139 10.0263 68.7393 10.4845L72.5581 11.6974C74.4944 12.3173 75.8929 13.1798 76.7266 14.2848C77.5603 15.3899 77.9637 16.6566 77.9637 18.0581C77.9637 19.2171 77.7216 20.2682 77.2645 21.1846C76.7804 22.101 76.1349 22.9096 75.3013 23.5564C74.4676 24.2302 73.4725 24.7154 72.3161 25.0658C71.1059 25.4431 69.8419 25.6318 68.4704 25.6318Z" fill="#D2D8E6"/>
<path fill-rule="evenodd" clip-rule="evenodd" d="M73.5532 38.7306C64.7053 45.2801 51.8503 48.7569 40.7972 48.7569C25.3066 48.7569 11.349 43.0161 0.806832 33.4749C-0.0268604 32.7203 0.726152 31.6961 1.7212 32.289C13.124 38.9193 27.1891 42.9352 41.7384 42.9352C51.5545 42.9352 62.3387 40.8868 72.2623 36.6823C73.7414 36.0085 75.0054 37.6526 73.5532 38.7306Z" fill="#D2D8E6"/>
<path fill-rule="evenodd" clip-rule="evenodd" d="M77.2376 34.5261C76.108 33.0706 69.7612 33.8253 66.8836 34.1757C66.0231 34.2835 65.8886 33.5288 66.6685 32.9628C71.7244 29.4051 80.0345 30.4293 81.0026 31.6152C81.9708 32.8281 80.7337 41.1563 76.0005 45.1453C75.2744 45.7652 74.5751 45.4418 74.8978 44.6332C75.9736 41.9649 78.3671 35.9545 77.2376 34.5261Z" fill="#D2D8E6"/>
</g>
<defs>
<clipPath id="clip0">
<rect width="81.7556" height="49.0534" fill="white"/>
</clipPath>
</defs>
</svg>
