<?xml version="1.0" encoding="utf-8"?>
<!-- Generator: Adobe Illustrator 25.2.1, SVG Export Plug-In . SVG Version: 6.00 Build 0)  -->
<svg version="1.1" id="Layer_1" xmlns="http://www.w3.org/2000/svg" xmlns:xlink="http://www.w3.org/1999/xlink" x="0px" y="0px"
	 viewBox="0 0 512 512" style="enable-background:new 0 0 512 512;" xml:space="preserve">
<style type="text/css">
	.st0{opacity:0.1;fill:#88B98F;}
	.st1{fill:#88B98F;}
	.st2{opacity:0.1;}
	.st3{fill-rule:evenodd;clip-rule:evenodd;fill:#88B98F;}
	.st4{fill-rule:evenodd;clip-rule:evenodd;fill:#56656E;}
	.st5{opacity:0.5;fill-rule:evenodd;clip-rule:evenodd;fill:#88B98F;}
	.st6{fill-rule:evenodd;clip-rule:evenodd;fill:#FFFFFF;}
	.st7{fill-rule:evenodd;clip-rule:evenodd;fill:#527256;}
	.st8{opacity:0.5;fill-rule:evenodd;clip-rule:evenodd;fill:#D8D8D8;}
	.st9{fill:#FFFFFF;}
</style>
<path class="st3" d="M319.4,106.7l6.8,11.1l3.2,4.3l11.8,21.3l19.7,33.8c-0.9-0.1-16.5-25.6-18.4-29.1l-3.6-6.6l-0.7-2.1l-0.8-0.9
	l-4.9-8.8c-1.4-2.3-2.3-3.8-2.8-4.6c-0.5-0.9-0.8-1.5-1.2-1.9l-5.3-7.9l-2.6-3.9C319.9,109.5,319.5,108,319.4,106.7L319.4,106.7z
	 M299,88.2l6.5,7.8l2.3,2.7c1,1.5,1.6,2.4,1.9,2.6c0.6,0.6,0.9,1.1,1.2,1.5c0.2,0.2,0.6,0.6,1.2,1.4c0.7,1.1,1.5,2.3,2.3,3.4
	c0.8,0.9,1.3,1.6,1.5,2l4.9,7l2.4,4l1,1.3c0.2,0.2,1.3,2.2,3.4,6l4.4,7.3l1.4,1.6l1,3l3.5,5.5h0.7l0.8-1.9l-10.5-18.3l-1.2-1.6
	l-6.1-9.4l-1.8-2.3V111l-9.2-11.3l-5.5-7.3l-2.5-1.5l-0.5-1.3l-2.7-2l-1.4-1.5l-2.1-1.3L299,88.2L299,88.2z M305.4,86l6.7,8.7
	l4.3,5.9l7.5,10.9l1.3,1.8l2.1,3.3l4.9,7.3l4.7,8.2l4.2,7.3l3.4,7.8l1.1,1.6l2,1l3.8,7.8l0.7,0.4l0.6-0.6l-1.9-3.2l-2.8-6.2
	l-6.7-13.1l-4.1-7l-4.1-7.2l-4.7-6.4l-1.9-4l-7.6-10.4l-2.3-3.3l-0.4-0.1l-2.6-3.3l-2.1-2.5l-1.9-1.3l-4.1-4.7l-8-7.8L305.4,86
	L305.4,86z M360.1,159.5l-3.7-4.7l-4.9-10.4l0.2-0.6l-3.1-4.8c-0.6-0.9-1.1-1.9-1.6-2.8c-0.5-0.9-0.9-1.5-1.1-1.8
	c-0.2-0.3-0.3-0.6-0.4-0.9c-0.2-0.3-0.3-0.5-0.4-0.6c-0.5-1.3-1.1-2.6-2-3.7l5.4,6c-0.8-1.2-1.6-2.6-2.4-4c-0.4-0.7-1-1.9-1.9-3.7
	c-0.2-0.3-0.4-0.6-0.4-0.7c-0.1-0.1-0.3-0.5-0.6-1.2l-2.9-5.6l-9.3-14.4l-7.3-10.1l-7.1-8.9l1.3,2.9l2.3,2.8l8.6,11.5l8.4,13
	l1.2,2.1l0.2,1.1l-4.9-7.2l-3.1-4.8l-2.6-2.3l-4.6-7.8l-2.8-3l-1.2-2.3c-0.8-1.2-2.1-2.6-3.7-4L308,80l-2.6-1.4l4.6,4.8l1.6,2.9
	c1,0.8,2.2,2.2,3.7,4l1.8,2.1l0.1,0.8l1.1,0.7l1,1.4l6.7,9.2l2.7,3.7l6.2,10.3l2,3.2l4,5.9l1.2,3.2l3.9,8l4.9,8.1l2.4,3.2l2.9,6.7
	l-0.1,1.3l7.4,14.4l-6.9-8.7c-0.8-2.5-3.7-9.9-4.3-11.4l-0.9-2.3l-3.9-6.4l-0.9-2.2l-6.5-12.1l-0.5,0.1c0-1-1.3-3.5-4-7.6l-2.6-4
	l-5.9-9.3l-5.3-7.8c-0.2-0.4-1.8-2.5-4.6-6.1c-0.1-0.1-0.3-0.4-0.6-0.8c-0.2-0.4-0.6-0.8-1.1-1.4l-3.5-4.7l-5.6-3.4l-0.6-1.5
	l-0.4-0.6l-1.6-1.6l0.4-1.4l-1.4-1.8l-3.4-1.6l-2.9-2.7l1.2,0.2l0.2-0.7l-6-4.3l-2.9-0.4l1.9,0.7l-0.2,0.8l-1-0.4l-1.1-0.1
	c-1.1-0.9-2.9-1.4-5.3-1.4l-2.9-0.7l-1.5,1l-0.4,0.6l-1.2,0.2l-3.5,1.1l-1.5-0.1l-1.4,1l-0.8,3.5v3.1l-0.2,2.6l0.2-0.8l1,11l0.6,5.8
	l1.5,0.6l3.1,6.1l1.4,4.6l0.7-4.9l2.2,7l0.2,1c0.1,0.5,0.2,1,0.4,1.4l1.8,5.9l1.4,2.1v1.5l0.2,1.2l0.8,0.6l0.8,2.5l1.4-1.1
	c-0.6-2.1-0.9-3.4-0.9-3.9c0-0.7,0-1.2,0.1-1.4c-0.1-1.5-0.4-2.8-1-4l-0.4-2.9l1.1,0.1l-0.8-2.7l-1.5-8.5l-2-10.7l-0.1-4.9v-2.3
	l7.8,5.8l3.7,4.4l11.7,12.3l-2.1-3.1l-5.2-6.2l-9.5-10.1l-3.3-2.4l-0.2-0.6c0.2,0.1,0.4,0.2,0.8,0.3c0.4,0.2,0.8,0.4,1.2,0.6
	c1.5,0.8,2.8,1.6,3.9,2.6l1.5,1.8l5.4,5.6l12.5,15.4l11.1,16.9l3.6,2l10.6,19.4c6.2,1.1,11.3,19.3,25.4,44.7
	C365.9,180.6,368.8,170.5,360.1,159.5z"/>
<path class="st3" d="M311,20.4c4,1.7,7.9,3.5,11.8,5.4c1.7,0.7,3.3,1.3,5,2c7,4.2,13.9,8.6,20.7,13.2c5.4,3.8,10.9,7.7,16.1,12
	c5.3,4.3,10.4,8.9,15.4,13.7c-0.8,0.2-24.8-19.5-28.2-22c-2-1.5-4.2-3-6.2-4.4c-0.5-0.5-1.1-1.1-1.7-1.6c-0.4-0.1-0.8-0.3-1.2-0.4
	c-2.9-1.8-5.7-3.7-8.6-5.5c-2.4-1.3-3.9-2.1-4.7-2.6c-0.9-0.5-1.5-0.9-2-1c-2.9-1.3-5.8-2.6-8.7-3.8c-1.4-0.6-2.9-1.1-4.3-1.7
	C312.9,22.4,311.8,21.4,311,20.4L311,20.4z M282.7,18.4c3.4,0.5,6.8,1.1,10.2,1.7c1.2,0.2,2.3,0.5,3.5,0.7c1.7,0.5,2.8,0.8,3.1,0.8
	c0.8,0.1,1.4,0.3,1.9,0.5c0.2,0,0.8,0.2,1.8,0.4c1.2,0.5,2.5,0.9,3.9,1.3c1.2,0.3,2,0.5,2.4,0.7c2.7,1,5.3,1.9,8,2.9
	c1.4,0.7,2.8,1.4,4.1,2.1c0.5,0.2,1,0.4,1.6,0.5c0.2,0.1,2.3,1.1,6.1,3.4c2.5,1.4,5,2.7,7.4,4.2c0.7,0.3,1.3,0.5,2,0.8
	c0.8,0.7,1.6,1.4,2.4,2.1c1.9,1.1,3.8,2.2,5.7,3.4c0.2-0.1,0.4-0.2,0.6-0.3c-0.1-0.7-0.2-1.4-0.3-2.1c-5.9-3.9-11.9-7.7-18-11.2
	c-0.6-0.3-1.2-0.6-1.9-0.8c-3.4-1.6-6.8-3.1-10.2-4.6c-0.9-0.3-1.8-0.6-2.7-0.9c-0.2-0.3-0.3-0.5-0.5-0.7c-4.7-1.4-9.4-2.5-14.2-3.7
	c-3-0.7-6-1.5-9-2.2c-1,0.1-2.1,0.3-3.1,0.4c-0.4-0.2-0.8-0.4-1.2-0.6c-1.2,0.1-2.4,0.1-3.6,0.2c-0.7-0.1-1.4-0.2-2.1-0.2
	c-0.9,0.2-1.8,0.3-2.7,0.5C279.6,18,281.1,18.2,282.7,18.4L282.7,18.4z M287.1,13c3.6,0.7,7.3,1.5,10.9,2.4c2.3,0.6,4.7,1.3,7,2
	c4.2,1.4,8.3,2.9,12.4,4.5c0.7,0.2,1.4,0.5,2.1,0.7c1.2,0.5,2.4,1.1,3.5,1.7c2.7,1.2,5.3,2.4,8,3.7c2.7,1.6,5.5,3.2,8.2,4.9
	c2.4,1.5,4.8,3,7.2,4.6c2.2,1.9,4.4,3.7,6.6,5.6c0.6,0.4,1.1,0.7,1.7,1.1c0.7,0,1.4,0.1,2.1,0.1c2.3,1.9,4.5,3.9,6.8,5.9
	c0.2,0,0.5,0.1,0.8,0.1c0.1-0.3,0.1-0.5,0.2-0.8c-1-0.8-2-1.6-3-2.4c-1.8-1.6-3.5-3.2-5.3-4.7c-4-3.1-7.9-6.1-12-9.1
	c-2.3-1.4-4.6-2.9-6.9-4.3c-2.4-1.4-4.8-2.8-7.2-4.2c-2.4-1-4.9-2-7.3-2.9c-1.2-0.8-2.5-1.6-3.8-2.3c-4.1-1.4-8.1-2.8-12.2-4.1
	c-1.3-0.4-2.5-0.9-3.8-1.3c-0.1,0-0.3,0.1-0.4,0.1c-1.4-0.3-2.7-0.6-4.1-1c-1.1-0.2-2.2-0.4-3.3-0.6c-0.8,0.1-1.6,0.1-2.4,0.2
	c-2.1-0.3-4.2-0.6-6.4-0.9c-3.9-0.2-7.8-0.3-11.8-0.4C278.8,12,283,12.4,287.1,13L287.1,13z M371.4,48.7c-1.7-1.1-3.5-2.1-5.2-3.2
	c-2.9-2.7-6-5.3-9-7.9c0-0.2-0.1-0.4-0.1-0.7c-1.6-1.1-3.2-2.1-4.9-3.2c-0.9-0.6-1.8-1.2-2.7-1.8c-0.8-0.6-1.5-1-1.8-1.2
	c-0.3-0.2-0.5-0.4-0.8-0.6c-0.3-0.2-0.5-0.3-0.6-0.4c-1.1-1-2.2-1.8-3.5-2.3c2.5,1,5,1.9,7.5,2.9c-1.3-0.8-2.6-1.7-3.9-2.5
	c-0.7-0.5-1.8-1.2-3.4-2.4c-0.3-0.2-0.6-0.3-0.7-0.4c-0.1-0.1-0.5-0.3-1.1-0.8c-1.8-1.2-3.6-2.3-5.3-3.5c-5.1-2.6-10.3-5-15.5-7.3
	c-3.9-1.4-7.8-2.8-11.8-4.1c-3.7-1-7.5-1.9-11.2-2.7c0.9,0.5,1.8,1,2.8,1.5c1.2,0.3,2.4,0.5,3.6,0.8c4.6,1.4,9.2,2.8,13.8,4.3
	c4.7,2,9.4,4.2,14,6.3c0.7,0.4,1.4,0.8,2.1,1.3c0.3,0.3,0.5,0.5,0.8,0.8c-2.6-1.3-5.3-2.5-8-3.6c-1.7-0.8-3.4-1.6-5.2-2.4
	c-1.2-0.1-2.3-0.3-3.5-0.4c-2.7-1.3-5.4-2.5-8.2-3.7c-1.4-0.3-2.7-0.5-4.1-0.7c-0.8-0.4-1.6-0.7-2.3-1.1c-1.4-0.4-3.3-0.7-5.5-0.8
	c-3.8-0.7-7.7-1.2-11.5-1.8c-1,0.2-2.1,0.4-3.1,0.6c2.3,0.2,4.6,0.4,6.9,0.6c1,0.4,2.1,0.7,3.1,1.1c1.4,0,3.2,0.3,5.5,0.8
	c0.9,0.2,1.9,0.4,2.8,0.5c0.2,0.2,0.4,0.4,0.6,0.6c0.4,0,0.9-0.1,1.3-0.1c0.6,0.1,1.1,0.3,1.7,0.5c3.6,1.1,7.3,2.3,10.9,3.5
	c1.4,0.5,2.9,1,4.3,1.5c3.6,1.7,7.2,3.5,10.8,5.4c1.1,0.6,2.2,1.2,3.3,1.7c2.1,1.1,4.2,2.1,6.4,3.2c0.9,0.8,1.7,1.5,2.6,2.3
	c2.4,1.8,4.8,3.6,7.2,5.4c2.7,1.8,5.4,3.6,8,5.4c1.2,0.7,2.3,1.4,3.5,2.1c1.9,1.8,3.7,3.6,5.5,5.4c0.2,0.4,0.3,0.9,0.5,1.3
	c4.2,3.8,8.3,7.8,12.4,11.9c-3.1-2.3-6.2-4.4-9.4-6.5c-1.8-2.2-7.5-8.3-8.8-9.6c-0.6-0.6-1.2-1.2-1.9-1.8c-2.1-1.5-4.2-3-6.3-4.4
	c-0.6-0.5-1.2-1.1-1.9-1.6c-3.8-2.8-7.6-5.4-11.4-8c-0.1,0.1-0.2,0.2-0.3,0.3c-0.5-0.8-2.9-2.4-7.3-4.6c-1.4-0.7-2.8-1.4-4.2-2.1
	c-3.3-1.6-6.6-3.2-10-4.7c-2.9-1.1-5.8-2.3-8.8-3.3c-0.4-0.2-2.9-0.9-7.4-2.1c-0.1,0-0.4-0.1-1-0.3c-0.4-0.2-1-0.3-1.7-0.4
	c-1.9-0.5-3.9-1-5.8-1.5c-2.3,0.3-4.7,0.6-7,0.9c-0.5-0.2-0.9-0.5-1.4-0.7c-0.2-0.1-0.4-0.1-0.7-0.2c-0.8-0.1-1.6-0.1-2.4-0.2
	c-0.2-0.4-0.3-0.8-0.5-1.2c-0.8-0.1-1.5-0.2-2.3-0.3c-1.3,0.3-2.7,0.7-4,1c-1.4,0-2.8,0-4.3,0.1c0.4-0.2,0.8-0.4,1.2-0.6
	c-0.1-0.2-0.1-0.4-0.2-0.6c-2.7,0.4-5.3,0.7-8,1.1c-1,0.5-1.9,1.1-2.9,1.6c0.7-0.3,1.4-0.6,2.1-0.8c0.1,0.2,0.2,0.5,0.3,0.7
	c-0.4,0.2-0.8,0.3-1.2,0.5c-0.4,0.2-0.7,0.4-1.1,0.6c-1.6,0.1-3.5,1-5.7,2.7c-1,0.5-2.1,1-3.1,1.5c-0.3,0.6-0.6,1.1-0.8,1.7
	c0,0.2,0,0.4-0.1,0.7c-0.3,0.3-0.7,0.7-1,1c-0.9,1-1.8,2.1-2.6,3.1c-0.5,0.3-1,0.6-1.5,1c-0.2,0.5-0.4,1.1-0.7,1.6
	c0.5,0.9,0.9,1.9,1.4,2.8c0.6,0.6,1.2,1.3,1.8,1.9c0.4,0.6,0.9,1.2,1.4,1.8c-0.1-0.2-0.2-0.5-0.3-0.7c2.5,2.1,5,4.3,7.5,6.5
	c1.3,1.1,2.6,2.3,4,3.4c0.6-0.2,1.2-0.4,1.7-0.6c2.1,0.7,4.2,1.5,6.3,2.2c1.3,0.8,2.6,1.6,3.9,2.3c-0.7-1.3-1.5-2.6-2.2-4
	c2,1.2,4,2.4,6,3.6c0.3,0.2,0.5,0.4,0.8,0.5c0.4,0.3,0.8,0.6,1.1,0.8c1.6,1.1,3.3,2.1,4.9,3.2c0.8,0.2,1.6,0.5,2.5,0.7
	c0.3,0.4,0.6,0.7,0.9,1.1c0.3,0.2,0.6,0.5,0.9,0.7c0.3,0,0.7,0,1,0c0.7,0.5,1.4,0.9,2.1,1.4c0.2-0.5,0.4-1.1,0.6-1.6
	c-1.7-1.3-2.7-2.1-3-2.4c-0.4-0.5-0.6-0.9-0.7-1.1c-0.9-1-1.9-1.8-3.1-2.3c-0.6-0.6-1.3-1.2-1.9-1.9c0.3-0.2,0.7-0.4,1-0.6
	c-0.8-0.5-1.5-1-2.3-1.5c-2.1-1.7-4.2-3.4-6.2-5.1c-2.7-2.1-5.4-4.2-8.1-6.2c-1-1.1-2-2.2-3-3.3c-0.5-0.5-0.9-1-1.4-1.5
	c3.5-0.4,7-0.8,10.5-1.1c2,0.2,3.9,0.4,5.9,0.7c5.9,0.6,11.7,1.3,17.4,2c-1.2-0.4-2.4-0.7-3.6-1c-2.7-0.5-5.4-1.1-8.1-1.5
	c-4.8-0.5-9.6-0.9-14.4-1.2c-1.5,0.2-2.9,0.3-4.4,0.5c-0.2-0.1-0.4-0.1-0.5-0.2c0.2-0.1,0.5-0.1,0.9-0.3c0.4-0.1,0.9-0.3,1.5-0.4
	c1.9-0.4,3.5-0.7,5-0.7c0.8,0.1,1.6,0.2,2.4,0.2c2.7,0.2,5.4,0.4,8.1,0.6c6.6,1.2,13.2,2.6,19.7,4.2c6.3,2.4,12.5,4.9,18.6,7.6
	c1.4,0,2.8-0.1,4.1-0.1c6.3,3.8,12.6,7.9,18.7,12.1c2.8-0.8,7.6,2.4,14.3,8.5c6.8,6.2,15.3,15.9,26.2,27.5
	c-0.5-7.3-1.3-13.9-3.4-19.7C381,57.7,377.4,52.7,371.4,48.7z"/>
<path class="st4" d="M276.5,425.1c-4.3,0-8.7-0.1-13-0.2c-1.8,0-3.6,0.1-5.4,0.2c-8.1-1.1-16.1-2.4-24.2-3.9
	c-6.5-1.3-13-2.8-19.5-4.6c-6.5-1.8-13-4-19.6-6.5c0.6-0.5,30.6,8.1,34.6,9c2.5,0.6,5,1.1,7.5,1.6c0.7,0.3,1.4,0.6,2.2,0.8
	c0.4,0,0.8,0,1.3-0.1c3.4,0.6,6.7,1.1,10.1,1.6c2.7,0.2,4.5,0.4,5.4,0.5c1,0.1,1.7,0.2,2.2,0.2c3.2,0,6.4,0.1,9.5,0.1
	c1.5,0,3.1-0.1,4.6-0.1C274,424.1,275.5,424.6,276.5,425.1L276.5,425.1z M303.3,415.7c-3.3,0.8-6.7,1.7-10.1,2.5
	c-1.2,0.3-2.3,0.5-3.5,0.8c-1.8,0.2-2.9,0.4-3.2,0.5c-0.8,0.2-1.4,0.3-1.9,0.3c-0.2,0.1-0.8,0.2-1.8,0.3c-1.3,0.1-2.7,0.2-4.1,0.3
	c-1.2,0.2-2.1,0.3-2.5,0.3c-2.8,0.2-5.7,0.3-8.5,0.5c-1.5-0.1-3.1-0.2-4.6-0.2c-0.5,0-1.1,0.1-1.6,0.1c-0.2,0-2.5-0.2-6.9-0.7
	c-2.8-0.3-5.6-0.5-8.5-0.9c-0.7,0-1.4,0-2.2,0c-1-0.3-2-0.7-3-1c-2.2-0.2-4.3-0.6-6.5-0.9c-0.1,0.2-0.3,0.3-0.4,0.5
	c0.4,0.6,0.7,1.2,1.1,1.8c7,1.2,14,2.3,21,3.1c0.7,0,1.4,0,2,0c3.7,0.1,7.5,0.2,11.2,0.2c1-0.1,1.9-0.2,2.9-0.3
	c0.3,0.2,0.5,0.3,0.8,0.5c4.8-0.6,9.7-1.4,14.5-2.2c3-0.5,6.1-1,9.1-1.5c0.9-0.5,1.8-1.1,2.7-1.6c0.4,0,0.9,0.1,1.3,0.1
	c1.1-0.5,2.1-1.1,3.2-1.6c0.7-0.2,1.4-0.4,2.1-0.6c0.8-0.5,1.5-1,2.3-1.5C306.4,414.9,304.9,415.3,303.3,415.7L303.3,415.7z
	 M301.4,422.5c-3.6,0.8-7.3,1.5-10.9,2.1c-2.4,0.3-4.8,0.7-7.2,0.9c-4.4,0.4-8.8,0.6-13.2,0.8c-0.7,0.1-1.5,0.1-2.2,0.2
	c-1.3,0-2.6-0.1-3.9-0.1c-2.9,0-5.8-0.1-8.8-0.2c-3.1-0.4-6.3-0.8-9.4-1.2c-2.8-0.4-5.6-0.9-8.4-1.4c-2.8-0.8-5.5-1.7-8.3-2.5
	c-0.7-0.1-1.3-0.2-2-0.3c-0.6,0.2-1.3,0.5-1.9,0.7c-2.8-0.9-5.7-1.8-8.5-2.7c-0.2,0.1-0.5,0.1-0.7,0.2c0.1,0.3,0.1,0.5,0.2,0.8
	c1.2,0.3,2.5,0.7,3.7,1c2.2,0.8,4.5,1.5,6.7,2.3c4.9,1.3,9.7,2.5,14.6,3.6c2.7,0.4,5.4,0.8,8,1.2c2.8,0.3,5.5,0.6,8.3,1
	c2.6-0.1,5.3-0.1,7.9-0.2c1.5,0.2,2.9,0.4,4.4,0.6c4.3-0.3,8.6-0.7,12.9-1.1c1.3-0.1,2.7-0.2,4-0.3c0.1-0.1,0.2-0.2,0.3-0.3
	c1.4-0.2,2.8-0.5,4.2-0.7c1.1-0.2,2.2-0.5,3.3-0.7c0.7-0.4,1.4-0.7,2.1-1.1c2.1-0.6,4.1-1.1,6.2-1.7c3.7-1.4,7.3-2.8,11-4.3
	C309.4,420.1,305.4,421.4,301.4,422.5L301.4,422.5z M209.9,423.1c2,0.3,4,0.6,6,0.9c3.8,1.3,7.6,2.5,11.4,3.7
	c0.1,0.2,0.2,0.4,0.3,0.6c1.9,0.4,3.8,0.7,5.7,1c1.1,0.2,2.1,0.4,3.2,0.6c1,0.2,1.7,0.3,2.1,0.3c0.4,0.1,0.7,0.2,1,0.2
	c0.3,0,0.6,0.1,0.7,0.1c1.4,0.4,2.8,0.7,4.2,0.7c-2.7,0.1-5.4,0.2-8,0.3c1.5,0.2,3,0.5,4.6,0.8c0.8,0.1,2.1,0.4,4.1,0.8
	c0.4,0.1,0.7,0.1,0.9,0.1c0.2,0,0.6,0.1,1.3,0.3c2.1,0.4,4.2,0.7,6.3,1.1c5.7,0.3,11.4,0.5,17.1,0.6c4.2-0.2,8.3-0.5,12.5-0.9
	c3.8-0.6,7.6-1.2,11.4-1.9c-1-0.1-2.1-0.2-3.1-0.2c-1.2,0.2-2.4,0.4-3.6,0.7c-4.8,0.6-9.6,1.1-14.4,1.5c-5.1,0-10.3-0.1-15.4-0.3
	c-0.8-0.1-1.6-0.2-2.4-0.3c-0.3-0.2-0.7-0.3-1-0.4c2.9,0.1,5.8,0.2,8.7,0.2c1.9,0.1,3.8,0.1,5.7,0.2c1.1-0.3,2.2-0.7,3.3-1
	c3,0.1,6,0.1,9,0.1c1.4-0.3,2.7-0.6,4.1-0.9c0.9,0,1.7,0.1,2.6,0.1c1.5-0.2,3.3-0.6,5.4-1.4c3.8-0.9,7.5-1.9,11.3-2.9
	c0.9-0.6,1.8-1.2,2.6-1.8c-2.2,0.8-4.4,1.5-6.6,2.1c-1.1,0.1-2.2,0.2-3.3,0.2c-1.3,0.5-3,1-5.3,1.4c-0.9,0.2-1.9,0.4-2.8,0.6
	c-0.2-0.1-0.5-0.2-0.7-0.3c-0.4,0.2-0.8,0.4-1.2,0.6c-0.6,0.1-1.2,0.2-1.8,0.2c-3.8,0.4-7.6,0.8-11.4,1.1c-1.5,0.1-3,0.2-4.6,0.3
	c-4-0.2-8-0.4-12-0.7c-1.2-0.1-2.5-0.2-3.8-0.3c-2.4-0.1-4.7-0.2-7.1-0.4c-1.1-0.4-2.2-0.7-3.3-1.1c-2.9-0.7-5.9-1.4-8.8-2.1
	c-3.2-0.5-6.3-1.1-9.5-1.8c-1.3-0.2-2.7-0.3-4-0.5c-2.4-0.9-4.8-1.8-7.2-2.7c-0.3-0.3-0.7-0.7-1-1c-5.4-1.9-10.7-3.8-16.1-6
	c3.7,0.8,7.5,1.5,11.2,2.2c2.5,1.3,10.2,4.6,11.8,5.3c0.8,0.3,1.6,0.6,2.4,0.9c2.5,0.5,5,1.1,7.5,1.6c0.8,0.2,1.6,0.5,2.4,0.7
	c4.6,1,9.1,2,13.7,2.8c0.1-0.1,0.1-0.3,0.2-0.4c0.8,0.6,3.6,1.1,8.5,1.4c1.6,0.1,3.2,0.2,4.7,0.3c3.7,0.1,7.3,0.3,11,0.3
	c3.1-0.1,6.2-0.2,9.4-0.4c0.5,0,3-0.3,7.6-1c0.1,0,0.5-0.1,1-0.1c0.5,0,1-0.1,1.8-0.3c2-0.3,3.9-0.6,5.9-0.9c2-1.2,4-2.4,6-3.6
	c0.5,0,1.1,0.1,1.6,0.1c0.2,0,0.5-0.1,0.7-0.1c0.8-0.3,1.5-0.5,2.3-0.8c0.3,0.3,0.6,0.6,0.9,0.9c0.8-0.2,1.5-0.4,2.3-0.6
	c1.1-0.8,2.2-1.7,3.3-2.5c1.3-0.6,2.6-1.1,3.9-1.8c-0.3,0.4-0.6,0.7-0.8,1.1c0.1,0.2,0.3,0.3,0.4,0.5c2.3-1.4,4.6-2.8,6.9-4.2
	c0.7-0.9,1.4-1.7,2-2.6c-0.5,0.5-1.1,1.1-1.6,1.6c-0.2-0.2-0.4-0.4-0.5-0.5c0.3-0.3,0.6-0.6,0.9-0.9c0.2-0.3,0.5-0.7,0.7-1
	c1.4-0.8,2.8-2.3,4.2-4.7c0.8-0.9,1.5-1.7,2.2-2.6c0-0.6,0.1-1.2,0.1-1.8c-0.1-0.2-0.1-0.4-0.2-0.6c0.2-0.4,0.3-0.9,0.5-1.3
	c0.4-1.3,0.8-2.6,1.2-3.9c0.3-0.5,0.7-1,1-1.5c0-0.6,0-1.2,0-1.8c-0.8-0.7-1.6-1.4-2.4-2c-0.8-0.4-1.6-0.7-2.5-1.1
	c-0.6-0.4-1.3-0.8-2-1.1c0.2,0.2,0.4,0.3,0.5,0.5c-3.1-0.9-6.3-1.9-9.5-2.9c-1.7-0.5-3.3-1-5-1.6c-0.5,0.4-0.9,0.8-1.4,1.2
	c-2.2,0.2-4.5,0.3-6.7,0.5c-1.5-0.2-3-0.4-4.5-0.6c1.2,0.9,2.4,1.8,3.6,2.8c-2.3-0.3-4.6-0.6-6.9-0.9c-0.3-0.1-0.6-0.1-0.9-0.2
	c-0.5-0.1-0.9-0.2-1.3-0.3c-1.9-0.3-3.9-0.7-5.8-1c-0.8,0.1-1.7,0.2-2.5,0.3c-0.4-0.2-0.8-0.5-1.2-0.7c-0.4-0.1-0.7-0.2-1.1-0.3
	c-0.3,0.1-0.6,0.3-1,0.4c-0.8-0.1-1.7-0.3-2.5-0.4c0,0.6,0,1.1,0.1,1.7c2.1,0.5,3.3,0.8,3.7,1c0.5,0.3,0.9,0.6,1.1,0.7
	c1.2,0.6,2.5,0.9,3.8,0.9c0.8,0.3,1.7,0.6,2.5,0.9c-0.2,0.3-0.5,0.6-0.7,0.9c0.9,0.1,1.8,0.3,2.7,0.5c2.6,0.7,5.2,1.5,7.7,2.2
	c3.3,0.9,6.6,1.7,9.9,2.5c1.4,0.6,2.7,1.2,4.1,1.8c0.6,0.3,1.3,0.6,1.9,0.9c-3,1.8-6.1,3.5-9.2,5.2c-1.9,0.6-3.8,1.2-5.7,1.7
	c-5.6,1.8-11.2,3.5-16.8,5c1.2-0.2,2.5-0.3,3.7-0.5c2.7-0.6,5.4-1.2,8.1-1.8c4.6-1.5,9.2-3,13.7-4.6c1.3-0.7,2.6-1.4,3.8-2.2
	c0.2,0,0.4,0,0.6,0c-0.1,0.1-0.4,0.3-0.7,0.6c-0.3,0.3-0.7,0.6-1.2,0.9c-1.5,1.1-3,2-4.4,2.6c-0.8,0.2-1.5,0.5-2.3,0.7
	c-2.6,0.9-5.1,1.8-7.7,2.6c-6.6,1.5-13.2,2.9-19.8,4c-6.7,0.3-13.4,0.5-20.1,0.4c-1.3,0.6-2.5,1.2-3.8,1.7c-7.3-1-14.7-2.2-22-3.7
	c-2.3,1.8-7.9,0.8-16.5-2.1c-8.7-3-20.4-8.5-34.9-14.9c3.4,6.5,6.7,12.3,10.9,16.7C197.6,418.7,202.8,421.8,209.9,423.1z"/>
<path class="st3" d="M347.8,192.8c-3.2-3.6-6-7.1-8.5-10.6c-0.8-1.5-1.5-3-2.1-4.5c-3.6-6.1-6.4-12.2-8.6-18.2
	c-0.6-1.6-1.2-3.2-1.7-4.7c-0.9,0.8-1.1,1.4-0.8,1.9c0.7,1.8,1.2,3.7,1.9,5.5c0.4,0.5,0.7,0.9,1.1,1.4c0,0.4,0,0.7,0,1.1
	c1,2.5,2.2,5,3.4,7.6c1,2.1,1.6,3.5,2.1,4.2c0.5,0.8,0.8,1.4,1,1.8c1.3,2.6,2.9,5.2,4.7,7.8c0.9,1.3,1.7,2.8,2.9,3.9
	C344.8,191.5,346.5,192.2,347.8,192.8L347.8,192.8z M367.6,219.7c-3.1-3.1-6.2-6.3-9.4-9.4c-1.1-1.1-2.1-2.2-3.2-3.3
	c-1.7-1.6-2.7-2.5-3-2.9c-0.7-0.8-1.3-1.3-1.7-1.7c-0.2-0.2-0.6-0.8-1.5-1.7c-1.1-1.1-2.4-2.3-3.6-3.6c-0.9-1.1-1.6-1.8-2-2.2
	c-2.1-2.4-4.1-4.9-5.9-7.3c-1-1.2-2-2.5-2.9-3.7c-0.2-0.5-0.5-0.9-0.7-1.4c-0.1-0.2-1.4-1.9-3.6-5.4c-1.3-2.1-2.2-4.4-3.2-6.6
	c-0.1-0.6-0.1-1.2-0.2-1.8c-0.6-0.7-1.1-1.3-1.7-2c-0.4-1.7-0.9-3.4-1.3-5.1c0.3-0.2,0.5-0.4,0.7-0.6c0.8,0,1.6,0,2.4,0
	c1.8,5.3,4.1,10.6,7,15.9c0.2,0.6,0.5,1.1,0.7,1.7c1.7,3,3.7,6.1,5.9,9.1c0.5,0.8,1.1,1.7,1.7,2.5c0.4,0.1,0.7,0.3,1,0.4
	c3.2,4.4,6.8,8.7,10.8,13.2c2.8,2.8,5.6,5.5,8.4,8.3c0.6,1,1.2,2,1.8,3c0.5,0.3,1,0.7,1.5,1c0.8,1.1,1.6,2.3,2.4,3.4
	c0.6,0.7,1.2,1.3,1.8,2c0.5,0.9,1,1.7,1.5,2.6C370.3,222.6,369,221.2,367.6,219.7L367.6,219.7z M370.2,214.5
	c-3.4-3.3-6.7-6.6-10-9.9c-2.1-2.1-4.2-4.3-6.2-6.4c-3.5-3.8-6.6-7.6-9.4-11.3c-0.4-0.6-0.8-1.3-1.2-1.9c-0.7-1.1-1.4-2.1-2.1-3.2
	c-1.3-2.4-2.5-4.7-3.6-7.1c-1.3-2.4-2.4-4.8-3.5-7.2c-0.8-2.1-1.6-4.2-2.3-6.4c-1.1-1.9-2.1-3.9-3.1-5.8c-0.1-0.5-0.2-1-0.3-1.5
	c0.4-0.7,0.8-1.4,1.2-2c-0.8-2-1.7-4-2.6-6.1c0.1-0.3,0.3-0.5,0.4-0.8c0.3-0.1,0.7-0.2,1-0.3c0.3,0.9,0.5,1.9,0.8,2.8
	c0.8,1.6,1.5,3.1,2.3,4.7c1.4,3.5,2.8,7,4.3,10.6c0.7,2,1.5,4.1,2.3,6.1c1,2.1,2,4.2,3.1,6.3c0.8,2.2,1.8,4.4,2.8,6.6
	c1,1.1,1.9,2.2,3,3.3c2.3,3.7,5.1,7.4,8.2,11.1c1.1,1.1,2.2,2.3,3.3,3.4c0,0.1,0,0.3,0,0.4c1.1,1.3,2.3,2.5,3.4,3.8
	c0.9,1,1.8,2,2.7,3c0.4,0.8,0.9,1.6,1.4,2.3c1.8,2,3.6,3.9,5.4,5.9c3,3.6,6,7.3,8.9,10.9C377.2,222.1,373.7,218.3,370.2,214.5
	L370.2,214.5z M322.2,126.7c0.9,1,1.7,2,2.5,3.1c0.2,0.1,0.4,0.2,0.6,0.3c1.5,1.6,3,3.2,4.4,4.8c1.5,2.6,2.9,5.1,4.3,7.7
	c1.3,2.7,2.6,5.4,3.9,8.1c0.2,0,0.5,0,0.7,0c0.4,1.5,0.7,2.9,1,4.4c0.2,0.8,0.5,1.6,0.8,2.4c0.3,0.7,0.4,1.3,0.4,1.6
	c0.1,0.3,0.2,0.5,0.3,0.7c0.1,0.2,0.1,0.4,0.2,0.6c0.7,0.9,1.1,1.9,1.2,3.1c0-2.3,0-4.6,0.1-6.9c0.3,1.1,0.7,2.3,1.1,3.5
	c0.2,0.6,0.7,1.6,1.4,3c0.1,0.3,0.2,0.5,0.2,0.6c0,0.1,0.2,0.4,0.4,1c0.8,1.5,1.6,3.1,2.4,4.7c1.8,4.5,4,9.1,6.7,13.7
	c2.1,3.5,4.5,7,7.2,10.6c2.6,3.4,5.5,6.8,8.5,10.2c-1.1-0.8-2.1-1.6-3.2-2.4c-0.9-1.1-1.8-2.2-2.8-3.3c-3.5-4.2-6.6-8.4-9.3-12.5
	c-2.7-4.2-5-8.3-7-12.4c-0.3-0.6-0.7-1.2-1-1.8c-0.3-0.2-0.5-0.4-0.8-0.6c0.8,2.3,1.8,4.7,2.8,7.1c0.9,1.5,1.7,3,2.7,4.6
	c0.2,1.1,0.5,2.2,0.7,3.2c2,2.4,4,4.8,6.3,7.3c0.8,1.3,1.6,2.5,2.5,3.8c0.8,0.7,1.6,1.3,2.4,2.1c1.3,1.3,2.4,3.2,4,5.2
	c2.9,3.7,6.2,7.1,9.4,10.6c0.5,1,1,2,1.5,3c-1.8-2.1-3.6-4.2-5.4-6.4c-1.1-0.9-2.2-1.8-3.2-2.7c-0.9-1.3-2.4-3-4.3-5.1
	c-0.7-0.8-1.5-1.7-2.2-2.6c-0.3-0.1-0.6-0.3-1-0.5c-0.2-0.4-0.4-0.9-0.5-1.3c-0.5-0.5-0.9-1-1.4-1.5c-2.8-3.3-5.4-6.6-7.7-9.9
	c-0.8-1.3-1.6-2.6-2.3-3.9c-2.2-3.2-4-6.4-5.7-9.5c-0.5-1-0.9-2-1.3-3c-0.7-1.9-1.2-3.8-1.8-5.7c-0.6-0.7-1.1-1.5-1.7-2.2
	c-1-2.1-2.1-4.2-3-6.3c-0.6-2.4-1.3-4.8-1.9-7.2c-0.1-1.1-0.3-2.1-0.4-3.2c-1-1.7-1.9-3.3-2.9-5c-0.4-0.1-0.8-0.2-1.1-0.4
	c-0.3,0.1-0.6,0.2-0.9,0.4c-0.1,0.3-0.1,0.5-0.2,0.8c1.2,1.6,1.9,3,2.4,4.3c0.2,0.6,0.7,1.1,1,1.7c0.5,1.9,1,3.8,1.4,5.7
	c0.3,0.5,0.6,1.1,0.9,1.6c1.3,3.4,2.6,6.7,4.1,10.1c-0.2,0.1-0.4,0.2-0.6,0.4c0.9,0.4,1.8,2.5,3.2,6.3c0.5,1.3,1.1,2.5,1.7,3.8
	c1.6,2.9,3.3,5.9,5.3,8.9c1.8,2.6,3.7,5.3,5.9,7.9c0.3,0.4,2.2,2.6,5.7,6.8c0.1,0.1,0.4,0.4,0.9,0.9c0.4,0.4,0.8,0.9,1.4,1.6
	c1.6,1.8,3.4,3.5,5.1,5.3c1.2,2.2,2.4,4.5,3.6,6.8c0.6,0.4,1.2,0.8,1.8,1.2c0.2,0.2,0.5,0.4,0.7,0.6c0.6,0.8,1.3,1.5,1.9,2.3
	c0.5,0.1,1.1,0.1,1.6,0.2c0.7,0.7,1.4,1.4,2,2.1c0.6,1.3,1.2,2.6,1.8,3.9c1,1.3,2,2.6,2.9,3.9c0-0.4-0.1-0.8-0.2-1.2
	c0.2,0,0.5,0,0.8,0c1.5,2.5,2.9,5,4.3,7.4c0.1,1,0.1,1.9,0.2,2.9c-0.2-0.7-0.4-1.4-0.5-2.1c-0.3,0-0.6-0.1-0.9-0.1
	c0.1,0.4,0.2,0.8,0.2,1.1c0,0.4,0,0.7,0,1.1c0.9,1.4,3.3,0.6,3.1,2.9c-0.1,1-2.2,4.6-2.2,5.6c-0.4,0.4-0.8,0.7-1.3,1.1
	c-0.2,0.1-0.4,0.1-0.7,0.2c-3.7,0.8-8.2,4-10.9,4.5c-0.9-0.1-4.5,2.6-4.9,1.9c-0.5-1.1,2.6-6,2.7-7.9c0-2.5,0-5.3-1-7.5
	c-1.9-3.2-4-6.5-6.2-9.8c-1.7-1.8-3.4-3.6-5.2-5.4c-5.1-5.5-10.3-10.9-15.3-16.4c1.2,1.1,2.5,2.2,3.7,3.3c2.6,2.5,5.1,5.1,7.7,7.6
	c4.2,4.5,8.3,8.9,12.2,13.3c0.9,1.4,1.7,2.7,2.6,4.1c0.2,0.2,0.4,0.3,0.6,0.5c-0.1-0.2-0.2-0.5-0.3-0.9c-0.1-0.4-0.4-0.9-0.6-1.4
	c-0.9-1.8-1.8-3.4-2.9-4.8c-0.6-0.8-1.4-1.5-2.1-2.2c-2.2-2.5-4.5-5-6.8-7.5c-6.3-6.1-12.6-12.3-18.4-18.4
	c-5.8-5.7-10.9-11.4-14.9-17c-1.4-2.3-2.7-4.5-3.8-6.8c-3.1-5.5-5.6-11-7.6-16.5c-0.8-2-1.6-3.9-2.4-5.9c0,2,0.1,4.1,0.1,6.1
	c-0.2-0.2-0.4-0.4-0.7-0.6c-1.7-3.9-3.2-7.7-4.8-11.6c-1.2-3-2.4-6-3.7-9c-0.4-0.9-0.8-1.8-1.2-2.7c-1.9-2.6-4-5.3-6.2-8
	c0,0,0-0.1,0-0.1c-0.2-0.3-0.4-0.5-0.7-0.8C306.3,125.2,314.4,124.7,322.2,126.7z"/>
<path class="st4" d="M267.6,384.2c4.6,1.2,9,2.2,13.3,2.8c1.7,0,3.3,0,5-0.1c7.1,0.4,13.8,0.2,20.1-0.5c1.7-0.2,3.4-0.4,5-0.6
	c-0.3,1.2-0.8,1.6-1.3,1.6c-1.9,0.2-3.9,0.5-5.8,0.8c-0.6-0.1-1.2-0.2-1.8-0.4c-0.3,0.2-0.6,0.3-1,0.5c-2.7,0.2-5.5,0.3-8.3,0.4
	c-2.3,0-3.9,0.1-4.7,0c-0.9-0.1-1.6-0.1-2-0.1c-2.9,0-5.9-0.3-9.1-0.7c-1.6-0.2-3.2-0.3-4.8-0.9
	C270.2,386.3,268.7,385.1,267.6,384.2L267.6,384.2z M234.7,378.6c4.2,1.4,8.4,2.8,12.6,4.1c1.4,0.5,2.9,0.9,4.3,1.4
	c2.2,0.8,3.5,1.3,3.9,1.4c1,0.2,1.7,0.5,2.3,0.7c0.3,0.1,1,0.2,2.2,0.6c1.5,0.5,3.1,1.1,4.8,1.6c1.4,0.4,2.3,0.6,2.9,0.7
	c3.1,0.8,6.2,1.4,9.2,2c1.6,0.3,3.1,0.6,4.6,1c0.5,0,1.1,0,1.6,0c0.2,0,2.4,0.4,6.4,0.8c2.5,0.2,4.9,0,7.3-0.1
	c0.6-0.2,1.1-0.4,1.7-0.7c0.8,0.2,1.7,0.4,2.6,0.6c1.7-0.4,3.4-0.7,5.1-1.1c0.1-0.3,0.1-0.6,0.2-0.9c-0.4-0.7-0.7-1.4-1.1-2.1
	c-5.5,0.7-11.3,1.1-17.4,0.9c-0.6,0-1.2,0.1-1.8,0.1c-3.5-0.2-7.1-0.6-10.8-1.2c-1-0.1-2-0.2-3-0.4c-0.3-0.3-0.5-0.5-0.8-0.7
	c-5.3-0.9-10.9-2.2-16.7-3.8c-3.7-1.2-7.4-2.5-11.2-3.8c-1.2-0.1-2.4-0.2-3.5-0.3c-0.5-0.3-1.1-0.6-1.6-0.9
	c-1.4-0.2-2.8-0.4-4.1-0.6c-0.9-0.2-1.7-0.5-2.6-0.7c-1-0.1-2-0.1-3-0.2C230.9,377.4,232.8,378,234.7,378.6L234.7,378.6z M238.2,374
	c4.5,1.5,8.9,3,13.4,4.5c2.9,0.9,5.7,1.8,8.5,2.6c5,1.4,9.7,2.5,14.3,3.3c0.7,0.1,1.5,0.1,2.2,0.2c1.3,0.2,2.5,0.3,3.8,0.5
	c2.7,0.1,5.4,0.1,7.9,0c2.7,0.1,5.4,0,8-0.1c2.3-0.2,4.5-0.4,6.7-0.8c2.2,0.1,4.4,0.1,6.6,0.2c0.5-0.1,1-0.3,1.5-0.4
	c0.4-0.7,0.8-1.3,1.3-2c2.2-0.2,4.4-0.3,6.6-0.4c0.2-0.2,0.3-0.5,0.5-0.7c-0.1-0.3-0.1-0.7-0.2-1c-1,0.2-1.9,0.4-2.8,0.6
	c-1.8,0-3.5,0-5.2,0c-3.8,0.4-7.5,0.7-11.4,0.8c-2.1,0.3-4.3,0.5-6.5,0.7c-2.3,0.1-4.7,0.1-7.1,0c-2.3,0.2-4.7,0.4-7.2,0.4
	c-1.4-0.4-2.8-0.8-4.3-1.2c-4.3-0.4-8.9-1.2-13.6-2.3c-1.5-0.4-3-0.9-4.6-1.4c-0.1,0.1-0.2,0.1-0.3,0.2c-1.6-0.4-3.3-0.9-4.9-1.4
	c-1.3-0.3-2.6-0.7-3.9-1.1c-0.9-0.1-1.8-0.1-2.7-0.2c-2.6-0.7-5.1-1.5-7.7-2.2c-4.6-1.1-9.2-2.1-13.7-3.1
	C228.3,371.1,233.2,372.5,238.2,374L238.2,374z M324.6,374.3c-3-0.2-2.9-0.1-5.8-0.2c-3,0-6,0.1-9,0.1c-0.1-0.2-0.2-0.4-0.3-0.6
	c-1.5,0.3-2.9,0.7-4.4,1c-0.8,0.2-1.7,0.3-2.5,0.4c-0.8,0.1-1.3,0.3-1.7,0.3c-0.3,0.1-0.5,0-0.8,0c-0.3,0-0.4,0.1-0.6,0.1
	c-1.1-0.2-2.2-0.2-3.3,0.3c2-1,4.1-2.1,6.1-3.1c-1.1,0.3-2.3,0.4-3.6,0.6c-0.6,0.1-1.7,0-3.3,0.1c-0.3,0-0.5,0.1-0.7,0.1
	c-0.1,0-0.5,0-1.1,0c-1.7,0-3.5,0-5.2,0c-4.9,0.4-9.9,0.5-15.3,0.1c-4.1-0.3-8.3-0.8-12.7-1.7c-4.2-0.9-8.6-1.9-13-3
	c1.2,0.6,2.4,1.2,3.6,1.8c1.4,0.3,2.8,0.7,4.2,1c5.3,1.3,10.5,2.2,15.3,2.7c5,0.6,9.7,0.8,14.2,0.7c0.7,0,1.4,0.1,2.1,0.1
	c0.3,0.1,0.6,0.3,0.9,0.4c-2.5,0.3-5,0.5-7.6,0.6c-1.7-0.1-3.5-0.2-5.3-0.4c-1.1,0.3-2.1,0.5-3.2,0.8c-3-0.7-6.1-1.4-9.3-2.4
	c-1.5-0.1-3-0.3-4.5-0.5c-1-0.4-1.9-0.8-2.9-1.2c-1.7-0.6-3.9-0.7-6.4-1.2c-4.6-0.9-9.1-2.4-13.7-3.7c-1.1,0-2.3,0-3.4,0
	c2.7,0.7,5.4,1.3,8.1,2c1.3,0.6,2.6,1.1,3.9,1.7c1.6,0.2,3.7,0.8,6.5,1.5c1.1,0.3,2.2,0.5,3.3,0.8c0.3,0.2,0.6,0.4,0.8,0.7
	c0.5,0,0.9-0.1,1.4-0.1c0.7,0.2,1.3,0.4,2,0.5c4.2,1,8.3,1.9,12.3,2.4c1.5,0.1,3,0.3,4.5,0.3c3.8,0.5,7.5,0.8,11.1,0.9
	c1.1,0,2.2-0.1,3.2-0.2c2-0.3,3.9-0.6,5.9-0.9c0.9,0.2,1.8,0.4,2.7,0.5c2.3,0,4.7,0,7-0.1c2.4-0.5,4.9-1,7.3-1.5c1-0.4,2-0.7,3-1.1
	c1.9,0.1,3.8,0.2,5.8,0.3c0.3,0.3,0.6,0.6,0.8,0.9c0,0.3,0,0.6,0.1,0.9c-0.2,0.2-0.4,0.4-0.6,0.5c-2-0.4-3.6-0.4-4.9-0.2
	c-0.6,0.1-1.3-0.1-1.9-0.2c-1.9,0.4-3.8,0.8-5.7,1.3c-0.6,0-1.2-0.1-1.8-0.1c-3.6,0.4-7.2,0.6-10.8,0.8c0,0.2-0.1,0.4-0.1,0.7
	c-0.7-0.6-3-0.5-7.1-0.1c-1.4,0.1-2.7,0.1-4.1,0.2c-3.3-0.1-6.8-0.3-10.3-0.8c-3.1-0.4-6.4-1-9.7-1.7c-0.5-0.1-3.3-0.8-8.6-2.1
	c-0.1,0-0.5-0.1-1.2-0.4c-0.5-0.2-1.2-0.3-2.1-0.6c-2.3-0.7-4.7-1.4-7-2.2c-2.5,0-5.1-0.1-7.7-0.2c-0.6-0.4-1.3-0.7-1.9-1.1
	c-0.3-0.1-0.6-0.2-0.9-0.4c-1-0.2-1.9-0.5-2.9-0.7c-0.3-0.4-0.6-0.9-0.9-1.4c-0.9-0.3-1.8-0.6-2.8-0.9c-1.4,0.1-2.9,0.1-4.3,0.2
	c-1.6-0.3-3.2-0.6-4.8-0.9c0.4-0.1,0.7-0.3,1.1-0.4c-0.1-0.2-0.3-0.4-0.4-0.7c-2.9-0.2-5.7-0.4-8.6-0.5c-0.9,0.4-1.8,0.7-2.7,1.1
	c0.7-0.1,1.4-0.3,2.1-0.5c0.2,0.3,0.3,0.5,0.5,0.8c-0.4,0.1-0.8,0.2-1.1,0.3c-0.3,0.1-0.7,0.3-1,0.5c-1.6-0.2-2-2.7-4-1.5
	c-0.8,0.5-3.1,4-4,4.4c-0.1,0.5-0.3,1.1-0.4,1.6c0,0.2,0.1,0.4,0.1,0.7c-2.1,2.9-1.3,8.8,0.9,11.7c2,3.4,8.1-3.1,13.6-3.2
	c3.8,0.3,7.6,0.6,11.5,1.1c2.4,0.7,4.7,1.5,7.1,2.2c7.2,2.1,14.4,4.3,21.5,6.3c-1.5-0.6-3.1-1.2-4.6-1.8c-3.4-1.2-6.8-2.3-10.2-3.5
	c-5.9-1.7-11.7-3.4-17.4-4.9c-1.6-0.2-3.2-0.3-4.8-0.4c-0.2-0.1-0.5-0.2-0.7-0.3c0.2,0,0.5,0,0.9-0.1c0.4-0.1,0.9-0.1,1.5-0.1
	c2,0,3.9,0.1,5.6,0.5c1,0.2,1.9,0.6,2.9,0.9c3.2,0.9,6.5,1.8,9.8,2.7c8.3,2.9,16.6,5.7,24.7,8.2c7.8,2.7,15.1,4.6,21.9,5.8
	c2.6,0.2,5.2,0.4,7.7,0.3c6.4,0.3,12.4,0.1,18.1-0.6c2.1-0.1,4.2-0.3,6.3-0.5c4.4-1.9,4.2-2,4.4-1.9c10.1-0.5,3-4.3,6.5-3.4
	c0,0,0.4-3.8,0.5-3.8c3.9-0.8,2.3-5,1.5-8.1c-0.8-3-1.7-6.8-2.5-7.4C326.7,371.8,325.3,373.1,324.6,374.3z"/>
<path class="st3" d="M364.3,253.2c0.1-0.3,0.2-0.5,0.3-0.8c0.1,0.8,0.2,1.6,0.4,2.4c0.1,1.1,0.2,2.2,0.5,3.2
	c0.1,0.2,0.3,0.5,0.4,0.7c0.2,0.8,0.5,1.6,0.7,2.4c0,0.6,0,1.2,0.1,1.8c0.3,0.6,0.5,1.2,0.7,1.8c0.5,1.2,1,2.5,1.4,3.7
	c0.1,0.5,0.1,1.1,0.1,1.6c-0.6,1.5-1.5,3-2.7,4.6c-0.4,0.3-0.9,0.6-1.3,0.8c0.3-0.3,0.6-0.6,0.9-0.8c1-1.4,1.8-2.8,2.3-4.2
	c-0.1,0.3-0.2,0.5-0.3,0.8c-0.1,0-0.2,0-0.2,0c-0.5,0.9-1.1,1.9-1.9,2.9c1-2.4,1.5-4.7,1.5-6.9c-0.3-1-0.6-1.9-0.8-2.9
	c-0.1-0.4-0.1-0.9-0.2-1.3c-0.7-2.3-1.3-4.7-1.8-7.1c-0.1,0.1-0.2,0.1-0.2,0.2c0.1-0.4,0.1-0.8,0.2-1.1
	C364.3,254.4,364.3,253.8,364.3,253.2L364.3,253.2z M372.1,251.5c1.4-0.6,1.7-6.9,1.7-7.7c0,1.1,0,2,0,2.9c0.4-1.9,0.6-4,0.6-6.3
	c0.2-1.1,0.2-2.1,0.3-3.2c0-0.5,0-1.1-0.1-1.7c0.1-0.3,0.2-0.6,0.3-0.9c-0.3-1.1-0.6-2.3-1.1-3.4c-0.9-1.3-2-2.6-3.1-4
	c-0.2,0.2-0.4,0.4-0.6,0.6c0,0.2,0,0.4-0.1,0.6c0.1,0,0.3,0.1,0.4,0.1c0.6,0.9,1.1,1.7,1.5,2.5c-0.2-0.3-0.4-0.6-0.6-0.9
	c0.2,0.5,0.5,0.9,0.7,1.4c-1.1-1.2-2.1-2.4-3.3-3.7c-1.3-0.9-2.7-1.8-4-2.8c-0.9-1.1-2-2.1-3-3.2c-0.2,0.2-0.3,0.3-0.5,0.5
	c0,0.2,0,0.4,0,0.5c-0.6-0.6-1.3-1.2-1.9-1.9c-0.3-0.1-0.7-0.2-1-0.3c-0.7-0.8-1.4-1.6-2-2.4c-0.3,0-0.6,0.1-0.8,0.1
	c0.7,1.4,1.4,2.8,2,4.1c1.7,3.9,3,7.8,3.8,11.5c0.3,0.9,0.6,1.7,0.8,2.6c0.1,0.8,0.2,1.5,0.3,2.3c0-2-0.2-4.1-0.5-6.2
	c0.4,1.6,0.8,3.2,1.1,4.7c0.2,2.9,0,5.8-0.2,8.7c-0.2,2.8-0.3,5.6-0.2,8.3c0.3,3,0.8,6,1.4,8.9c0.1,2,0.2,3.9,0.2,5.9
	c-0.4,1.3-0.9,2.6-1.6,3.9c0.7-2.6,1-5.1,1-7.6c-0.1-1-0.3-1.9-0.4-2.9c-0.5-2.9-1-5.9-1.1-8.9c0-4.2,0.2-8.5,0.4-12.9
	c-0.3,4.7-0.6,9.4-0.5,14c0.2,2.3,0.5,4.7,0.9,6.9c0,0.6,0,1.1,0.1,1.7c0.2,2.2,0.3,4.4,0.3,6.5c-0.3,0.9-0.7,1.8-1.2,2.8
	c-0.1,0-0.2,0-0.4,0.1c-0.1,0.4-0.3,0.8-0.6,1.3c-0.3,0.4-0.7,0.7-1.3,1c-0.5,0.2-1.5,0.6-3.2,1c-0.9-0.5-1.8-1.1-2.8-1.7
	c-0.5-0.1-1.1-0.1-1.6-0.2c-1.3-0.9-2.6-1.8-3.9-2.8c-0.2,0.1-0.4,0.2-0.6,0.3c-0.1-0.3-0.2-0.5-0.4-0.8c-0.2,0.1-0.4,0.2-0.6,0.3
	c0.3,0.4,0.6,0.8,0.9,1.2c-0.1,0.1-0.3,0.2-0.4,0.3c0.2,0.5,0.5,1.1,0.7,1.6c0.6,0.9,1.2,1.8,1.7,2.6c0.6,0.7,1.3,1.4,1.9,2.1
	c-0.3,0-0.6,0-0.9,0c-0.2-0.1-0.4-0.3-0.6-0.4c-0.1,0.2-0.3,0.4-0.4,0.6c0.8,0.4,1.5,0.7,2.3,1.1c1.3,0.2,2.7,0.3,4,0.5
	c0.6,0,1.3,0,1.9,0c-0.1,0.1-0.1,0.2-0.2,0.2c0.1-0.1,0.1-0.1,0.2-0.2c0.2,0,0.3,0,0.5-0.1c-0.2,0.1-0.4,0.3-0.6,0.4
	c0.4,0,0.7-0.1,1.1-0.1c0.8-0.1,1.7-0.2,2.5-0.3c2.7-0.6,5.3-1.3,8-1.8c1.2-0.6,2.5-1.1,3.7-1.7c1.3-1,2.6-2,3.8-3
	c0.7-0.9,1.4-1.8,1.9-2.7c-1.1,1.4-2.5,2.9-4,4.3c-1.1,0.7-2.1,1.4-3.2,2.1c-1.1,0.4-2.3,0.8-3.4,1.2c-0.8,0.2-1.6,0.4-2.4,0.6
	c1.1-0.5,2.3-0.9,3.4-1.4c1.3-0.8,2.6-1.6,3.8-2.4c0.9-0.7,1.7-1.5,2.5-2.2c0.8-1.1,1.4-2.2,1.8-3.3c-0.2-0.5-0.4-1-0.7-1.5
	c-0.3-0.8-0.6-1.6-1-2.5c-1.3-2.2-2.7-4.5-4-6.8c0,0-0.1,0-0.1,0.1c1.3,2.4,2.6,4.7,3.9,7c0.4,1.1,0.6,2.3,0.7,3.4
	c-0.4,0.2-0.8,0.4-1.2,0.6c-0.1-1.6-0.5-3.2-1-4.8c-1.3-2.3-2.6-4.6-3.7-7c-0.6-1.2-1.1-2.4-1.4-3.7c0-0.7,0.1-1.3,0.2-2
	c0-0.5,0.1-1,0.2-1.5c0.1,2.4,0.8,4.7,2,6.9c-0.3-0.6-0.6-1.2-1-1.8c-0.2-2-0.1-3.9,0.3-5.9c0,2.8,0.8,5.6,2.7,8.2
	c-0.7-1.6-1.2-3.2-1.5-4.8c1.4,3.4,3.8,6.6,6.4,9.8c1,2,1.8,4,2.1,6c-0.6,1.5-1.5,2.9-2.6,4.3c-1.1,0.9-2.3,1.8-3.5,2.7
	c0.1,0,0.2,0,0.3,0c-0.6,0.4-1.3,0.7-1.9,1.1c1.1-0.5,2.2-1.1,3.2-1.6c1-0.9,2-1.8,2.9-2.7c0.5-0.7,1-1.3,1.4-2c0,0,0.2-0.2,0.4-0.4
	c0.1,0,0.2-0.2,0.3-0.4c0.2-1,0.2-1.9,0-2.9c-0.3-0.7-0.6-1.3-0.9-1.9c0-0.2,0-0.3,0-0.5c-0.2-0.2-0.4-0.4-0.5-0.6
	c-0.2-0.5-0.5-0.9-0.8-1.4c-2.9-3.5-5.4-7.1-6.5-10.9c0.1,0.3,0.3,0.5,0.4,0.8c0-0.4,0-0.8,0-1.3
	C371.8,251.5,371.8,249.1,372.1,251.5L372.1,251.5z M368.9,247.6c-0.1,0.1-0.2,0.1-0.3,0.1c-0.1,0.3-0.2,0.6-0.3,0.8
	c-0.1-0.1-0.1-0.2-0.2-0.3c-0.2,0.7-0.4,1.4-0.6,2c-0.1,1.2-0.2,2.5-0.2,3.7c0.1,0.1,0.1,0.1,0.2,0.2c0.1,2,0.6,4,1.3,6
	c0.5,1.1,1.1,2.2,1.6,3.4c-0.2-0.5-0.3-1.1-0.5-1.6c0.4,1.1,0.7,2.1,1,3.2c0.1,0.5,0.2,1,0.3,1.5c0.1,0,0.3,0,0.4,0.1
	c0.1,0.1,0.1,0.2,0.2,0.3c0-0.5-0.1-1-0.1-1.4c0.1,0.2,0.1,0.3,0.2,0.5c0.3,1.2,0.7,2.3,0.8,3.5c0,0-0.2,0.2-0.6,0.4
	c0,0.5,0,1.1-0.1,1.7c-0.3,0.4-0.5,0.8-0.9,1.2c-0.5,0.8-1.2,1.7-1.9,2.5c-0.8,0.6-1.7,1.3-2.5,2c0.3,0,0.6,0,0.9,0.1
	c0.4-0.3,0.9-0.6,1.3-1c0,0,0-0.1,0-0.1c0.1,0,0.2,0,0.3,0c1-0.9,1.9-1.7,2.8-2.6c1-1.6,1.6-3.1,1.9-4.6c0-0.2,0-0.4,0-0.5
	c-0.3,0-0.5,0-0.8,0c-0.3-1.2-0.7-2.4-1.2-3.5c-0.1-0.5-0.2-0.9-0.3-1.4c-1.2-2.2-2.6-4.5-3.2-6.9c-0.6-2.3-0.3-4.8,0.3-7.3
	c0.3-1.3,0.7-2.7,1.2-4C369.5,246.1,369.2,246.9,368.9,247.6L368.9,247.6z M374.3,263.3c0.8,1.5,1.7,3,2.4,4.4
	c-1.5-2.6-3-5.2-4.6-7.8C372.8,261.1,373.6,262.2,374.3,263.3L374.3,263.3z M376.7,239.1c-0.2,1.6-0.5,3.1-1,4.5
	c-0.1,0.1-0.1,0.2-0.2,0.3c0.3-1.3,0.4-2.7,0.3-4.2c0.1-0.9,0.1-1.9,0-2.8c0.4,0.3,0.7,0.7,1.1,0.9
	C376.8,238.2,376.8,238.7,376.7,239.1z"/>
<path class="st3" d="M322.3,334.3c0.5-0.4,0.9-0.8,1.4-1.2c-0.6,2-1.2,4.1-1.7,6.1c-0.9,2.4-1.8,4.8-2.6,7.1c0,0.7-0.1,1.4-0.1,2.2
	c-0.5,1.7-1,3.5-1.5,5.2c-0.6,1-1.2,2.1-1.8,3.1c-0.2,1.5-0.4,2.9-0.6,4.4c-0.5,3-0.8,5.9-1.2,8.9c-0.3,1.1-0.6,2.3-0.9,3.4
	c-1.3,2.2-2.6,4.5-3.9,6.8c-0.4,0-0.9,0-1.3,0c0.3-0.3,0.6-0.6,0.9-0.9c1.1-2.2,2.1-4.3,3.2-6.5c-0.3,0.4-0.5,0.8-0.7,1.1
	c-0.1-0.1-0.2-0.2-0.3-0.3c-0.8,1.4-1.6,2.7-2.4,4.1c1.4-4.2,2.9-8.4,4.2-12.7c0.4-2.2,0.8-4.4,1.2-6.6c0.3-0.9,0.6-1.7,0.9-2.6
	c1.3-5.2,2.7-10.4,4.6-15.7c-0.2-0.1-0.4-0.1-0.6-0.2c0.5-0.6,1-1.3,1.5-2C321.1,336.8,321.7,335.5,322.3,334.3L322.3,334.3z
	 M334.3,348c0.9,4.8,7.6-20.1,8.8-22.6c-1.5,3.6-2.6,7.1-3.7,10.7c2.5-6.5,5.7-12.9,9.6-19.3c2.2-2.4,4.5-4.7,7-7.1
	c1.3-1.1,2.6-2.2,4-3.3c0.8-0.4,1.6-0.9,2.5-1.3c2.9-2.3,5.9-4.5,9-6.8c3.2-2.8,6.6-5.5,10-8.3c-1,0.1-2,0.2-3,0.2
	c-0.8,0.2-1.5,0.5-2.2,0.7c0.1,0.2,0.2,0.3,0.3,0.5c-2.2,1.6-4.3,3.3-6.3,4.9c0.7-0.6,1.4-1.2,2.1-1.8c-1.2,0.9-2.4,1.8-3.6,2.7
	c2.5-2.7,5.1-5.4,7.7-8.1c1.1-2.3,2.1-4.5,3.2-6.7c2.1-2,4.2-3.9,6.4-5.9c-1,0-1.9,0-2.8,0.1c-0.7,0.2-1.3,0.4-2,0.6
	c1.1-1.2,2.1-2.3,3.2-3.5c-0.3-0.4-0.7-0.8-1-1.2c1.5-1.3,3.1-2.7,4.6-4c-0.7-0.2-1.3-0.5-1.9-0.7c-3.7,1.9-7.2,3.8-10.8,5.7
	c-9.9,5.8-19.2,11.8-27.8,17.8c-1.6,1.6-3.3,3.3-4.9,4.9c-1.5,1.4-2.9,2.8-4.3,4.3c4.1-3.6,8.6-7.2,13.3-10.6
	c-3.3,2.8-6.4,5.7-9.5,8.6c-5.5,5.5-10.7,11.2-14.8,17.2c-3.9,5.9-6.8,12-9.3,18.1c-2.7,6.3-4.7,12.6-6.4,18.8
	c-1.3,3.8-2.3,7.6-3.4,11.3c-1,1.9-1.9,3.9-2.8,5.8c1.3-4.6,2.7-9.2,4.1-13.8c0.5-2,1-4.1,1.5-6.1c1.7-6.2,4-12.4,6.7-18.7
	c4.3-9.1,10-18.2,17.1-27.1c-7.7,9.5-13.9,19.3-18.4,29c-2,4.9-3.7,9.7-5.1,14.6c-0.4,1.1-0.8,2.1-1.2,3.1c-1.2,4.4-2.3,8.7-3.2,13
	c-0.7,1.4-1.4,2.8-2,4.1c-0.2-0.2-0.3-0.3-0.4-0.5c-0.1,0.7-0.3,1.5-0.7,2.1c-0.3,0.6-0.7,0.7-1.3,0.3c-0.5-0.2-1.6-1.1-3.4-2.7
	c-1.1-2.9-2.3-5.8-3.5-8.7c-0.7-1-1.3-2-1.9-3.1c-1.8-4.1-3.6-8.3-5.4-12.5c-0.3-0.1-0.6-0.2-0.8-0.3c-0.2-0.8-0.4-1.6-0.6-2.3
	c-0.3-0.1-0.5-0.1-0.8-0.2c0.5,1.3,0.9,2.6,1.4,4c-0.2,0-0.3,0-0.5,0c0.4,1.6,0.8,3.1,1.3,4.6c1,3,1.9,5.9,2.9,8.8
	c1,2.8,2,5.6,3,8.4c-0.4-0.5-0.7-1.1-1.1-1.7c-0.3-0.7-0.5-1.4-0.8-2c-0.1,0.3-0.2,0.6-0.3,0.9c1,2.3,2,4.6,3,6.9
	c1.6,2.9,3,5.9,4.5,8.8c0.7,1.2,1.3,2.5,1.9,3.7c0,0.1-0.1,0.3-0.1,0.5c0-0.1,0.1-0.2,0.2-0.3c0.1,0.2,0.3,0.5,0.5,0.8
	c-0.2,0.1-0.4,0.1-0.6,0.1c0.3,0.6,0.7,1.2,1,1.7c0.8,1.4,1.6,2.7,2.3,4.1c2.3,3.1,4.6,6.2,6.7,9.4c1.1,0.4,2.3,0.8,3.4,1.1
	c1.4-1.1,2.8-2.1,4.1-3.2c1-1.5,1.9-2.9,2.7-4.4c-1.5,1.9-3.2,3.8-5,5.8c-1.1,0.5-2.2,0.9-3.2,1.4c-1-0.7-2-1.5-2.9-2.2
	c-0.6-0.9-1.3-1.7-2-2.6c1.1,0.6,2.1,1.2,3.1,1.9c1.3-0.4,2.5-0.7,3.8-1.1c0.9-0.8,1.7-1.7,2.6-2.6c1.1-1.8,2.2-3.7,3.2-5.5
	c0.2-1.3,0.3-2.6,0.5-4c0.4-1.9,0.9-3.7,1.4-5.6c0.8-5.5,1.7-11.1,2.8-16.6c-0.1-0.1-0.1-0.1-0.2-0.2c-1.1,5.7-2.2,11.3-3.1,16.9
	c-0.8,2.4-1.6,4.7-2.3,7.1c-0.5-0.2-1-0.5-1.5-0.7c1-3.4,2.1-6.8,3-10.2c1-5.6,1.9-11.2,3.2-16.9c0.5-3.2,1.3-6.4,2.1-9.7
	c0.6-1.4,1.3-2.8,2-4.2c0.5-1.1,1-2.3,1.5-3.4c-1.9,6.3-3.2,12.6-4,18.9c0.2-1.6,0.5-3.1,0.7-4.7c1.6-4.4,3.4-8.9,5.6-13.3
	c-2.2,7.8-3.7,15.5-4.7,23.2c1-3.5,2-7.2,3.2-10.9c-1.8,9-3,17.8-3.9,26.5c-1.1,4.2-2.3,8.4-3.7,12.6c-1.3,2.3-2.8,4.6-4.3,6.9
	c-1.3,0.8-2.6,1.7-3.8,2.6c0.1,0.2,0.1,0.3,0.2,0.5c-0.6,0.1-1.3,0.3-1.9,0.4c1,0.1,2.1,0.1,3.1,0.2c1.1-1.2,2.3-2.4,3.4-3.6
	c0.7-1,1.4-2,2.1-3.1c0-0.1,0.2-0.2,0.5-0.3c0.1,0,0.2-0.2,0.4-0.5c0.8-1.9,1.4-3.8,2-5.7c0.4-1.4,0.8-2.9,1.2-4.4
	c0.1-0.2,0.2-0.4,0.4-0.5c0-0.6,0.1-1.2,0.2-1.8c0.2-0.9,0.4-1.9,0.7-2.9c1.2-9.6,2.7-19.4,5-29.4c-0.1,1.1-0.2,2.3-0.2,3.4
	c0.3-1.1,0.6-2.2,0.9-3.4C333.9,346.6,335.8,338.7,334.3,348L334.3,348z M334.1,328c-0.2,0-0.4-0.1-0.6-0.1
	c-0.4,0.6-0.8,1.2-1.2,1.8c0-0.3,0-0.7,0-1c-0.9,1.5-1.8,3-2.6,4.5c-1.3,3-2.5,6-3.6,8.9c0,0.2,0.1,0.5,0.1,0.7
	c-1.8,4.6-3.4,9.1-4.7,13.5c-0.5,2.7-1,5.4-1.5,8.1c0.3-1.1,0.7-2.3,1.1-3.4c-0.7,2.2-1.3,4.4-1.9,6.7c-0.3,0.9-0.7,1.9-1.1,2.8
	c0.1,0.3,0.2,0.5,0.4,0.8c0,0.3,0,0.6-0.1,0.9c0.4-0.8,0.8-1.6,1.3-2.5c-0.1,0.4-0.1,0.7-0.2,1.1c-0.7,2.5-1.3,4.9-2,7.4
	c0,0.1-0.3,0.1-0.8-0.1c-0.3,1.2-0.7,2.3-1.1,3.5c-0.4,0.5-0.8,1.1-1.2,1.6c-0.7,1.3-1.4,2.6-2.1,3.9c-0.8,0.6-1.6,1.1-2.4,1.7
	c0.2,0.6,0.5,1.3,0.8,1.9c0.4-0.2,0.8-0.5,1.2-0.8c0-0.1,0-0.3,0-0.4c0.1,0.2,0.2,0.4,0.3,0.6c1-1.1,2-2.1,2.9-3.2
	c1.3-2.5,2.6-5.1,4-7.7c0.2-0.3,0.3-0.6,0.5-0.9c-0.3-0.4-0.5-0.8-0.8-1.2c0.6-2.6,1.2-5.1,1.9-7.7c0.3-0.9,0.7-1.8,1-2.7
	c2-11.1,5.3-22.6,10.4-34.2c1.6-3.2,3.5-6.3,5.5-9.4C336.4,324.7,335.2,326.4,334.1,328L334.1,328z M325,371.4
	c0.5-2.9,0.9-5.7,1.3-8.5c-1.1,6.4-2.2,12.7-3.4,19C323.7,378.3,324.4,374.8,325,371.4L325,371.4z M352.8,317.1
	c-3.3,4-6.2,8.1-8.7,12.2c-0.2,0.2-0.3,0.5-0.5,0.7c2.2-4.3,4.7-8.6,7.7-12.9c2-2.1,4-4.3,6.2-6.4c-0.6,1.2-1.2,2.4-1.7,3.6
	C354.8,315.2,353.8,316.1,352.8,317.1z"/>
<path class="st4" d="M236.1,401.2c0.6-0.1,1.1-0.3,1.7-0.4c-1.4-0.2-2.8-0.5-4.1-0.8c-1.9-0.2-3.7-0.5-5.4-0.9
	c-0.4-0.2-0.7-0.4-1.1-0.7c-1.3-0.3-2.6-0.7-3.8-1.1c-1-0.1-2.1-0.2-3.1-0.4c-0.9-0.4-1.9-0.8-2.8-1.3c-2-0.9-3.9-1.7-5.8-2.6
	c-0.9-0.3-1.7-0.5-2.6-0.8c-2.4-0.3-4.7-0.6-7.1-0.8c-0.4,0.2-0.8,0.3-1.2,0.5c0.4,0,0.8,0,1.2,0c2.1,0.3,4.2,0.6,6.3,0.9
	c-0.4-0.1-0.8-0.1-1.2-0.1c0,0.1-0.1,0.1-0.1,0.2c-1.4-0.2-2.9-0.3-4.3-0.4c3.5,0.9,7.1,1.8,10.6,2.7c1.5,0.6,3,1.2,4.5,1.8
	c0.7,0.2,1.4,0.4,2.1,0.6c3.7,1.3,7.4,2.4,11.4,3.2c-0.1,0.1-0.3,0.2-0.4,0.3c0.7,0,1.4-0.1,2.1-0.1
	C233.9,401.1,235,401.2,236.1,401.2L236.1,401.2z M239.8,390.8c-1.5-1.9,15.3,0.8,17,0.9c-2.4-0.3-4.8-0.6-7.1-1
	c4.7,0.3,9.5,0.6,14.3,0.7c2.2-0.3,4.5-0.5,6.7-0.8c1.1-0.2,2.3-0.4,3.4-0.6c0.7-0.2,1.3-0.5,2-0.7c2.3-0.4,4.5-0.7,6.8-1
	c2.2,0,4.5,0,6.7,0c-0.7,0.4-1.3,0.8-1.9,1.3c-0.5,0.2-1,0.4-1.5,0.6c0.1-0.1,0.1-0.3,0.2-0.4c-1.4,0.1-2.9,0.2-4.3,0.3
	c0.5,0,1,0,1.5,0c-0.8,0.1-1.7,0.2-2.5,0.2c1.8,0.3,3.6,0.6,5.3,0.9c0.7,0.9,1.3,1.8,2,2.7c1.3,0.3,2.5,0.6,3.7,1
	c-0.6,0.4-1.1,0.8-1.7,1.2c-0.4,0.2-0.8,0.3-1.2,0.5c0.6,0.3,1.2,0.6,1.8,1c-0.2,0.4-0.4,0.8-0.6,1.2c0.8,0.3,1.7,0.6,2.5,0.9
	c-0.4,0.4-0.7,0.8-1.1,1.2c-2,0.1-4,0.3-6,0.5c-6.1,0.7-12.2,1.5-18.5,2.3c-1.3,0-2.7,0-4,0c-1.3,0.1-2.5,0.1-3.8,0.2
	c3.6-0.4,7.2-0.9,10.7-1.4c-2.5,0.1-5.1,0.3-7.7,0.4c-5,0.4-10.1,0.8-15.1,0.9c-4.9,0.1-9.8,0-14.6-0.3c-5-0.7-9.7-1.8-14.2-3.3
	c-3-0.8-5.9-1.7-8.8-2.7c-1.9-0.3-3.8-0.6-5.6-0.9c3.6,1.1,7.3,2.2,11,3.2c1.4,0.5,2.9,1.1,4.3,1.6c4.5,1.4,9.2,2.5,14.3,3
	c7.3,0.3,14.7,0.2,22.3-0.1c-8.3,0.5-16.4,0.6-24.3,0.2c-3.9-0.5-7.5-1.4-11-2.4c-0.9-0.2-1.7-0.4-2.6-0.6c-3.2-1.1-6.4-2.2-9.6-3.3
	c-1.3-0.2-2.6-0.4-4-0.6c0,0.1-0.1,0.2-0.1,0.3c-0.5-0.2-1.1-0.4-1.7-0.4c-0.6-0.1-1,0.1-1.2,0.4c-0.2,0.3-0.6,1-1.1,2.3
	c0.7,1.4,1.5,2.9,2.3,4.4c0.1,0.6,0.2,1.2,0.3,1.9c1.1,2.2,2.3,4.4,3.6,6.7c-0.1,0.2-0.1,0.3-0.2,0.5c0.3,0.4,0.6,0.7,0.9,1.1
	c-0.1,0.2-0.1,0.3-0.2,0.5c-0.5-0.7-1-1.4-1.4-2c-0.1,0.1-0.2,0.2-0.2,0.3c-0.6-0.7-1.2-1.4-1.8-2.1c-1.1-1.4-2.2-2.9-3.3-4.3
	c-0.9-1.4-1.9-2.8-2.8-4.1c0.1,0.4,0.2,0.7,0.3,1.1c0.2,0.3,0.4,0.7,0.6,1.1c-0.2,0-0.4-0.1-0.6-0.1c-0.6-1.3-1.3-2.5-1.9-3.7
	c-0.6-1.7-1-3.4-1.5-4.9c-0.2-0.7-0.3-1.4-0.5-2.1c-0.1,0-0.2-0.1-0.3-0.1c0.1,0,0.2,0,0.3,0c0-0.2,0-0.3,0-0.4
	c-0.2,0.1-0.3,0.1-0.5,0.2c0-0.3-0.1-0.7-0.1-1c0-0.8-0.1-1.5-0.1-2.3c0.5-1.9,1-3.8,1.6-5.6c0.8-0.6,1.7-1.1,2.6-1.7
	c1.7-0.2,3.3-0.4,4.9-0.6c1.5,0.1,2.9,0.2,4.4,0.4c-2.3,0-4.6,0-7,0.1c-1.1,0.3-2.2,0.6-3.4,0.9c-0.6,0.6-1.1,1.2-1.7,1.8
	c-0.2,0.5-0.4,1-0.6,1.6c0.6-0.6,1.2-1.2,1.9-1.8c1.2-0.4,2.5-0.8,3.7-1.1c1.2-0.1,2.3-0.2,3.5-0.2c1.9,0.2,3.7,0.4,5.5,0.6
	c0.8,0.4,1.7,0.7,2.5,1.1c1.4,0.4,2.8,0.9,4.1,1.3c3.7,1.4,7.5,2.9,11.3,4.2c0,0-0.1,0.1-0.1,0.2c-3.9-1.3-7.8-2.7-11.7-4.2
	c-1.9-0.5-3.8-1-5.8-1.5c-0.3,0.3-0.7,0.5-1,0.8c2.7,0.7,5.5,1.4,8.1,2.2c3.8,1.5,7.6,2.9,11.5,4.2c2,0.7,4.1,1.4,6.3,1.9
	c1.2,0.1,2.4,0.1,3.6,0.1c0.9,0,1.8,0,2.8,0c-4.3-0.7-8.3-1.9-12.1-3.3c1,0.4,2,0.7,3,1.1c3.4,0.5,6.9,0.8,10.6,0.7
	c-5.4-0.8-10.2-2.3-14.8-4.2c2.6,0.6,5.2,1.2,7.9,1.6c-5.8-1.7-11.3-3.9-16.8-6.2c-3.2-0.9-6.4-1.8-9.7-2.6
	c-2.2-0.2-4.5-0.4-6.8-0.5c-1.4,0.2-2.9,0.5-4.4,0.7c0-0.1,0-0.1,0-0.2c-0.6,0.2-1.2,0.4-1.8,0.7c0.9-0.4,1.7-0.9,2.6-1.3
	c1.5-0.1,3-0.2,4.4-0.2c1,0,2.1,0.1,3.1,0.2c0.1,0,0.3,0,0.6-0.1c0.1,0,0.3,0,0.6,0c1.5,0.3,3,0.7,4.5,1c1.1,0.3,2.1,0.6,3.2,1
	c0.2,0,0.4,0,0.6,0c0.4,0.2,0.7,0.3,1.1,0.5c0.7,0.2,1.4,0.4,2.2,0.6c6.1,2.5,12.4,4.8,19,6.4c-0.6-0.3-1.2-0.6-1.7-0.9
	c0.8,0.2,1.5,0.3,2.3,0.4C240.2,391.4,245.3,392.3,239.8,390.8L239.8,390.8z M248.4,396.2c-0.1,0.1-0.3,0.3-0.4,0.4
	c-0.6,0.1-1.1,0.1-1.7,0.2c0.1,0.1,0.3,0.2,0.4,0.3c-1.3,0.1-2.7,0.2-4,0.4c-2.4,0-4.7-0.1-6.9-0.4c-0.1-0.1-0.2-0.2-0.2-0.3
	c-3.6-0.4-7-1.1-10.3-1.9c-1.8-0.7-3.7-1.4-5.5-2.1c0.9,0.2,1.8,0.5,2.7,0.7c-1.7-0.5-3.5-1-5.2-1.5c-0.8-0.2-1.6-0.4-2.5-0.5
	c0-0.1,0-0.3-0.1-0.4c-0.2-0.1-0.4-0.2-0.6-0.3c0.8,0.1,1.6,0.3,2.4,0.4c-0.3-0.1-0.5-0.2-0.7-0.3c-1.9-0.6-3.9-1.2-5.8-1.7
	c-0.1,0-0.3,0.1-0.7,0.4c-0.9-0.3-1.8-0.5-2.7-0.8c-0.7,0-1.3,0-1.9-0.1c-1.3-0.2-2.6-0.3-3.9-0.5c-1,0.1-1.9,0.3-2.9,0.4
	c0-0.3-0.1-0.6-0.2-0.9c0.5-0.1,0.9-0.2,1.4-0.2c0.1,0,0.1,0.1,0.2,0.1c0-0.1,0-0.2,0-0.3c1.4-0.1,2.7-0.1,4.1-0.1
	c2.5,0.3,5,0.7,7.5,1c0.3,0,0.6,0.1,0.9,0.1c0,0.2,0,0.5,0,0.7c2,0.6,3.9,1.2,5.9,1.9c0.8,0.2,1.5,0.3,2.3,0.5
	c3.7,1.5,7.4,3,11.4,3.9c4.1,1,8.6,1.1,13.4,0.9c2.6-0.1,5.3-0.3,8-0.5C251.4,395.9,249.9,396,248.4,396.2L248.4,396.2z
	 M220.6,388.4c-2.5-0.9-5-1.7-7.5-2.6c4.4,1.6,8.7,3.2,13.1,4.8C224.3,389.9,222.5,389.1,220.6,388.4L220.6,388.4z M266.9,389.1
	c-3.5,0.3-7.1,0.5-10.6,0.7c-0.2,0-0.5,0.1-0.7,0.1c3.3,0.1,6.7,0.1,10,0.1c2-0.2,4-0.4,6-0.7c-0.6-0.2-1.2-0.5-1.8-0.7
	C268.9,388.8,267.9,389,266.9,389.1z"/>
<path class="st3" d="M277.3,225.6l-2.4,0l4,4.3l6.9,4l1.1,1.7l5.3,2.9l4.9,1l3.8,2.7l8.2,5.5l4,1.7l11.8,1.7l2.5-1l-2.1,0l-10.4-2.1
	l2.1,0.3l0.3-0.4l7.3,1l-16.6-5.7l-6.4-3.9l-3.1-1.2l-15.2-9.1l0.9-0.6l-3-0.6L277.3,225.6L277.3,225.6z M260.7,248.8
	c0.1,5.1-14.7-14.5-16-16.5l4.9,9.5l-11.1-16.2l-6.4-5.2l-3.4-2.3l-2.4-0.5l-6.6-4.9l-5.6-7.1l3.1-0.9l1.9,0.1l-0.6,0.8l3.9,3.9
	l-1.2-1.6l2.3,2.1l-3.5-7.7l1-8l-2.7-5.7l2.8-1l1.6,0l-0.9-3.7l1.7-1.9l-2-3.9l2.3-1.7l7,3.9l19.8,12.3l3.7,3.9l3.7,3l-11.3-7
	l7.3,6.5l30,22.8l18.4,10.8l13.4,5.7l9.4,1.9l-17.2-6.7l-6.2-3.5l-18-10.9l-22.5-17.4l25.1,18.2l13.9,8.6l3.8,1.5l14.2,7.1l6.7,1.3
	l0.4-0.6c0.7,0.4,1.7,0.7,2.8,1c1,0.2,1.9,0,2.7-0.8c0.7-0.5,2.1-2,4.3-4.5l-0.1-8.7l1.2-3.5l-0.1-12.4l1.1-0.7l-0.6-2.1l1.1-0.7
	l0.6,3.7l0.9-0.3l1.3,4.1l1.9,8.1l1.2,7.9l0.7-2l-0.1-2l1.2,0.4l-0.5,7l-2.5,9.8l-1.4,4.3l0.5,0.3l-0.4-0.1l-0.4,0.9l1.1-0.4l-1,2.1
	l-2.3,5l-9,12.9l-5.6,3.6l-7.9,0.6l-6.6-1.3l11,0.7l5.9-1.4l4.6-4.1l2.8-3.7l-4.8,3.9l-6.8,2l-5.7,0.1l-8.5-1.7l-3.4-2.5l-6.2-2.9
	l-16.4-9.4l0.3-0.4l17,9.3l8.8,3.2l2.4-1.8l-12.4-4.7l-16.6-9.5l-8.1-5.8l-4.8-1.8l-3.3-1.8l14.2,12.1l-3.9-2.9l-14-6.3l17.9,14.6
	l-11.6-5.1l23.5,15.4l14.5,6l10.2,2l7.1-0.9l-0.2,0.6l3.2-1.2l-5.2,2.6l-6.7-0.4l-4.6-0.9c-0.1,0-0.5,0.1-1,0.2
	c-0.1,0.1-0.4,0.1-0.9,0l-6.6-2.7l-4.6-2.3l-1-0.1l-1.6-1.1l-3.3-1.4l-26.5-16.8l1.7,2.6l-2.9-1.9
	C260.8,247.3,256,241.5,260.7,248.8L260.7,248.8z M258.2,228.9l0.9-0.6l1.8,1l0-1.1l4.4,2.4l7.5,5.3l0,0.7l13.9,7l7.7,4.7l-4.1-1.6
	l7.9,3.2l3.9,1.1l-0.2,0.9l0.7,0.6l-3.9-0.8l1.1,0.6l8.8,3.6c0.1,0,0.7-0.2,1.5-0.8l4.1,1.7l3.3,0.2l6.2,1.2l5.2-0.6l-0.7,2.1
	l-2.5,0.4l-0.2-0.3l-0.3,0.7l-6.8-0.1l-12-2.4l-1.5-0.3l0.6-1.5l-8.9-3.9l-3.7-1l-31.4-19.5l-8.1-5.9L258.2,228.9L258.2,228.9z
	 M289.8,257.8l11.1,5.6l-19.1-10.5L289.8,257.8L289.8,257.8z M233.1,227.9l9.3,9.6l0.7,0.4l-7.9-10.8l-5.5-4.9l0.5,3.7L233.1,227.9z
	"/>
<path class="st4" d="M255.8,439.4l-2.5,0.8l6.1,1.7l8.9,0.6l1.9,0.9l6.7,0.3l5.5-0.9l5.2,0.7l11,1.2l4.9-0.1l12.9-2.5l2.1-1.5
	l-2.2,0.7l-11.6,1.9l2.3-0.5l0.1-0.4l8-1.6l-19.7,1.3l-8.4-0.7l-3.8,0.1l-19.7-1.6l0.6-0.7l-3.3,0.5L255.8,439.4L255.8,439.4z
	 M249.5,461.1c2.5,3.6-21.8-5.5-24-6.6l9.4,5.1l-18.9-7.9l-9-1.6l-4.6-0.6l-2.7,0.4l-9.1-1.4l-9-3.2l2.7-1.6l2-0.6l-0.3,0.8l5.9,1.5
	l-2-0.7l3.4,0.8l-7.1-4.3l-2.6-6l-5.4-3.1l2.4-1.6l1.7-0.5l-2.7-2.3l0.8-1.9l-3.8-2.1l1.6-1.9l9,0.5l26,2.4l5.5,1.6l5.2,0.9
	l-14.8-1.3l10.5,2.2l41.3,6.5l23.9,1.8l16.4-0.3l10.5-1.7l-20.7,0.7l-8-0.5l-23.5-1.9l-31.1-5.1l34.1,4.8l18.2,1.6l4.6-0.2l17.9,0.5
	l7.5-1.2l0.1-0.6c0.9,0.1,2.1,0,3.3-0.2c1.1-0.2,1.9-0.6,2.4-1.4c0.5-0.6,1.3-2.1,2.4-4.5l-4.1-6.1l-0.4-2.9l-5.8-8.7l0.8-0.9
	l-1.6-1.3l0.9-0.8l2.3,2.5l0.7-0.5l3.3,2.5l5.7,5.1l4.9,5.2l-0.2-1.6l-1-1.4l1.4-0.1l2.8,5.1l1.9,7.7l0.5,3.5l0.6,0l-0.5,0.1l0,0.8
	l0.9-0.6l0,1.8l-0.1,4.2l-3.2,12l-4.1,4.3l-7.9,2.9l-7.4,1.2l11.6-3l5.4-2.9l2.8-4.4l1.1-3.5l-3.2,4.3l-6.1,3.6l-5.9,1.9l-9.5,1.5
	l-4.6-0.7l-7.7-0.1l-21.2-1.4l0.1-0.3l21.8,1.1l10.5-0.5l1.6-2L291,455l-21.4-1.4l-11-1.6l-5.8,0.2l-4.2-0.2l20.2,4l-5.3-0.8
	l-17.3,0l25.1,4.6l-14.2,0.1l31.2,3.4l17.6-0.4l11.4-1.8l6.9-2.9l0.1,0.5l2.8-1.9l-4.1,3.5l-7,1.8l-5.1,0.8c-0.1,0-0.4,0.2-0.9,0.5
	c-0.1,0.1-0.4,0.2-0.9,0.3l-8,0.2l-5.8-0.1l-1.1,0.3l-2.1-0.3l-4,0l-35-3.4l2.9,1.3l-3.9-0.4C248.9,460,241.3,457.5,249.5,461.1
	L249.5,461.1z M237.8,447.9l-6.3-0.6l11.1,1.6l41.3,3.8l4.3-0.4l10.9-0.1l0.1,1.3l1.7-0.3l13.4-2.1l7-2l-0.1-0.6l0.3,0.2l2.4-1.1
	l-0.3-1.7l-5,2.1l-6.9,1.1l-3.5,0.9l-5,0.1c-0.6,0.7-1,1-1.2,1l-10.7,0.2l-1.4-0.1l4.4-0.7l-1-0.2l-0.2-0.7l-4.5,0.5l-9.6,0.2l5-0.2
	l-10-0.9l-17.5-0.5l-0.4-0.5l-10.2-1.4l-5.7-0.3l0.5,0.8l-2.3-0.1L237.8,447.9L237.8,447.9z M283.5,458.2l13.9,0.4l-24.5-1.3
	L283.5,458.2L283.5,458.2z M211.5,455.1l14,3.8l0.9,0.1l-13.1-5.1l-7.9-1.7l2.2,2.5L211.5,455.1z"/>
<path class="st3" d="M387.6,120.7l0.4-2.4l3.6,4.6l2.9,7.4l1.5,1.3l2,5.7l0.2,5l2.1,4.2l4.1,9l1,4.2l-0.1,12l-1.4,2.3l0.4-2.1
	l-0.5-10.6l-0.1,2.1l-0.4,0.2l-0.1,7.4l-3.1-17.3l-2.8-7l-0.7-3.3L390,127l-0.7,0.8l-0.1-3L387.6,120.7L387.6,120.7z M413.2,107.7
	c5,0.9-12.1-16.7-13.9-18.3l8.6,6.3l-14.3-13.5l-4.2-7.1l-1.8-3.7l-0.1-2.5l-3.9-7.3l-6.1-6.6l-1.3,2.9l-0.2,1.9l0.9-0.5l3.3,4.5
	l-1.4-1.4l1.7,2.6l-7.1-4.6l-8-0.2l-5.2-3.5l-1.4,2.6l-0.2,1.6l-3.5-1.5l-2.2,1.4l-3.5-2.6l-2,2l2.8,7.5l9.1,21.5l3.3,4.2l2.4,4.1
	l-5.1-12.2l5.3,8.2l17.9,33.1l7.9,19.9l3.5,14.1l0.4,9.6l-4-18l-2.5-6.6l-8-19.5l-13.7-24.9l14.1,27.6l6.3,15l0.9,4l4.8,15.1
	l0.3,6.8l-0.7,0.3c0.3,0.8,0.5,1.8,0.5,2.9c0,1-0.3,1.9-1.2,2.5c-0.6,0.6-2.3,1.8-5.1,3.6l-8.5-1.4l-3.7,0.6l-12.3-2l-0.9,1l-2-1
	l-0.8,1l3.6,1.1l-0.4,0.8l3.8,1.9l7.7,3.1l7.7,2.4l-2.1,0.4l-1.9-0.4l0.2,1.2l7,0.6l10.1-1l4.4-0.7l0.2,0.5l0-0.4l1-0.3l-0.5,1
	l2.2-0.6l5.3-1.5l14.1-6.9l4.4-5l1.8-7.7l-0.3-6.7l-1,11l-2.3,5.6l-4.8,3.9l-4.1,2.2l4.6-4.2l3-6.5l0.9-5.7l-0.4-8.7l-1.9-3.7
	l-1.9-6.6l-6.8-17.6l-0.4,0.2l6.6,18.3l1.9,9.2l-2.1,2.1l-2.8-13l-6.9-17.8l-4.5-8.9l-1.1-5.1l-1.2-3.6l9.8,15.9l-2.3-4.3l-4.1-14.8
	l11.7,19.9l-3.3-12.2l11.7,25.6l3.8,15.2l0.4,10.4l-1.9,6.9l0.6-0.1l-1.6,3l3.4-4.7l0.6-6.7l-0.2-4.7c0-0.1,0.1-0.5,0.4-1
	c0.1-0.1,0.1-0.4,0.1-0.9l-1.6-6.9l-1.5-4.9l0.1-1l-0.8-1.7l-0.9-3.5L413.3,111l2.4,2.1l-1.4-3.2C411.6,107.6,406.6,102,413.2,107.7
	L413.2,107.7z M393.9,102.3l-0.7,0.8l0.7,2l-1.1-0.2l1.7,4.8l4.1,8.2l0.7,0.1l4.8,14.8l3.5,8.3l-0.9-4.3l2,8.3l0.5,4l0.9,0l0.5,0.8
	l-0.2-4l0.5,1.2l2.2,9.2c0,0.1-0.3,0.6-1,1.4l1.1,4.3l-0.3,3.3l0.3,6.3l-1.4,5l2.2-0.3l0.8-2.4l-0.3-0.2l0.8-0.1l0.9-6.7l-0.5-12.2
	l-0.1-1.5l-1.6,0.4l-2.5-9.4l-0.5-3.8l-14.5-34l-4.6-8.9L393.9,102.3L393.9,102.3z M417.6,137.9l3.8,11.8l-7.4-20.5L417.6,137.9
	L417.6,137.9z M396.7,77.3l8,10.7l0.3,0.8l-9.5-9.5l-4-6.2l3.6,1L396.7,77.3z"/>
<path class="st3" d="M216.9,139.9l-2.9,0l4.8-4.3l8.2-4l1.3-1.7l6.3-2.9l5.9-1l4.6-2.7l9.9-5.5l4.8-1.7l14.2-1.7l2.9,1l-2.5,0
	l-12.5,2.1l2.5-0.3l0.4,0.4l8.8-1l-19.9,5.7l-7.7,3.9l-3.8,1.2l-18.2,9.1l1.1,0.6l-3.6,0.6L216.9,139.9L216.9,139.9z M196.9,116.6
	c0.2-5.1-17.6,14.5-19.2,16.5l5.9-9.5l-13.4,16.2l-7.7,5.2l-4.1,2.3l-2.9,0.5l-8,4.9l-6.7,7.1l3.7,0.9l2.3-0.1l-0.7-0.8l4.7-3.9
	l-1.4,1.6l2.8-2.1l-4.2,7.7l1.2,8l-3.2,5.7l3.3,1l1.9,0l-1.1,3.7l2,1.9l-2.4,3.9l2.7,1.7l8.4-3.9l23.8-12.3l4.4-3.9l4.4-3l-13.5,7
	l8.8-6.5l35.9-22.8l22.1-10.8l16.1-5.7l11.3-1.9l-20.6,6.7l-7.4,3.5l-21.6,10.9l-27,17.4l30.1-18.2l16.6-8.6l4.6-1.5l17-7.1l8-1.3
	l0.5,0.6c0.9-0.4,2-0.7,3.4-1c1.2-0.2,2.3,0,3.2,0.8c0.8,0.5,2.6,2,5.2,4.5l-0.1,8.7l1.4,3.5l-0.1,12.4l1.3,0.7l-0.8,2.1l1.4,0.7
	l0.7-3.7l1,0.3l1.6-4.1l2.3-8.1l1.4-7.9l0.8,2l-0.1,2l1.4-0.4l-0.6-7l-3-9.8l-1.7-4.3l0.6-0.3l-0.5,0.1l-0.5-0.9l1.3,0.4l-1.2-2.1
	l-2.8-5l-10.7-12.9l-6.8-3.6L263,94l-7.9,1.3l13.2-0.7l7.1,1.4l5.5,4.1l3.3,3.7l-5.8-3.9l-8.2-2l-6.9-0.1l-10.2,1.7l-4.1,2.5
	l-7.4,2.9l-19.7,9.4l0.3,0.4l20.4-9.3l10.5-3.2l2.8,1.8l-14.9,4.7l-19.9,9.5l-9.7,5.8l-5.8,1.8l-4,1.8l17-12.1l-4.7,2.9l-16.8,6.3
	l21.5-14.6l-13.8,5.1l28.1-15.4l17.3-6l12.3-2l8.6,0.9l-0.2-0.6l3.9,1.2l-6.2-2.6l-8,0.4l-5.5,0.9c-0.1,0-0.6-0.1-1.2-0.2
	c-0.1-0.1-0.5-0.1-1.1,0l-7.9,2.7l-5.5,2.3l-1.3,0.1l-1.9,1.1l-4,1.4L200.7,116l2-2.6l-3.5,1.9C197,118.2,191.3,123.9,196.9,116.6
	L196.9,116.6z M194,136.5l1.1,0.6l2.2-1l-0.1,1.1l5.3-2.4l9-5.3l0-0.7l16.7-7l9.2-4.7l-5,1.6l9.5-3.2l4.7-1.1l-0.2-0.9l0.9-0.6
	l-4.7,0.8l1.3-0.6l10.5-3.6c0.2,0,0.8,0.2,1.8,0.8l4.9-1.7l3.9-0.2l7.4-1.2l6.2,0.6l-0.8-2.1l-3-0.4l-0.2,0.3l-0.3-0.7l-8.1,0.1
	l-14.4,2.4l-1.8,0.3l0.7,1.5l-10.7,3.9l-4.4,1L198,133.6l-9.8,5.9L194,136.5L194,136.5z M231.9,107.7l13.3-5.6l-22.9,10.5
	L231.9,107.7L231.9,107.7z M163.8,137.6L175,128l0.8-0.4l-9.5,10.8l-6.6,4.9l0.6-3.7L163.8,137.6z"/>
<path class="st3" d="M371.9,280.5c1.5,2.1,3.2,4.5,4.1,7l-9.5,4.9l8.7-2.9c0.1,0.3-2.5,1.2-2.4,1.5l-3.3,1.3l7.2-3.8
	c0,0.1,0.5,0.7-3.8,3.2l-0.5,1.4l-7.3,2.5l-4.3,1.9l-4.6,2l14.9-4.4l-11.3,3.7l11-2.7l-0.9,1.4l-7.9,2.1l-1.1,0.4l-0.4,0.2l1,0.3
	l9-2.1l0.2,1.8l-4.1,0.9l4.8,1c-0.1,1,1.8,2.1,1.5,3.1l-0.6-0.1l-3.5-0.5l-4.4-0.1l-4-0.8L360,304l0.1,0.3l0.2,0.4l3.6,0.5l8.8,1.2
	c-0.1,0.4-0.2,0.7-0.4,1.1c-0.2,0-0.5-0.1-1.1-0.1l-5.8-0.6l-5.8-0.8l-4.1-0.5l-3.8-0.2c-0.1,0-0.7-0.1-1.9-0.3l-2.3-0.3l-0.7,0.1
	l0.1,0.2c0.6,0,1.1,0,1.4,0.1c0.1,0,0.2,0,0.3,0.1c0.1,0,0.2,0.1,0.2,0.1l2.1-0.1l0.6,0.8l8.4,1.6l14.1,0.2c-0.1,0.1-2.7,1.8-2.8,2
	l-7.2-0.8l1.2-0.2l-1.9-0.3l-1.1,0.1l-1-0.5l-3.6-0.4l2.4,0.7l-5.4-0.8l-3.9-0.6l0.6-0.2l-5.5-0.3l-1.5,0.4l-1.8-0.8l-2.8-0.4
	l-7.1,0.5L331,307l-4.4,1.2l3.3-2.6l-2,0.1l-2.7,0.2l1.1-1.4l-1.7,0.4c-0.1,0-0.2-0.1-0.5-0.2c-0.1,0-0.2-0.1-0.2-0.1
	c0,0-0.1,0-0.1,0c-0.5-0.2-0.7-0.4-0.8-0.6l-0.1-0.5l3.1-1.8l-3.5,1.4l0.6-0.7l10.9-5l-2.7,0.3l-1.6,0.4l2-1.3l2.3-0.9l2.8-1.2
	l1.5-0.5l6.1-2.4l9.4-3.8l1.1-3.1l5.7-2.8l10.6-3.1l-7.4,4.2l-7.1,4.4l0.2,0.3l11.6-4.6L371.9,280.5z"/>
<path class="st3" d="M237.1,69.6l-10.9-1.2l19.8-1.4v-0.7l3.4,1.9l-5.7,0.3l7.3,1l7.3,4.4l-0.3,0.5l-2.1-0.7l-0.8,0.7l-3.1-1.2
	l-7.2-1.3l-12.7-0.8l-1.3,0.2l0.1-0.3c2.1-0.6,4.2-0.9,6.2-0.9c0.9,0,2.7,0.2,5.2,0.4l-1.8-0.6L237.1,69.6L237.1,69.6z M230.8,61.4
	l-0.3,0.7l-5.6,0.5l2.1,0.9l-11.4,3.1l-4.4,1.8L217,67c-3.9,1.3-6.7,2.2-8.2,2.6c-1.2,0.4-2,0.8-2.4,0.9l0,0c0.9,0,5.8-1.2,14.7-3.6
	l10.2-1.3l2.8-0.2l9.3-0.5l-5.3-2.1c-1.3-0.6-2.4-0.8-3.3-0.8h-1.8v-0.5L230.8,61.4L230.8,61.4z M236.8,57.2l1.3-0.2l2.4,1.3
	l8.7,3.9l11.5,6.5l11.9,7.7l-5.6-6.2l-6.8-5.9l-0.7,0.5l-2.4-2.8l-0.6,0.3l-6.9-4.6l-1.4-0.5v0.2l-0.9-0.5l-6.2-1.1L236.8,57.2
	L236.8,57.2z M198.3,47.6l14.9-3.7l-22.8,3.9l-5.4,1.9l0.3,2.3l-6.2,0.5l-4.4,1.3l-17.6,5.3l-0.2,0.5l-11.4,4.1l-4.6,3.3l-16.7,11
	l-12.5,10.3L101.2,100l-5.2,7.8l0.9,0.7l-3.2,5.6l-4.2,11.7l-1.2,4.7l-0.5,0.9l0.2-0.2c-0.4,0.4-0.6,0.9-0.6,1.5l0.3,4.4l-1.6,4.6
	c0,0.2,0.1,0.4,0.2,0.5c0.1,0.1,0.2,0.2,0.2,0.4v17.6l1,1.4l0.2-12.7l0.8,5.7l0.2-18l3.1-15l1.4-3.7l1.9-0.5l0.3,1.9l-1.6,5.2
	l-1.2,1.8l-0.4,3.4l0.2-1.2l0.4,0.2l-1.1,7.8l-0.2,23.9l0.8,0.7l4.1-3.6v-0.6l0.8-0.3l0.1,0.2l1-0.9l-0.4-1.3l-0.7-13l2.6-7.2
	l0.8-0.3l3.1,1.1l-0.7,2.4l0.9,0.2l1.8-5.7l0.8-0.8l1.5,0.5l2.6-4.6l-1,0.5l0.8-1.9l0.6,0.1l0.5-0.9l2.1-0.3l2.6,3.6l3.9,3.6
	l-1.4,3.9l4.2-8.3l0.3,0.2l1.4-2.9l1.2-1l1.3-2.1l1.3-0.3l-3.9,6.3l-0.2,0.8l0.9,0.7l-3.4,7.5l0.8,0.5l-0.8,2.6l0.3,0.2l0.5-1.3
	l6.2-11l5.5-7.8l5.2-6.5l6-5.1l6.8-5.3L141.6,114l-8.8,10.5l-0.8,2.1l7-8.9l14.2-14l10.3-7.7l8.4-4.7l9.3-2.3l-13.7,7.2l-2.3,1.2
	l-12.4,9.3l-6.8,5.5l-7,7.8l-7.4,11.4l-2.8,5.6l7.6-11.5l13.8-15.3l13.8-10.5l11.5-7l8-5.7l10.9-4.1l9.8-2.1
	c6.7-2.3,10.3-3.5,10.6-3.7c2.3,0,5.2-0.6,8.4-1.8l0.8,0.2l1.5,2l-0.8,0.6l-1.6,0.2l-0.8,0.7l-1.3,0l-7.5,2.1l4.9-0.7l14.5-2.9
	c1.3-0.3,2.3-0.5,3.1-0.5c1,0,1.9,0.7,2.8,2l1.7,0.5l-0.1-0.5l19.7,0.3c4.6,0.2,8,1.3,10.3,3.2l0.8,0.7l3.8,3.6l1.3,0.9l1,1.9
	l4.1,3.4c1.4,2.3,5.4,8.8,12.2,19.5l5,13.2l0.8,5.2l3.9,14l0.8,5.2l2.3,15c0.6,1.6,0.9,2.7,1,3.1c0.3,0.7,0.5,1.1,0.6,1.2l-0.6-6.7
	l-0.3-3.9l-1-4.1c-0.4-2.1-0.7-3.5-0.7-4.4l-0.8-1.9l0.5-0.3l-3.9-14.5l-0.8-4.1l-4.4-14.8l0.5-0.9l1.8,4.7l0.4-0.3v1.9l0.7,1.2
	l1.6,6.8l1.3,3.9l3.7,13.2l0.5,4.6h0.7l2.3,11.1l1.1,0.8l0.5,3.4c0.4,0.9,1,1.4,1.6,1.4c0-0.9-0.2-2.1-0.5-3.7l-0.3-0.5l-1.8-14
	l-2.1-10.7l-1.8-5.1l1.6,0.5l2.1,8.8l2.4,12.5l1,6.6v0.9l0.7,0.2l0.2,5.1l0.8-5.1l-5.5-27.3V131l1.8,7l-0.8-5.3l-2.9-10.1l-4.7-12.8
	l-3.8-9.8l-4.2-3.9l-3.1-5.3l-6.8-9.3l-6.5-7.2l-11.2-10.4l-8.2-5.5l-9.1-4.9c-2.2-1.2-4.3-2.1-6.3-2.8l-3.6-1.6l-12.4-2.8l-17.7,0
	l3.1,1.4l-16.1-0.2H198.3z"/>
<path class="st5" d="M131.3,275.8l-4.2-4.1l2.9,0.4l4.1,4l-1,0.2l-1.1-0.9L131.3,275.8L131.3,275.8z M114.4,127.9l1-0.6l0.8-0.9
	l0-1.2l2.6-2.7l3.7-2.5l2.7-1c-0.8,0.4-1.3,0.7-1.5,1c-0.1,0.1-0.3,0.2-0.6,0.3c-0.2,0.1-0.4,0.3-0.4,0.4c-0.3,0.2-0.6,0.5-1,0.8
	c-1.5,1.1-2.7,2.2-3.6,3.5l-2.2,4l0.2,1.9l-0.5,2l1.2-0.9l2.8,0.1l-0.8,0.9l0.8,0.4l-1,2.8l0.9,1l-2.6,2.2l0.9,2.7l-1.5,1.7
	l-1.4,2.1l-1.3-0.4l-0.7,2.3l-2.1,5.6l-1.9,11.7c-0.9,2.9-1.5,6-1.7,9.3l-0.2,13l-0.1,5.4l0.5,8.7l0.7,3.5l3.1,14.8l0.2,3l2.7,6.5
	l1.2,5.3l4.9,11.3l7.5,12.3l3.9,5.3l5.9,5.1l1.8,2l7.7,5.9l12.3,5.3l9.1,2.4c-1.3,0-2.2-0.1-2.7-0.3c-1.8-0.2-2.8-0.3-3-0.3
	c-2.8-0.1-4.4-0.2-4.9-0.4l-0.9-0.3l-11.1-4.4l0.9-0.5l-2.8-0.7l0.3-1.6l-4-2l-0.6-1.2l-2.7-1.6l-5-4.7l-2.9-3.1l-3.6-5.3l-5.7-11
	l-2.5-4.8l-1.1-2.8l-3.6-11.7l-1.3-4.5l-0.5-3.4l-1.6-6.7l-1.4-6.1l-0.8-7.4l-0.4-10.4l-0.6-3.7l0.2-10.2l-2.3-0.6l-2.5-6.6l-2,0
	l-0.6-2.5l-2.4,11.2l-1.4,18.8l0.6,12.9l0.1,5.4l1.7,10.6l-0.1,2.4l2.3,10.2l1.9,6.8l3.3,8.4l6.9,8.4l5,8.1l8.7,11.4l7.6,5.8
	l-6.4-5.8l-8.3-10.3l-3.4-6.4l-2.8-6l1.3-2.1l-0.5-0.6l1.8-1.1l1.4,1l3.1,5.3c0.7,1.2,2.1,2.3,4.1,3.4l-2-2.1l-0.4-3.8l-0.5-0.1
	l1.5-0.1l2.3,2.9l0.6,1.5l0.5-0.1l0.7,1.2l1.3,1.4l0.1,1.1l1.6,1.2c2.7,3.5,4.6,5.7,5.8,6.7l5.6,4.1l1.9,1.8l1.1,0l0.1,0.8l1.2,0.3
	l4.1,1.4l8.5,3.8l10.3,1.5l-9.9-0.3l-10.3-3.5l-7.2-3.6l-2.8-2.3l0.4,1.3l3.5,3.4l1.9-0.1l-0.3,0.8l3.7,1.9l14.6,4.8l11-1l2.4,0
	l2-0.8l9.3-3.8l2.4-2c0.3-0.3,1.2-0.7,2.6-1.3l0.1-0.3l2.6-1.5l10.9-9.5l8.8-7.7c0.6-0.6,1-1,1.2-1.2c0.2-0.2,0.4-0.4,0.7-0.6
	c0.1-0.1,0.2-0.4,0.4-0.6c0.2-0.2,0.3-0.3,0.5-0.4l2.6-3c1.5-1.7,2.4-2.9,2.7-3.3l2.2-3.4l2.2-2.6l0.2-1.2l2.2-3.4l5.6-9.7l5.4-13.3
	c0.1-0.2,0.1-0.4,0.1-0.7c0-0.3,0.1-0.9,0.2-1.9c0-0.2,0.1-1,0.6-2.5l1.2-3c0.4-1.4,0.8-3.5,1.1-6.1l0.5-8.6l0.9-11.1l0.2-9.6
	l-1.4,1.3l-0.9-11.3l-0.3,7L239,159l-0.3-3.6l-1.6-0.1l-1.2,7.3l-1.5,5.3l-0.1,1.5l-0.7,2.1l-1.8-0.5l-0.6,8.1l-0.5,3.4l-1.1,11.5
	l-1.5,8.2l-1.9,0.9l0.6-10.6l0.4-8.5l0.3-11.6l-3,19.6l-1.5,0.2l-0.4-0.3l-0.1-1.9l-0.9,8.5l0,1.7l-1.2,9.2l-1.4-2.9l-0.4,4.7
	l-1,4.8l-0.7,0.6l-0.9,6.8l-0.3,0.2l0.3,0.2l-0.5,3.6l-2.6,17.4l-1,3.1l2.3-18.6l0.8-3.1l-2.4,13.5l-2.5,11.5l-0.8-0.8l0.4,1.5
	l-8.7,8.1l-4.6,3.1l-0.6-0.3l-1.8,1.4l-2.6,0.8l0.2,0.1c-1.1,0-2.5,0.5-4.2,1.3l-2.5,0.4l-2.1,0.5l-7.7-0.9l-5.8-1.9l-3.9-1.9
	l-8.7-5.1l-0.4-0.9l-0.9-0.4l-1-1.4l-0.9-0.4l-3.6-3.3l-3.3-3.8l-9.7-15.8l-2.5-5.4l-3.1-5.3l0.5-2.2l-1.9,1l-2.3-7.7l-2-9
	l-1.5-14.5c-14.7,5.3,2.5,53.2,9.9,64.5c-19.2-21.4-22.3-57-10.6-67.8l-0.4-8.5c-0.1-3.8,0-7.1,0.3-9.9l0.1-3.2l0.9-7.3l3.2-5.2
	l1.5,1.8c-0.7-1.1-1-2.3-0.9-3.5c0.1-0.9,0.4-1.9,0.8-3.2l8.1,4.3l0.5-0.2l1-2.7l-1.1-0.3l0.4-0.8l1.5-0.2l-0.3-0.9
	c1.8,0.4,3.7,0.4,5.8,0.2l2.3,1.1l3.5,1.1l9-3.9l2.6-0.4l1.1-0.8l4.6-0.6l4.5-3.4l2.8-1.6l1.8-0.1l3.9,2.2l5.2,1.4l3.1,3l1.4,0.7
	l-0.7-1l-1.9-3l0.1-3.2l-1.3-0.8l-1.4-4l-8-6.6l0.3-1l-6.4-3.7l-8.1-4.5l-2-1.3l0.2-0.4l0.8-0.3l-4.6-1.2l0.6-0.6l-9.5-3l-1.7-0.9
	l-1.4-0.8l6.5,1.7c-0.1-0.3,0-0.6,0.1-0.8c0,0,0.7-0.2,1.9-0.4c1.9-0.2,2.9-0.4,3.1-0.4l8.7,3l4.2,2.2l-2.7-1.5l0.9-0.4l-5.1-2.1
	l-6.9-1.8c-1.4-0.4-3.2-0.5-5.4-0.5c-5.9,0.3-9.4,0.3-10.3,0c-0.5-0.1-3.6,0.9-9.4,3l-6.9,4.2l8.7-4.1l-5.9,4.2l-3.9,3.4l5.3-3.8
	l-0.1,2.1c-1.3,0.4-3.1,1.3-5.5,2.7l-5.7,5.2L114.4,127.9z"/>
<path class="st3" d="M232.3,154.4l-3.8,4.1l9.5-4.9l11.8-7.1l6.4-1.6l-11,7.1l-7.8,5l-1.8,1l-0.6,1.1l0.5,0.9l1,0l0.5-0.4l0.4,0
	l0.3-0.4l0.4,0.2l1.1-1.3l0.1,0.9l-8.6,5l0.4,1.2l-0.8-0.9l-1,0.5l1.1,1.4l1.1-0.4l-0.3-0.4l21.4-12.2l7.6-4.8l0.4-2l-0.8-1
	c-2.3-2.4-3.7-3.8-4.3-4.2c-0.5-0.4-1.1-1.2-1.8-2.5l-2.9,2.7l0.3,0.2l-9.4,6.5l-6.3,3.9L232.3,154.4L232.3,154.4z M186.9,187.2
	l-11.8,7.9l-10.8,9.7l1.6,1l2.7-0.7l3-2.7l1.9-1.3l16.8-11.7l8.5-5.3l0.4,0.3l0.6-0.9l4.2-2.4l-0.6-1l-4.6,2.5l-12.3,7.7l0.4,0
	l-5,2.9l-1.6,0.9l-3.5,2.4c-0.5,0.3-1.1,0.6-1.8,0.8l-2.2,1.6l3.7-2.7l11.5-7.9l9.3-5.9l5.7-3.5l0.1-0.7l2.7-0.9l-0.5-0.8l-2,1.2
	l-7.6,4.7L186.9,187.2L186.9,187.2z M139.1,212.9l5.4-9.6l0.8,1l-0.6,0.4l0.5,0.7c0.8-1.1,1.5-1.9,2-2.4c0.4-0.4,1.2-0.9,2.5-1.7
	l-2.1,2.1l-0.3,0.9l0.4,0.4l5.7-4.6l-6.3,6l-1.8,2.8l0.6,0.1l-0.8,1l-0.7,1.3l0.8-0.4l3.4-4.1l1.4-0.9c-0.1,0.2-0.3,0.5-0.7,0.8
	c-0.3,0.3-0.4,0.4-0.4,0.6c-1.2,1.5-2.1,3-2.7,4.5l2.9-3.7l7.6-7.2l6.7-4.8c0.5-0.3,1.2-0.6,1.8-0.7c2.8-0.8,4.5-1.3,5.2-1.5
	c-2.1,0.7-3.9,1.5-5.3,2.4l0.1,1.2l0.4,0.4l0.4-0.4l0.2,0.7l1.1,0l1.6-0.9l-1,1.1l0.3,0.8l3.2-2.1l0.5-0.7l4-3l10.6-7.2l1.6-0.4
	l2.2-1.7l5.9-3.4l1.6-1.2l4.5-2.7l-0.5-0.3l-3.4,2l-0.3,0.1l-0.5-0.4l0.2,0.7l-4.4,2.3l0.4-0.9l-6.3,3.9l-1,0.4
	c0.1-0.1,0.1-0.1,0.1-0.2l0.2-0.2c0.1-0.1,0.2-0.1,0.3-0.2l14.4-8.9l5.1-3c0.2-0.2,0.5-0.7,0.9-1.5l-8.4,4.5l2-1.3l1.3-1.4l1.7-0.5
	l3.3-3.2l-4,2.3l-8.1,4.7l0.8-0.9l3.7-2l-6.5,3.3l-18,11.4l-2.5,1.1l-5.5,3.8l-1.8,2.3c-2.1,0.8-4.2,2.2-6.3,4.1l-2,0.4
	c-1.1,0.7-1.8,1.3-2.2,1.7l-1.4,1.5l-1.1,1.2l0.4-0.8l4.4-5.5l5.6-5.3l-0.1-0.1l-3.2,2.3l-0.9,0.3l2.8-2.3l1.2-1.3l0.8-0.4l-0.2-0.3
	l4.6-3.5l6.3-4.6l8.8-6l-0.6,0l6-4l1.8-1l24-14.2l-0.6-0.4l1.3-0.4l2.6-1.3l18.3-10.5l11.9-8l0.7,0.3l1.7-1.3l0.3,0.2l2.6-0.9
	l-0.6-0.4l2.2-9.1l1.4-7.8l0.5-1.9l0,0.9l0.1,1.3l0.5,0.4c0.5-1.6,0.8-3.7,0.8-6.2l0.9-1.4l0.5,0.2l-0.3,1.7l2.3,3.9l-0.1,1.7
	l1.5,0.3l-0.1-0.9l1-2.1l0.2-0.9l0.8-0.6l0.4,3.9l0.5,0.4l0.3-0.7l1.3,5.1l0.8,12.3l0.1,6.3l-0.5,9c-0.2,2.9-1.1,5.3-2.7,7.2
	l-0.7-0.2l0.6-1.9l-0.5-5.7c-1-0.5-1.7-0.6-2.2-0.1l-0.6,0.6c-0.1,0.2-0.2,0.4-0.5,0.7l0,1l0.7,0.1l0.3,1l-7.9,5.2l-19.7,12.7
	c0.3,0.3,0.5,0.6,0.7,0.9l-27.1,14.1l-23,14.3l-12.3,10.3l1.4,0.7l-0.9,1.1l-0.5,0.1l-5.7,6.2l-7,11.1l-0.6-0.6l0.3-0.8
	c-0.8-0.1-1.4,0-1.5,0.2c-0.2,0.2-0.1,1.3,0.2,3.5l0.9,5.4l4.7,6l-3.8-2.4l0.7,0.4l-1-1.5l-3.3-2.6l-0.4-1l-1.5-1.1l-0.7-2.9
	l-0.8-0.3l-0.5-1.9l-0.4,1l0.5,0.5l-0.6-0.4l-1.2-3.4l-0.2,4.8l-3,0.9l-1.1-1.8l-1-6.2l0.5-1.3l0-0.6l-0.8-0.2l0,1l0,0.3l-0.5,1
	l0.1-0.8l-0.4-0.4l0.1-1.4l0.2-1.1l0.4,0.1l-0.5-0.4l0.6-0.3l-0.7-0.8l-0.9,1.2l0.2,0.5l-0.1,5.4c0,1.3,0.8,2.9,2.3,4.8l-0.1,0.2
	l-2-0.3l-5.5-4.1L138,228l-1-3c-0.3-0.8-0.4-1.6-0.3-2.1l0.8-4C137.5,217.3,138.1,215.3,139.1,212.9z"/>
<path class="st3" d="M348.6,268.3l-1.5,2.6l-4.9,6.5l0.6,1.3l0.3-0.7l0.4,0.7l0.8-1.1l0.9-2.4l0.7,1.3L348.6,268.3L348.6,268.3z
	 M252.6,379l-4.5-7.9l2.5,7.1l3.4,7.2l-0.3-4L252.6,379L252.6,379z M224.1,342l28.2,56.7l-2.9-3.4l-0.3,0.6l-20.6-40l-4.7-10
	l-2.7-5.6l-0.5-2.1L224.1,342L224.1,342z M213.9,321.3l3.4,4.7l0.7-3l32,62.3l3.6,10.8l-3.1-6.8l-3.3-5.2L221,332.2l-4-3l-0.9-1.9
	l-4.1-4.6L213.9,321.3L213.9,321.3z M219.4,313.2l-1.2,1.6l13.7,28l4.4,4.2l-2.2-4.1l-3.2-10l-9.7-17.5L219.4,313.2L219.4,313.2z
	 M233.6,293l-1.4-5.4l2.3,15.9l1.4,3.6L233.6,293L233.6,293z M234.7,285.4l1.3,4.3l1.6,8l0.3,7.2l-4.1-19.9L234.7,285.4L234.7,285.4
	z M234.6,279.8l-2.4-2.1l0.7,1.6l0.4,0.3l1,2.2l-0.9-0.6l0.4,3.4l1.6-0.7L234.6,279.8L234.6,279.8z M232.3,265.7l-1.7-1l1,8l2.1,3
	l-1-2.9l-0.8-2.4l1.5,1.2L232.3,265.7L232.3,265.7z M307,301.4l-2.5-0.5l7.5-1.2l5.7,0.9l10-2.2l-8,2.4l-4.6,0.9l-9.5,0L307,301.4
	L307,301.4z M342.8,197.5l-10.1-14.9l5.8,7l9.7,15.6l2.4,1.2l1,4.5l3.7,8.1l-3.4-5.2l-1.1-2.8L342.8,197.5L342.8,197.5z M279,153.1
	l-4.3-3.7l17.6,10.7l0.2,1.3L279,153.1L279,153.1z M156.1,250.6l0.4-4.7l2.2-0.8l0.1-1.3l5.6,1.7l2.6-1.2l4.4-0.4l0.8-1.1l1.9-0.6
	l-0.7-2.8l5.2-14.4l3.3,3.7l10,15.3l2.2,3.8l1.7,1.4l20,39.7l11.3,23.8l1.5,2.6l-1.1,0.7l8.7,16.8L234,327l0.6-0.1l-6.1-42.8
	l-4-23.9l-0.3,2.5l-1.3-8.6l-2.3-2.1l-0.2,6.5l-1.2-7.4l0.7-8.8l-0.4-6.6l0.7-6.1l2.1,3.2l1.2-0.8l1.7,0.8l0.9,3.7l0.8-2.2l1.7-6.4
	l1.3-0.6l4.4,1.8l10.9,11.1l-3.6-2.4l13.4,12.8l6.2,5.4l12.3,7.8l18.2,8.2l13.4,2.9l3,0.1l2.3-0.1l6.5,0.4l12.5-3.6l3.7-2.5l1,0.5
	l4.5-3.4c0.1-0.1,0.7-0.9,1.8-2.4c0.2-0.4,0.5-0.8,0.8-1.2c0.3-0.4,0.5-0.7,0.7-1c0.2-0.3,0.4-0.6,0.5-0.8c0.3-0.5,0.6-0.9,1-1.3
	l2.3-5.3l0.3-2.9l-0.4-2.9l-2.5-5.9l-3.5-5.6l-1.5-3.2l-10.1-14.1l-15.8-18.4l-14.3-13.3l12.5,10.7l9.7,9.6l-9.4-10.5l1.6,0.5
	l-14.3-13.8l-20.9-18l-7.4-5.1l13.2,7.6l2.8,1.4l15.1,10.6l-3.3-3.5l-3.6-2.5l-8.6-6.3l-1.2-0.9l-5-4.3l-2.4-1.9l-4.6-2.9l-6-4.5
	l-0.4-1.1l0.8,0.7l8.8,3.2l9.9,5.7l16,13.8l2.4,0l-4.5-4.2l1.5,0.4l-7.6-6.4l-4.4-3.5l0.5,1.6l-4.5-3.4l-3.9-2.4l8.1,2.8l4.8,3.9
	l16.2,14l6.7,8.1l0.3,1.1l6,5.2l7.3,8.1l3.4,2.6l4.1,4.2L324,191.5l2.3,1.1l-1.9-3.7l1.6-0.3l8.5,9.6l0.2-0.7l-7.5-10.7l-1.5-1.4
	l-1.3-1.6l-13.1-13.5l-17.6-13.2l-0.7-1.5l-14-9.5l5.1,1.7l18.2,13.1l18.1,15.6l16.2,17.7l5.3,6.8l-6.9-10.8l-1.5-2.3l-2.4-2.4
	l-12.9-14.6l-15.9-13.7l-12.7-9.5l10.8,7l7.6,6l15.7,13.5l8.7,10.3l7.9,10.9l-2.8-3.1l11.1,18.5l1.4,3.6l3.6,9.2l1.5,2.8l-0.3,0.4
	c1,1.1,1.6,2.2,1.6,3.2l0.8,0.8l-0.6,0.7l-8.7-18.1l-3.3-5.8l-3.8-7.2l-9.9-10.5l4.1,5.6l3.6,5.3l4.7,6.3l3.2,5.7l1.7,4.7l2.9,3.6
	l5.4,13.2l-0.7,2.2l-0.1,2.5l-0.5-1.1l-2.2-4l0.3-0.9l-2-4.1l2.3,13.6l1.7,9.5l-1.5,7.2l0.5,4.1l-0.1,2.1l2,1.2l-2,2.9l-0.2,2
	l-3.1,3.6l-0.1,0.1l-2.1,2l-1,3l-2.9,4.6l-5.5,4.1l-1.2-0.1l-0.7,1.4l-1.9,0.3l-3.1,2l-6.1,1.8l-11.6,2l-6-0.6l10.2-0.3l7.9-1.6
	l8.8-4.3l0.3-0.1l4.6-2.8l0.6-1.1l3.8-1.8l3.3-6.1l-6.7,4.7l-7.8,4.3l-0.8-0.2l-1.9,0.4l-7.9,1.1l-7.8,0.4l-10.2-0.3l-19.5-5.9
	l-7-2.9l0,1.3l3.1,1.9l7.5,2.7l14.2,4.7l4.9,0.7l8.9-0.6l6.1-1l6-0.8l1,0.6l1.9-0.3l-1,2l-12.8,2.6l-13-1.1l-2.4-0.4
	c-0.1-0.1-0.2-0.1-0.5,0c-0.3,0-0.4,0.1-0.4,0.1l0.4,1.7l7.4,0.5l5,0.3l-2.5,0.4l-1.4,0.1l-8.7-0.8l-1.4,0.8l1.2,3.5l-2.9,2.4
	l-5.8-0.2l-3.6,0.4l-11.9-3.5l-18.3-9.8l-19.6-14.7l-4.7-4.5l8.7,9.1l15.9,12l13.7,8l-11.6-5.6l-15-11.5l-11.5-9.8l1.4,8.2
	c0.9,6.3,1.2,9.7,1.1,10.1l5.9,30.6l1.7,5.9l0.3-2.5l-2.5-12.8l-0.4-5.2l0.1-0.2l1,1.9l7.5,36.8l1.4,4.9l1.7,5.4l5.2,21.2l0.9,1.6
	l0.5,1.6l0.8,0.6l-1.1,1.3l0.7,0.2l0.3,3.3l-1.5,1.6l0.3,1.4l-2,4.9l-3.7-2.4l3.7,4.6l-1.7,2.6l-1.4,5.2l-0.3,0.8l0.7,1.6l-0.9,0.8
	l-0.5-0.2l-1.2,1.2l0.6,1l-1.8,1.3l-0.8,1.3l-4.6-11.3l0.8,0.8l-1-3l-4.4-8l-3.1-4.4l-0.5-3.2l-9.4-19.3l-1.5-2.6l-16.4-32.4
	l-1.2-1.4l-2-4.9l-7.7-15.9l-6.1-11.6l-1.3-0.6l-1.3-0.8l-2.1-1.1l-1.4,0.7l-2.9-5.8l-0.4-0.7l-0.8-0.8l-0.9,0.6l0.1,1.3l-0.6,3.8
	l-0.3,1.4l-0.7,2l-1.3,2.6l-1,5.3l-2.1,8.7l-1.3,1.8l-2.2,6.5l1.2-6.1l-2.5,5.8l5.3-20.8l0.3-2.3l-1.4,0l1.6-1.8l0.4-3.7l2.4-11.2
	l-1.5-1.3l-2.1,12l0.1,3.5l-0.6-1.5l-2.9,3.5l3.6-14.1l0.3-2.7l-1.3,0.6l0.1,1.6l-0.6,1.1l-3.1,5.8l-0.3,1.7l-1.3,5.2l-2.5-0.6
	l-0.9,0.4l-1.7,9.6l-1.3-6.6l-1.3-0.8l0.8-5.4l-2.3,6l-0.9,2.3l-0.2-1.3l-4.3-1.5l-2.4,1.5l-1.6,6.9l-0.5-0.8c0.8-1.9,0.3-3.6-1.3-5
	l-1.4,1l1-10l1.3-6.1l0.9-4c-0.5-0.4-0.5-2-0.2-4.9l3.7-15.3l0.6-5.3L156.1,250.6z"/>
<path class="st3" d="M240,59.2l-1.5-2.6l-4.9-6.5l0.6-1.3l0.3,0.7l0.4-0.7l0.8,1.1l0.9,2.4l0.7-1.3L240,59.2L240,59.2z M110.8,79
	l0.5,6.3l-0.4,6.6l0.7,6.1l2.1-3.2l1.2,0.8l1.7-0.8l0.9-3.7l0.8,2.2l1.7,6.4l1.3,0.6l4.4-1.8l10.9-11.1l-3.6,2.4l13.4-12.8l6.2-5.4
	l12.3-7.8l18.2-8.2l13.4-2.9l3-0.1l2.3,0.1l6.5-0.4l12.5,3.6l3.7,2.5l1-0.5l4.5,3.4c0.1,0.1,0.7,0.9,1.8,2.4
	c0.2,0.4,0.5,0.8,0.8,1.2c0.3,0.4,0.5,0.7,0.7,1c0.2,0.3,0.4,0.6,0.5,0.8c0.3,0.5,0.6,0.9,1,1.3l2.3,5.3l0.3,2.9l-0.4,2.9l-2.5,5.9
	l-3.5,5.6l-1.5,3.2l-10.1,14.1l-15.8,18.4l-14.3,13.3l12.5-10.7l9.7-9.6l-9.4,10.5l1.6-0.5l-14.3,13.8l-20.9,18l-7.4,5.1l13.2-7.6
	l2.8-1.4l15.1-10.6l-3.3,3.5l-3.6,2.5l-8.6,6.3l-1.2,0.9l-5,4.3l-2.4,1.9l-4.6,2.9l-6,4.5l-0.4,1.1l0.8-0.7l8.8-3.2l9.9-5.7l16-13.8
	l2.4,0l-4.5,4.2l1.5-0.4l-7.5,6.4l-4.4,3.5l0.5-1.6l-4.5,3.4l-3.9,2.4l8.1-2.8l4.8-3.9l16.2-14l6.7-8.1l0.3-1.1l6-5.2l7.3-8.1
	l3.4-2.6l4.1-4.2l-13.2,16.7l2.3-1.1l-1.9,3.7l1.6,0.3l8.5-9.6l0.2,0.7l-7.5,10.7l-1.5,1.4l-1.3,1.6l-13.1,13.5l-17.6,13.2l-0.7,1.5
	l-14,9.5l5.1-1.7l18.2-13.1l18.1-15.6l16.2-17.7l5.3-6.8l-6.9,10.8l-1.5,2.3l-2.4,2.4l-12.9,14.6l-15.9,13.7l-12.7,9.5l10.8-7l7.6-6
	l15.7-13.5l8.7-10.3l7.9-10.9l-2.8,3.1l11.1-18.5l1.4-3.6l3.6-9.2l1.5-2.8l-0.3-0.4c1-1.1,1.5-2.2,1.6-3.2l0.8-0.8l-0.6-0.7
	l-8.7,18.1l-3.3,5.8l-3.8,7.2l-9.9,10.5l4.1-5.6l3.6-5.3l4.7-6.3l3.2-5.7l1.7-4.7l2.9-3.6l5.4-13.2L247,91l-0.1-2.5l-0.5,1.1l-2.2,4
	l0.3,0.9l-2,4.1l2.3-13.6l1.7-9.5l-1.5-7.2l0.5-4.1l-0.1-2.1l2-1.2l-2-2.9l-0.2-2l-3.1-3.6l-0.1-0.1l-2.1-2l-1-3l-2.9-4.6l-5.5-4.1
	l-1.2,0.1l-0.7-1.4l-1.9-0.3l-3.1-2l-6.1-1.8l-11.6-2l-6,0.6l10.2,0.3l7.9,1.6l8.8,4.3l0.3,0.1l4.6,2.8l0.6,1.1l3.8,1.8l3.3,6.1
	l-6.7-4.7l-7.8-4.3l-0.8,0.2L222,41l-7.9-1.1l-7.8-0.4l-10.2,0.3l-19.5,5.9l-7,2.9l0-1.3l3.1-1.9l7.5-2.7l14.2-4.7l4.9-0.7l8.9,0.6
	l6.1,1l6,0.8l1-0.6l1.9,0.3l-1-2l-12.8-2.6l-13,1.1l-2.4,0.4c-0.1,0.1-0.2,0.1-0.5,0c-0.3-0.1-0.4-0.1-0.4-0.1l0.4-1.7l7.4-0.5
	l5-0.3l-2.5-0.4l-1.4-0.1l-8.7,0.8l-1.4-0.8l1.2-3.5l-2.9-2.4l-5.8,0.2l-3.6-0.4l-11.9,3.5l-18.3,9.8L131,55.1l-4.7,4.5l8.7-9.1
	l15.9-12l13.7-8L152.9,36L138,47.5l-11.5,9.8l0.3-1.7c-0.8,0.9-1.6,1.8-2.3,2.8l-0.6,3.3l-1.7,1l0.2-1.5c-2.8,3.6-5.4,7.4-7.8,11.4
	l-0.1,1l-1,0.9C112.5,75.9,111.7,77.4,110.8,79L110.8,79z M198.5,26l-1.4-0.4l9.5,0l4.6,0.9l8,2.4l-10-2.2l-5.7,0.9l-7.5-1.2
	L198.5,26L198.5,26z M234.3,129.9l7.9-13.3l1.1-2.8l3.4-5.2l-3.7,8.1l-1,4.5l-2.4,1.2l-9.7,15.6l-5.8,7L234.3,129.9L234.3,129.9z
	 M170.4,174.3l13.5-8.2l-0.2,1.3L166.2,178L170.4,174.3z"/>
<path class="st5" d="M160.8,58.5l-0.6,2.9l-0.7,8.1l-1.3,0.6l0.3-0.7l-0.8,0.2l0.2-1.3l0.9-2.4l-1.4,0.5L160.8,58.5L160.8,58.5z
	 M269.7,130.7l3.9-5l4.7-4.6l3.6-5l-3.7,1l-0.3-1.4l-1.8-0.6l-3.2,2.1l0.8-2.2l3.1-5.8l-0.6-1.3l-4.5-1.6l-15.5,0.9l4.3,0.6
	l-18.5,0.5l-8.2-0.2l-14.3-2.5l-19-6.2l-11.9-6.8l-2.3-2l-1.6-1.6l-5-4.1L172.9,74l-1.1-4.4l-1.1-0.3l-1-5.5c0-0.1,0.1-1.1,0.3-3
	c0.1-0.5,0.2-1,0.2-1.4c0.1-0.4,0.1-0.8,0.2-1.2c0.1-0.3,0.1-0.7,0.2-1c0.1-0.6,0.2-1.1,0.2-1.7l1.9-5.5l1.7-2.4l2.2-1.9l5.8-2.7
	l6.3-1.8L192,40l17-3.6l24.1-2.9l19.5-0.2l-16.4-0.5l-13.6,0.6l14-1.5l-1.5-0.7l19.9-0.6l27.6,0.7l8.9,1.2l-14.8-3.3l-3-0.9
	l-18.3-2.3l4.8-0.4l4.3,0.6l10.6,1.2l1.5,0.2l6.6,0.1l3.1,0.2l5.4,1l7.4,0.7l1.1-0.5l-1.1,0l-8.6-3.5l-11.1-2.4l-21.1-0.6l-1.8-1.6
	l6.1-0.1l-1.4-0.8l9.9,0.4l5.6,0.4l-1.5,0.8l5.6,0.5l4.5,0.9l-7.9-3.4l-6.2-0.4l-21.4-0.6l-10.4,1.5l-0.9,0.6l-7.9-0.2l-10.8,1.1
	l-4.2-0.4l-5.9,0.4l21-3.5l-2.4-0.7l3.9-1.4l-1-1.3l-12.8,1.4l0.3-0.7l12.8-2.9l2.1-0.1l2.1-0.3l18.8-1.1l21.9,2l1.5-0.6l16.8,2.4
	l-4.9-2.2l-22.3-2.6l-23.8-0.7l-23.9,2.2l-8.5,1.5l12.4-3.3l2.7-0.7l3.4-0.1l19.4-2.1l21,0.6l15.8,1.5l-12.7-2.1l-9.6-0.7l-20.7-0.6
	l-13.4,1.8L216.2,10l4.1-0.4l-20.7,6.2l-3.5,1.7l-8.9,4.4l-3,1.1l0,0.5c-1.5,0.1-2.6,0.6-3.4,1.3l-1.1,0.1l0,0.9l18.6-7.6l6.4-2
	l7.6-2.8l14.4-1.1l-6.8,1.4l-6.2,1.5l-7.7,1.5l-6.2,2.1l-4.4,2.3l-4.5,0.7L178,28.1l-0.9,2.1l-1.6,1.9l1.1-0.5l4.3-1.5l0.4-0.9
	l4.2-1.7L174.8,36l-7.7,5.9l-3.7,6.3l-3.1,2.6l-1.3,1.6l-2.3-0.4l-0.5,3.4l-1.2,1.6l-0.1,4.8l0,0.1L155,65l-1.2,2.9l-1,5.4l1.2,6.7
	l1,0.8l-0.4,1.5l1.2,1.5l0.9,3.6l3.3,5.5l7.2,9.3l4.8,3.6l-7.3-7.1l-4.8-6.5l-3.6-9.1l-0.1-0.3l-1.5-5.2l0.3-1.3l-1.6-3.9l1.7-6.7
	l1.7,8L160,82l0.7,0.4l1.1,1.6l5.1,6.1l5.5,5.5l7.8,6.6l18.4,8.7l7.1,2.6l-0.9,1l-3.6-0.7l-7.4-3l-13.6-6.1l-4.1-2.8l-6.2-6.4
	l-3.9-4.8l-3.9-4.6l-1.1-0.2l-1.2-1.5l-0.6,2.2l7.7,10.6l10.3,7.9l2,1.4c0.1,0,0.2,0.1,0.3,0.3c0.2,0.2,0.3,0.3,0.3,0.3l-1.4,1
	l-5.8-4.6l-3.9-3.2l1.6,2l1,1l6.9,5.3l0.5,1.6l-3.2,1.7l0.5,3.7l4.4,3.7l2.3,2.7l11.2,5.4l20.2,5.1l24.3,2.3l6.5-0.1l-12.6,0.9
	l-19.8-1.8l-15.6-3.3l12.4,3.7l18.8,1.6l15.1,0.5l-1.4,1.1c1.2-0.1,2.4-0.3,3.6-0.5l2.7-2l1.9,0.4l-1.2,1c4.5-0.8,9-1.9,13.4-3.2
	l0.8-0.6l1.4,0C266.4,131.9,268.1,131.3,269.7,130.7L269.7,130.7z M169.3,111l0.8,1.3l-7-6.4l-2.8-3.8l-4.3-7.1l5.9,8.3l4.8,3.2
	l4.7,5.9L169.3,111L169.3,111z M212.7,10l-14.9,4.5l-2.7,1.3l-6,1.5l8.1-3.5l3.8-2.6l2.6,0.7l17.7-5l9-1.2L212.7,10L212.7,10z
	 M289.8,20.1l-15.6-3l1-0.8l20.2,3.9L289.8,20.1z"/>
<path class="st3" d="M278.1,309.5l0,0.1l-0.3-0.3L278.1,309.5L278.1,309.5z M252.8,293.8l-1.8,0.8l-0.8-0.5l-2,0.3l-0.6-0.2
	l-0.4,0.5l0.1,1l0.8,0.4l-0.5,8.1l3,12.9l1.6,8.9l0.5,0.1l1.4,6.6l0.5,1.5l0.1,0.9l0.4,1.3l-0.3-4c0,0.1,0,0.3,0.1,0.6
	c0,0.3,0.1,0.4,0.1,0.6c0.1,0.3,0.2,0.6,0.3,1l0.1,2.2l0.8,3.5l0.4,2.9c0,0,0,0.1,0,0.2c0,0.1,0.1,0.3,0.2,0.4l0.1-0.7l0.5,5.1v-3.9
	l0.5-2.1l-0.5-3.6l0.3,0.2v-0.7l0.3,0.3l0.8-0.8l1,3l-0.4-2.6l0.4,0.5l0.6-1.1l0.3,1l-0.1-1.5l0.8,0.2l0.4-2l-0.5-6.4l0.6-5.2l1.3,7
	v0.5l0.4,0.1v-2l-0.1-1.3l0.5-0.5l0.3,0.8V327l1.2,0.2l-0.8-2.7l0.7-1.6h3.4l0.9,0.8l0.5,1.3l-0.4-4.4l0.8-1l1.6-0.2l0.5-0.2
	l1.2,1.4l0.8,3.8l-0.8-9.5l1-0.8l0.3,1.3l-2.2-12l-0.9-2.9l-1-1l0.1,0.6l-1.3,0.3l-0.6,1.7l-0.6-0.2l-0.5-1.2l-2.7,1.2l-0.9-2.1
	l-1.2-1.2l-1.3-0.6l-2.4-0.2c-1.6-1.6-2.6-2.5-3.1-2.7C256.2,294.6,255,294.3,252.8,293.8z"/>
<path class="st3" d="M222.8,69.2l-0.1,0l0.3,0.3L222.8,69.2L222.8,69.2z M237.6,95l-0.8,1.8l0.5,0.8l-0.4,2l0.2,0.6l-0.6,0.4l-1-0.1
	l-0.4-0.8l-8.1,0.3l-12.8-3.4l-8.8-1.9l-0.1-0.5l-6.6-1.6l-1.5-0.6l-0.9-0.1l-1.2-0.5l4,0.5c-0.1,0-0.3,0-0.6-0.1
	c-0.3,0-0.4-0.1-0.6-0.2c-0.3-0.1-0.6-0.2-1-0.4l-2.2-0.2l-3.4-0.9l-16.4-2c0,0,13.5,1.5,13.4,1.5c-0.1,0-0.3-0.1-0.4-0.2l0.7-0.1
	l-5-0.7l3.9,0.1l2.1-0.5l-16.8-2.5l0,0l-2.8-2.4l23.4,4.9l0.8-0.8l-2.9-1.1l2.6,0.5l-0.5-0.5l-23.4-3.1l1.6-2l1.5,0.2l-0.2-0.8
	l2-0.3l28.2,4.8l5.2-0.4l-6.9-1.5l-9-2.1l8.4,1.6l-20-3.4l23.3,3.6l0.6-0.5l-0.7-0.3l1.2,0l-35.1-9.2l37.7,8.8l-16-3.4l0.1-3.4
	l16.8,1.8l-1.3-0.6l4.4,0.6l1-0.8l0.3-1.6l0.2-0.5l-1.3-1.2l-3.8-0.9l9.5,1.1l0.9-0.9l-1.3-0.3l11.9,2.6l2.8,1l1,1.1l-0.6-0.1
	l-0.4,1.3l-1.7,0.6l0.2,0.6l1.1,0.6l-1.2,2.7l2.1,0.9l1.1,1.2l0.6,1.3l0.1,2.4c1.5,1.6,2.4,2.7,2.6,3.2
	C236.9,91.5,237.2,92.7,237.6,95z"/>
<path class="st5" d="M290.7,304C290.6,304.1,290.6,304.1,290.7,304c0,0.1,0.1,0.1,0.2,0.1C290.8,304.1,290.7,304.1,290.7,304
	L290.7,304z M328,284.9c0.2,0.3,0.3,0.7,0.4,1.1c0.5-0.3,1.1-0.5,1.6-0.7c0.3,0.4,0.7,0.8,0.9,1.4c0.2,0,0.5,0.1,0.8,0.1
	c-0.2,0.4-0.5,0.8-0.7,1.2c-0.6,0.5-1.2,1.1-1.9,1.6c-0.4,0-0.8,0.1-1.2,0.1c-3.1,4.1-5.5,8.2-7.4,12.2c-3,5.4-5.6,10.8-8.1,16.6
	c-1.5,4.2-2.9,8.6-4.3,13.1c-0.1-0.1-0.3-0.1-0.4-0.1c-1.1,3.4-2.3,6.8-3.5,10.2c-0.3,0.7-0.6,1.4-1,2.1c-0.1,0.5-0.3,0.9-0.4,1.4
	c-0.3,0.6-0.6,1.3-0.9,1.9c0.6-2.2,1.2-4.4,1.8-6.6c-0.1,0.2-0.2,0.5-0.3,0.9c-0.1,0.4-0.2,0.7-0.3,0.9c-0.2,0.4-0.4,0.9-0.7,1.6
	c-0.3,1.2-0.6,2.5-1,3.7c-0.7,1.7-1.5,3.5-2.2,5.2c-3.3,8.5-7.3,16.1-12.1,22.5c0,0,10.2-18,10.1-17.8c-0.1,0.2-0.3,0.4-0.4,0.5
	c0.1-0.4,0.2-0.8,0.3-1.2c-1.1,2.5-2.2,5-3.4,7.4c0.8-1.9,1.6-3.9,2.3-5.9c0.2-1.2,0.4-2.5,0.6-3.8c-3.8,8-8.3,15-13.5,20.6l0,0
	c-1.6,0-3.1,0-4.6-0.1c4.1-2.7,8.1-6,11.4-10.5c3.4-4.7,5.9-10.4,8.4-16.1c-0.2-0.6-0.3-1.1-0.4-1.7c-0.7,1.4-1.5,2.7-2.2,4
	c0.5-1.3,1.1-2.6,1.6-3.9c-0.2,0.2-0.4,0.4-0.6,0.6c-2.2,5.8-4.5,11.5-7.5,16.3c-2.9,4.7-6.7,8.2-10.5,11.3
	c-0.1-1.2-0.2-2.5-0.4-3.7c0.5-0.4,0.9-0.7,1.4-1.1c-0.3-0.2-0.6-0.5-0.9-0.7c0.5-0.7,0.9-1.5,1.3-2.3c4.2-4.2,8.2-9.2,11.2-15.3
	c3.1-6.3,5.3-13.2,7.5-20c0.4-2.5,0.7-5.1,1-7.5c-1.1,3.1-2.3,6.3-3.5,9.5c-1.6,4.2-3.3,8.2-5.1,12.2c1.6-3.8,3.1-7.6,4.5-11.4
	c-1.6,4.7-3.2,9.3-5.3,13.7c-2,4.3-4.5,8.1-7.1,11.6c2.9-4.2,5.8-8.8,7.9-13.9c2.2-5.2,3.9-10.6,5.6-16c-0.1-0.3-0.2-0.6-0.4-0.9
	c-0.2,0.3-0.4,0.6-0.6,0.9c0.1-0.5,0.2-1.1,0.4-1.6c-3.2,7.7-6.3,15.6-10.9,21.9c-4.3,6-10.1,9.8-15.8,12.5
	c5.9-3.2,11.9-7.5,16.3-14.2c4.6-7,7.5-15.5,10.7-23.7c-2.6,6.9-5.3,13.9-8.4,20.6c-1.1-0.7-2.2-1.5-3.2-2.3
	c2.6-6.7,4.8-13.6,6.8-20.3c-0.3,0.5-0.6,0.9-0.9,1.4c0.6-1.7,1.1-3.4,1.7-5c-0.2-0.4-0.3-0.9-0.5-1.3c-0.5-0.2-0.9-0.5-1.4-0.8
	c-0.1-0.1-0.3-0.3-0.4-0.4c-0.5,0.3-0.9,0.6-1.4,0.8c-0.6,1.2-1.2,2.4-1.7,3.7c1.1-3.3,2.3-6.4,3.6-9.5c-0.1-0.4-0.3-0.9-0.4-1.3
	c-0.2,0.3-0.5,0.7-0.7,1c2.1-3.3,4.4-6.5,7.2-9.8c0.8-0.8,1.6-1.5,2.6-2.3c0.5-0.2,1.1-0.5,1.7-0.9c-0.2,0.2-0.4,0.4-0.5,0.6
	c0.3,0.1,0.6,0.2,0.9,0.3c-0.2,0.5-0.4,0.9-0.5,1.4c0.3-0.1,0.5-0.2,0.8-0.3c0.4-0.4,0.9-0.8,1.4-1.2c0.7,0.1,1.5,0.1,2.2,0.2
	c0.8-0.8,1.7-1.6,2.5-2.5c0.7-0.6,1.5-1.2,2.3-1.8c0.7-0.4,1.3-0.9,2-1.3c1-0.5,2-1,3-1.5c3.4-2.6,5.9-4.3,6.8-4.9
	C323.1,287,325,286.1,328,284.9z"/>
<path class="st5" d="M240.6,195.6C240.6,195.7,240.7,195.7,240.6,195.6c0.1,0,0.3-0.1,0.4-0.2C240.9,195.5,240.7,195.6,240.6,195.6
	L240.6,195.6z M250.3,153.8c0.6,0,1.2,0,1.9,0.1c0.2-0.6,0.3-1.2,0.6-1.8c0.8-0.1,1.7-0.3,2.7-0.3c0.3-0.2,0.6-0.4,0.8-0.7
	c0.3,0.4,0.6,0.7,0.9,1.1c0.1,0.8,0.2,1.6,0.3,2.3c-0.3,0.4-0.6,0.8-0.9,1.1c2.5,4.5,5.5,8.2,8.9,11.4c4.1,4.8,8.8,9.3,14.1,13.7
	c4.1,3,8.5,6,12.9,8.9c-0.2,0.1-0.4,0.2-0.6,0.4c3.3,2.3,6.7,4.7,10.1,7.1c0.6,0.6,1.3,1.1,1.9,1.7c0.5,0.3,0.9,0.6,1.4,0.9
	c0.5,0.5,1.1,1,1.6,1.5c-2.3-1.4-4.5-2.8-6.8-4.2c0.3,0.1,0.5,0.3,0.9,0.6c0.4,0.3,0.6,0.5,0.8,0.6c0.4,0.3,0.8,0.7,1.4,1.2
	c1.3,0.8,2.6,1.5,3.9,2.3c1.6,1.3,3.2,2.7,4.6,4c8,6.2,14.1,12.8,18,19.6c0,0-13.9-16.3-13.7-16.1c0.2,0.2,0.2,0.4,0.3,0.6
	c-0.4-0.2-0.9-0.5-1.3-0.7c2.3,1.9,4.5,3.9,6.4,5.9c-1.7-1.5-3.6-3-5.6-4.4c-1.4-0.7-2.8-1.3-4.3-2c6.9,6.5,11.8,13.3,14.2,20.2l0,0
	c-1.4,1.4-2.9,2.9-4.4,4.2c0.3-4.8-0.2-9.8-3.1-14.5c-3-4.9-8-9.4-13.2-13.8c-0.9-0.1-1.8-0.2-2.6-0.2c1.1,1.2,2.2,2.4,3.2,3.6
	c-1.1-1-2.3-2-3.5-2.9c0.1,0.3,0.1,0.6,0.2,0.8c5.5,4.2,10.7,8.4,14.2,13.1c3.3,4.5,4.5,9.3,4.9,14c-1.7-0.4-3.4-0.7-5.2-1.1
	c0-0.6-0.1-1.1-0.2-1.7c-0.6,0.2-1.1,0.4-1.7,0.5c-0.5-0.7-1.1-1.4-1.8-2.1c-1.6-5.5-4.4-11.1-9.5-16.1c-5.3-5.2-12.3-9.8-19-14.5
	c-3-1.3-5.9-2.5-8.8-3.8c3,2.2,6.1,4.5,9.1,6.8c3.9,3.1,7.6,6.2,11.1,9.3c-3.4-2.9-7-5.7-10.7-8.5c4.5,3.2,9.1,6.5,12.9,10
	c3.7,3.5,6.3,7.3,8.5,11c-2.7-4.3-6-8.6-10.6-12.6c-4.7-4-10.2-7.6-15.6-11.2c-0.5,0-1,0-1.5,0c0.2,0.3,0.5,0.6,0.7,0.9
	c-0.6-0.3-1.2-0.6-1.8-0.9c7,5.9,14.4,11.7,18.4,18.3c3.8,6.3,3.3,13,1.6,19.3c1.3-6.7,1.3-13.9-3.4-20.4
	c-4.9-6.9-13.2-12.8-20.8-18.8c6.6,5,13.1,10.2,18.9,15.6c-2,0.7-4,1.5-6,2.1c-6.3-5-13.2-9.6-20-14c0.3,0.4,0.6,0.9,1,1.3
	c-1.7-1.2-3.3-2.3-4.9-3.5c-0.7,0-1.4,0-2.1,0c-0.8,0.4-1.5,0.7-2.3,1c-0.3,0.1-0.6,0.2-0.9,0.2c-0.1,0.5-0.1,1.1-0.2,1.6
	c1,1,2.1,2,3.1,3c-3.2-2.3-6.2-4.6-8.9-6.9c-0.7,0-1.4-0.1-2.1-0.1c0.2,0.3,0.5,0.7,0.7,1c-2.4-3.1-4.3-6.5-6-10.3
	c-0.2-1-0.5-2.1-0.6-3.3c0.2-0.6,0.3-1.2,0.4-1.9c0.1,0.2,0.1,0.5,0.2,0.7c0.4-0.3,0.8-0.5,1.2-0.8c0.4,0.4,0.9,0.7,1.4,1
	c0.1-0.3,0.2-0.6,0.3-0.8c-0.1-0.6-0.2-1.1-0.3-1.7c0.8-0.6,1.6-1.3,2.3-2c-0.3-1.1-0.6-2.2-0.9-3.3c0-0.9-0.1-1.9-0.1-2.8
	c0.1-0.8,0.1-1.6,0.2-2.4c0.3-1.1,0.6-2.2,0.8-3.3c-0.3-4.2-0.1-7.1,0-8.2C248.6,159.2,249.1,157.1,250.3,153.8z"/>
<path class="st3" d="M159.4,134c0,0,0,0.1,0.1,0.1c-0.1,0.1-0.3,0.1-0.4,0.2C159.1,134.2,159.2,134.1,159.4,134L159.4,134z
	 M108.6,122.8c-0.3,0.6-0.6,1.3-0.9,2.1c-0.8-0.1-1.5-0.3-2.3-0.3c-0.6,0.8-1.2,1.7-1.8,2.8c-0.4,0.2-0.8,0.4-1.2,0.6
	c0.2,0.5,0.5,1.1,0.7,1.6c0.8,0.5,1.6,1.1,2.4,1.6c0.6-0.1,1.2-0.3,1.7-0.4c3.6,5,6.1,10.3,7.9,15.7c3.1,7,5.5,14.5,7.6,22.6
	c1.1,6.1,2.1,12.4,3,18.8c0.2-0.2,0.5-0.3,0.7-0.5c0.8,4.9,1.6,9.7,2.5,14.7c0.3,1,0.6,2,0.9,2.9c0.1,0.7,0.2,1.4,0.3,2
	c0.3,0.9,0.5,1.7,0.8,2.5c-0.3-3.2-0.7-6.4-1-9.6c0,0.4,0.1,0.8,0.2,1.3c0.1,0.6,0.2,1,0.3,1.2c0.2,0.6,0.3,1.3,0.6,2.2
	c0.2,1.8,0.3,3.7,0.5,5.5c0.6,2.4,1.3,4.8,2,7.2c2.7,12,6.7,22.1,12.1,29.9c0,0-10.5-23.7-10.4-23.4c0.1,0.3,0.3,0.5,0.5,0.6
	c0-0.6-0.1-1.2-0.1-1.8c0.9,3.5,1.9,7,3.1,10.1c-0.7-2.7-1.4-5.4-1.9-8.4c0-1.9,0-3.8,0-5.7c3.5,11,8.4,19.9,14.7,26.1l0,0
	c2.3-0.8,4.6-1.7,6.9-2.6c-5.4-2.2-10.6-5.3-14.2-10.9c-3.8-5.8-6.1-13.6-8.2-21.6c0.4-1,0.7-2,1.1-3c0.7,1.8,1.5,3.6,2.3,5.4
	c-0.5-1.8-0.9-3.6-1.3-5.4c0.3,0.2,0.5,0.4,0.8,0.6c1.7,8.2,3.6,16.1,6.9,22.3c3.2,6,7.8,9.8,12.7,12.6c0.5-2.1,1-4.1,1.5-6.2
	c-0.6-0.3-1.2-0.7-1.8-1.1c0.5-0.5,1-1.1,1.5-1.6c-0.5-0.9-0.9-1.9-1.3-3c-5.1-4.6-9.8-10.6-12.7-18.8c-3-8.5-4.4-18.6-5.9-28.3
	c0.1-3.9,0.3-7.8,0.5-11.5c0.9,4.5,1.8,9,2.7,13.5c1.3,5.9,2.8,11.5,4.4,17c-1.4-5.2-2.6-10.6-3.7-16.1c1.2,6.7,2.3,13.3,4.3,19.3
	c1.9,5.8,4.6,10.7,7.6,15c-3.3-5.2-6.3-11.1-8.2-18.2c-1.9-7.2-3-15.1-4.2-22.9c0.3-0.5,0.5-1.1,0.8-1.6c0.2,0.4,0.4,0.8,0.6,1.2
	c0-0.8-0.1-1.6-0.1-2.4c2.8,10.8,5.3,21.9,10.4,29.6c4.9,7.4,12.5,10.4,20.3,11.9c-8-2.1-15.8-5.9-20.6-14.4c-5-9-7.1-21.1-9.8-32.5
	c2,9.8,4.3,19.7,7.1,28.8c1.8-1.8,3.7-3.6,5.5-5.5c-2.2-9.5-3.6-19.4-4.8-29.1c0.3,0.6,0.6,1.2,0.9,1.7c-0.4-2.5-0.8-4.8-1.2-7.2
	c0.4-0.8,0.7-1.6,1.1-2.3c0.8-0.6,1.5-1.3,2.3-2c0.2-0.3,0.5-0.6,0.7-0.9c0.6,0.2,1.2,0.4,1.8,0.6c0.5,1.6,1.1,3.3,1.6,5
	c-0.8-4.7-1.8-9.2-2.9-13.4c0.3-0.7,0.6-1.5,0.9-2.4c0.3,0.4,0.5,0.8,0.8,1.3c-2.2-4.2-4.9-8.2-8.1-12c-1-0.8-2-1.6-3.2-2.4
	c-0.7-0.1-1.5-0.3-2.3-0.5c0.2,0.2,0.4,0.4,0.7,0.6c-0.5,0.3-1,0.6-1.5,0.9c0.2,0.7,0.3,1.3,0.4,2c-0.4,0-0.7,0-1.1-0.1
	c-0.6-0.4-1.2-0.8-1.7-1.2c-1.1,0.5-2.2,1-3.4,1.5c-1-0.9-2.1-1.8-3.1-2.7c-1-0.5-2-1.1-3-1.6c-0.9-0.3-1.8-0.7-2.7-1
	c-1.4-0.3-2.7-0.6-4.1-0.8c-4.4-2.5-7.7-3.8-8.9-4.3C115.4,123.7,112.7,123.2,108.6,122.8z"/>
<path class="st5" d="M200.2,292.2C200.2,292.1,200.1,292.1,200.2,292.2c0-0.2,0.2-0.3,0.3-0.4C200.4,291.9,200.3,292,200.2,292.2
	L200.2,292.2z M252.2,293.1c0.2-0.6,0.3-1.4,0.5-2.2c0.8,0,1.5,0,2.3-0.2c0.4-0.9,0.9-1.9,1.2-3.1c0.3-0.3,0.7-0.5,1-0.8
	c-0.3-0.5-0.7-1-1-1.4c-0.9-0.4-1.8-0.7-2.6-1.1c-0.5,0.3-1.1,0.5-1.6,0.8c-4.5-4.2-8-8.9-10.8-13.9c-4.4-6.3-8.3-13.1-12-20.7
	c-2.3-5.7-4.5-11.7-6.7-17.8c-0.2,0.2-0.4,0.4-0.6,0.6c-1.7-4.6-3.5-9.2-5.3-13.9c-0.5-0.9-1-1.8-1.5-2.7c-0.2-0.6-0.5-1.3-0.7-2
	c-0.4-0.8-0.9-1.6-1.3-2.3c1,3.1,1.9,6.2,2.9,9.2c-0.1-0.4-0.2-0.7-0.4-1.3c-0.2-0.5-0.4-0.9-0.5-1.2c-0.3-0.5-0.6-1.2-1-2
	c-0.5-1.8-1-3.5-1.5-5.3c-1.1-2.3-2.2-4.5-3.4-6.6c-5-11.2-10.9-20.4-17.8-26.9c0,0,15,21.1,14.9,20.9c-0.2-0.3-0.4-0.4-0.6-0.5
	c0.2,0.6,0.3,1.2,0.5,1.8c-1.6-3.3-3.3-6.4-5.1-9.3c1.2,2.5,2.4,5.1,3.5,7.8c0.4,1.8,0.7,3.7,1.1,5.6c-5.6-10-12.1-17.8-19.6-22.7
	l0,0c-2.1,1.3-4.2,2.6-6.3,3.9c5.7,1.1,11.4,3.1,16.1,7.9c4.9,4.9,8.7,12.1,12.3,19.6c-0.2,1.1-0.3,2.1-0.5,3.2
	c-1.1-1.7-2.2-3.3-3.3-4.8c0.8,1.6,1.6,3.3,2.4,5c-0.3-0.2-0.6-0.3-0.9-0.5c-3.3-7.7-6.7-15.1-11.2-20.5c-4.3-5.2-9.6-8-15-9.9
	c-0.1,2.1-0.2,4.3-0.3,6.4c0.7,0.2,1.3,0.5,2,0.7c-0.4,0.6-0.8,1.2-1.1,1.8c0.7,0.8,1.3,1.7,1.9,2.7c5.9,3.5,11.7,8.4,16.1,15.9
	c4.6,7.8,8,17.3,11.4,26.6c0.6,3.9,1.2,7.7,1.8,11.4c-1.8-4.2-3.5-8.5-5.3-12.7c-2.4-5.5-5-10.8-7.7-15.8c2.4,4.8,4.6,9.9,6.8,15.1
	c-2.5-6.3-4.9-12.6-8-18.1c-3-5.4-6.7-9.6-10.4-13.2c4.3,4.4,8.3,9.6,11.6,16.2c3.3,6.7,5.9,14.2,8.6,21.6c-0.2,0.6-0.3,1.2-0.5,1.8
	c-0.3-0.4-0.5-0.7-0.8-1.1c0.2,0.8,0.4,1.6,0.6,2.4c-4.8-10-9.5-20.4-16.1-27c-6.3-6.3-14.3-7.7-22.2-7.6c8.3,0.5,16.7,2.6,23,10
	c6.6,7.8,11.2,19.3,16,30c-3.9-9.2-8.1-18.4-12.7-26.8c-1.5,2.1-2.9,4.2-4.3,6.5c4,8.9,7.4,18.3,10.5,27.6c-0.4-0.5-0.9-1-1.3-1.5
	c0.9,2.3,1.7,4.6,2.6,6.8c-0.2,0.8-0.4,1.7-0.6,2.5c-0.6,0.8-1.2,1.6-1.8,2.4c-0.2,0.3-0.4,0.7-0.6,1c-0.7-0.1-1.3-0.2-1.9-0.3
	c-0.9-1.5-1.7-3-2.6-4.6c1.7,4.4,3.6,8.6,5.5,12.5c-0.2,0.8-0.3,1.6-0.5,2.5c-0.3-0.4-0.7-0.7-1-1.1c3,3.7,6.4,7,10.3,10.1
	c1.1,0.6,2.3,1.2,3.7,1.7c0.7-0.1,1.6,0,2.4,0c-0.3-0.2-0.5-0.3-0.8-0.5c0.4-0.4,0.8-0.8,1.3-1.2c-0.3-0.6-0.6-1.2-0.8-1.9
	c0.4-0.1,0.7-0.1,1.1-0.1c0.6,0.3,1.3,0.5,1.9,0.8c1-0.7,2-1.4,3-2.1c1.2,0.7,2.4,1.3,3.6,2c1,0.3,2.2,0.6,3.3,1
	c0.9,0.1,1.9,0.3,2.8,0.5c1.4,0,2.8,0,4.1,0c4.8,1.5,8.3,2.2,9.6,2.4C245.4,293.6,248,293.6,252.2,293.1z"/>
<path class="st3" d="M224.7,360.1c0-0.1,0-0.1,0-0.1c-0.1,0-0.3,0-0.5,0C224.4,360,224.5,360,224.7,360.1L224.7,360.1z M188.6,389.1
	c-0.5-0.4-1.1-0.9-1.7-1.5c-0.6,0.4-1.3,0.8-1.9,1.1c-0.9-0.5-1.8-1-2.7-1.8c-0.4,0-0.8-0.1-1.3-0.1c0-0.6,0-1.1,0-1.7
	c0.5-0.7,1-1.5,1.4-2.2c0.6-0.1,1.1-0.2,1.7-0.2c0.7-5.8,0.2-11.4-1.3-17c-1.7-7.6-4.5-15.4-8.3-23.7c-3.3-6.1-6.9-12.3-10.8-18.7
	c0.3,0.1,0.5,0.1,0.8,0.2c-2.8-4.8-5.6-9.7-8.4-14.6c-0.5-1-0.9-2.1-1.3-3.1c-0.4-0.7-0.8-1.3-1.2-2c-0.4-0.9-0.8-1.8-1.1-2.7
	c1.9,3.1,3.8,6.2,5.7,9.3c-0.2-0.4-0.5-0.8-0.8-1.3c-0.3-0.6-0.5-1-0.6-1.3c-0.3-0.6-0.6-1.3-1-2.2c-1.1-1.7-2.2-3.5-3.3-5.3
	c-1.1-2.5-2.1-5-3.1-7.4c-5-11.9-7-22.6-5.7-31.5c0,0,3.2,25.2,3.1,24.9c-0.1-0.3-0.1-0.5,0-0.8c0.3,0.5,0.7,1.1,1,1.7
	c-1.4-3.6-2.5-7.1-3.2-10.4c0.9,2.7,1.9,5.4,3.2,8.3c1.1,1.7,2.2,3.5,3.4,5.2c-3.5-11.3-4-21.1-1.1-28.9l0,0
	c2.4-0.1,4.9-0.2,7.3-0.2c-3.9,3.9-7.3,8.6-7.4,14.9c-0.1,6.7,2.9,14.7,6.3,22.9c0.9,0.8,1.8,1.6,2.8,2.3c-0.7-2-1.2-3.9-1.7-5.8
	c0.8,1.8,1.6,3.6,2.4,5.5c0-0.3,0.1-0.6,0.2-0.9c-3.9-8.2-7.3-16.2-7.8-23c-0.5-6.5,2.1-11.6,5.2-15.9c1.3,1.6,2.7,3.3,4,4.9
	c-0.4,0.5-0.8,1.1-1.1,1.6c0.7,0.3,1.3,0.6,2,0.9c0,1,0,2.1,0.2,3.2c-2.1,6-2.8,13.2,0,21.8c3,9.1,8.9,18.8,14.5,28.5
	c2.8,3.6,5.7,7.1,8.4,10.6c-2.5-4.5-5-9.1-7.5-13.6c-3.1-6-5.9-11.8-8.2-17.5c2.4,5.4,5.2,10.8,8.2,16.4c-3.7-6.7-7.4-13.3-9.8-19.6
	c-2.3-6.1-2.9-11.6-2.9-16.6c0.2,5.9,1.3,12.5,4.5,19.8c3.3,7.5,8,15.2,12.5,22.9c0.6,0.4,1.1,0.8,1.7,1.2c-0.1-0.5-0.3-0.9-0.4-1.4
	c0.5,0.8,1.1,1.5,1.6,2.3c-5.5-11.1-11.4-22.4-12.2-31.5c-0.8-8.6,4.1-14.2,9.9-18.4c-5.7,4.9-10.2,11.2-8.5,20.8
	c0.9,5.1,3.1,10.7,5.8,16.4c2.7,5.8,6,11.7,9,17.6c-5.4-10-10.5-20-14.5-29.6c2.5,0.9,5,1.9,7.6,2.9c4.8,9.6,10.6,19.4,16.5,29
	c-0.2-0.7-0.3-1.3-0.5-2c1.4,2.4,2.8,4.8,4.1,7.2c0.8,0.6,1.6,1.2,2.4,1.7c1,0.3,2,0.6,3,1c0.4,0.2,0.8,0.3,1.1,0.5
	c0.3-0.4,0.6-0.9,0.9-1.3c-0.7-1.7-1.5-3.5-2.3-5.3c2.7,4.7,5,9.2,7,13.6c0.8,0.6,1.5,1.2,2.3,1.8c-0.1-0.5-0.2-1-0.3-1.5
	c1.2,4.8,1.7,9.4,1.6,14.2c-0.3,1.1-0.6,2.2-1.1,3.4c-0.5,0.4-1,0.8-1.5,1.3c0.1-0.3,0.1-0.5,0.2-0.8c-0.6-0.1-1.1-0.2-1.7-0.3
	c-0.3-0.7-0.6-1.3-0.9-2c-0.3,0.2-0.5,0.3-0.8,0.5c-0.2,0.6-0.4,1.2-0.6,1.7c-1.2,0-2.4-0.1-3.5-0.1c-0.3,1.2-0.7,2.4-1,3.6
	c-0.5,0.8-1,1.7-1.6,2.6c-0.5,0.6-1.1,1.3-1.6,2c-1,0.7-2,1.5-3,2.2c-2.5,3.8-4.9,6.2-5.8,7.1C194.3,385.9,192.2,387.3,188.6,389.1z
	"/>
<path class="st3" d="M131.9,278.6l-7.8-9l1.2,3.1l3.9,4.4l3.2,7l7.8,6.7l10.7,9.2l7.1,5l5.7,4.4l5.5,3.5l0.9-0.3l-1.8-0.6l-0.6-1.8
	l-2.6-1.7l-6.7-3.5l0.2-0.8l2.9,1.5l4.1,0.2l-11.9-8.5l-1,0.8l-5-4.4l1.2,0.2l-2.3-2.3l-5.4-5.4l-4.1-4.1l-3.6-3.6l-1.4-0.9V278.6
	L131.9,278.6z M118.9,250.4c0.8,2.2,1.5,3.5,1.9,4l1.5,2c0,0,0.6,0.9,1.7,2.6l4.4,4.9l1.2,2.9l0.8-1l-0.3-0.9l-4-6.1
	c-1.7-1.2-3.4-3-5-5.3c-0.1-0.1-0.3-0.5-0.7-1.1C120,251.7,119.6,251.2,118.9,250.4L118.9,250.4z M112.4,246.6l-0.1-1.6l9.9,13.6
	l4.4,5.8l5.8,8.7c-1.1-1.5-2.5-3-4.1-4.6l-6.1-7.4l-2.9-4.3L112.4,246.6L112.4,246.6z M97.9,222.1l-9-17.4l0.9,2.6l-0.5,1.2l2.8,5.5
	l2.4,3.8l2.3,3.6l0.9,2.1v0.5l1.1,0.2L97.9,222.1L97.9,222.1z M86.2,213.7c-2.1-4.3-11.4-7.7,0.6-3.4l0.5,0.4l4.1,6.4l9.9,15.4
	c0.3,4,0.9,6.2,1.9,6.9l1.7,2.6l6.9,11.6l-7.2-9.4l-3.8-5.8l-1.1-2l-1.8-3.5l-2.9-4l-0.3-0.8l-1.9-4h-0.6l-2.8-5.9
	C89.7,221.2,84.4,210,86.2,213.7L86.2,213.7z M184.7,308.3l-0.5,13.1l-1.7,0.1l-12.8-3.2l-9.2-4.4l-2.8-1.7l-7.3-5.5l-7.9-5.2
	l-11-10.5l-7.6-8.1l-3.1-4.1l-0.6-1.4c-0.4-0.4-1.7-2.1-4-5.2l-1.4-0.8l-0.3-1l-1-1.6v-1.5l-2.8-4l0.9,0.5l5.2,7.1l5.5,6.2l4.9,3.5
	l14.5,15.7l15.4,9.9l8.7,5.6l3.2,1.4l0.6,0.7l2.9,1.1l1.8,1l1.4-1.5l1.4,0.3l2.2-0.5l1.2-2l-2.8-1.2c-2.1-1.7-4.2-2.8-6.1-3.4
	l-4.1-3.2V303l-8.1-7c1.2,2.2,1.8,3.5,1.8,3.8v0.2c-0.2,0-0.9-0.6-2-1.7l-3.9-3.1l-13.8-14.9l-0.6-0.2l-4.9-6.1l-0.2-0.2l-1.4-2
	l5.9,5.3l0.9-0.7l-2.9-3.4l-0.7-1l-6.4-7.8l-2.6-4l-1.2-1.8l-1.7-1.5l-0.3-0.3l-0.3-0.9l-9.4-13.4l-1.7-2.4l-6.9-11l-1.6-3.4
	l-0.6-0.4l-1.1-2.4l-2.6-4.1c-1.1-1.6-1.7-2.3-1.7-2.3v0.2c0,0,0.1,0,0.1,0.1c0.1,0.1,0.1,0.1,0.2,0.2c1.1,2,1.9,3.5,2.3,4.7l-2.1-1
	l1.2,3.6l-1.7-3.8l-1.4-2.8l-1.6-2.9l-4.5-6.7l-1.1-3l-1.2-2.9l-2.6-6.4l0.3-1.4l1.2,2.9l2.9,4l2,2.7l-4-8.4l-1.1-2.4l1.2,0.2
	l-2.3-7.4l-0.8,0.2c-0.1-0.4-0.5-1.4-1-2.9l-1.6-4.1l-2.3-4.1c-0.4-0.8-0.7-1.7-1-2.8l-0.1-0.1l-1.1-7.9l0.9,3.4l1.7,3.2l5.5,9.9
	l5,10.8l5,10.4c0.5,1.2,1.4,2.8,2.6,4.7l13.1,23.3l3.2,6l0.8,0.6l0.2,0.9l0.9,0.9l1.1,1.7l1.7,3.2l12.1,16.5l1.7,2.7l7.9,9.6
	l15.4,17.2l2.8,2.9l-0.2,0.5l0.5,1.2l-0.5,0.9l-4-4.2l-1.7-1.4l-0.3-1.2l-10.1-9.6l-4.6-6.1l-1-1.7l-9-9.5l-2.4-2.8l4.1,5.8l3.8,4.8
	l2.3,2.1l9.5,11.6l5.2,5.2l-3.8-2l12.5,11.4l5.5,4.4l7.5,4.7l4.1,1.8c-0.5-0.5-0.8-0.9-0.9-1.2c-0.1-0.2-0.4-0.5-0.7-0.9l-2.1-2
	l-4.9-4.9l10.4,6.6l2.9,2.1l0.6-0.2L184.7,308.3z"/>
<path class="st3" d="M236.8,46.1l6.4-2.9l-2-0.3l-3.2,1.4l-4.7-0.3l-5,3.9l-6.8,5.3l-3.9,4l-3.4,3l-2.8,3.3l0.1,1l0.6-1.3l1.2,0.2
	l1.3-1.5l2.9-4.3l0.5,0.5l-1.3,1.9l-0.5,3.5l6.6-6.7l-0.4-1.2l3.3-2.5l-0.2,1l1.7-1l3.9-2.3l3-1.8l2.7-1.6l0.7-0.8L236.8,46.1
	L236.8,46.1z M255.8,47c-1.5-0.2-2.4-0.3-2.7-0.1l-1.4,0.5c0,0-0.6,0.1-1.8,0.3l-3.5,1.7l-1.9-0.2l0.6,1.1l0.6,0.1l4.2-0.8
	c0.9-1,2.2-1.6,3.8-2.1c0.1,0,0.3-0.1,0.8-0.2C254.9,47.4,255.3,47.2,255.8,47L255.8,47z M258.9,42.9l1,0.6l-9.5,2.7l-4.1,1.4
	l-6,1.3c1.1-0.3,2.1-0.9,3.3-1.6l5.3-2.1l3-0.7L258.9,42.9L258.9,42.9z M275.7,40.9l11.8-0.3l-1.7-0.3l-0.7-0.9l-3.7,0l-2.6,0.5
	l-2.5,0.4l-1.4-0.2l-0.3-0.2l-0.2,0.9L275.7,40.9L275.7,40.9z M282.2,34.4c2.9,0,6-6.6,2.1,2l-0.3,0.3l-4.4,0.8l-10.7,1.9
	c-2.5-1.4-4-1.9-4.5-1.3l-1.8,0.3l-7.9,1l6.6-2.2l4-0.8l1.3-0.1l2.4-0.1l2.8-0.8l0.5,0.1l2.7,0.1l0.1-0.5l4,0.2
	C277.2,34.2,284.7,34.4,282.2,34.4L282.2,34.4z M212.7,79.2l-8.1-6.1l0.1-1.5l3.3-9.8l3.7-6.1l1.4-1.7l4.2-4l4.1-4.6l7.7-5l5.8-3.2
	l2.9-0.9l0.9,0.1c0.3-0.2,1.5-0.6,3.6-1.2l0.6-0.9l0.7,0.2l1.1-0.2l0.9,0.7l2.8-0.7l-0.4,0.6l-5,1.4l-4.5,2.1l-2.7,2.7L224.6,47
	l-7.8,9.1l-4.4,5.1l-1.2,2.2l-0.5,0.2l-1,2.1l-0.8,1.1l0.8,1.8l-0.3,1.1l0.1,2.2l1.1,1.9l1-1.9c1.3-1.1,2.2-2.4,2.8-3.8l2.4-2.2
	l1.1,0.8l5.2-4c-1.5,0.1-2.4,0.1-2.6-0.1l-0.1-0.1c0-0.2,0.5-0.5,1.2-1l2.3-2l10.8-5.6l0.2-0.5l4.3-1.6l0.1-0.1l1.4-0.3l-3.9,2.9
	l0.4,1.1l2.4-1.1l0.7-0.2l5.5-2.2l2.7-0.6l1.3-0.3l1.1-0.8l0.2-0.1l0.6,0.1l9.3-2.4l1.7-0.4l7.6-1.2l2.3,0.1l0.3-0.3l1.6,0.1
	l2.8-0.5c1.1-0.3,1.6-0.5,1.6-0.5l-0.1-0.1c0,0,0,0,0,0.1c0,0-0.1,0-0.2,0.1c-1.3,0.1-2.4,0.1-3.2-0.1l0.9-1.4l-2.4-0.5l2.5,0.2
	l1.9,0l2-0.1l4.7-1l2,0.4l1.9,0.2l4.3,0.5l0.8,0.9l-1.9-0.2l-2.8,0.8l-1.9,0.6l5.6,0.2l1.6,0.1l-0.2,1l4.9,1.2l0-0.7
	c0.3,0.1,0.9,0.2,1.9,0.4l2.7,0.4l2.8-0.2c0.6,0,1.1,0.1,1.8,0.3l0.1,0l5,2.4l-2.2-0.7l-2.2,0.1l-6.8,0.5l-7.3-0.3l-7-0.1
	c-0.8-0.1-1.9,0-3.2,0.2l-15.9,1.3l-4.1,0.2l-0.4,0.4l-0.6-0.3l-0.7,0.4l-1.2,0.2l-2.2,0.1L248.6,56l-1.9,0.3l-6.8,2.7l-12.4,6
	l-2.1,1.1l-0.3-0.3l-0.8-0.1l-0.5-0.8l3-1.6l1-0.9l0.8,0.3l7.1-4.6l4.3-1.4l1.1-0.2l6.9-3.7l2-0.9l-4.1,1.1l-3.4,1.2l-1.6,1.1
	l-8.2,3.2l-3.8,2.3l1.6-2.5l-8.4,6l-3.3,2.8l-3.7,4.5l-1.6,2.8c0.4-0.2,0.6-0.3,0.8-0.3c0.1,0,0.4-0.1,0.7-0.2l1.5-1l3.6-2.1
	l-5.2,6.2l-1.6,1.6l0,0.6L212.7,79.2z"/>
<path class="st3" d="M417.1,180.3c0.4,3.1,0.8,6.2,0.8,9.4c-0.1,2.3-0.1,4.7-0.3,7.1c-0.6,4.2-1.2,8.4-2.2,12.7
	c-0.8,2.2-1.6,4.4-2.5,6.6c-0.4,0.7-0.8,1.4-1.2,2.1c-0.3,1.8-0.6,3.6-0.9,5.4c-0.3,0.5-0.6,0.9-1,1.4c0.2,0.4,0.3,0.8,0.5,1.1
	c-0.3,0.5-0.6,1.1-1,1.8c-0.8,1.2-1.3,2.2-1.7,2.8c-0.7,1.9-1.4,3.8-2.3,5.7c-0.9,1.5-1.8,3.1-2.8,4.6c-1.2,2.1-2.5,4.1-3.9,6.1
	c1-0.6,2-1.2,3-1.8c0.4-0.5,0.8-1,1.2-1.5c0-0.3,0.1-0.6,0.1-1c0.1-0.3,0.2-0.6,0.3-0.9c0-0.2,0-0.3,0-0.5c0.2,0,0.5-0.1,0.7-0.1
	c1.3-2.4,2.6-4.7,3.9-7.1c1.2-2.8,2.3-5.6,3.5-8.4c0.4-1,0.8-2,1.1-2.9c1.3-3.7,2.7-7.3,3.7-11c0.8-2.6,1.6-5.2,2.1-7.8
	c0.2-2.3,0.4-4.7,0.7-7c0-4.5-0.1-9-0.8-13.4c-0.1-0.5-0.2-0.9-0.3-1.4c-0.1-0.4-0.2-0.7-0.3-0.7
	C417.5,181.6,417.4,181.1,417.1,180.3L417.1,180.3z M419.4,171.6c0.7,0.5,1.4,0.9,2.1,1.4c0.4,0.7,0.7,1.5,1.1,2.3
	c0.3,0.5,0.7,1.1,1,1.6c1.1,3.5,2.1,7.1,2.6,10.7c0.5,6.2,0.4,12.7-0.6,19.1c-1,6.6-3,13.2-5.1,19.9c-3.9,9-8.4,18-13.4,26.9
	c-1.9,2.9-3.9,5.9-5.9,8.9c-1.2,1.1-2.3,2.2-3.3,3.3c-3.4,4.8-6.9,9.5-10.3,14.3c0.1-1.3,0.2-2.6,0.3-3.9c1.5-2.3,3-4.6,4.4-6.9
	c0.1-0.4,0.3-0.9,0.5-1.4c0.8-1.1,1.7-2.1,2.5-3.2c4.2-6.3,8.2-12.7,12-19.1c1.9-4.1,3.8-8.2,5.6-12.3c0.7-1.8,1.5-3.5,2.3-5.3
	c0.1-2.3,0-4.7-0.2-7c1-3.1,1.9-6.1,2.6-9.2c0.8-3.5,1.7-6.9,2-10.3c0.5-3.2,0.9-6.5,0.9-9.6c-0.4-3.9-1.2-7.6-2.3-11.3
	c-0.9-3-1.9-6-3.2-8.9c0.7,0.2,1.3,0.5,2,0.7c-0.6-1.3-1.4-2.6-2.3-3.9c-0.4-1.2-0.7-2.4-1.1-3.6
	C415.6,167.1,417.6,169.3,419.4,171.6L419.4,171.6z M383,158.4c-0.1-0.1-0.1-0.2-0.2-0.3c0.2,0.1,0.4,0.2,0.6,0.3
	c0.3,0,0.5,0,0.8-0.1c0.2,0,0.5,0,0.7,0c1.8,0,3.7,0.5,5.8,1.5c2.4,1.4,4.9,2.8,7.4,4.2c0.1-0.1,0.3-0.2,0.5-0.2
	c0-0.2-0.1-0.3-0.2-0.5c0-0.4,0-0.7,0-1.1c0.2-0.4,0.3-0.9,0.5-1.3c0.2,0,0.4,0,0.5,0c1.9,1,3.2,1.8,3.8,2.3
	c0.6,0.9,0.9,1.9,1.3,2.9c0.5,0.6,0.9,1.2,1.3,1.8c1.7,2.1,3.4,4.2,4.5,6.4c1,2,1.8,4.1,2.7,6.2c0.3,1.8,0.6,3.7,1,5.5
	c0.4,3,0.5,6,0.6,9.1c-0.2,0.2-0.3,0.5-0.5,0.7c0.1,0.6,0.2,1.2,0.3,1.8c-0.4,2.5-0.8,5.1-1.1,7.6c-0.6,2.4-1.5,4.9-2.3,7.4
	c-0.1,0.6-0.3,1.3-0.4,2c-0.8,1.6-1.5,3.6-1.9,5.9c-0.3,0.9-0.6,1.8-1,2.7c-1.9,4.1-4,8.2-6.1,12.3c0,0-0.1,0.2-0.2,0.6
	c-0.2,0.5-0.4,0.9-0.5,1.2c-0.5,1.1-0.8,1.7-1,2c-1.7,3.1-3.6,6.2-5.5,9.3c-3.4,4.9-6.8,9.7-10.4,14.6c-1.8,2-3.6,4.1-5.3,6.1
	c-1.2,1.4-2.3,2.7-3.4,4.1c-3.1,2.8-6.1,5.6-9.2,8.4c-0.3,0.5-0.6,1-0.9,1.5c-0.2,0.1-0.3,0.2-0.5,0.2c-1.9,2.1-3.8,4.2-5.6,6.3
	c-2.1,1.1-4.1,2.3-6,3.4c-0.8,1.3-1,2.4-0.5,3.4c-0.6,0.5-1.1,0.9-1.7,1.4c0.1,0.3,0.1,0.7,0.1,1c-1.4,0.4-2.9,0.8-4.2,1.3
	c-2.6-1.2-5.2-2.4-7.9-3.6c-0.6-0.7-1.1-1.3-1.4-1.9c-0.4-0.4-0.7-0.8-1-1.1c2.2-2.8,4.4-5.5,6.9-8.4c2.5-3,5.3-6.1,7.9-9.2
	c0.1,0.1,0.1,0.2,0.2,0.3c2.6-1.1,5.2-2.3,7.9-3.5c0.3-0.4,0.6-0.9,1-1.4c-0.9,0.2-1.8,0.5-2.7,0.7c0.7-0.9,1.5-1.8,2.2-2.7
	c2.3-3.4,4.7-6.7,7.1-10.1c5.7-10,11.4-20,16.9-30c5.3-11,9.5-21.9,12.2-32.6c0.8-8.7-0.3-17.1-3.5-24.9c-2.1-2.9-4.2-5.8-7.1-8.5
	c-1.7-1.9-3.4-3.7-5-5.5C381.2,158,382.1,158.2,383,158.4z"/>
<path class="st3" d="M288.6,362.4C288.6,362.3,288.6,362.3,288.6,362.4c0-0.1-0.2-0.2-0.3-0.2C288.4,362.2,288.5,362.3,288.6,362.4
	L288.6,362.4z M252.4,371c-0.2-0.4-0.5-0.9-0.7-1.5c-0.5,0.1-1.1,0.2-1.6,0.2c-0.4-0.6-0.9-1.2-1.3-1.9c-0.3-0.1-0.6-0.3-0.8-0.4
	c0.2-0.4,0.3-0.8,0.5-1.2c0.6-0.4,1.1-0.8,1.7-1.1c0.4,0.1,0.8,0.2,1.2,0.3c2.5-3.6,4.2-7.4,5.4-11.3c2.1-5.1,3.8-10.4,5.2-16.3
	c0.7-4.3,1.4-8.9,1.9-13.5c0.2,0.1,0.3,0.2,0.5,0.3c0.5-3.5,1.1-7,1.6-10.5c0.2-0.7,0.4-1.4,0.6-2.1c0.1-0.5,0.1-1,0.2-1.5
	c0.2-0.6,0.4-1.2,0.6-1.8c-0.2,2.3-0.4,4.6-0.6,6.9c0-0.3,0.1-0.6,0.1-1c0.1-0.4,0.1-0.7,0.2-0.9c0.1-0.4,0.2-0.9,0.4-1.6
	c0.1-1.3,0.2-2.6,0.3-3.9c0.4-1.8,0.9-3.5,1.3-5.2c1.8-8.6,4.5-15.9,8.3-21.5c0,0-7.2,17-7.2,16.9c0.1-0.2,0.2-0.3,0.3-0.5
	c0,0.4,0,0.9-0.1,1.3c0.6-2.5,1.3-5,2.1-7.3c-0.5,1.9-0.9,3.9-1.2,6c0,1.3,0.1,2.7,0.1,4.1c2.4-7.9,5.7-14.3,10.2-18.8l0,0
	c1.7,0.6,3.3,1.2,5,1.8c-3.8,1.6-7.5,3.9-10,8c-2.6,4.2-4.2,9.8-5.6,15.6c0.3,0.7,0.6,1.4,0.8,2.1c0.5-1.3,1-2.6,1.5-3.9
	c-0.3,1.3-0.6,2.6-0.9,3.9c0.2-0.2,0.4-0.3,0.6-0.5c1.1-5.9,2.4-11.6,4.7-16c2.2-4.3,5.5-7.1,8.9-9.2c0.4,1.5,0.8,2.9,1.2,4.4
	c-0.4,0.3-0.8,0.5-1.3,0.8c0.4,0.4,0.7,0.7,1.1,1.1c-0.3,0.7-0.6,1.4-0.9,2.2c-3.6,3.4-6.9,7.7-8.8,13.6c-2,6.1-2.9,13.3-3.9,20.3
	c0.1,2.8,0.3,5.6,0.5,8.2c0.6-3.2,1.2-6.4,1.7-9.7c0.9-4.2,1.8-8.3,3-12.2c-0.9,3.7-1.7,7.6-2.4,11.6c0.8-4.8,1.5-9.6,2.8-13.9
	c1.3-4.2,3.2-7.7,5.2-10.8c-2.3,3.7-4.4,8-5.6,13.1c-1.3,5.2-2,10.8-2.7,16.4c0.2,0.4,0.4,0.8,0.6,1.2c0.1-0.3,0.3-0.6,0.4-0.9
	c0,0.6,0,1.2,0,1.7c1.8-7.7,3.5-15.7,7.1-21.3c3.4-5.4,8.8-7.6,14.4-8.7c-5.7,1.6-11.2,4.4-14.5,10.5c-3.4,6.5-4.8,15.1-6.6,23.4
	c1.3-7.1,2.8-14.1,4.8-20.7c1.3,1.3,2.7,2.5,4,3.8c-1.4,6.8-2.3,13.9-3.1,20.9c0.2-0.4,0.4-0.8,0.7-1.3c-0.2,1.8-0.5,3.5-0.8,5.2
	c0.3,0.6,0.6,1.1,0.8,1.7c0.6,0.4,1.1,0.9,1.7,1.4c0.2,0.2,0.4,0.4,0.5,0.6c0.5-0.1,0.9-0.3,1.3-0.5c0.4-1.2,0.8-2.4,1.1-3.6
	c-0.5,3.4-1.2,6.6-1.9,9.6c0.2,0.5,0.5,1.1,0.7,1.7c0.2-0.3,0.4-0.6,0.5-0.9c-1.5,3-3.4,5.9-5.7,8.7c-0.7,0.6-1.4,1.2-2.3,1.7
	c-0.5,0.1-1.1,0.2-1.6,0.4c0.2-0.1,0.3-0.3,0.5-0.4c-0.4-0.2-0.7-0.4-1.1-0.6c0.1-0.5,0.2-1,0.3-1.5c-0.3,0-0.5,0-0.8,0.1
	c-0.4,0.3-0.8,0.6-1.2,0.9c-0.8-0.4-1.6-0.7-2.4-1c-0.7,0.6-1.5,1.3-2.2,2c-0.7,0.4-1.4,0.8-2.1,1.2c-0.6,0.2-1.3,0.5-1.9,0.8
	c-1,0.2-1.9,0.4-2.9,0.6c-3.1,1.8-5.5,2.8-6.3,3.1C257.3,370.3,255.4,370.7,252.4,371z"/>
<path class="st5" d="M341.3,98.6l-0.7-2.6l5.3,5l5.7,8l2,1.4l4.2,6.1l2.3,5.4l3.7,4.5l7.6,9.7l2.7,4.5l4.9,13l-0.3,2.5l-0.5-2.3
	l-4.9-11.5l0.8,2.3l-0.3,0.3l3,8l-10.1-18.7l-5.5-7.5L359,123l-13-17.6l-0.3,0.9l-1.4-3.3L341.3,98.6L341.3,98.6z M359.3,84
	c5,0.9-18.1-17.9-20.5-19.6l10.6,6.6l-18.8-14.4l-6.8-7.7l-3.2-4l-1.1-2.7l-6.6-7.9l-8.4-7.1l0,3.2l0.6,2.1l0.6-0.5l4.9,4.8
	l-1.9-1.5l2.7,2.8l-8.4-4.9l-7.5-0.1l-6.2-3.7l-0.2,2.8l0.5,1.7l-3.8-1.6l-1.4,1.5l-4.3-2.7l-1,2.2l5.7,8.1L302,64.9l4.8,4.5
	l3.9,4.4l-9.9-13.2l8.3,8.8l30.4,35.6l15.6,21.4l9.2,15.3l4.4,10.4l-11.2-19.4l-5.1-7.2l-15.5-21l-23.1-26.8l24.6,29.6l12.1,16.2
	l2.5,4.3l10.8,16.3l3.1,7.4l-0.5,0.4c0.6,0.8,1.2,1.9,1.7,3.2c0.5,1.1,0.5,2-0.1,2.8c-0.3,0.7-1.3,2-3.2,4l-8.5-1.4l-3.1,0.8
	l-12.1-1.9l-0.4,1.1l-2.2-1l-0.3,1.1l3.8,1.1l-0.1,0.9l4.4,2l8.4,3.2l8.1,2.4l-1.7,0.5l-2-0.4l0.7,1.4l6.7,0.5l8.9-1.3l3.8-0.9
	l0.4,0.6l-0.2-0.5l0.8-0.3l0,1.1l1.8-0.7l4.2-1.8l10.2-7.7l2-5.6l-1.6-8.4l-3.1-7.3l3.7,11.9l0.2,6.1l-2.8,4.3l-2.8,2.4l2.5-4.6
	l0.1-7.1l-1.5-6.2l-4-9.4l-3.4-4l-4.5-7.1l-13.6-19l-0.3,0.3l13.7,19.7l5.6,9.9l-1.1,2.3l-8-14.1l-13.8-19.2l-7.9-9.5l-3.1-5.5
	l-2.6-3.9l15.7,17.1l-3.9-4.6l-10-16l19.1,21.4l-8.2-13.2L384,119l9.8,16.4l4.8,11.3l1.1,7.6l0.5-0.1l-0.3,3.3l1.1-5.2l-2.2-7.2
	l-2.1-5.1c-0.1-0.1-0.1-0.5-0.1-1.1c0-0.1-0.1-0.5-0.3-1l-4.4-7.5l-3.5-5.3l-0.3-1.1l-1.5-1.8l-2.3-3.8l-23.6-31l3,2.2l-2.6-3.4
	C357.9,83.9,350.9,77.9,359.3,84L359.3,84z M339.3,78.5l-0.3,0.9l1.5,2.1l-1.1-0.2l3.5,5.1l7.2,8.9l0.7,0.1l10.6,16l6.7,8.9
	l-2.7-4.7l5.3,9l2.1,4.3l0.8-0.1l0.8,0.9l-1.8-4.3l0.9,1.3l5.9,10c0.1,0.2,0,0.7-0.4,1.5l2.8,4.6l1.1,3.6l2.9,6.8l0.8,5.5l1.9-0.4
	l-0.3-2.7l-0.4-0.2l0.6-0.2l-2-7.3l-5.6-13.3l-0.7-1.6l-1.3,0.4l-6.2-10.1l-2-4.1l-27.6-36.7l-8-9.6L339.3,78.5L339.3,78.5z
	 M376,116.7l-7-9.4l15.4,22.1L376,116.7L376,116.7z M331.4,51.3l11.9,11.5l0.6,0.8l-12.7-10.1l-6.3-6.7l3.8,1.1L331.4,51.3z"/>
<path class="st3" d="M396,225.4C396,225.4,396,225.4,396,225.4c-0.2,0-0.3-0.2-0.4-0.3C395.8,225.2,395.9,225.3,396,225.4L396,225.4
	z M394.9,173.4c-0.6-0.2-1.4-0.3-2.2-0.4c-0.1-0.8-0.1-1.5-0.3-2.3c-0.9-0.4-1.9-0.8-3.1-1.1c-0.3-0.3-0.5-0.7-0.8-1
	c-0.5,0.4-0.9,0.7-1.4,1.1c-0.3,0.9-0.6,1.8-1,2.7c0.3,0.5,0.5,1.1,0.8,1.6c-4.1,4.7-8.6,8.3-13.4,11.3c-6.1,4.7-12.8,8.8-20.2,12.8
	c-5.6,2.5-11.5,5-17.6,7.4c0.2,0.2,0.4,0.4,0.6,0.6c-4.5,1.9-9.1,3.9-13.7,5.9c-0.9,0.5-1.8,1-2.6,1.6c-0.6,0.2-1.3,0.5-1.9,0.7
	c-0.8,0.5-1.6,0.9-2.3,1.4c3-1.1,6.1-2.2,9.1-3.2c-0.4,0.1-0.7,0.3-1.3,0.5c-0.5,0.2-0.9,0.4-1.1,0.6c-0.5,0.3-1.2,0.6-2,1.1
	c-1.7,0.6-3.5,1.2-5.2,1.8c-2.2,1.2-4.4,2.4-6.5,3.6c-11,5.4-19.9,11.7-26.2,18.8c0,0,20.5-15.8,20.3-15.7c-0.2,0.2-0.4,0.4-0.5,0.6
	c0.6-0.2,1.1-0.4,1.7-0.5c-3.2,1.7-6.3,3.5-9.1,5.4c2.4-1.3,5-2.6,7.7-3.8c1.8-0.5,3.7-0.9,5.6-1.3c-9.8,6-17.3,12.8-21.9,20.4l0,0
	c1.4,2.1,2.7,4.1,4.2,6.1c0.8-5.8,2.7-11.5,7.2-16.4c4.7-5,11.8-9.1,19.1-13.1c1.1,0.1,2.1,0.3,3.2,0.4c-1.6,1.1-3.2,2.3-4.7,3.5
	c1.6-0.9,3.3-1.7,4.9-2.6c-0.2,0.3-0.3,0.6-0.4,0.9c-7.6,3.6-14.8,7.3-20.1,12c-5.1,4.5-7.6,9.9-9.3,15.3c2.1,0,4.3,0,6.4,0
	c0.2-0.7,0.4-1.3,0.6-2c0.6,0.3,1.3,0.7,1.9,1.1c0.8-0.7,1.7-1.4,2.6-2c3.3-6.1,8-12,15.3-16.7c7.6-4.9,17-8.6,26.1-12.4
	c3.9-0.8,7.6-1.5,11.3-2.3c-4.1,1.9-8.3,3.8-12.5,5.8c-5.4,2.7-10.6,5.4-15.4,8.3c4.7-2.6,9.7-5,14.8-7.4
	c-6.2,2.7-12.4,5.4-17.8,8.7c-5.2,3.2-9.3,7-12.8,10.9c4.2-4.4,9.3-8.7,15.8-12.2c6.6-3.6,14-6.5,21.3-9.4c0.6,0.1,1.2,0.3,1.8,0.4
	c-0.3,0.3-0.7,0.6-1.1,0.9c0.8-0.2,1.6-0.5,2.3-0.7c-9.8,5.2-20,10.3-26.4,17.1c-6,6.5-7.2,14.6-6.8,22.5c0.2-8.3,2-16.8,9.1-23.4
	c7.5-6.9,18.8-11.9,29.3-17.2c-9.1,4.3-18.1,8.8-26.3,13.7c2.2,1.4,4.3,2.7,6.6,4c8.7-4.3,18-8.1,27.2-11.6c-0.5,0.4-1,0.9-1.5,1.3
	c2.3-0.9,4.5-1.9,6.7-2.9c0.8,0.2,1.7,0.4,2.5,0.5c0.8,0.6,1.6,1.2,2.5,1.7c0.3,0.2,0.7,0.4,1,0.5c0,0.7-0.1,1.3-0.2,1.9
	c-1.5,0.9-2.9,1.8-4.5,2.8c4.4-1.9,8.5-3.9,12.3-6c0.8,0.1,1.6,0.3,2.5,0.4c-0.3,0.4-0.7,0.7-1.1,1.1c3.6-3.1,6.8-6.7,9.7-10.7
	c0.5-1.2,1.1-2.4,1.5-3.7c-0.1-0.7-0.1-1.6-0.1-2.4c-0.1,0.3-0.3,0.5-0.4,0.8c-0.4-0.4-0.8-0.8-1.3-1.2c-0.6,0.3-1.2,0.6-1.9,0.9
	c-0.1-0.4-0.1-0.7-0.2-1c0.2-0.6,0.5-1.3,0.7-2c-0.8-1-1.5-1.9-2.2-2.9c0.6-1.2,1.2-2.4,1.9-3.7c0.3-1.1,0.6-2.2,0.9-3.3
	c0.1-0.9,0.3-1.9,0.4-2.9c-0.1-1.4-0.1-2.8-0.2-4.1c1.4-4.9,1.9-8.4,2-9.7C395.7,180.2,395.6,177.5,394.9,173.4z"/>
<path class="st4" d="M287.5,511.7c-0.1,0-0.1,0-0.1,0c0-0.1-0.1-0.3-0.1-0.5C287.3,511.4,287.4,511.5,287.5,511.7L287.5,511.7z
	 M312.9,466.3c-0.5-0.5-1.1-1-1.7-1.5c0.3-0.7,0.7-1.4,0.9-2.1c-0.6-0.8-1.2-1.6-2.1-2.5c-0.1-0.4-0.1-0.9-0.2-1.3
	c-0.6,0.1-1.2,0.1-1.7,0.2c-0.7,0.6-1.5,1.2-2.2,1.8c0,0.6-0.1,1.2-0.1,1.8c-5.9,2-11.6,2.8-17.3,3c-7.6,0.9-15.5,1.1-23.9,0.8
	c-6.1-0.7-12.4-1.6-18.9-2.5c0.1,0.3,0.2,0.5,0.3,0.8c-4.9-0.6-9.8-1.2-14.8-1.9c-1,0-2.1,0-3.1,0c-0.7-0.1-1.4-0.2-2-0.3
	c-0.9,0-1.8,0-2.7,0c3.2,0.6,6.3,1.2,9.5,1.8c-0.4-0.1-0.8-0.1-1.3-0.2c-0.6-0.1-1-0.1-1.3-0.1c-0.6,0-1.3,0-2.2,0
	c-1.8-0.4-3.6-0.8-5.4-1.1c-2.5-0.1-5-0.2-7.4-0.2c-12.2-0.9-23.1,0-32.1,2.9c0,0,25.7-3.2,25.4-3.2c-0.3,0-0.5,0.1-0.7,0.2
	c0.6,0.1,1.2,0.3,1.8,0.4c-3.7-0.1-7.2-0.2-10.6,0.1c2.8,0.1,5.6,0.3,8.6,0.6c1.8,0.5,3.6,1.1,5.5,1.7c-11.5,0.2-21.4,2.3-29.2,6.5
	l0,0c0.1,2.5,0.3,4.9,0.5,7.4c3.7-4.5,8.2-8.6,14.6-10.5c6.6-2,14.8-1.9,23.1-1.6c0.9,0.7,1.7,1.3,2.6,1.9c-2,0.2-3.9,0.4-5.8,0.6
	c1.8,0.1,3.7,0.1,5.6,0.3c-0.3,0.2-0.6,0.4-0.8,0.6c-8.3-0.7-16.5-1.2-23.4,0.2c-6.6,1.3-11.6,4.7-15.8,8.5c1.8,1.1,3.7,2.2,5.5,3.3
	c0.5-0.5,1-0.9,1.5-1.4c0.4,0.6,0.7,1.3,1.1,1.9c1-0.2,2.1-0.3,3.3-0.4c5.9-3.5,12.9-6.3,21.7-6.7c9-0.4,19,1.2,28.8,2.5
	c3.7,1.3,7.4,2.5,10.9,3.8c-4.5-0.4-9.1-0.9-13.7-1.4c-6-0.4-11.8-0.7-17.5-0.7c5.4,0.1,10.9,0.6,16.5,1.1
	c-6.7-0.8-13.4-1.6-19.7-1.5c-6.1,0.1-11.6,1.4-16.6,2.9c5.9-1.7,12.4-2.8,19.8-2.6c7.5,0.2,15.4,1.5,23.1,2.6
	c0.4,0.4,0.9,0.8,1.3,1.2c-0.4,0.1-0.9,0.1-1.4,0.2c0.8,0.2,1.6,0.4,2.4,0.6c-11.1-0.5-22.5-1.3-31.4,1.4c-8.5,2.6-13.6,9-17.3,16
	c4.3-7.1,10.2-13.5,19.7-15.5c10-2.2,22.2-0.7,34,0.1c-10-0.9-20.1-1.6-29.7-1.5c1.2,2.3,2.4,4.5,3.7,6.8c9.7,0.7,19.6,2.2,29.3,3.8
	c-0.6,0.1-1.3,0.3-1.9,0.4c2.5,0.4,4.9,0.6,7.2,0.9c0.6,0.6,1.3,1.2,1.9,1.8c0.4,0.9,0.8,1.8,1.2,2.8c0.2,0.3,0.4,0.6,0.6,1
	c-0.4,0.6-0.8,1-1.1,1.6c-1.7,0.1-3.5,0.1-5.2,0.1c4.7,0.6,9.3,0.9,13.6,1.1c0.6,0.5,1.3,1.1,2,1.6c-0.5,0.1-1,0.2-1.4,0.4
	c4.7-0.9,9.2-2.3,13.8-4.3c1.1-0.7,2.1-1.5,3.2-2.4c0.3-0.7,0.7-1.4,1.1-2.1c-0.3,0.2-0.5,0.3-0.8,0.5c-0.2-0.6-0.3-1.1-0.5-1.7
	c-0.7,0-1.4-0.1-2.1-0.2c0.1-0.3,0.3-0.7,0.4-1c0.5-0.4,1.1-0.9,1.6-1.3c-0.2-1.2-0.3-2.4-0.4-3.7c1.2-0.7,2.3-1.5,3.5-2.2
	c0.8-0.8,1.6-1.6,2.4-2.4c0.6-0.8,1.2-1.5,1.8-2.3c0.6-1.2,1.3-2.4,2-3.6c3.6-3.5,5.9-6.3,6.7-7.3
	C310.1,472.6,311.3,470.2,312.9,466.3z"/>
<path class="st4" d="M177.7,420c0,0,107.4,20.8,138.3,9.2c0,0,7.4,0.9-3.7-16.8c-11.1-17.6,15.5,8.4,15.5,8.4s10.6,34.7-12.3,39.4
	c-23,4.7-59.7,8.4-134.5-16.7C181.1,443.6,174.3,438.6,177.7,420z"/>
<g>
	<g>
		<g>
			<path class="st9" d="M200.4,440.1c0.8-1,1.2-1.5,2-2.5c1,0.9,2.4,1.7,3.7,2c1.1,0.3,1.6,0.1,1.7-0.3c0.4-1.5-6.5-1.9-5.4-6.2
				c0.6-2.1,2.8-3.4,6.4-2.5c1.6,0.4,3.1,1.1,4.2,2.1c-0.7,1-1.1,1.5-1.9,2.6c-1-0.9-2.1-1.4-3.1-1.6c-1.2-0.3-1.6,0-1.7,0.4
				c-0.3,1.4,6.5,1.8,5.5,6.1c-0.5,2.1-2.8,3.5-6.5,2.6C203.3,442.1,201.4,441.1,200.4,440.1z"/>
			<path class="st9" d="M216.5,435.9c-1.4-0.3-2.1-0.5-3.5-0.8c0.3-1.2,0.4-1.8,0.7-3c4.3,1,6.5,1.4,10.8,2.3
				c-0.2,1.2-0.4,1.8-0.6,3.1c-1.4-0.3-2.1-0.4-3.5-0.7c-0.7,3.5-1.1,5.2-1.8,8.6c-1.6-0.3-2.5-0.5-4.1-0.9
				C215.4,441,215.8,439.3,216.5,435.9z"/>
			<path class="st9" d="M234,445.1c-0.2,1.2-0.3,1.8-0.5,3c-4.1-0.7-6.1-1-10.1-1.8c0.9-4.7,1.4-7,2.3-11.7c3.8,0.7,5.8,1.1,9.6,1.7
				c-0.2,1.2-0.3,1.8-0.5,3c-2.3-0.4-3.4-0.6-5.7-1c-0.1,0.6-0.1,0.8-0.2,1.4c2,0.4,3,0.5,5.1,0.9c-0.2,1.1-0.3,1.7-0.5,2.9
				c-2-0.3-3.1-0.5-5.1-0.9c-0.1,0.6-0.2,0.9-0.3,1.5C230.4,444.5,231.6,444.7,234,445.1z"/>
			<path class="st9" d="M246.1,449.9c0.3-2.2,0.4-3.2,0.7-5.4c-1.3,1.6-1.9,2.4-3.2,4c-0.7-0.1-1.1-0.2-1.8-0.3
				c-0.8-1.8-1.2-2.7-2-4.5c-0.3,2.1-0.5,3.1-0.8,5.2c-1.5-0.2-2.3-0.3-3.8-0.6c0.8-4.7,1.1-7.1,1.9-11.8c1.3,0.2,2,0.3,3.3,0.5
				c1.2,2.7,1.8,4.1,3,6.9c1.9-2.3,2.8-3.5,4.6-5.8c1.3,0.2,2,0.3,3.3,0.4c-0.6,4.7-0.8,7.1-1.4,11.9
				C248.3,450.2,247.6,450.1,246.1,449.9z"/>
			<path class="st9" d="M252.5,445.7c1.8,0.2,2.7,0.3,4.5,0.5c0,0.3,0,0.5-0.1,0.8c-1.8-0.2-2.7-0.3-4.5-0.5
				C252.4,446.2,252.5,446,252.5,445.7z"/>
			<path class="st9" d="M267.3,448.7c-2.8-0.2-4.3-0.3-7.1-0.6c-0.7,1.3-1.1,1.9-1.9,3.2c-0.4,0-0.6-0.1-1-0.1
				c2.7-4.5,4.1-6.8,6.7-11.4c0.3,0,0.5,0,0.9,0.1c1.8,4.9,2.8,7.4,4.7,12.3c-0.4,0-0.6,0-1-0.1
				C268.1,450.8,267.9,450.1,267.3,448.7z M267.1,447.9c-1.1-2.8-1.6-4.3-2.7-7.1c-1.5,2.6-2.2,4-3.7,6.6
				C263.2,447.6,264.5,447.7,267.1,447.9z"/>
			<path class="st9" d="M288,441c-1.7,4.8-2.6,7.1-4.4,11.9c-0.4,0-0.6,0-1,0c-1.4-4.3-2.1-6.5-3.4-10.8c-1.7,4.2-2.5,6.3-4.3,10.5
				c-0.4,0-0.6,0-1,0c-1.4-4.9-2.1-7.3-3.4-12.2c0.4,0,0.6,0,0.9,0.1c1.2,4.4,1.8,6.6,3.1,10.9c1.8-4.2,2.6-6.3,4.3-10.6
				c0.3,0,0.5,0,0.8,0c1.3,4.4,2,6.5,3.4,10.9c1.6-4.3,2.4-6.4,4-10.7C287.5,441,287.7,441,288,441z"/>
			<path class="st9" d="M297.7,449.6c-2.9,0-4.3,0-7.1,0c-0.6,1.3-1,2-1.6,3.3c-0.4,0-0.6,0-1,0c2.4-4.7,3.5-7.1,5.7-11.9
				c0.3,0,0.5,0,0.9,0c2.2,4.8,3.4,7.1,5.7,11.9c-0.4,0-0.6,0-1,0C298.7,451.6,298.3,450.9,297.7,449.6z M297.3,448.9
				c-1.3-2.7-2-4.1-3.2-6.9c-1.3,2.8-1.9,4.1-3.2,6.9C293.5,448.9,294.8,448.9,297.3,448.9z"/>
			<path class="st9" d="M305.5,448.7c0.1,1.6,0.1,2.5,0.1,4.1c-0.4,0-0.5,0-0.9,0c0-1.6-0.1-2.5-0.1-4.1c-2.1-3.1-3.1-4.6-5.1-7.7
				c0.4,0,0.6,0,1,0c1.8,2.8,2.7,4.2,4.6,6.9c1.7-2.9,2.5-4.3,4.1-7.2c0.4,0,0.5,0,0.9,0C308.3,443.9,307.4,445.5,305.5,448.7z"/>
		</g>
		<g>
			<path class="st9" d="M315,442.1c0.1,0.9-0.6,1.6-1.5,1.6c-0.9,0-1.6-0.6-1.6-1.4c0-0.9,0.6-1.6,1.5-1.6
				C314.2,440.7,314.9,441.3,315,442.1z M314.8,442.2c0-0.8-0.6-1.3-1.4-1.2c-0.8,0-1.3,0.7-1.3,1.4c0,0.7,0.6,1.3,1.4,1.3
				C314.3,443.5,314.8,442.9,314.8,442.2z M313.9,442.5c0.2,0.2,0.3,0.4,0.4,0.6c-0.1,0-0.2,0-0.3,0c-0.2-0.2-0.2-0.3-0.4-0.5
				c0,0,0,0-0.1,0c-0.2,0-0.2,0-0.4,0c0,0.2,0,0.3,0,0.6c-0.1,0-0.2,0-0.3,0c0-0.7-0.1-1-0.1-1.7c0.3,0,0.4,0,0.7,0
				c0.4,0,0.7,0.2,0.7,0.5C314.2,442.2,314.1,442.4,313.9,442.5z M313.9,441.9c0-0.2-0.2-0.3-0.5-0.3c-0.2,0-0.2,0-0.4,0
				c0,0.3,0,0.4,0,0.7c0.2,0,0.2,0,0.4,0C313.8,442.3,313.9,442.2,313.9,441.9z"/>
		</g>
	</g>
</g>
</svg>
