<svg width="125" height="42" viewBox="0 0 125 42" fill="none" xmlns="http://www.w3.org/2000/svg">
<path d="M53.1357 21.3444C53.1357 27.1216 48.5498 31.3787 42.9218 31.3787C37.2937 31.3787 32.7078 27.1216 32.7078 21.3444C32.7078 15.5265 37.2937 11.3101 42.9218 11.3101C48.5498 11.3101 53.1357 15.5265 53.1357 21.3444ZM48.6645 21.3444C48.6645 17.7342 46.0066 15.2641 42.9218 15.2641C39.8369 15.2641 37.179 17.7342 37.179 21.3444C37.179 24.9184 39.8369 27.4247 42.9218 27.4247C46.0066 27.4247 48.6645 24.9139 48.6645 21.3444Z" fill="#D2D8E6"/>
<path d="M75.1704 21.3444C75.1704 27.1216 70.5844 31.3787 64.9564 31.3787C59.3284 31.3787 54.7424 27.1216 54.7424 21.3444C54.7424 15.531 59.3284 11.3101 64.9564 11.3101C70.5844 11.3101 75.1704 15.5265 75.1704 21.3444ZM70.6992 21.3444C70.6992 17.7342 68.0413 15.2641 64.9564 15.2641C61.8716 15.2641 59.2136 17.7342 59.2136 21.3444C59.2136 24.9184 61.8716 27.4247 64.9564 27.4247C68.0413 27.4247 70.6992 24.9139 70.6992 21.3444Z" fill="#D2D8E6"/>
<path d="M96.2869 11.9163V29.931C96.2869 37.3414 91.8524 40.3679 86.61 40.3679C81.6751 40.3679 78.705 37.1152 77.5849 34.455L81.4777 32.8581C82.1709 34.4912 83.8694 36.4185 86.6054 36.4185C89.9611 36.4185 92.0406 34.3781 92.0406 30.5372V29.0941H91.8845C90.8838 30.311 88.9557 31.3742 86.5228 31.3742C81.4318 31.3742 76.7678 27.004 76.7678 21.3806C76.7678 15.7165 81.4318 11.3101 86.5228 11.3101C88.9512 11.3101 90.8792 12.3733 91.8845 13.554H92.0406V11.9209H96.2869V11.9163ZM92.3574 21.3806C92.3574 17.8473 89.9657 15.2641 86.9221 15.2641C83.8373 15.2641 81.2528 17.8473 81.2528 21.3806C81.2528 24.8777 83.8373 27.4247 86.9221 27.4247C89.9657 27.4247 92.3574 24.8777 92.3574 21.3806Z" fill="#D2D8E6"/>
<path d="M103.287 1.35724V30.7634H98.9264V1.35724H103.287Z" fill="#D2D8E6"/>
<path d="M120.282 24.6469L123.752 26.927C122.632 28.5602 119.933 31.3741 115.269 31.3741C109.485 31.3741 105.165 26.9677 105.165 21.3398C105.165 15.3726 109.521 11.3055 114.768 11.3055C120.052 11.3055 122.637 15.4495 123.481 17.6889L123.945 18.829L110.334 24.3845C111.376 26.3977 112.997 27.4246 115.269 27.4246C117.546 27.4246 119.125 26.3208 120.282 24.6469ZM109.6 21.0367L118.698 17.3134C118.198 16.0603 116.692 15.1872 114.92 15.1872C112.648 15.1872 109.485 17.1642 109.6 21.0367Z" fill="#D2D8E6"/>
<path d="M16.2001 18.734V14.4769H30.7567C30.8991 15.2188 30.9725 16.0965 30.9725 17.0465C30.9725 20.2405 30.0865 24.19 27.2312 27.0039C24.4539 29.8541 20.9054 31.3741 16.2047 31.3741C7.49181 31.3741 0.165283 24.38 0.165283 15.7934C0.165283 7.20679 7.49181 0.212646 16.2047 0.212646C21.0248 0.212646 24.4585 2.07654 27.0384 4.50595L23.9903 7.5099C22.1403 5.79982 19.6338 4.46975 16.2001 4.46975C9.83758 4.46975 4.86142 9.52309 4.86142 15.7934C4.86142 22.0637 9.83758 27.117 16.2001 27.117C20.327 27.117 22.6774 25.4839 24.1831 24C25.4042 22.7966 26.2075 21.0775 26.5243 18.7295L16.2001 18.734Z" fill="#D2D8E6"/>
</svg>
