<svg width="155" height="41" viewBox="0 0 155 41" fill="none" xmlns="http://www.w3.org/2000/svg">
<g clip-path="url(#clip0)">
<path d="M66.6385 6.48111L50.8052 33.4325H47.5896L63.5564 6.48111H66.6385ZM53.0862 6.4259L66.6385 33.4325H61.4646L47.5896 6.4259H53.0862Z" fill="#D2D8E6"/>
<path d="M68.0739 33.3664H72.6581V6.54742H68.0739V33.3664Z" fill="#D2D8E6"/>
<path d="M90.2494 33.3663H76.4523V6.48114H81.0921V31.1581H90.2494V33.3663Z" fill="#D2D8E6"/>
<path d="M92.4747 33.3664H97.1257V6.54742H92.4747V33.3664Z" fill="#D2D8E6"/>
<path d="M100.397 33.4326V6.54739H104.647L117.076 27.2606V6.48114H119.958V33.4326H114.795L103.346 14.1437V33.4326H100.397Z" fill="#D2D8E6"/>
<path d="M8.50129 0.706604L0.579069 8.5679L12.0396 19.9955L0.523438 31.412L8.50129 39.2733H21.1969L13.3748 31.4783L24.8576 20.0507L13.2079 8.50166L21.0634 0.706604H8.50129Z" fill="#D2D8E6" stroke="#D2D8E6" stroke-width="3.14491"/>
<path d="M21.8534 0.540955L25.5252 4.18454L31.7339 10.3786L41.4809 0.706575L29.0524 0.673457L25.5252 4.18454" fill="#D2D8E6"/>
<path d="M21.8534 0.540955L25.5252 4.18454L31.7339 10.3786L41.4809 0.706575L29.0524 0.673457L25.5252 4.18454" stroke="#D2D8E6" stroke-width="3.27525"/>
<path d="M21.9647 39.3837L31.912 29.5129L42.0707 39.5935L29.3417 39.5604L25.5253 35.8174" fill="#D2D8E6"/>
<path d="M21.9647 39.3837L31.912 29.5129L42.0707 39.5935L29.3417 39.5604L25.5253 35.8174" stroke="#D2D8E6" stroke-width="3.27525"/>
<path d="M140.765 6.48111L124.931 33.4325H121.727L137.694 6.48111H140.765ZM127.224 6.4259L140.765 33.4325H135.591L121.727 6.4259H127.224Z" fill="#D2D8E6"/>
<path d="M149.544 15.6674C152.114 15.6674 154.183 13.6137 154.183 11.0632C154.183 8.52374 152.114 6.45905 149.544 6.45905C146.984 6.45905 144.904 8.52374 144.904 11.0632C144.904 13.6137 146.984 15.6674 149.544 15.6674Z" stroke="#D2D8E6" stroke-width="2.45644"/>
<path d="M149.841 8.15656C150.524 8.15656 151.311 8.2835 151.674 8.89636C151.971 9.42501 151.971 10.1015 151.674 10.651C151.397 11.1372 150.843 11.3697 150.289 11.4333L151.971 14.0122H150.992L149.396 11.4966H148.435V14.0122H147.52V8.17767L149.841 8.15656ZM149.457 10.7354C149.821 10.7354 150.205 10.7354 150.546 10.5876C150.972 10.3973 151.056 9.89006 150.93 9.46724C150.714 9.12889 150.46 8.98107 150.14 8.93884C149.928 8.91674 149.799 8.89636 149.608 8.89636H148.5V10.7568" fill="#D2D8E6"/>
</g>
<defs>
<clipPath id="clip0">
<rect width="154.592" height="40.1346" fill="white"/>
</clipPath>
</defs>
</svg>
