<svg width="172" height="54" viewBox="0 0 172 54" fill="none" xmlns="http://www.w3.org/2000/svg">
<path d="M17.2491 0.0001297C11.6249 0.0001297 8.62507 0.379963 7.31224 0.379963C5.12486 0.379963 3.18759 0.316395 1.24951 0.316395C0.187487 0.316395 0 0.380066 0 0.822559C0 1.58081 0.249674 1.64502 3.06284 1.64502C4.81194 1.64502 5.81305 2.21418 5.81305 7.20972V36.299C5.81305 37.2475 5.68724 37.3741 2.87516 37.3741C1.5 37.3741 1.12466 37.4998 1.12466 38.1329C1.12466 38.7651 1.56224 38.8282 2.18799 38.8282C4.18739 38.8282 5.56253 38.5755 8.18718 38.5755C10.937 38.5755 13.5623 39.2073 16.1874 39.2073C24.8751 39.2073 30.6878 35.8566 30.6878 28.7738C30.6878 23.2722 26.9993 21.1217 24.062 19.6031C22.812 18.971 21.6243 18.6549 21.6243 18.5288C21.6243 18.3397 22.9994 17.6435 24.1876 16.8212C26.188 15.4303 28.8753 13.216 28.8753 8.72647C28.8753 4.23645 25.375 -2.28882e-05 17.2489 -2.28882e-05L17.2491 0.0001297ZM124.336 0.0724525C124.01 0.0724525 121.944 1.00755 117.704 1.28263C116.78 1.33755 116.345 1.28202 116.345 1.94213C116.345 2.54782 116.889 2.65809 117.867 2.65809C120.313 2.65809 120.64 2.65783 120.64 6.12255V36.4294C120.64 37.4195 119.715 37.3646 117.487 37.3646C116.181 37.3646 116.127 37.6956 116.127 38.0806C116.127 38.5205 116.236 38.6305 117.487 38.6305C118.247 38.6305 121.129 38.5208 122.977 38.5208C123.956 38.5208 125.152 38.6305 125.967 38.6305C127.924 38.6305 128.304 38.6303 128.304 38.0806C128.304 37.6396 128.413 37.3098 125.695 37.3098C124.717 37.3098 124.336 36.7048 124.336 32.14C124.336 30.5442 124.608 26.1996 124.608 5.24261C124.608 3.59286 124.88 1.61172 124.88 0.951622C124.88 0.346443 124.608 0.0719872 124.336 0.0719872L124.336 0.0724525ZM79.2045 0.12727C78.7149 0.12727 75.5071 1.33673 71.5938 1.33673C70.9957 1.33673 70.887 1.55695 70.887 2.1067C70.887 2.49269 71.1044 2.65818 73.3325 2.65818C74.8001 2.65818 75.2354 3.1533 75.2354 7.058C75.2354 18.6642 75.072 34.9451 75.072 36.5399C75.072 37.3648 74.583 37.3647 72.7349 37.3647C71.4301 37.3647 71.1587 37.6397 71.1587 38.0806C71.1587 38.5755 71.4848 38.6305 72.7349 38.6305C73.4958 38.6305 75.5075 38.5209 77.3566 38.5209C79.0961 38.5209 81.5957 38.6305 82.411 38.6305C83.6067 38.6305 83.8788 38.6304 83.8788 38.0806C83.8788 37.6397 83.6615 37.3647 82.411 37.3647C79.041 37.3647 79.1502 37.3651 79.1502 34.7806V31.3154C79.1502 30.82 79.9111 30.4345 80.7806 29.8843C81.7044 29.2791 82.4651 28.7297 82.6827 28.7297C83.0089 28.7297 85.2933 32.1956 87.5762 34.8355C89.859 37.4754 90.3486 38.8506 91.3277 38.8506C92.0886 38.8506 93.7192 38.7958 94.3716 38.7958C94.8607 38.7958 95.5671 38.8506 96.2195 38.8506C97.4152 38.8506 97.7957 38.7405 97.7957 38.3556C97.7957 37.9157 97.3613 37.6396 96.057 37.6396C94.2089 37.6396 92.4692 34.9449 90.6201 32.69C86.8153 28.0692 85.8374 27.0247 85.8374 26.5293C85.8374 26.1443 89.2075 23.7248 91.9261 21.029C93.6109 19.3792 95.4586 17.0146 95.4586 16.5187C95.4586 16.3535 95.2415 16.2986 94.8067 16.2986C94.1549 16.2986 91.0008 16.4631 90.2942 16.4631C89.6418 16.4631 88.6095 16.2986 88.0662 16.2986C87.3595 16.2986 87.0876 16.4084 87.0876 16.8493C87.0876 17.3446 87.3593 17.454 88.1745 17.454C90.5659 17.454 90.7292 17.5643 90.7292 18.4441C90.7292 19.599 90.2398 20.5343 88.1203 22.569C86.3808 24.2198 80.7261 29.2796 79.367 29.2796C79.2041 29.2796 79.1502 29.1144 79.1502 28.8942C79.1502 19.9289 79.4753 13.7687 79.4753 5.40812C79.4753 3.64801 79.5845 1.33662 79.5845 0.622105C79.5845 0.292053 79.4758 0.127052 79.2044 0.127052L79.2045 0.12727ZM15.3734 1.51788C21.061 1.51788 23.6861 7.5891 23.6861 10.7513C23.6861 15.7468 21.6237 16.9484 19.8113 18.3398C19.8113 18.3398 17.1857 17.96 13.3739 17.96C11.8731 17.96 11.0611 18.086 11.0611 17.074V3.3522C11.0611 2.08743 11.2489 1.51825 15.3733 1.51825L15.3734 1.51788ZM42.782 15.7482C37.8352 15.7482 32.6704 20.369 32.6704 28.1244C32.6704 37.3099 39.3029 39.511 43.7601 39.511C48.1635 39.511 52.7843 36.0445 52.7843 35.7699C52.7843 35.6596 52.6212 35.3297 52.3492 35.3297C52.0235 35.3297 50.0666 36.6503 46.4789 36.6503C42.3469 36.6503 36.5295 34.615 36.5295 27.0243C36.5295 25.7595 36.6933 25.4844 37.5638 25.4295C43.7601 25.0445 49.1963 23.8351 50.6097 23.5041C52.0783 23.174 52.8393 22.9543 52.8393 22.7341C52.8393 22.2942 51.9688 20.9738 51.044 19.8743C49.0874 17.5639 45.6088 15.7487 42.7816 15.7487L42.782 15.7482ZM106.169 15.7482C101.222 15.7482 96.0571 20.369 96.0571 28.1244C96.0571 37.3099 102.689 39.511 107.147 39.511C111.55 39.511 116.171 36.0445 116.171 35.7699C116.171 35.6596 116.007 35.3297 115.736 35.3297C115.41 35.3297 113.453 36.6503 109.865 36.6503C105.733 36.6503 99.917 34.615 99.917 27.0243C99.917 25.7595 100.08 25.4844 100.95 25.4295C107.147 25.0445 112.582 23.8351 113.997 23.5041C115.464 23.174 116.225 22.9543 116.225 22.7341C116.225 22.2942 115.356 20.9738 114.432 19.8743C112.474 17.5639 108.996 15.7487 106.168 15.7487L106.169 15.7482ZM137.524 15.7482C132.577 15.7482 127.412 20.369 127.412 28.1244C127.412 37.3099 134.044 39.511 138.502 39.511C142.905 39.511 147.526 36.0445 147.526 35.7699C147.526 35.6596 147.363 35.3297 147.091 35.3297C146.765 35.3297 144.809 36.6503 141.22 36.6503C137.089 36.6503 131.272 34.615 131.272 27.0243C131.272 25.7595 131.435 25.4844 132.305 25.4295C138.502 25.0445 143.938 23.8351 145.352 23.5041C146.819 23.174 147.581 22.9543 147.581 22.7341C147.581 22.2942 146.711 20.9738 145.787 19.8743C143.83 17.5639 140.351 15.7487 137.524 15.7487L137.524 15.7482ZM61.6994 16.1329C60.8289 16.1329 59.7959 16.4078 58.9264 16.4078C57.8392 16.4078 56.8061 16.2973 54.958 16.2973C54.0332 16.2973 54.0879 16.4631 54.0879 17.1237C54.0879 17.7289 54.0876 17.6736 55.0672 17.6736C58.111 17.6736 58.0019 17.7836 58.0019 21.5235V36.5951C58.0019 37.365 57.8392 37.4199 55.6106 37.4199C54.3053 37.4199 54.2511 37.5294 54.2511 38.0802C54.2511 38.6305 54.3595 38.6301 55.6106 38.6301C56.3715 38.6301 58.2201 38.3551 60.0682 38.3551C61.8083 38.3551 65.4501 38.6301 66.2111 38.6301C67.6244 38.6301 67.6789 38.6854 67.6789 38.0802C67.6789 37.5844 67.6244 37.4199 66.2111 37.4199C62.1886 37.4199 62.026 37.4194 62.026 34.7245V23.3929C62.026 21.0831 63.2212 19.7631 66.3736 19.7631C69.0922 19.7631 69.745 22.0182 70.506 22.0182C70.8322 22.0182 71.7013 19.5982 71.7013 19.0479C71.7013 17.6184 69.2011 16.4074 68.2215 16.4074C65.6667 16.4074 63.1129 19.2681 62.2977 19.2681C62.0801 19.2681 62.026 18.8832 62.026 18.3884C62.026 18.2231 62.1343 17.0131 62.1343 16.7379C62.1343 16.297 61.9169 16.1325 61.6993 16.1325L61.6994 16.1329ZM170.244 16.1877C169.483 16.1877 168.015 16.4078 167.2 16.4078C165.731 16.4078 164.753 16.2981 163.286 16.2981C162.307 16.2981 162.144 16.2977 162.144 17.0133C162.144 17.5635 162.362 17.5639 164.047 17.5639C165.895 17.5639 165.894 17.8936 165.894 19.5433C165.894 20.3133 163.938 26.0345 162.633 29.9941C161.764 32.5801 161.438 33.3498 161.057 33.3498C160.84 33.3498 160.187 32.4149 159.751 31.2599C156.49 22.7884 155.077 20.863 155.077 19.2682C155.077 18.0034 155.403 17.6734 156.707 17.6734C157.849 17.6734 158.067 17.6184 158.067 17.1235C158.067 16.5173 157.849 16.2979 156.707 16.2979C154.968 16.2979 153.065 16.4624 151.543 16.4624C150.239 16.4624 149.858 16.3527 148.336 16.3527C147.358 16.3527 147.195 16.6282 147.195 17.1235C147.195 17.6183 147.249 17.6734 148.336 17.6734C149.314 17.6734 149.695 17.9489 151.054 21.2483C154.044 28.3991 158.393 38.5748 158.393 39.1799C158.393 40.8297 153.719 47.3198 151.761 49.7945C149.913 52.1603 147.358 52.4903 147.358 52.8204C147.358 53.0955 147.901 53.3702 148.826 53.3702C150.021 53.3702 150.402 52.9304 152.032 52.7107C153.229 52.5455 153.881 52.4903 154.479 51.2805C156.218 47.6499 158.665 43.1942 162.09 34.7789C166.384 24.2193 168.777 17.6183 169.972 17.6183C170.625 17.6183 171.385 17.3431 171.385 16.8483C171.385 16.2426 171.114 16.1871 170.244 16.1871V16.1877ZM42.2381 16.9036C44.7391 16.9036 47.9459 20.9732 47.9459 22.3483C47.9459 22.6784 47.8923 22.7883 47.2941 22.8982C43.2169 23.5583 40.2813 24.2744 37.4546 24.2744C36.8017 24.2744 36.802 24.219 36.802 23.9439C36.802 23.1729 38.1071 16.9035 42.2381 16.9035L42.2381 16.9036ZM105.624 16.9036C108.125 16.9036 111.332 20.9732 111.332 22.3483C111.332 22.6784 111.278 22.7883 110.68 22.8982C106.603 23.5583 103.667 24.2744 100.841 24.2744C100.189 24.2744 100.189 24.219 100.189 23.9439C100.189 23.1729 101.493 16.9035 105.624 16.9035L105.624 16.9036ZM136.979 16.9036C139.48 16.9036 142.688 20.9732 142.688 22.3483C142.688 22.6784 142.633 22.7883 142.035 22.8982C137.958 23.5583 135.023 24.2744 132.195 24.2744C131.543 24.2744 131.543 24.219 131.543 23.9439C131.543 23.1729 132.847 16.9035 136.979 16.9035L136.979 16.9036ZM13.3157 19.1604C20.1276 19.1604 24.7522 23.5872 24.7522 29.279C24.7522 34.7805 21.2528 38.0698 16.5031 38.0698C14.5027 38.0698 12.5035 37.6268 11.8154 36.8676C11.2534 36.235 11.0654 32.6941 11.0654 32.1245V20.8041C11.0654 19.4132 11.566 19.1601 13.3162 19.1601L13.3157 19.1604ZM44.3079 44.9756C43.0237 44.9756 41.9527 45.7595 41.9527 47.0583C41.9527 49.5269 45.1671 49.0868 45.1671 50.4609C45.1671 51.0081 44.7531 51.4803 43.9153 51.4803C43.3528 51.4803 42.6423 51.2128 42.0478 50.8049L41.5177 51.7497C42.1117 52.1678 42.9176 52.5658 43.9153 52.5658C45.305 52.5658 46.4614 51.6629 46.4614 50.4179C46.4614 47.9164 43.247 48.6687 43.247 47.0043C43.247 46.4571 43.6078 46.0603 44.308 46.0603C44.9337 46.0603 45.4214 46.2751 45.9627 46.5538L46.4189 45.6304C45.8042 45.2444 45.0715 44.9757 44.308 44.9757L44.3079 44.9756ZM69.9342 44.9756C67.7488 44.9756 66.7733 46.554 66.7733 48.7652C66.7733 50.869 67.7383 52.5658 69.9342 52.5658C72.1301 52.5658 73.096 50.869 73.096 48.7652C73.096 46.554 72.1196 44.9756 69.9342 44.9756ZM86.9698 44.9756C84.7845 44.9756 83.7123 46.5645 83.7123 48.7762C83.7123 51.0302 84.6893 52.5658 86.9274 52.5658C87.9035 52.5658 88.8159 52.1571 89.5583 51.4701L88.9112 50.6333C88.3171 51.181 87.6384 51.4804 86.991 51.4804C85.6435 51.4804 85.0065 50.5044 85.0065 48.7652C85.0065 47.0371 85.6861 46.0603 86.9698 46.0603C87.6594 46.0603 88.1686 46.3075 88.7306 46.7794L89.3887 45.9205C88.6247 45.2868 87.8716 44.9756 86.9699 44.9756L86.9698 44.9756ZM114.591 44.9756C112.405 44.9756 111.43 46.554 111.43 48.7652C111.43 50.869 112.395 52.5658 114.591 52.5658C116.786 52.5658 117.752 50.869 117.752 48.7652C117.752 46.554 116.776 44.9756 114.591 44.9756ZM13.0724 45.0829L11.852 45.2124V52.4474H13.1147V47.5096H13.1359L16.2019 52.4474H17.3265V45.094H16.0638V49.9253H16.0324L13.0725 45.0829L13.0724 45.0829ZM29.2687 45.0829V52.4474H33.6822L33.778 51.3627H30.5314V49.2808H33.2581V48.1961H30.5314V46.1675H33.5974V45.0829H29.2687ZM74.7201 45.0829V52.4474H75.9822V49.2808H78.6563V48.1961H75.9822V46.1675H78.9633V45.0829H74.7201ZM94.2377 45.0829L92.7636 45.2013L90.2065 52.4474H91.3845L91.9884 50.6754H94.917L95.5217 52.4474H96.8167L94.2377 45.0829H94.2377ZM106.372 45.0829V52.4474H107.634V49.2808H110.308V48.1961H107.634V46.1675H110.616V45.0829H106.372ZM126.25 45.0829L125.03 45.2124V52.4474H126.292V47.5096H126.314L129.379 52.4474H130.504V45.094H129.242V49.9253H129.209L126.25 45.0829V45.0829ZM138.415 45.0829L136.941 45.2013L134.384 52.4474H135.562L136.166 50.6754H139.094L139.699 52.4474H140.994L138.416 45.0829H138.415ZM4.71996 45.094V49.8919C4.71996 51.5452 5.62145 52.5658 7.40421 52.5658C9.17543 52.5658 10.0775 51.5455 10.0775 49.8815V45.094H8.81475V49.9674C8.81475 50.8802 8.43367 51.4803 7.40433 51.4803C6.36442 51.4803 5.98214 50.8798 5.98214 49.9562V45.094H4.72005H4.71996ZM19.1249 45.094V52.4474H20.387V45.094H19.1249ZM21.6277 45.094L24.1313 52.4474H25.5206L28.0353 45.094H26.7936L25.4044 49.2053C25.4044 49.2053 25.2665 49.6235 24.9057 50.8796H24.842C24.4917 49.6235 24.3543 49.1943 24.3543 49.1943L22.9643 45.094H21.6276H21.6277ZM35.4486 45.094V52.4474H36.7107V49.5057H37.3154C37.7718 49.5057 38.037 49.9359 38.2492 50.3758L39.2567 52.4473H40.6467L39.2567 49.7957C39.1722 49.6238 39.0446 49.4302 38.8114 49.2904V49.2697C39.7659 48.9046 40.1803 48.1534 40.1803 47.2736C40.1803 45.9962 39.3842 45.094 37.7819 45.094H35.4486H35.4486ZM47.9647 45.094V52.4474H49.2268V45.094H47.9647ZM50.6797 45.094V46.189H52.6005V52.4474H53.8626V46.1778H55.698L55.7938 45.094H50.6797ZM56.62 45.094L58.9116 49.3014V52.4474H60.1736V49.3014L62.4661 45.094H61.0752L60.0465 47.1878C60.0465 47.1878 59.9192 47.4554 59.5588 48.2716H59.5274C59.1449 47.4554 59.0068 47.1878 59.0068 47.1878L58.0416 45.094H56.6201H56.62ZM97.8394 45.094V52.4474H102.136L102.232 51.3627H99.1022V45.094H97.8394ZM103.461 45.094V52.4474H104.723V45.094H103.461ZM118.841 45.094V52.4474H120.104V49.5057H120.708C121.164 49.5057 121.43 49.9359 121.642 50.3758L122.65 52.4473H124.04L122.65 49.7957C122.565 49.6238 122.438 49.4302 122.204 49.2904V49.2697C123.159 48.9046 123.573 48.1534 123.573 47.2736C123.573 45.9962 122.777 45.094 121.175 45.094H118.841ZM132.09 45.094V52.4474H133.352V45.094H132.09ZM69.9324 46.0602C71.1844 46.0602 71.789 47.1657 71.789 48.7651C71.789 50.3645 71.1744 51.4803 69.9324 51.4803C68.6809 51.4803 68.0657 50.364 68.0657 48.7539C68.0657 47.1545 68.6809 46.0602 69.9324 46.0602ZM114.588 46.0602C115.84 46.0602 116.444 47.1657 116.444 48.7651C116.444 50.3645 115.829 51.4803 114.588 51.4803C113.336 51.4803 112.721 50.364 112.721 48.7539C112.721 47.1545 113.336 46.0602 114.588 46.0602ZM36.7106 46.189H37.7504C38.6099 46.189 38.886 46.5969 38.886 47.284C38.886 47.9817 38.5356 48.4322 37.7716 48.4322H36.7106V46.189ZM120.103 46.189H121.143C122.003 46.189 122.279 46.5969 122.279 47.284C122.279 47.9817 121.928 48.4322 121.164 48.4322H120.103V46.189ZM93.4266 46.3821H93.4478C93.9464 47.9062 94.0313 48.1422 94.0313 48.1422L94.5936 49.7632H92.2911L92.8533 48.1422C92.8533 48.1422 92.9386 47.9062 93.4266 46.3821ZM137.604 46.3821H137.626C138.124 47.9062 138.21 48.1422 138.21 48.1422L138.771 49.7632H136.469L137.032 48.1422C137.032 48.1422 137.116 47.9062 137.604 46.3821H137.604Z" fill="#D2D8E6"/>
</svg>
