<svg width="176" height="50" viewBox="0 0 176 50" fill="none" xmlns="http://www.w3.org/2000/svg">
<path d="M30.5063 1.67202V14.1059V14.3288C30.5063 19.0107 30.0442 25.0477 26.4324 30.3468C25.6793 31.4272 24.8405 32.4391 23.8306 33.4166L23.8135 33.4338C21.845 35.3202 19.2603 37.1038 15.5631 39.1617C11.8658 37.1037 9.26381 35.3201 7.31272 33.4338L7.2956 33.4166C6.28587 32.4386 5.43 31.4441 4.69377 30.3466C1.08205 25.0645 0.619873 19.0107 0.619873 14.3286V12.7851V1.67215L1.21898 1.60355C1.30456 1.58628 9.31548 0.591614 15.563 0.591614C21.811 0.591614 29.8215 1.58628 29.907 1.60345L30.5061 1.67205L30.5063 1.67202Z" fill="#D2D8E6"/>
<path d="M15.5629 1.98071C10.9069 1.98071 5.24175 2.54668 2.72546 2.82105L2.00647 12.7848H15.563H29.1195L28.4185 2.82105C25.8851 2.54673 20.2189 1.98076 15.563 1.98076L15.5629 1.98071ZM15.5629 13.6253L1.98877 14.3804C1.98882 18.8562 2.4339 24.6188 5.82305 29.5751C6.52504 30.5872 7.32962 31.5466 8.28806 32.4729C11.2665 35.2166 14.6215 36.7263 15.5629 37.1209C16.5042 36.7263 19.8593 35.2166 22.8377 32.4729C23.7962 31.5466 24.6012 30.6043 25.3027 29.5751C28.6749 24.6188 29.1194 18.8562 29.1194 14.3804L15.5629 13.6253Z" fill="white"/>
<path d="M13.9367 3.74684C13.2349 3.74684 12.4813 3.86771 11.6939 3.97061C10.821 4.10781 9.91476 4.22701 9.00755 4.22701H8.57954V5.99383H7.94609V7.02254H8.57954V8.42884H7.94609V9.45755H8.57954V11.3782H9.00755C9.98325 11.3782 10.9408 11.2248 11.848 11.0876C12.6354 10.9676 13.3719 10.8468 13.9881 10.8468C14.5016 10.8468 14.8784 10.9162 15.1694 11.0705H15.9911C16.2821 10.9162 16.6589 10.8468 17.1724 10.8468C17.8058 10.8468 18.5407 10.9676 19.3109 11.0876C20.2353 11.2248 21.1944 11.3782 22.1529 11.3782H22.581V9.45755H23.2144V8.42884H22.581V7.02254H23.2144V6.01095H22.581V4.22706H22.1529C21.2457 4.22706 20.338 4.09071 19.465 3.97066C18.6605 3.85037 17.9082 3.74664 17.2233 3.74664C16.5728 3.74664 16.0248 3.85008 15.5797 4.05587C15.1347 3.85008 14.5866 3.74666 13.9359 3.74666L13.9367 3.74684ZM15.5632 14.3291C15.546 14.3291 15.5289 14.3462 15.5289 14.3633L14.0394 18.9412H9.24727C9.23015 18.9412 9.21303 18.9427 9.19591 18.9598C9.19591 18.9941 9.19592 19.0111 9.23015 19.0111L13.115 21.8408L11.6255 26.4529C11.6255 26.4529 11.6255 26.4699 11.6426 26.4699H11.6597L15.5804 23.6231L19.4994 26.4699H19.5166C19.5337 26.4528 19.5337 26.4358 19.5166 26.4358L18.0271 21.8408L21.9135 19.0111C21.9306 19.0111 21.9477 18.9942 21.9306 18.9599C21.9306 18.9427 21.9135 18.9412 21.8964 18.9412H17.087L15.5976 14.3633C15.5976 14.3462 15.5804 14.3292 15.5633 14.3292L15.5632 14.3291ZM6.71337 15.2553L6.43944 15.4946C5.77185 15.9919 5.30947 16.7133 5.1554 17.5364C5.06981 17.948 5.06981 18.3587 5.1554 18.7531C4.8305 18.4951 4.45371 18.3068 4.06002 18.1698L3.70048 18.0673L3.61489 18.4263C3.4266 19.2495 3.56361 20.0898 3.97443 20.81C4.38524 21.5303 5.0703 22.0632 5.85768 22.3033L6.16585 22.3888C6.20008 22.646 6.26859 22.9023 6.35417 23.1595C5.90912 22.868 5.39532 22.6966 4.86471 22.6623L4.50518 22.6281V23.0057C4.48806 23.846 4.79633 24.6353 5.34409 25.2527C5.90895 25.8701 6.66253 26.247 7.5013 26.3156L7.82659 26.3498C7.91218 26.607 8.03206 26.8479 8.169 27.0537C7.80954 26.9165 7.41562 26.847 7.02193 26.847C6.88499 26.847 6.74798 26.847 6.61104 26.8641L6.2515 26.9154L6.31998 27.2759C6.47404 28.0991 6.93644 28.8204 7.62113 29.3177C8.18599 29.7293 8.83683 29.9347 9.53862 29.9347C9.67556 29.9347 9.81258 29.9347 9.94952 29.9176L10.2733 29.8834C10.4102 30.1063 10.5643 30.3117 10.7526 30.5003C10.2391 30.4146 9.6926 30.4656 9.19623 30.6371L8.85382 30.7583L8.99078 31.1001C9.31601 31.8719 9.91388 32.4898 10.6671 32.8156C11.095 33.0043 11.5403 33.1078 11.9853 33.1078C12.3448 33.1078 12.7216 33.0383 13.0639 32.9182L13.3207 32.8327C13.7487 33.1929 14.2282 33.5538 14.8958 34.0168C14.5877 34.2226 14.2623 34.4278 13.8857 34.685L14.5363 35.0797C14.8958 34.8396 15.2212 34.6329 15.5122 34.427C15.8032 34.6157 16.1286 34.8396 16.4881 35.0797L17.1387 34.685C16.7621 34.4449 16.4367 34.2226 16.1286 34.0168C16.7962 33.5538 17.2758 33.1929 17.7037 32.8327L17.959 32.9182C18.3013 33.0383 18.6781 33.1078 19.0376 33.1078C19.4997 33.1078 19.945 33.0043 20.3559 32.8156C21.109 32.4726 21.7084 31.8718 22.0337 31.1001L22.1707 30.7583L21.8282 30.6371C21.3318 30.4656 20.7838 30.4146 20.2703 30.5003C20.4586 30.3117 20.6127 30.1064 20.7497 29.8834L21.075 29.9176C21.2119 29.9347 21.3489 29.9347 21.4859 29.9347C22.1876 29.9347 22.8385 29.7294 23.4033 29.3177C24.0709 28.8204 24.5333 28.0991 24.7045 27.2759L24.773 26.9154L24.4134 26.8641C24.2765 26.847 24.1395 26.847 24.0025 26.847C23.6088 26.847 23.2321 26.9165 22.8555 27.0537C22.9924 26.8307 23.1123 26.5899 23.1979 26.3498L23.5232 26.3156C24.3619 26.247 25.1155 25.8701 25.6804 25.2527C26.2452 24.6353 26.5349 23.8289 26.5177 23.0057V22.6281L26.1411 22.6623C25.6105 22.6966 25.0982 22.8851 24.6531 23.1595C24.7558 22.9194 24.8072 22.646 24.8415 22.3888L25.2181 22.3033C26.0226 22.0632 26.689 21.5303 27.0998 20.81C27.5106 20.0897 27.6476 19.2495 27.4593 18.4263L27.3737 18.0673L27.0142 18.1699C26.6034 18.29 26.2453 18.4954 25.92 18.7526C25.9885 18.3582 25.9885 17.9475 25.92 17.5359C25.766 16.7127 25.3036 15.9914 24.636 15.4941L24.3449 15.2719L24.1566 15.5795C23.7116 16.2827 23.5574 17.1229 23.7115 17.9462C23.8655 18.7693 24.3279 19.4736 24.9955 19.9709C24.8757 20.2453 24.7901 20.5543 24.7387 20.8458C24.5333 20.297 24.2079 19.8168 23.7457 19.4395L23.4531 19.198L23.2308 19.5073C22.7515 20.1933 22.5289 21.0166 22.6487 21.8397C22.7514 22.6629 23.1796 23.4168 23.8129 23.9484L23.83 23.9655C23.6417 24.2228 23.4876 24.4975 23.3849 24.8062C23.2993 24.2402 23.0767 23.692 22.7001 23.2119L22.4775 22.9197L22.2036 23.1761C21.5874 23.7421 21.2106 24.5145 21.1421 25.3376C21.0736 26.1608 21.3305 26.9842 21.844 27.6359L21.8611 27.653C21.6215 27.8588 21.416 28.1167 21.2448 28.374C21.279 27.7909 21.1763 27.2072 20.9024 26.6755L20.7312 26.3492L20.4059 26.5388C19.6869 26.9675 19.156 27.6363 18.9164 28.4423C18.6768 29.2483 18.7624 30.0885 19.139 30.8431V30.8602C18.8651 31.0146 18.6082 31.22 18.4028 31.4429C18.5569 30.877 18.574 30.2934 18.4199 29.7103L18.3343 29.3513L17.9919 29.471C17.2045 29.7454 16.5552 30.2937 16.1445 31.0311C15.7679 31.7343 15.6651 32.5576 15.8534 33.3465C15.7507 33.4151 15.6308 33.5017 15.5281 33.5703C15.4083 33.4845 15.3055 33.4151 15.2028 33.3465C15.3911 32.5576 15.2884 31.7343 14.9118 31.0311C14.5181 30.2937 13.8673 29.7454 13.0628 29.471L12.7204 29.3513L12.6348 29.7103C12.4807 30.2763 12.4978 30.877 12.6519 31.4429C12.4294 31.22 12.1896 31.0146 11.8986 30.8602L11.9157 30.8431C12.2923 30.0885 12.3608 29.2483 12.1383 28.4423C11.8987 27.6363 11.3677 26.9675 10.6488 26.5388L10.3235 26.3492L10.1523 26.6755C9.87846 27.2071 9.77725 27.7909 9.81148 28.374C9.64031 28.0996 9.43478 27.8587 9.19513 27.653L9.21225 27.6359C9.72577 26.9841 9.98268 26.1608 9.91419 25.3205C9.84572 24.4802 9.46894 23.7249 8.85271 23.159L8.57877 22.9026L8.35621 23.1947C7.97963 23.6578 7.75695 24.206 7.67137 24.7891C7.56728 24.4979 7.4134 24.2057 7.22483 23.9486L7.24195 23.9315C7.8924 23.3999 8.30343 22.646 8.40617 21.8229C8.50887 20.9997 8.30335 20.1593 7.82406 19.4904L7.60149 19.1812L7.31045 19.4221C6.84828 19.7994 6.50572 20.2796 6.31745 20.8284C6.28322 20.5197 6.19758 20.2279 6.06065 19.9535C6.72824 19.4561 7.19062 18.7347 7.34469 17.9287C7.49875 17.1055 7.3446 16.2652 6.89956 15.5621L6.71123 15.2544L6.71337 15.2553Z" fill="#D2D8E6"/>
<path d="M13.9195 4.58755C13.2862 4.58755 12.5669 4.68971 11.7966 4.80976C11.1119 4.91266 10.4284 4.99917 9.70942 5.05062L9.5211 10.4879C10.24 10.4536 10.9749 10.35 11.6938 10.2299C12.4984 10.1099 13.2691 9.98905 13.9709 9.98905C14.3475 9.98905 14.6729 10.0246 14.9639 10.0932L15.118 5.54792V4.79273C14.8102 4.65557 14.4165 4.58769 13.9197 4.58769L13.9195 4.58755ZM17.2067 4.58755C16.7103 4.58755 16.3335 4.65547 16.0082 4.79267V5.54786L16.1623 10.0931C16.4533 10.0245 16.7787 9.98898 17.1553 9.98898C17.8571 9.98898 18.6262 10.1098 19.4308 10.2298C20.1497 10.3499 20.8861 10.4535 21.6051 10.4878L21.417 5.05056C20.6979 4.99905 19.9959 4.91254 19.3281 4.80967C18.5578 4.68963 17.8402 4.58746 17.2066 4.58746L17.2067 4.58755ZM6.54208 16.301C6.1655 16.6782 5.92573 17.1415 5.82299 17.656C5.73741 18.1705 5.78879 18.7018 5.9942 19.1649C6.37078 18.7876 6.61055 18.3243 6.71329 17.8098C6.79887 17.2953 6.74749 16.7812 6.54208 16.301H6.54208ZM24.5328 16.301C24.3274 16.7811 24.2589 17.3124 24.3616 17.8269C24.4643 18.3414 24.7212 18.8046 25.0807 19.1819C25.2861 18.7017 25.3546 18.1705 25.2519 17.656C25.1492 17.1415 24.8923 16.6611 24.5328 16.301H24.5328ZM15.5633 17.5705L14.6731 19.7988L12.2591 19.9713L14.1252 21.5144L13.526 23.8468L15.5633 22.5601L17.6007 23.8468L17.0015 21.5144L18.8489 19.9713L16.4536 19.8159L15.5633 17.5705V17.5705ZM4.23095 18.9767C4.19671 19.4913 4.3166 20.0226 4.57336 20.4685C4.83012 20.9144 5.224 21.2742 5.68618 21.4972C5.73753 20.9827 5.61765 20.4685 5.34377 20.0055C5.08701 19.5596 4.69312 19.1997 4.23095 18.9767ZM26.8595 18.9767C26.3802 19.1997 26.005 19.5595 25.7483 20.0055C25.4915 20.4685 25.3716 20.9827 25.4058 21.4972C25.868 21.2743 26.2603 20.9144 26.5171 20.4685C26.7739 20.0055 26.8938 19.4912 26.8595 18.9767ZM7.50103 20.2619C7.15868 20.6563 6.93602 21.1366 6.86758 21.6511C6.79911 22.1656 6.88475 22.6969 7.12439 23.16C7.46673 22.7655 7.6894 22.2868 7.75784 21.7723C7.8263 21.2407 7.74067 20.7249 7.50103 20.2619ZM23.5914 20.2619C23.3518 20.7249 23.2662 21.2578 23.3346 21.7723C23.4031 22.2868 23.6258 22.7655 23.9681 23.16C24.2077 22.6969 24.2934 22.1656 24.2249 21.6511C24.1564 21.1366 23.9338 20.6563 23.5914 20.2619ZM5.22409 23.4008C5.30968 23.9153 5.53233 24.3956 5.87469 24.79C6.21703 25.1845 6.67946 25.4594 7.17583 25.5623C7.09024 25.0478 6.86759 24.5504 6.52523 24.1731C6.18289 23.7958 5.72046 23.5208 5.22409 23.4008ZM25.8513 23.4008C25.3549 23.5208 24.9096 23.7786 24.5501 24.1731C24.1907 24.5675 23.968 25.0478 23.8995 25.5623C24.396 25.4423 24.8583 25.1845 25.2007 24.79C25.5602 24.4127 25.7828 23.9325 25.8513 23.4008ZM22.3929 23.9835C22.0677 24.3951 21.8622 24.8753 21.828 25.4069C21.7937 25.9385 21.9136 26.4528 22.1533 26.8986C22.4785 26.4871 22.684 25.9897 22.7182 25.4753C22.7696 24.9436 22.6497 24.4294 22.3929 23.9835ZM8.68254 24.0006C8.42578 24.4465 8.32301 24.9607 8.34013 25.4924C8.39148 26.024 8.57988 26.5042 8.90509 26.9157C9.16185 26.4698 9.28173 25.9556 9.2475 25.424C9.19615 24.8924 9.00775 24.4122 8.68254 24.0006ZM10.6156 27.396C10.4616 27.8933 10.4444 28.4261 10.5985 28.9234C10.7526 29.4208 11.0437 29.8656 11.4374 30.1914C11.5915 29.6941 11.6086 29.1628 11.4545 28.6655C11.3005 28.1681 11.0093 27.7218 10.6156 27.396H10.6156ZM20.4585 27.396C20.0649 27.7218 19.7737 28.1682 19.6196 28.6655C19.4656 29.1628 19.4827 29.6941 19.6368 30.1914C20.0304 29.8656 20.3216 29.4208 20.4757 28.9234C20.6297 28.4261 20.6126 27.8933 20.4585 27.396ZM7.10769 27.5513C7.29598 28.0315 7.60427 28.4594 8.03219 28.7681C8.46013 29.0768 8.9568 29.231 9.45322 29.2653C9.28205 28.768 8.97376 28.3573 8.54581 28.0486C8.11788 27.7399 7.62121 27.5685 7.10769 27.5513ZM23.9514 27.5513C23.4379 27.5685 22.9412 27.7399 22.5133 28.0486C22.1025 28.3573 21.777 28.768 21.6059 29.2653C22.1194 29.2482 22.6161 29.0768 23.044 28.7681C23.4719 28.4594 23.7802 28.0316 23.9514 27.5513ZM17.8583 30.3127C17.4132 30.5528 17.0365 30.9296 16.7797 31.3927C16.5229 31.8557 16.4202 32.37 16.4886 32.8844C16.9508 32.6443 17.3276 32.2675 17.5672 31.8044C17.8069 31.3414 17.9096 30.8271 17.8583 30.3127ZM13.2186 30.3298C13.1673 30.8443 13.27 31.3585 13.5097 31.8045C13.7493 32.2675 14.1261 32.6443 14.5882 32.8844C14.6396 32.3699 14.5368 31.8557 14.2972 31.3927C14.0575 30.9468 13.6807 30.5699 13.2186 30.3298ZM10.2147 31.1487C10.0869 31.1524 9.95869 31.1661 9.83031 31.1875C10.1042 31.6334 10.4965 31.9933 10.9758 32.1991C11.438 32.4049 11.9689 32.4729 12.4824 32.3871C12.2086 31.9412 11.8146 31.5813 11.3354 31.3756C10.9759 31.2083 10.5983 31.1374 10.2147 31.1487ZM20.8763 31.1518C20.4888 31.1445 20.1039 31.2212 19.7573 31.3756C19.278 31.5985 18.8841 31.9413 18.6102 32.3871C18.7643 32.4043 18.9184 32.4213 19.0725 32.4213C19.4319 32.4213 19.7916 32.3535 20.1168 32.1991C20.5961 31.9762 20.99 31.6334 21.2639 31.1875C21.1355 31.1661 21.0055 31.1542 20.8763 31.1518L20.8763 31.1518Z" fill="white"/>
<path d="M165.575 2.13544C159.43 3.42169 154.996 6.25136 154.996 11.0875C154.996 15.0319 157.616 17.072 160.8 18.4436L166.157 20.7931C168.81 21.9422 170.761 23.675 170.761 26.6933C170.761 29.9345 168.553 32.3182 164.753 32.3182C162.271 32.3182 159.841 31.1691 158.523 29.5227L156.982 25.7498H153.885L154.859 31.7353C157.204 33.5874 159.943 34.753 164.017 34.753C172.336 33.0209 175.161 28.9909 175.161 24.8234C175.161 20.2959 172.114 18.0829 168.622 16.5737L163.537 14.3625C161.107 13.2992 159.379 11.7894 159.379 9.35419C159.379 6.38726 161.449 4.48419 164.958 4.48419C167.612 4.48419 169.032 5.46073 170.179 6.66123L171.463 10.6921H173.671V4.70665C171.464 3.06082 168.366 2.13544 165.575 2.13544H165.575ZM138.632 2.49595L135.98 3.24958L125.007 31.9755L122.884 32.2676L120.763 31.9413L110.937 17.4496L120.01 4.94847L123.467 4.46831L123.244 2.9237L118.075 3.062L112.906 2.9237L112.684 4.46831L116.534 5.05104L109.516 15.3923L103.269 5.0169L107.034 4.43417L106.811 2.88956L100.53 3.06204L94.1966 2.88956L93.9741 4.43417L97.4324 4.91433L106.589 18.7875L97.0387 31.9584L93.5803 32.4385L93.8029 34.0344L98.7492 33.8961L103.92 34.0344L104.142 32.4385L100.513 31.9071L108.061 20.8635L114.942 31.873L111.177 32.4557L111.4 34.0516L117.733 33.9133L122.901 34.0174L126.531 33.9133L131.837 34.0516L132.059 32.507L128.209 31.9242L131.083 23.6404H142.005L145.018 31.9242L141.252 32.507L141.474 34.0516L147.311 33.9133L153.423 34.0516L153.646 32.507L150.187 32.0268L138.633 2.4961L138.632 2.49595ZM38.6193 2.88909V10.7271H40.3485L42.3843 5.10213L49.0099 5.01667V31.8729L43.7028 32.4557L43.9253 33.9987L51.354 33.862L58.5257 33.9987L58.7483 32.4557L53.6649 31.8729V5.01667L60.289 5.10213L62.3264 10.7271H64.0555V2.88909L51.3192 3.02739L38.6191 2.88909H38.6193ZM66.7079 2.88909L66.4853 4.4337L70.4743 5.01643V31.8727L66.4853 32.4554L66.7079 33.9985L72.8201 33.8617L90.3808 33.9985L91.9216 25.8015H90.2438L87.2835 31.7869L75.1124 31.9237V18.6158L81.3101 18.8038L83.0719 23.4516H84.6299L84.1847 17.4662L84.6299 11.928H83.0719L81.3101 16.5743L75.1124 16.7638V4.96512L86.8385 5.10186L89.3209 10.8639H90.826L90.3808 2.88932L72.8201 3.02762L66.7079 2.88932L66.7079 2.88909ZM13.8527 5.40005C13.3673 5.39523 12.8507 5.4534 12.3243 5.53058V6.23295C13.0603 6.13005 13.7283 6.06185 14.3103 6.11329L14.3274 5.42799C14.1734 5.41084 14.0145 5.40163 13.8527 5.40002L13.8527 5.40005ZM17.6146 5.41714C17.3321 5.40214 17.0581 5.4023 16.7928 5.42802L16.8099 6.11332C17.3063 6.07902 17.8699 6.11304 18.4862 6.19879V5.49642C18.1866 5.46212 17.897 5.43218 17.6146 5.41717L17.6146 5.41714ZM18.9998 5.54767V6.2516C19.1196 6.26875 19.2224 6.28573 19.3422 6.30288C19.7872 6.37148 20.2325 6.43945 20.6947 6.4909L20.6776 5.78853C20.2668 5.73708 19.8557 5.68465 19.4449 5.61605C19.2908 5.5989 19.1538 5.58197 18.9998 5.54767H18.9998ZM11.8109 5.59895C11.7596 5.6161 11.7253 5.61605 11.674 5.61605C11.2632 5.68465 10.8521 5.73708 10.4413 5.78853L10.4242 6.4909C10.8863 6.43945 11.3316 6.37147 11.7767 6.30288H11.8109V5.59895H11.8109ZM13.6709 6.97884C13.0506 6.99733 12.3886 7.09194 11.7082 7.19483V7.8972C11.7425 7.8972 11.7596 7.89726 11.7938 7.88011C12.7182 7.7429 13.5574 7.62354 14.2592 7.67499L14.2763 6.98813C14.0794 6.97527 13.8776 6.97265 13.6708 6.97881L13.6709 6.97884ZM16.8615 6.98816L16.8786 7.67502C17.3236 7.64072 17.8188 7.6748 18.3494 7.7434V7.05654C17.8188 7.00509 17.3236 6.97101 16.8615 6.98816H16.8615ZM18.863 7.10782V7.81175C19.0171 7.82889 19.1884 7.86298 19.3424 7.88012C19.8046 7.94872 20.267 8.01669 20.7463 8.06814L20.7292 7.36577C20.3012 7.31432 19.8731 7.24629 19.4451 7.19484C19.2568 7.16054 19.0513 7.14212 18.863 7.10782H18.863ZM11.1774 7.26321C10.9206 7.29751 10.6466 7.33147 10.3899 7.36577L10.3728 8.06814L11.1945 7.96558V7.26321H11.1774H11.1774ZM136.358 8.20646L141.185 21.4973H131.77L136.358 8.20646H136.358ZM16.915 8.54833L16.9321 9.23518C17.497 9.20088 18.1633 9.26903 18.8652 9.37193V8.68663C18.1803 8.58421 17.514 8.51442 16.9151 8.54856L16.915 8.54833ZM14.2099 8.56543C13.6279 8.53113 12.9942 8.60088 12.3267 8.68663V9.389C13.0114 9.2861 13.6451 9.21796 14.1928 9.25226L14.2099 8.5654L14.2099 8.56543ZM19.3959 8.73791V9.45735H19.3788C19.8409 9.52595 20.3205 9.59548 20.8169 9.64693L20.7998 8.943C20.3376 8.89155 19.8923 8.82358 19.4644 8.75498C19.4473 8.75498 19.4301 8.75504 19.3959 8.73788L19.3959 8.73791ZM11.8128 8.75501C11.7615 8.75501 11.7272 8.7721 11.693 8.7721C11.2479 8.84069 10.8026 8.90867 10.3576 8.96012L10.3405 9.66405C10.8369 9.6126 11.3335 9.54307 11.8128 9.47447H11.8471V8.75503H11.8128L11.8128 8.75501ZM49.786 40.8698L48.7743 40.9863L46.4615 41.0034L43.7533 40.9863V42.6024H44.1129L44.5409 41.4525L45.9635 41.4198V46.9705L44.8319 47.087L44.8833 47.404L46.4615 47.3699L47.9852 47.404L48.0381 47.087L46.958 46.9705V41.4198L48.8771 41.4525L49.2195 41.4027V47.0202L48.6545 47.1041L48.7059 47.4195L49.7004 47.3869L50.5907 47.4195L50.642 47.1041L50.1284 47.0202V44.3024L50.4023 44.1361C50.7451 43.9194 51.1055 43.7197 51.3969 43.7197C51.7739 43.7197 51.9961 43.92 51.9961 44.4034V47.0202L51.5338 47.1041L51.5852 47.4196L52.4754 47.3869L53.5385 47.404L53.5898 47.087L52.8879 47.0031V44.5697C52.8879 43.4029 52.6821 42.9691 51.4825 42.9691L50.1113 43.8362V40.8698H49.786L49.786 40.8698ZM152.152 40.9024L151.586 41.0531L149.256 46.9859L148.518 47.0869L148.569 47.4039L149.581 47.3697L150.713 47.4039L150.764 47.0869L149.941 46.9703L150.559 45.2533V45.2703H152.871L153.505 46.9859L152.7 47.104L152.751 47.4194L154.003 47.3868L155.306 47.4194L155.357 47.104L154.619 47.0029L152.152 40.902L152.152 40.9024ZM110.557 40.9366L109.77 41.8037C109.427 42.1703 109.256 42.5356 109.256 43.0856V43.1696H108.706L108.415 43.4866V43.6357H109.239V47.0202L108.57 47.1041L108.621 47.4195L109.701 47.3869L111.158 47.4195L111.209 47.0699L110.129 47.0031V43.6202H111.312V43.1867H110.129V42.9536C110.129 42.3535 110.197 42.0869 110.335 41.9202L110.523 41.67H111.74V40.9366H110.557L110.557 40.9366ZM60.1005 40.9863L60.0492 41.3033L60.9067 41.4198V45.1368C60.9067 46.6036 61.5757 47.5703 63.4265 47.5703C65.3117 47.1369 65.8079 46.354 65.8079 45.1539V41.4199L66.6141 41.3033L66.5627 40.9863L65.4655 41.019L64.2654 40.9863L64.2141 41.3033L65.0374 41.4028V45.2363C65.0374 46.4197 64.489 47.0528 63.5121 47.0528C62.4325 47.0528 61.9355 46.4039 61.9355 45.2705V41.4199L62.7402 41.3033L62.6888 40.9863L61.4032 41.0189L60.1005 40.9863L60.1005 40.9863ZM114.273 41.0034V42.6194H114.65L115.078 41.4524L116.5 41.4369V46.986L115.37 47.1041L115.422 47.4196L116.998 47.387L118.524 47.4196L118.558 47.1041L117.478 46.986V41.4369L118.9 41.4524L119.328 42.6194H119.688V41.0034L116.981 41.036L114.273 41.0034H114.273ZM73.5016 41.0189L72.8168 41.0702L72.7312 41.5022L72.7825 42.0196L73.0394 42.0694L73.707 42.0196L73.8098 41.5861L73.7584 41.0702L73.5016 41.0189L73.5016 41.0189ZM93.022 41.0189L92.3356 41.0702L92.25 41.5022L92.3013 42.0196L92.5597 42.0694L93.2273 42.0196L93.3301 41.5861L93.2788 41.0702L93.0219 41.0189L93.022 41.0189ZM169.22 41.0189L168.533 41.0702L168.448 41.5022L168.499 42.0196L168.756 42.0694L169.425 42.0196L169.528 41.5861L169.476 41.0702L169.22 41.0189L169.22 41.0189ZM151.738 41.9031L151.806 42.4034L152.698 44.8198H150.694L151.738 41.903L151.738 41.9031ZM95.5941 41.9528L94.9762 42.5526V43.1524H94.3598L94.0345 43.4694V43.6201H94.9419V46.3535C94.9419 47.1869 95.0794 47.5531 96.142 47.5531L97.3248 46.9207L97.1707 46.6037C96.9137 46.7203 96.6216 46.8539 96.3474 46.8539C95.9532 46.8539 95.8509 46.5704 95.8509 46.3038V43.5036H97.2735L98.8501 47.3698L99.2268 47.2532L98.2836 48.6362H97.4789V49.553V49.5872H98.6105L99.6719 47.2703L101.197 43.5191L101.798 43.4197L101.747 43.1026L100.958 43.1368L100.136 43.1026L100.084 43.4197L100.512 43.5191L99.3466 46.8367L99.2782 46.2027L98.2323 43.5191L98.8502 43.4197L98.7989 43.1026H95.8339V41.9527H95.5943L95.5941 41.9528ZM144.917 41.9528L144.299 42.5526V43.1524H143.682L143.357 43.4694V43.6201H144.265V46.3535C144.265 47.1869 144.402 47.5531 145.465 47.5531L146.562 46.9533L146.408 46.6363C146.134 46.753 145.927 46.8539 145.653 46.8539C145.259 46.8539 145.156 46.5705 145.156 46.3038V43.6201H146.579V43.2037H145.156V41.9528H144.917L144.917 41.9528ZM165.67 41.9528L165.054 42.5526V43.1524H164.437L164.11 43.4694V43.6201H165.019V46.3535C165.019 47.1869 165.157 47.5531 166.219 47.5531L167.315 46.9533L167.161 46.6363C166.904 46.753 166.699 46.8539 166.425 46.8539C166.031 46.8539 165.928 46.5705 165.928 46.3038V43.6201H167.332V43.2037H165.911V41.9528H165.67V41.9528ZM89.598 42.9193C88.5012 43.1527 87.8845 43.5198 87.8845 44.1531C87.8845 44.6699 88.2607 45.0191 88.672 45.2192L89.4097 45.603C89.9067 45.853 90.0946 46.0206 90.0946 46.3706C90.0946 46.754 89.8382 47.0699 89.3412 47.0699C89.0499 47.0699 88.7749 46.9701 88.5692 46.8368L88.244 46.0691H87.6432L87.816 47.1041C88.073 47.2374 88.6714 47.5205 89.2541 47.5205C90.3338 47.2872 91.0206 46.9865 91.0206 46.1531C91.0206 45.6364 90.7629 45.2872 90.1288 44.9706L89.4097 44.6194C88.9984 44.4193 88.7576 44.2372 88.7576 43.9372C88.7576 43.6038 89.1183 43.4026 89.4781 43.4026C89.8209 43.4026 90.0944 43.5531 90.1972 43.6031L90.4369 44.2526H90.935V43.3358C90.6608 43.1358 90.1121 42.9194 89.598 42.9194L89.598 42.9193ZM135.047 42.9193C133.95 43.1527 133.333 43.5198 133.333 44.1531C133.333 44.6699 133.711 45.0191 134.122 45.2192L134.858 45.603C135.355 45.853 135.545 46.0206 135.545 46.3706C135.545 46.754 135.287 47.0699 134.79 47.0699C134.499 47.0699 134.225 46.9701 134.019 46.8368L133.693 46.0691H133.093L133.265 47.1041C133.522 47.2374 134.139 47.5205 134.704 47.5205C135.784 47.2872 136.469 46.9865 136.469 46.1531C136.469 45.6364 136.213 45.2872 135.579 44.9706L134.858 44.6194C134.447 44.4193 134.208 44.2372 134.208 43.9372C134.208 43.6038 134.567 43.4026 134.927 43.4026C135.27 43.4026 135.545 43.5531 135.647 43.6031L135.887 44.2526H136.384V43.3358C136.109 43.1358 135.561 42.9194 135.047 42.9194L135.047 42.9193ZM162.365 42.9193C161.268 43.1527 160.651 43.5198 160.651 44.1531C160.651 44.6699 161.029 45.0191 161.44 45.2192L162.176 45.603C162.656 45.853 162.863 46.0206 162.863 46.3706C162.863 46.754 162.605 47.0699 162.108 47.0699C161.817 47.0699 161.543 46.9701 161.338 46.8368L161.011 46.0691H160.411L160.583 47.1041C160.84 47.2374 161.44 47.5205 162.022 47.5205C163.102 47.2872 163.787 46.9865 163.787 46.1531C163.787 45.6364 163.531 45.2872 162.897 44.9706L162.176 44.6194C161.765 44.4193 161.526 44.2372 161.526 43.9372C161.526 43.6038 161.885 43.4026 162.245 43.4026C162.588 43.4026 162.88 43.5531 162.966 43.6031L163.205 44.2526H163.702V43.3358C163.425 43.136 162.877 42.9192 162.364 42.9192L162.365 42.9193ZM56.1265 42.9535C54.8411 43.2202 54.0004 43.953 54.0004 45.3031C54.0004 46.7532 55.0295 47.5361 56.1778 47.5361C56.7776 47.3861 57.3773 47.1197 57.8229 46.8197L57.6689 46.4701C57.309 46.6867 56.863 46.8539 56.486 46.8539C55.5091 46.8539 54.9265 46.1201 54.9265 45.07V45.0529H57.7887V44.6691C57.7887 43.719 57.3776 42.9536 56.1265 42.9536L56.1265 42.9535ZM81.6097 42.9535C80.3243 43.2202 79.4852 43.953 79.4852 45.3031C79.4852 46.7532 80.5128 47.5361 81.6611 47.5361C82.2609 47.3861 82.8622 47.1197 83.3078 46.8197L83.1521 46.4701C82.7922 46.6867 82.3479 46.8539 81.9708 46.8539C80.994 46.8539 80.4113 46.1201 80.4113 45.07V45.0529H83.2736V44.6691C83.2736 43.719 82.8608 42.9536 81.6098 42.9536L81.6097 42.9535ZM105.894 42.9535C104.437 43.2036 103.581 43.9693 103.581 45.3528C103.581 46.5862 104.438 47.5361 105.689 47.5361C107.145 47.3027 108.003 46.5207 108.003 45.1539C108.003 43.9038 107.162 42.9536 105.894 42.9536V42.9535ZM121.421 42.9535C120.135 43.2202 119.296 43.953 119.296 45.3031C119.296 46.7532 120.307 47.5361 121.455 47.5361C122.055 47.3861 122.656 47.1197 123.102 46.8197L122.946 46.4701C122.586 46.6867 122.142 46.8539 121.765 46.8539C120.788 46.8539 120.205 46.1201 120.205 45.07V45.0529H123.085V44.6691C123.085 43.719 122.672 42.9536 121.421 42.9536L121.421 42.9535ZM130.572 42.9535L128.859 43.7025V44.4034H129.665L129.819 43.6699C130.025 43.5866 130.332 43.5036 130.589 43.5036C131.086 43.5036 131.139 43.8362 131.139 44.3863V44.8369L129.013 45.5206C128.807 45.804 128.687 46.0372 128.687 46.3706C128.687 47.104 129.27 47.5361 130.076 47.5361L131.207 46.7374L131.498 47.4366L132.715 47.2035L132.681 46.8865H132.219C132.133 46.7365 132.063 46.6028 132.063 46.2028V44.4033C132.063 43.2532 131.755 42.9535 130.572 42.9535L130.572 42.9535ZM141.249 42.9535L139.57 43.7025V44.4034H140.376L140.53 43.6699C140.736 43.5866 141.044 43.5036 141.301 43.5036C141.798 43.5036 141.85 43.8362 141.85 44.3863V44.8369L139.724 45.5206C139.518 45.804 139.399 46.0372 139.399 46.3706C139.399 47.104 139.982 47.5361 140.787 47.5361L141.902 46.7374L142.193 47.4366L143.41 47.2035L143.375 46.8865H142.896C142.81 46.7365 142.74 46.6028 142.74 46.2028V44.4033C142.74 43.2532 142.432 42.9535 141.249 42.9535L141.249 42.9535ZM69.698 42.9691L68.3097 43.8532L68.2583 43.0856L67.8459 43.1198L66.7159 43.4026L66.7673 43.7196L67.4179 43.6699V47.0201L66.7673 47.104L66.8186 47.4195L67.8988 47.3868L68.8062 47.4366L68.8575 47.1196L68.3439 47.0372V44.3194L68.6178 44.1361C68.9435 43.9194 69.2696 43.7196 69.5953 43.7196C69.9895 43.7196 70.2116 43.92 70.2116 44.4033V47.0201L69.7323 47.104L69.7836 47.4195L70.691 47.3869L71.7712 47.4195L71.8225 47.104L71.1034 47.0201V44.4702C71.1034 43.3701 70.8977 42.9691 69.698 42.9691L69.698 42.9691ZM173.487 42.9691L172.099 43.8532L172.048 43.0856L171.635 43.1198L170.505 43.4026L170.557 43.7196L171.207 43.6699V47.0201L170.557 47.104L170.608 47.4195L171.687 47.3868L172.578 47.4366L172.63 47.1196L172.116 47.0372V44.3194L172.407 44.1361C172.733 43.9194 173.057 43.7196 173.383 43.7196C173.777 43.7196 174.001 43.9199 174.001 44.4033V47.0201L173.522 47.104L173.573 47.4195L174.48 47.3869L175.561 47.4195L175.612 47.104L174.891 47.0201V44.4702C174.891 43.3701 174.687 42.9691 173.487 42.9691V42.9691ZM86.4783 43.0033L85.3982 44.2868L85.3639 43.0701L84.9873 43.1027L83.8558 43.3871L83.9071 43.7025L84.5577 43.6528V47.003L83.9071 47.087L83.9585 47.404L85.0215 47.3698L86.3927 47.404L86.4441 47.0528L85.4495 46.9704V44.7871L85.6379 44.5696C85.8949 44.2696 86.3069 43.97 86.5297 43.92H87.2316V43.0032H86.4784L86.4783 43.0033ZM156.586 43.0701L156.124 43.1027L154.993 43.3358L155.044 43.687L155.713 43.6357V46.0365C155.713 47.1033 155.919 47.536 157.17 47.536L158.541 46.7031L158.798 47.4537L160.015 47.2206L159.981 46.9036H159.5C159.432 46.7536 159.38 46.6199 159.38 46.2199V43.0701L158.901 43.1027L157.855 43.3358L157.906 43.687L158.473 43.6357V46.2199L158.285 46.3364C157.925 46.5698 157.547 46.8026 157.256 46.8026C156.793 46.8026 156.587 46.6038 156.587 46.1204V43.07L156.586 43.0701ZM73.7259 43.0856L73.2465 43.1198L72.115 43.4026L72.1664 43.7196L72.8185 43.6699V47.0201L72.1664 47.104L72.2177 47.4195L73.2979 47.3868L74.378 47.4195L74.4294 47.104L73.7259 47.0201V43.0856L73.7259 43.0856ZM74.515 43.0856L74.4636 43.4026L75.0457 43.5036L76.6909 47.5531L77.3773 47.2703L78.9197 43.5036L79.5189 43.4026L79.4675 43.0856L78.68 43.1198L77.8566 43.0856L77.8053 43.4026L78.2333 43.5036L77.0862 46.8197L77.0504 46.1872L76.0232 43.5036L76.6395 43.4026L76.5882 43.0856L75.5952 43.1198L74.515 43.0856H74.515ZM93.2122 43.0856L92.7499 43.1198L91.6184 43.4026L91.6698 43.7196L92.3204 43.6699V47.0201L91.6698 47.104L91.7211 47.4195L92.8012 47.3868L93.8643 47.4195L93.9157 47.104L93.2122 47.0201V43.0856L93.2122 43.0856ZM123.564 43.0856L123.512 43.4197L124.094 43.5192L125.465 45.3372L124.077 47.003L123.409 47.087L123.461 47.404L124.437 47.3698L125.174 47.404L125.226 47.087L124.764 47.0201L125.757 45.6201L125.825 45.8361L126.665 47.0202L126.272 47.1041L126.323 47.4195L127.213 47.3869L128.293 47.4195L128.345 47.1041L127.763 47.0202L126.289 44.9861L127.539 43.5192L128.225 43.4197L128.174 43.0856L127.196 43.1198L126.46 43.0856L126.409 43.4197L126.871 43.5192L125.979 44.7701L125.911 44.537L125.209 43.5192L125.585 43.4198L125.534 43.0857L124.644 43.1199L123.563 43.0857L123.564 43.0856ZM169.407 43.0856L168.945 43.1198L167.814 43.4026L167.865 43.7196L168.515 43.6699V47.0201L167.865 47.104L167.916 47.4195L168.996 47.3868L170.058 47.4195L170.109 47.104L169.407 47.0201V43.0856L169.407 43.0856ZM55.938 43.4026C56.6749 43.4026 56.8111 43.9037 56.8111 44.6038L54.9263 44.6861C54.9949 43.9194 55.3553 43.4026 55.938 43.4026V43.4026ZM81.4383 43.4026C82.1752 43.4026 82.313 43.9037 82.313 44.6038L80.4282 44.6861C80.4967 43.9194 80.8556 43.4026 81.4383 43.4026L81.4383 43.4026ZM105.689 43.4026C106.494 43.4026 107.077 44.186 107.077 45.3528C107.077 46.3362 106.682 47.087 105.928 47.087C105.088 47.087 104.523 46.204 104.54 45.1539C104.54 44.1538 104.917 43.4026 105.689 43.4026ZM121.215 43.4026C121.952 43.4026 122.09 43.9037 122.09 44.6038L120.205 44.6861C120.274 43.9194 120.65 43.4026 121.215 43.4026V43.4026ZM131.156 45.2036V46.4032L130.762 46.6705C130.642 46.7538 130.402 46.9036 130.144 46.9036C129.87 46.9036 129.597 46.7363 129.597 46.2696C129.597 46.0696 129.648 45.887 129.785 45.7537L131.156 45.2036L131.156 45.2036ZM141.833 45.2036V46.4032L141.439 46.6705C141.32 46.7538 141.079 46.9036 140.822 46.9036C140.547 46.9036 140.274 46.7363 140.274 46.2696C140.274 46.0696 140.325 45.887 140.462 45.7537L141.833 45.2036L141.833 45.2036Z" fill="#D2D8E6"/>
</svg>
