<svg width="220" height="30" viewBox="0 0 220 30" fill="none" xmlns="http://www.w3.org/2000/svg">
<path d="M77.3947 0.674313C77.3314 0.674313 77.2381 0.702477 77.1207 0.757744C77.0954 0.772482 77.0641 0.782265 77.0388 0.79516C76.2234 1.18203 74.8238 1.50257 72.8243 1.76233V2.55969C73.9488 2.55969 74.5795 2.59304 74.7169 2.65751C74.8164 2.69436 74.8911 2.76197 74.9345 2.85038C75.0014 2.98302 75.0518 3.59904 75.0898 4.70996C75.144 6.35325 75.169 7.95102 75.169 9.49115V15.2482C75.122 17.7776 75.0952 19.1048 75.0898 19.2264C75.0681 19.698 75.0102 20.0285 74.909 20.2108C74.7969 20.3988 74.6106 20.5216 74.2056 20.5419L72.9062 20.5566V21.3338V21.3568C75.2763 21.2776 76.2272 21.2704 76.4315 21.2704C78.1526 21.2926 79.3491 21.3366 79.6998 21.3568V20.5566C78.747 20.54 78.2377 20.5227 78.1744 20.5135C78.028 20.4785 77.9191 20.4295 77.8467 20.3724C77.5846 20.1531 77.5289 19.7833 77.5162 19.1404C77.509 18.9487 77.4778 17.6488 77.4344 15.2427L77.4655 5.87593C77.4655 5.87593 77.5891 1.06598 77.5981 0.907545C77.5981 0.835697 77.5801 0.779133 77.5445 0.734919C77.5101 0.692547 77.4562 0.674509 77.3948 0.674509L77.3947 0.674313ZM85.6516 0.674313C85.4961 0.701946 85.2395 0.825546 84.9086 0.956402C84.0662 1.27327 82.7949 1.54132 81.081 1.76239V2.55975C82.2055 2.55975 82.8381 2.59309 82.9737 2.65757C83.0749 2.69442 83.146 2.76203 83.1912 2.85044C83.2563 2.98308 83.3085 3.59909 83.3465 4.71001C83.4007 6.3533 83.4284 7.95108 83.4284 9.4912V15.2483C83.3796 17.7777 83.3537 19.1049 83.3465 19.2264C83.3266 19.6981 83.2669 20.0285 83.1657 20.2109C83.0554 20.3988 82.8645 20.5217 82.4595 20.5419L81.1629 20.5567V21.3223V21.357C83.3595 21.2796 84.3502 21.2706 84.6883 21.2706C86.1562 21.2872 87.3165 21.3275 87.9565 21.357V20.5568C87.0056 20.5402 86.4944 20.5229 86.4311 20.5137C86.2829 20.4787 86.1758 20.4296 86.1035 20.3725C85.8395 20.1533 85.7874 19.7835 85.7729 19.1405C85.7639 18.9489 85.7381 17.649 85.6911 15.2431L85.7221 5.87629C85.7221 5.87629 85.844 1.06632 85.8549 0.907883C85.8549 0.836035 85.8385 0.779499 85.8011 0.735285C85.765 0.692913 85.7165 0.674847 85.6514 0.674847L85.6516 0.674313ZM11.7444 1.22697C8.41073 1.29145 5.7649 2.25025 3.81241 4.12559C1.79303 6.06733 0.781372 8.50869 0.781372 11.46C0.781372 13.7904 1.39399 15.7244 2.53836 17.3898C3.67912 19.0515 5.49965 20.471 7.91676 21.1895C9.12441 21.5506 10.4212 21.7306 11.8404 21.7306C13.039 21.7306 14.1463 21.6054 15.1623 21.3622C16.1801 21.1153 17.2178 20.7176 18.2809 20.1705L18.8119 18.8751L18.5803 18.5844C17.8626 19.1039 17.1415 19.4869 16.4165 19.7301C15.2558 20.1206 13.9579 20.2851 12.6255 20.2482C10.024 20.1819 7.91443 19.3377 6.30363 17.7037C4.62593 15.9941 3.78673 13.743 3.78673 10.9391C3.79577 9.34002 4.01871 8.01064 4.45621 6.9495C4.8919 5.89204 5.4556 5.01808 6.14258 4.32723C7.47678 2.98791 9.13461 2.38624 11.6114 2.31808C11.6801 2.3144 11.7432 2.31254 11.8119 2.31254C15.2722 2.31254 17.0511 3.18725 17.2355 4.99817L17.2464 6.6303H17.3565H18.0711C18.1254 5.59496 18.225 4.68343 18.3677 3.89863C18.4654 3.40859 18.616 2.90736 18.8113 2.3989C18.5853 2.35284 17.9667 2.19083 16.9526 1.91818C15.942 1.64552 15.0814 1.46501 14.3764 1.36552C13.5755 1.25499 12.6711 1.21628 11.7438 1.22733L11.7444 1.22697ZM94.0527 1.63572V1.67609V2.51949C95.1031 2.53423 95.7398 2.5871 95.9621 2.66631C96.1899 2.74185 96.3524 2.86483 96.4536 3.02326C96.5567 3.18354 96.6187 3.70651 96.6458 4.58343C96.7018 5.78642 96.7305 7.01263 96.7305 8.2709V14.3964C96.7305 16.1834 96.8569 17.4514 97.1118 18.2104C97.3107 18.7852 97.6784 19.3427 98.2136 19.8972C99.2856 20.9952 101.387 21.7308 104.196 21.7308C106.594 21.7308 108.638 21.1275 109.891 20.0958C110.728 19.4032 111.302 18.6015 111.614 17.6952C111.927 16.7907 112.083 15.1966 112.083 12.914V8.27095C112.112 5.8318 112.152 4.52104 112.208 4.33313C112.233 3.62202 112.301 3.17226 112.408 2.99172C112.499 2.84803 112.652 2.74199 112.88 2.66645C113.108 2.58724 113.745 2.53437 114.801 2.51963V1.63595C112.669 1.70595 111.279 1.72217 110.903 1.71646C110.234 1.70724 109.326 1.68016 108.174 1.63595V1.67629V2.51969C109.219 2.53443 109.86 2.58729 110.089 2.66651C110.321 2.74204 110.487 2.86134 110.586 3.02346C110.688 3.18373 110.749 3.70382 110.767 4.58073C110.823 5.78188 110.852 7.01362 110.852 8.2682V12.5314C110.852 14.9539 110.688 16.4906 110.301 17.3933C109.911 18.2997 109.217 19.0435 107.64 19.5465C106.852 19.8007 105.951 19.9293 104.937 19.9293C103.189 19.9293 101.723 19.5184 100.886 18.8902C100.342 18.4757 99.9481 17.9494 99.6968 17.3156C99.4474 16.6819 99.3211 15.3735 99.3211 13.3894V8.26848C99.3627 5.83117 99.3904 4.51968 99.4031 4.33361C99.4302 3.62434 99.5003 3.17356 99.6177 2.98933C99.6955 2.84932 99.8524 2.74247 100.084 2.66693C100.315 2.58772 100.954 2.53485 101.999 2.52011V1.63643C100.005 1.70275 97.946 1.72264 97.485 1.71693C96.4111 1.71141 95.2715 1.68414 94.053 1.63643L94.0527 1.63572ZM191.118 1.80264C190.688 1.80264 190.333 1.9563 190.037 2.26034C189.737 2.56431 189.587 2.93172 189.587 3.36281C189.587 3.78653 189.736 4.14978 190.037 4.45375C190.63 5.05802 191.585 5.06538 192.183 4.45375C192.484 4.14978 192.633 3.78653 192.633 3.36281C192.633 2.93172 192.486 2.56431 192.192 2.26034C191.899 1.95637 191.542 1.80264 191.118 1.80264ZM134.381 1.80633C133.958 1.80633 133.599 1.95722 133.299 2.26116C133 2.56513 132.852 2.93254 132.852 3.36363C132.852 3.78734 133 4.1506 133.299 4.45457C133.597 4.75854 133.959 4.91227 134.381 4.91227C134.796 4.91227 135.152 4.75862 135.448 4.45457C135.747 4.1506 135.898 3.78734 135.898 3.36363C135.898 2.93254 135.752 2.56513 135.457 2.26116C135.166 1.95718 134.805 1.80633 134.381 1.80633ZM199.706 3.65154C199.126 4.03104 198.368 4.38706 197.435 4.72235V8.93945C196.916 9.19921 196.214 9.4934 195.333 9.82316V10.3442V10.4046C196.707 10.3291 197.435 10.3211 197.435 10.3211C197.435 10.3211 197.433 16.3101 197.415 16.6252C197.382 17.3787 197.361 18.0755 197.35 18.7091C197.397 19.3705 197.504 19.8551 197.666 20.1628C197.994 20.78 198.476 21.1719 199.042 21.3948C199.328 21.5053 199.714 21.5647 200.186 21.5647C200.96 21.5647 201.487 21.5013 202.172 21.2451C202.568 20.8749 202.98 20.5199 203.403 20.1772L203.24 19.6389C202.949 19.7439 202.708 19.8086 202.497 19.8491C202.453 19.8583 202.398 19.8759 202.358 19.8778C202.125 19.9128 201.823 19.9296 201.449 19.9296C201.393 19.924 201.346 19.911 201.293 19.9036C200.426 19.7673 200.143 19.5433 199.901 19.1638C199.774 18.9612 199.688 18.7255 199.641 18.4528C199.596 18.1802 199.588 17.3478 199.615 15.9514L199.697 10.2375C201.948 10.2246 202.734 10.2319 203.282 10.2375L203.567 9.02561L203.471 8.9392C201.557 9.02578 200.926 9.035 200.488 9.03131C200.279 9.02763 200.023 9.02395 199.697 9.02027C199.817 6.39505 199.927 4.69815 200.028 3.92809L199.706 3.65173V3.65154ZM27.5578 7.88873C25.5384 7.88873 23.8844 8.54043 22.5917 9.85774C21.3027 11.1713 20.6568 12.865 20.6568 14.9413C20.6568 16.0945 20.8653 17.175 21.2811 18.1882C21.7511 19.3378 22.6271 20.505 24.0862 21.2309C24.8165 21.5938 25.7034 21.7749 26.7556 21.7749C28.1025 21.7749 29.342 21.4559 30.4646 20.8222C31.5873 20.1866 32.4537 19.3066 33.0719 18.1883C33.6866 17.0608 33.9956 15.8214 33.9956 14.4691C33.9956 12.5292 33.3969 10.9504 32.2019 9.72534C31.0069 8.50392 29.4579 7.88884 27.5579 7.88884L27.5578 7.88873ZM67.1246 7.88873C65.6458 7.88873 64.432 8.3654 63.1502 9.2589C62.5952 9.64577 62.1882 9.98601 61.9242 10.2808C61.5609 10.6898 61.2371 11.3239 60.9497 12.1805C60.6659 13.039 60.5231 14.001 60.5231 15.0677C60.5231 17.7961 61.6593 19.9056 63.5936 20.9226C64.5626 21.4329 65.649 21.6911 66.8421 21.6911C68.057 21.6911 69.1826 21.3848 70.0341 20.9888C70.3234 20.8598 70.7832 20.5901 71.407 20.1885L71.8448 19.1925L71.6245 18.9537C70.8164 19.4658 70.1366 19.7973 69.5906 19.987C68.2239 20.4494 66.8419 20.3338 65.571 19.6762C64.0542 18.8895 63.1525 17.2726 63.1163 14.6013H67.4807C68.4605 14.6013 69.4404 14.5628 70.4184 14.4891C70.9373 14.4559 71.52 14.3686 72.1726 14.2415C72.2269 13.8712 72.2545 13.5542 72.2545 13.2945C72.2545 11.2404 71.524 9.54367 69.8788 8.59675C69.0599 8.12514 68.1407 7.88862 67.1247 7.88862L67.1246 7.88873ZM158.812 7.88873C157.34 7.88873 156.123 8.3654 154.838 9.2589C154.284 9.64577 153.874 9.98601 153.612 10.2808C153.248 10.6898 152.924 11.3239 152.64 12.1805C152.353 13.039 152.211 14.001 152.211 15.0677C152.211 17.7961 153.347 19.9056 155.281 20.9226C156.252 21.4329 157.327 21.6911 158.53 21.6911C159.743 21.6911 160.872 21.3848 161.722 20.9888C162.011 20.8598 162.469 20.5901 163.094 20.1885L163.532 19.1925L163.312 18.9537C162.5 19.4566 161.824 19.7973 161.278 19.987C159.919 20.4458 158.539 20.3375 157.261 19.6762C155.746 18.8895 154.839 17.2726 154.801 14.6013H159.168C160.146 14.6013 161.128 14.5628 162.106 14.4891C162.623 14.4559 163.207 14.3686 163.86 14.2415C163.914 13.8712 163.942 13.5542 163.942 13.2945C163.942 11.2404 163.211 9.54367 161.566 8.59675C160.747 8.12514 159.83 7.88862 158.812 7.88862V7.88873ZM181.023 7.90532C180.221 7.95321 179.467 8.13029 178.775 8.46373C177.162 9.23011 176.442 10.5134 176.442 11.967C176.442 12.9655 176.823 13.8514 177.422 14.4023C177.72 14.6804 178.12 14.917 178.628 15.1104C178.964 15.2301 179.707 15.4229 180.857 15.6918C182.005 15.959 182.754 16.1766 183.102 16.3424C183.802 16.674 184.181 17.2861 184.181 18.058C184.181 18.9257 183.883 19.6072 183.292 20.1046C182.699 20.6038 181.942 20.8501 181.018 20.8501C180.636 20.8464 180.178 20.8335 179.761 20.7954C179.206 20.7217 178.658 20.4979 178.204 20.0815C177.75 19.6633 177.562 19.0229 177.47 18.3947C177.425 18.0796 177.397 17.6545 177.388 17.1166H176.608C176.592 18.3159 176.57 19.1061 176.543 19.4856C176.466 20.2501 176.371 20.7361 176.36 20.8816C176.36 20.9461 176.38 20.9885 176.416 21.0198C176.471 21.0769 176.851 21.1755 177.563 21.3192C178.85 21.5679 179.886 21.6905 180.656 21.6905C182.343 21.6905 183.688 21.2279 184.693 20.3031C185.698 19.3746 186.201 18.2898 186.201 17.0445C186.201 15.7936 185.627 14.8717 184.772 14.448C184.343 14.2398 183.56 13.9865 182.425 13.6881L180.179 13.1239C179.331 12.8641 178.906 12.5755 178.628 12.056C178.489 11.7999 178.419 11.492 178.419 11.1291C178.419 10.4861 178.659 9.9278 179.142 9.44513C179.623 8.96799 180.271 8.7255 181.051 8.7255C182.722 8.7255 183.618 9.48601 183.916 9.98342C184.015 10.1474 184.092 10.3376 184.15 10.5476C184.21 10.7595 184.261 11.2022 184.306 11.8746H184.421H185.085C185.111 10.8061 185.152 9.75898 185.21 8.72547C184.741 8.48782 184.132 8.28883 183.382 8.12671C182.462 7.93144 181.712 7.87746 181.023 7.90509L181.023 7.90532ZM53.6651 7.97143C52.9681 7.95854 52.2283 8.09211 51.4392 8.38595L48.9053 10.5967C48.9379 9.33286 48.9836 8.46111 48.9872 8.32846C48.9872 8.23635 48.9692 8.16839 48.9336 8.1241C48.8992 8.07989 48.8442 8.05796 48.781 8.05796C48.7177 8.05796 48.5963 8.10199 48.4137 8.19041C48.4029 8.19594 48.3924 8.20331 48.3797 8.207C47.5282 8.60861 46.1957 8.93805 44.377 9.18859V9.98592H44.4815C45.4396 9.9804 45.9909 9.99883 46.1283 10.0464C46.2711 10.0979 46.3709 10.1753 46.4306 10.2766C46.4884 10.378 46.5305 10.7022 46.5577 11.2438C46.6119 12.0894 46.6424 12.8817 46.6424 13.6187C46.6424 13.6187 46.5848 17.7882 46.5577 19.2289C46.5305 19.7005 46.4667 20.0263 46.3656 20.2105C46.2571 20.3984 46.0624 20.5241 45.6792 20.5444L44.3769 20.5554V21.3327V21.3557C46.9712 21.2801 47.8831 21.2693 48.1254 21.2693C49.6928 21.2877 50.7677 21.3336 51.1564 21.3557V20.5554C50.2091 20.5388 49.7125 20.5215 49.6564 20.5123C49.3527 20.4423 49.2241 20.3202 49.1536 20.1525C49.0596 19.9407 49.005 19.6017 48.9869 19.1393C48.958 17.6452 48.9051 13.5578 48.9051 13.5578C48.9051 12.539 49.0262 11.8127 49.2666 11.3817C49.5071 10.9525 49.9088 10.5695 50.4728 10.2361C51.0351 9.90079 51.6612 9.73234 52.3429 9.73234C53.8904 9.73234 55.0619 10.566 55.371 11.8078C55.4795 12.2628 55.5321 13.2147 55.5321 14.672V17.0122C55.5321 17.6146 55.4795 19.0538 55.371 21.3271C55.371 21.3363 55.3674 21.3466 55.3674 21.3558C57.0343 21.2803 57.6459 21.2695 57.8447 21.2695C58.8228 21.2842 59.6257 21.3319 60.0197 21.3558V20.5556L58.5989 20.5125C58.2066 20.4591 58.0455 20.289 57.9605 19.7382C57.9045 19.3016 57.8786 18.4819 57.8786 17.2771V14.8218C57.8786 12.9113 57.8468 11.7511 57.7853 11.3329C57.5666 9.93094 56.9528 9.04114 55.6385 8.43135C55.0157 8.14119 54.3609 7.98322 53.6639 7.97079L53.6651 7.97143ZM123.273 7.97143C122.575 7.96038 121.839 8.09672 121.061 8.38595L118.53 10.5967C118.561 9.35497 118.609 8.46111 118.612 8.32846C118.612 8.23635 118.592 8.16839 118.556 8.1241C118.521 8.07989 118.471 8.05796 118.406 8.05796C118.345 8.05796 118.225 8.09903 118.047 8.18746C118.046 8.18746 118.042 8.19114 118.037 8.19114C117.187 8.60013 115.841 8.93758 114.003 9.18997V9.98736H114.121C115.067 9.98183 115.612 10.0002 115.751 10.0478C115.894 10.0993 115.997 10.1767 116.056 10.278C116.114 10.3794 116.156 10.7036 116.181 11.2452C116.235 12.0908 116.266 12.8831 116.266 13.6201C116.266 13.6201 116.208 17.7897 116.181 19.2303C116.156 19.7019 116.093 20.0277 115.992 20.2119C115.883 20.3998 115.69 20.5255 115.305 20.5458L114.003 20.5569V21.3369V21.357C116.613 21.2815 117.521 21.2706 117.754 21.2706C119.351 21.2927 120.429 21.3386 120.779 21.357V20.5568C119.832 20.5402 119.33 20.5229 119.28 20.5137C118.97 20.4437 118.849 20.3215 118.777 20.1539C118.685 19.942 118.631 19.603 118.613 19.1406C118.586 17.6465 118.531 13.5591 118.531 13.5591C118.531 12.5404 118.649 11.814 118.89 11.383C119.13 10.9538 119.535 10.5708 120.099 10.2374C120.663 9.90579 121.277 9.73366 121.966 9.73366C123.512 9.73366 124.683 10.5674 124.994 11.8091C125.101 12.2642 125.158 13.216 125.158 14.6733V17.0135C125.158 17.6159 125.101 19.0544 124.994 21.3314C124.994 21.3369 124.996 21.348 124.994 21.3574C126.684 21.2818 127.289 21.271 127.471 21.271C128.482 21.2894 129.289 21.3334 129.644 21.3574V20.5571L128.223 20.514C127.832 20.4606 127.675 20.2942 127.585 19.7397C127.53 19.3031 127.503 18.4834 127.503 17.2786V14.8233C127.503 12.9129 127.47 11.7526 127.407 11.3344C127.191 9.93246 126.577 9.04263 125.263 8.43284C124.633 8.13992 123.972 7.98287 123.274 7.97227L123.273 7.97143ZM135.473 7.97143C134.273 8.55174 132.798 8.94035 131.041 9.143V9.94322C132.12 9.94322 132.729 9.98063 132.872 10.047C133.014 10.117 133.112 10.2196 133.168 10.3578C133.259 10.6157 133.304 11.436 133.304 12.8103V15.2483C133.25 17.7814 133.222 19.104 133.222 19.2292C133.193 19.7008 133.129 20.0284 133.03 20.2108C132.921 20.3987 132.727 20.5216 132.341 20.5418L131.041 20.5566V21.3309V21.3569C133.428 21.2795 134.33 21.2704 134.629 21.2704C136.136 21.2889 137.414 21.3329 137.956 21.3569V20.5566C136.996 20.5401 136.487 20.5227 136.431 20.5135C136.284 20.4785 136.179 20.4295 136.103 20.3724C135.852 20.1642 135.787 19.7926 135.773 19.1404C135.765 18.9488 135.736 17.6488 135.691 15.2429V12.7185C135.691 11.6702 135.718 10.1629 135.773 8.19353L135.473 7.97182L135.473 7.97143ZM192.209 7.97143C191.004 8.56096 189.532 8.94035 187.775 9.143V9.94322C188.854 9.94322 189.465 9.98063 189.608 10.047C189.749 10.117 189.848 10.2196 189.904 10.3578C189.997 10.6157 190.04 11.436 190.04 12.8103V15.2483C189.984 17.7814 189.958 19.104 189.958 19.2292C189.929 19.7008 189.864 20.0284 189.766 20.2108C189.652 20.3987 189.465 20.5216 189.08 20.5418L187.775 20.5566V21.3338V21.3568C190.213 21.2794 191.101 21.2704 191.365 21.2704C192.947 21.2888 194.239 21.3365 194.692 21.3568V20.5566C193.732 20.54 193.221 20.5226 193.167 20.5134C193.021 20.4784 192.912 20.4294 192.839 20.3723C192.586 20.1641 192.526 19.7925 192.512 19.1403C192.504 18.9487 192.474 17.6488 192.427 15.2428V12.7184C192.427 11.6701 192.455 10.1628 192.512 8.19342L192.209 7.97174V7.97143ZM42.3775 7.99448C41.5253 7.90642 40.6812 8.21864 40.0696 8.76303C39.9141 8.90304 39.6656 9.20783 39.3239 9.68129C38.9786 10.1529 38.6063 10.6329 38.1996 11.1119C38.2231 9.49995 38.2808 8.46479 38.2844 8.32846C38.2844 8.23635 38.2639 8.16836 38.228 8.12407C38.1918 8.07986 38.1416 8.05793 38.0783 8.05793C38.015 8.05793 37.889 8.10196 37.7082 8.19039C37.6576 8.21618 37.6014 8.24033 37.5471 8.26243C36.6938 8.64194 35.4052 8.95167 33.6715 9.18932V9.98665H33.6805C34.6983 9.97744 35.2826 9.99956 35.429 10.0471C35.5791 10.0987 35.6819 10.176 35.7398 10.2774C35.7994 10.3787 35.8376 10.7029 35.8556 11.2445C35.9099 12.0901 35.9348 12.8835 35.9348 13.6222C35.9348 13.6222 35.9353 15.3757 35.8556 19.1173C35.8267 19.8081 35.7324 20.1954 35.5082 20.3723C35.4305 20.4294 35.3154 20.476 35.1636 20.5018C35.0822 20.5221 34.5325 20.5399 33.5111 20.5565V21.328V21.3567C35.5594 21.2775 36.7189 21.274 36.8979 21.2703C38.9914 21.2924 40.5214 21.3383 41.0023 21.3567V20.5565C39.8001 20.4754 39.0625 20.3918 38.7877 20.3089C38.5147 20.2187 38.4214 20.1097 38.3527 19.7966C38.3147 19.6381 38.2939 19.2728 38.2849 18.6998C38.2288 17.0823 38.2001 15.9667 38.2001 15.355V13.9244C38.2001 12.7546 38.4426 11.8736 38.9289 11.2878C39.4116 10.6983 40.0001 10.4041 40.6944 10.4041C41.5187 10.4041 42.0281 10.79 42.4457 11.6706H43.0587C43.0804 10.7366 43.1598 9.6493 43.3045 8.41499L43.2253 8.22212C42.9478 8.0974 42.6619 8.02407 42.3779 7.99474L42.3775 7.99448ZM174.397 7.99448C173.542 7.90771 172.7 8.22417 172.091 8.76303C171.938 8.90304 171.691 9.20783 171.346 9.68129C170.836 10.3556 170.446 10.8356 170.221 11.1119C170.254 9.23282 170.303 8.46479 170.306 8.32846C170.306 8.23635 170.286 8.16836 170.25 8.12407C170.212 8.07986 170.163 8.05793 170.1 8.05793C169.914 8.10214 169.577 8.26624 169.216 8.40625C168.373 8.71943 167.203 8.98104 165.693 9.18921V9.98657C166.718 9.97736 167.302 9.99945 167.45 10.047C167.601 10.0986 167.703 10.1759 167.761 10.2773C167.819 10.3786 167.861 10.7028 167.877 11.2445C167.933 12.0901 167.956 12.8834 167.956 13.6221C167.956 13.6221 167.96 15.3755 167.877 19.1171C167.852 19.808 167.756 20.1953 167.53 20.3722C167.454 20.4293 167.337 20.4759 167.185 20.5017C167.104 20.522 166.549 20.5398 165.53 20.5564V21.3164V21.3567C167.502 21.2812 168.661 21.274 168.919 21.2703C170.794 21.285 172.288 21.3327 173.024 21.3567V20.5565C171.822 20.4754 171.082 20.3918 170.809 20.3089C170.538 20.2186 170.445 20.1097 170.374 19.7965C170.336 19.6381 170.314 19.2728 170.306 18.6998C170.252 17.0823 170.222 15.9666 170.222 15.355V13.9244C170.222 12.7546 170.466 11.8736 170.95 11.2878C171.437 10.7019 172.023 10.404 172.716 10.404C173.542 10.404 174.054 10.79 174.47 11.6706H175.08C175.1 10.7366 175.181 9.64924 175.329 8.41493L175.247 8.22207C174.968 8.09642 174.681 8.0236 174.397 7.99468L174.397 7.99448ZM137.836 8.34854V8.38887V9.14305C138.384 9.16516 138.716 9.19078 138.845 9.22947C139.154 9.30131 139.366 9.49061 139.732 10.3233L143.641 19.5806C143.782 19.9049 144.027 20.5372 144.381 21.4804H145.779C147.128 18.2288 147.917 16.3506 148.147 15.8385L149.457 13.0003C150.311 11.2243 150.805 10.2314 150.932 10.0066C151.115 9.67316 151.301 9.45611 151.486 9.34742C151.672 9.24057 152.048 9.17258 152.615 9.14305V8.34859C150.744 8.41491 149.88 8.43553 149.457 8.42632C148.987 8.41158 148.302 8.38728 147.398 8.34859V8.39464V9.14305C148.345 9.17253 148.928 9.24788 149.147 9.36757C149.356 9.48179 149.351 9.75491 149.268 10.116C149.122 10.6981 148.831 11.5396 148.395 12.6377C147.714 14.3676 147.311 15.3677 147.152 15.7435L145.796 18.8783C145.793 18.8746 145.789 18.8654 145.785 18.8617C145.146 17.3363 144.486 15.7443 144.486 15.7443L142.825 11.5417C142.462 10.6298 142.28 10.0344 142.28 9.75991C142.28 9.58306 142.367 9.44385 142.54 9.34253C142.712 9.2412 143.288 9.17339 144.272 9.1439V8.34944C142.364 8.41576 140.988 8.43564 140.628 8.43011C139.95 8.41722 139.021 8.39365 137.837 8.34944L137.836 8.34854ZM204.575 8.34854V8.38022V9.14592C205.221 9.22145 205.637 9.31376 205.824 9.42801C206.01 9.54407 206.184 9.76262 206.346 10.1016C206.757 10.9546 207.284 12.1949 207.925 13.8235L210.089 19.2869C210.498 20.3223 210.848 21.2559 211.137 22.0849C210.756 23.1074 210.324 24.118 209.846 25.1073C209.526 25.7484 209.252 26.1997 209.019 26.4631C208.558 26.9882 208.012 27.2259 207.448 27.2259C207.26 27.2259 207.113 27.2093 206.985 27.1885C206.929 27.1775 206.869 27.1697 206.824 27.1568C206.543 27.0629 206.336 26.8958 205.99 26.5955H205.66L204.965 28.7371C205.565 29.0724 205.987 29.2006 206.589 29.2006C207.826 29.2006 208.88 28.6573 209.637 27.6404C210.015 27.132 210.472 26.283 211.007 25.093L214.131 17.5972C215.514 14.4893 216.462 12.4031 216.976 11.3364C217.487 10.2698 217.872 9.63995 218.125 9.45384C218.38 9.26778 218.737 9.16794 219.202 9.14584L219.337 8.34851C218.39 8.40193 216.573 8.47931 214.094 8.34851V8.38885V9.14589C215.047 9.23985 215.595 9.33529 215.733 9.43661C215.964 9.59505 215.988 9.85573 215.894 10.2426C215.775 10.67 215.361 11.7891 214.651 13.6018C213.944 15.409 213.449 16.6386 213.165 17.2834L212.445 18.9183C211.78 17.358 210.278 13.6132 210.278 13.6132C209.96 12.81 209.627 11.8418 209.273 10.7087C209.119 10.2518 209.041 9.95695 209.041 9.80773C209.041 9.57376 209.159 9.41257 209.394 9.32414C209.532 9.26888 210.068 9.21193 211.004 9.14561V8.34828C209.455 8.41276 207.784 8.43633 207.527 8.42896C206.553 8.42343 205.569 8.40005 204.575 8.34828V8.34854ZM27.0017 8.81197C28.5781 8.81197 29.9302 9.60415 30.7727 11.7596C31.1939 12.8355 31.4054 14.1147 31.4054 15.5996C31.4054 17.3847 31.0484 18.7056 30.3433 19.5604C29.6401 20.4189 28.7582 20.85 27.7078 20.85C26.887 20.85 26.1212 20.5741 25.4198 20.0325C24.7165 19.4854 24.1821 18.6215 23.8097 17.4333C23.4391 16.2487 23.2532 15.0855 23.2532 13.9359C23.2532 12.1821 23.6003 10.8885 24.2927 10.0558C24.9851 9.22676 25.888 8.81225 27.0016 8.81225L27.0017 8.81197ZM66.5486 8.81197C68.4884 8.81197 69.7464 10.1395 69.7464 13.0779C69.7464 13.1976 69.7446 13.3721 69.7355 13.5932C69.354 13.6411 68.559 13.6623 67.3513 13.6623H67.179C65.7761 13.6328 63.8538 13.5668 63.1198 13.5097C63.1289 11.883 63.4462 10.6938 64.0718 9.94033C64.6991 9.18869 65.5258 8.81194 66.5491 8.81194L66.5486 8.81197ZM158.232 8.81197C160.174 8.81197 161.436 10.1395 161.436 13.0779C161.436 13.1976 161.429 13.3721 161.421 13.5932C161.04 13.6411 160.244 13.6623 159.04 13.6623C158.885 13.6623 158.255 13.6567 156.246 13.5932C155.539 13.5674 155.06 13.5355 154.803 13.5097C154.814 11.883 155.132 10.6938 155.758 9.94033C156.383 9.18869 157.214 8.81194 158.232 8.81194L158.232 8.81197Z" fill="#D2D8E6"/>
</svg>
