<svg width="217" height="38" viewBox="0 0 217 38" fill="none" xmlns="http://www.w3.org/2000/svg">
<path d="M20.1855 26.1551C19.8269 25.8336 19.3676 25.9316 18.4296 26.4009C17.3724 26.9295 15.5034 27.6288 13.9366 27.6288C12.8791 27.6288 12.1426 27.6476 11.0101 27.2507C6.04511 25.5128 3.72253 21.6777 3.72253 15.8216C3.72253 10.5322 7.43753 5.71468 11.0478 4.33529C12.0861 3.9387 12.9356 3.84446 14.0304 3.84446C16.1831 3.84446 18.5049 4.93997 19.0338 5.24232C19.562 5.54466 20.242 5.58198 20.525 5.45003C20.8083 5.31771 20.9025 5.37464 21.2234 4.76995H21.6013C21.6766 5.56313 21.6578 11.2119 21.6013 11.93H21.11C20.4873 9.8517 19.8321 8.09232 18.4669 6.54593C16.7486 4.59994 14.9255 4.3221 13.1055 4.73226C11.7651 5.03422 10.7649 6.18666 10.2171 7.83069C9.73562 9.27567 9.17843 12.7616 9.17843 15.6897C9.17843 18.3719 9.28542 21.3154 9.82038 23.1898C10.3489 25.0408 10.9446 25.9399 12.6523 26.6275C14.1058 27.2137 16.2185 26.9845 18.127 25.0408C20.2224 22.9059 21.0155 19.4301 21.0155 19.4301H21.5256C21.6013 20.2806 21.4502 26.3063 21.3557 27.156H20.8459C20.6949 26.7787 20.514 26.4488 20.1855 26.1551ZM31.74 25.8128C31.3185 26.312 30.7296 26.606 30.0217 26.606C28.5306 26.606 27.8886 25.2711 27.8886 23.7722C27.8886 23.2056 27.8868 22.0366 27.9459 21.5808C28.103 20.3549 28.8516 19.6574 30.2677 19.5025C31.0984 19.4113 31.9476 19.389 32.4765 19.4082V18.6712C29.6069 18.7466 27.7248 19.0874 26.5863 19.4271C24.6227 20.0129 23.4884 21.3279 23.2258 22.714C22.9425 24.2065 23.3765 25.529 24.1883 26.1902C25.4764 27.2393 26.7935 27.5692 28.436 27.5692C30.4565 27.5692 31.853 26.6056 32.6084 25.9448C32.6084 25.9448 33.2831 26.7383 33.5145 26.9264C34.0238 27.3423 34.9679 27.6823 35.7421 27.6823C36.5347 27.6823 37.4717 27.3547 37.9132 26.9264C38.5175 26.341 39.0649 25.4909 39.2725 24.6219L38.8004 24.4896C38.6682 24.9239 38.3849 25.6044 37.9697 25.8875C37.648 26.1069 37.2935 26.0183 37.026 25.4909C36.8934 25.2311 36.8934 24.735 36.8934 24.2815V16.386C36.8934 15.6305 36.4575 14.8192 36.2518 14.5157C35.8928 13.9868 35.1126 13.182 33.1746 12.6459C31.3998 12.1543 29.4178 12.192 28.0774 12.5136C26.83 12.8118 24.5089 13.798 24.5089 15.9894C24.5089 17.2368 25.6045 18.0673 26.6428 18.0673C27.6807 18.0673 28.7947 17.2368 28.7947 16.0275C28.7947 14.8181 27.7568 14.2896 27.3036 14.1192C26.8507 13.9491 27.2493 13.5952 27.3224 13.5529C27.7756 13.2887 28.3607 12.9298 29.758 12.9298C31.5132 12.9298 32.4765 13.3264 32.4765 15.6501V18.6728V19.4098V23.8857C32.4765 24.4293 32.1966 25.2722 31.74 25.8128ZM45.2223 18.18C45.2223 15.7617 46.2609 14.1904 47.242 13.7968C47.3365 13.7595 47.4307 13.8534 47.4122 13.9476C47.3704 14.1554 47.0724 14.3454 47.0724 15.2328C47.0724 16.4414 48.1295 17.5373 49.4511 17.5373C50.6782 17.5373 51.7922 16.3852 51.7922 15.1758C51.7922 13.7026 50.8854 12.5121 49.0921 12.5121C46.9214 12.5121 45.9019 13.9861 45.5429 14.4011C45.4118 14.5534 45.2596 14.6285 45.2596 14.3257V12.1155C44.9604 12.4186 44.1456 12.9467 43.3337 12.9467H38.8027V13.5133H40.8796V26.681H38.6897V27.2476H47.5629V26.681H45.2223V18.18ZM59.1242 15.8084C59.6516 14.7521 60.7393 13.6928 62.0503 13.6928C63.2585 13.6928 63.8436 14.6368 63.8436 15.4872V26.6705H61.9561V27.2465H70.0737V26.6705H68.3558V16.7343C68.3558 15.6056 67.9594 14.5568 67.2041 13.8251C66.5071 13.1492 65.0702 12.5215 63.8059 12.5215C62.7107 12.5215 61.6216 12.9053 60.653 13.5032C59.9282 13.951 59.2904 14.538 58.8405 15.0906C58.671 15.2984 58.5196 15.2509 58.5196 14.9866V12.1147C58.2197 12.4178 57.4052 12.946 56.5937 12.946H52.3648V13.5126H54.0643V26.6795H52.2518V27.2469H60.4078V26.6795H58.5199V18.1785C58.5203 17.3955 58.8032 16.4508 59.1242 15.8084ZM75.1197 18.7127C75.1389 18.0326 75.1577 16.8236 75.1766 15.747C75.1871 15.1412 75.2387 14.2553 75.4975 13.8391C75.8027 13.3494 76.3471 13.0459 77.0648 13.0459C77.7444 13.0459 78.1727 13.3215 78.4617 13.8583C78.6832 14.2696 78.8027 15.0288 78.8011 15.672C78.7985 16.8432 78.8392 18.0899 78.8392 18.7131H75.1197L75.0251 19.4497H83.9361C83.9741 19.072 83.9786 18.2415 83.6716 17.2775C83.351 16.2699 82.3824 14.7676 81.5197 14.0091C80.4249 13.0459 78.8388 12.422 77.1017 12.422C75.5914 12.422 74.1522 12.9833 72.7221 14.1606C71.0234 15.5581 70.0413 17.9195 70.0413 20.281C70.0413 22.2643 70.6964 24.2159 72.1932 25.7401C73.2891 26.8552 75.5088 27.6484 77.4799 27.6484C79.4619 27.6484 81.2718 26.8936 82.5207 25.3439C83.3159 24.355 83.7854 23.2467 84.1063 21.9619L83.4832 21.7919C82.9923 23.2656 82.4189 24.2796 81.6704 25.1169C80.8777 26.0043 79.4239 26.7036 78.2345 26.7036C77.1205 26.7036 76.3275 26.2694 75.7801 25.4193C75.2753 24.6348 75.1762 23.7941 75.1005 22.8878C75.0247 21.9812 75.0247 20.8849 75.0247 19.4493L75.1197 18.7127ZM112.354 18.5906C112.373 17.9101 112.392 16.7015 112.411 15.6248C112.421 15.0186 112.473 14.1331 112.732 13.7162C113.036 13.2268 113.582 12.9234 114.299 12.9234C114.979 12.9234 115.407 13.1989 115.696 13.735C115.917 14.1471 116.037 14.9063 116.035 15.5491C116.032 16.7204 116.073 17.967 116.073 18.5902H112.354L112.26 19.3268H121.17C121.208 18.9491 121.213 18.1186 120.906 17.1546C120.585 16.147 119.617 14.6451 118.754 13.8866C117.659 12.923 116.073 12.2995 114.336 12.2995C112.826 12.2995 111.387 12.8604 109.956 14.0374C108.257 15.4352 107.276 17.7966 107.276 20.1581C107.276 22.1418 107.93 24.0934 109.428 25.6176C110.524 26.7327 112.744 27.5258 114.714 27.5258C116.696 27.5258 118.506 26.7711 119.754 25.2213C120.55 24.2329 121.019 23.1242 121.341 21.8398L120.717 21.6698C120.227 23.143 119.654 24.1571 118.905 24.994C118.112 25.8822 116.658 26.5811 115.469 26.5811C114.355 26.5811 113.562 26.1472 113.014 25.2967C112.51 24.5126 112.411 23.6719 112.334 22.7653C112.259 21.8583 112.259 20.7628 112.259 19.3268L112.354 18.5906ZM86.5235 28.1433C86.0141 28.3891 85.3424 28.8453 84.957 29.2019C84.4266 29.6905 83.9184 30.5432 83.9184 31.3741C83.9184 32.3942 84.4092 33.4524 85.391 34.2083C86.7002 35.2156 88.4561 35.6627 90.4137 35.6627C91.933 35.6627 93.5895 35.2239 94.6802 34.4725C95.8703 33.6526 96.669 32.6532 97.21 31.3176C97.4842 30.6412 97.7197 29.3339 97.7197 28.4084C97.7197 27.5771 97.4748 26.6135 97.1346 25.9523C96.8103 25.3216 96.2704 24.8444 95.5862 24.5541C94.9639 24.2902 94.1708 24.1575 93.2452 24.1575H87.714C86.9959 24.1575 86.3856 23.9788 86.1279 23.6286C85.8634 23.2697 85.9011 22.8539 86.2033 22.5138C86.56 22.1127 87.3708 21.7116 88.0353 21.6449C88.4128 21.6068 88.7338 21.6068 89.0167 21.6449C89.4692 21.7056 89.8282 21.9092 90.8853 21.9092C91.9428 21.9092 93.4117 21.5442 94.3027 21.0217C95.7185 20.1905 96.5307 18.7549 96.5307 17.2806C96.5307 16.1477 95.9453 14.8441 95.1903 14.0317C95.4103 13.7433 96.093 13.024 96.4546 12.8793C96.6434 12.8035 96.7379 12.955 96.6245 13.087C96.3461 13.4119 96.1849 14.0532 96.4738 14.636C96.7632 15.2192 97.2785 15.5996 98.0407 15.5996C98.8714 15.5996 99.5322 14.9199 99.5322 14.0882C99.5322 13.4647 99.2101 12.9328 98.6453 12.5392C98.3134 12.3081 97.89 12.1803 97.4368 12.1803C96.9267 12.1803 96.4169 12.3884 96.0587 12.5769C95.6996 12.7662 95.1903 13.2381 94.7744 13.6728C93.7741 12.9554 92.5283 12.4257 90.9987 12.4257L91.0556 12.8793C91.924 12.8793 92.3015 13.2951 92.5283 13.8048C92.7641 14.3367 92.7735 14.8358 92.7735 15.7315V18.5657C92.7735 19.3589 92.6899 19.8418 92.4526 20.3982C92.1994 20.9916 91.6411 21.3618 90.848 21.3618C90.055 21.3618 89.5072 20.9644 89.2431 20.2847C89.0039 19.6699 89.0544 18.6034 89.0544 18.6034V15.7515C89.0544 15.7515 88.9979 14.561 89.3565 13.8051C89.5291 13.4417 90.0211 12.8796 91.0556 12.8796L90.9987 12.4261C89.3754 12.4261 88.1483 12.9177 87.0901 13.692C86.1098 14.4113 85.2592 15.7704 85.2592 17.1486C85.2592 18.5284 85.9459 20.0974 87.4307 20.946C87.5629 21.0217 87.6382 21.1914 87.4495 21.2487C85.5794 21.81 84.6168 23.1754 84.6168 24.8564C84.6168 26.1751 85.4227 27.3355 86.5235 28.1433L87.3173 28.408C87.3173 28.408 93.3582 28.408 93.7741 28.408C94.5672 28.408 95.0535 28.4691 95.5486 28.748C96.2233 29.1284 96.4546 29.6924 96.4546 30.3725C96.4546 31.3549 95.8696 32.5639 95.1334 33.3197C94.1641 34.3142 92.5467 35.0765 90.7346 35.0765C89.0356 35.0765 87.7079 34.5355 86.7883 33.6217C86.1528 32.9895 85.9196 32.1484 85.9196 31.1656C85.9196 29.9759 86.4866 29.0504 87.3173 28.408L86.5235 28.1433ZM105.771 12.1155C105.472 12.4186 104.658 12.9467 103.846 12.9467H99.5789V13.5133H101.391V26.681H99.5035V27.2476H107.471V26.681H105.771V12.1155ZM103.449 9.59271C104.864 9.59271 106.012 8.44442 106.012 7.02771C106.012 5.61101 104.865 4.46271 103.449 4.46271C102.033 4.46271 100.886 5.61101 100.886 7.02771C100.886 8.44442 102.034 9.59271 103.449 9.59271ZM151.715 26.5529H149.432V5.14355H151.751V4.46573H144.124L138.714 20.0359L133.064 4.46535H124.908V5.14581H127.347V24.0056C127.347 25.3088 126.956 25.6639 126.72 25.9361C126.438 26.2584 126.082 26.5103 125.269 26.5103H124.816V27.2299H131.069V26.5363H130.668C129.913 26.5363 129.309 26.4322 128.853 25.9436C128.505 25.5701 128.201 24.5107 128.201 23.7741V5.84662L135.958 27.2307H136.996L144.316 6.00156L144.314 26.5529H141.836V27.2307L151.716 27.2303V26.5529H151.715ZM156.429 19.3249H165.34C165.378 18.9472 165.383 18.1167 165.076 17.1524C164.755 16.1447 163.786 14.6428 162.923 13.8839C161.829 12.9204 160.243 12.2968 158.505 12.2968C156.995 12.2968 155.556 12.8581 154.125 14.0355C152.426 15.4333 151.445 17.7951 151.445 20.1562C151.445 22.1395 152.1 24.0911 153.597 25.6153C154.693 26.7304 156.912 27.524 158.883 27.524C160.866 27.524 162.675 26.7689 163.924 25.2191C164.72 24.231 165.189 23.1219 165.51 21.8372L164.887 21.6675C164.396 23.1404 163.823 24.1549 163.075 24.9921C162.281 25.8799 160.828 26.5789 159.639 26.5789C158.524 26.5789 157.732 26.1446 157.184 25.2945C156.679 24.5104 156.579 23.6697 156.504 22.7627C156.429 21.8564 156.429 20.7601 156.429 19.3249L156.524 18.5883C156.542 17.9079 156.561 16.6989 156.58 15.6226C156.591 15.0164 156.642 14.1305 156.902 13.7139C157.206 13.2242 157.751 12.9204 158.468 12.9204C159.147 12.9204 159.576 13.1959 159.865 13.7331C160.086 14.1444 160.206 14.904 160.205 15.5464C160.202 16.7177 160.243 17.9648 160.243 18.5883H156.524L156.429 19.3249ZM165.485 5.04742L167.091 5.04666V26.6203L165.168 26.6211L165.169 27.2348H173.359V26.6256H171.491V3.58472C171.193 3.88932 170.382 4.422 169.57 4.42615L165.487 4.42539L165.485 5.04742ZM174.453 5.04742L176.059 5.04666V26.6203L174.135 26.6211L174.136 27.2348H182.326V26.6256H180.458V3.58472C180.161 3.88932 179.349 4.422 178.537 4.42615L174.454 4.42539L174.453 5.04742ZM189.923 13.0056C191.399 13.0056 192.596 13.5703 192.596 17.4359V22.3476C192.596 26.2139 191.399 26.8918 189.923 26.8918C188.447 26.8918 187.25 26.2139 187.25 22.3476V17.4359C187.25 13.5699 188.447 13.0056 189.923 13.0056L189.868 12.4484C185.81 12.4484 182.24 15.9622 182.24 19.8923C182.24 24.1243 185.407 27.524 189.868 27.524C194.227 27.524 197.446 24.0372 197.446 19.8052C197.446 15.6735 194.025 12.4484 189.868 12.4484L189.923 13.0056ZM204.435 15.8058C204.963 14.7487 206.051 13.6898 207.362 13.6898C208.571 13.6898 209.155 14.6341 209.155 15.4846V26.6678H207.267V27.2442H215.386V26.6678H213.667V16.7313C213.667 15.6022 213.271 14.5538 212.515 13.8217C211.819 13.1465 210.382 12.5185 209.118 12.5185C208.022 12.5185 206.933 12.9023 205.964 13.5005C205.239 13.9476 204.601 14.535 204.151 15.0873C203.982 15.2954 203.83 15.2482 203.83 14.9836V12.1121C203.531 12.4148 202.716 12.9433 201.905 12.9433H197.675V13.51H199.375V26.6773H197.562V27.2446H205.718V26.6773H203.83V18.1759C203.831 17.3921 204.114 16.4478 204.435 15.8058Z" fill="#D2D8E6"/>
</svg>
