<svg width="183" height="36" viewBox="0 0 183 36" fill="none" xmlns="http://www.w3.org/2000/svg">
<path d="M10.4317 2.50522C5.86942 2.52148 1.65432 4.72933 1.65432 9.36904C1.65425 17.6893 14.9073 16.0922 14.9073 22.2157C14.9073 24.9653 11.6199 26.7981 9.41955 26.7981C7.86724 26.7981 6.27559 26.4594 4.78786 25.8656C2.85595 25.0429 1.445 23.4428 1.445 23.4428L0.858643 23.5405L2.35378 29.294H2.70931C2.70931 29.294 2.94711 28.7465 3.58807 28.9106L3.5866 28.9076C5.34024 29.3925 7.16374 29.6259 8.99092 29.6259C15.7227 29.6259 19.5092 25.3412 19.3338 21.1453C19.0079 13.4456 6.05658 14.3147 6.05658 8.93788C6.05658 6.226 8.83532 5.18592 11.0379 5.18592C11.8592 5.18592 13.1598 5.36458 14.1029 5.76142C14.8295 6.03705 16.1594 6.87094 16.9771 7.8682C17.0916 8.03081 17.1694 8.13748 17.1694 8.13748H17.1848C17.1848 8.13972 17.1892 8.13897 17.1892 8.14196H17.4629L17.8674 8.14494L16.4765 2.86357H16.0009C15.7947 3.22864 15.0277 3.08944 15.0277 3.08944C13.6398 2.73467 12.7561 2.6151 11.3476 2.5314C11.0416 2.51313 10.7355 2.5041 10.4317 2.50522ZM43.1044 2.50522C38.5428 2.52148 34.3255 4.72933 34.3255 9.36904C34.3255 17.6893 47.5807 16.0922 47.5807 22.2157C47.5807 24.9653 44.2919 26.7981 42.0908 26.7981C40.5384 26.7981 38.9487 26.4594 37.4603 25.8656C35.53 25.0429 34.1156 23.4428 34.1156 23.4428L33.5314 23.5405L35.0265 29.294H35.3832C35.3832 29.294 35.6195 28.7465 36.2588 28.9106V28.9076C38.0122 29.3925 39.8346 29.6259 41.6636 29.6259C48.3932 29.6259 52.1797 25.3412 52.0035 21.1453C51.6806 13.4456 38.7293 14.3147 38.7293 8.93788C38.7293 6.226 41.508 5.18592 43.7106 5.18592C44.5304 5.18592 45.8339 5.36458 46.7749 5.76142C47.5 6.03705 48.8314 6.87094 49.6483 7.8682C49.7642 8.03081 49.8413 8.13748 49.8413 8.13748H49.8575C49.8575 8.13748 49.8597 8.13897 49.8619 8.14196H50.1342L50.5393 8.14494L49.1492 2.86357H48.6729C48.4666 3.22864 47.6996 3.08944 47.6996 3.08944C46.3125 2.73467 45.4303 2.6151 44.0203 2.5314C43.7143 2.51313 43.4082 2.5041 43.1044 2.50522ZM22.2263 2.90438V3.5338L24.0414 4.43998C24.0414 4.43998 24.0436 4.4405 24.0458 4.44147L24.1104 4.47347C24.4906 4.69024 24.6564 5.1073 24.6748 5.54144V24.167C24.5566 29.7817 23.3735 32.6961 17.7712 34.6624V35.3561C17.7712 35.3561 23.6722 35.3188 26.3423 32.0717H26.3394C27.7405 30.4329 28.5875 27.9265 28.7563 24.2207V5.6317C28.7578 5.62879 28.7629 5.62432 28.7629 5.62432C28.7629 5.15907 28.9273 4.70449 29.331 4.47332L29.397 4.44132L29.4 4.43983L31.2143 3.53216V2.90423H22.2263V2.90438ZM54.394 2.94809V2.94958H53.8135V3.57893L55.6285 4.48518C55.6285 4.48518 55.6278 4.48712 55.6315 4.48809L55.6961 4.52009C56.1005 4.75156 56.2663 5.20524 56.2663 5.66967C56.2663 5.66967 56.2693 5.67452 56.2693 5.67549V19.013C56.2693 21.7931 56.1952 24.3816 58.2018 26.6254C59.0899 27.607 60.2378 28.2963 61.487 28.7312C61.487 28.7312 61.6756 28.8028 62.0374 28.9057C62.1879 28.9445 62.3391 28.987 62.4925 29.0236C64.2312 29.4525 67.9112 30.0642 71.272 28.6946C71.2896 28.6864 71.3073 28.679 71.3241 28.6715C71.3667 28.6558 71.4159 28.6432 71.4585 28.626H71.446C72.5755 28.1851 73.6155 27.5302 74.4302 26.6254C76.4413 24.3816 76.3605 21.7931 76.3605 19.013L76.3752 5.65013V5.62559C76.3899 5.17585 76.5514 4.74224 76.9403 4.51972L77.0064 4.48772C77.0064 4.4872 77.0137 4.48481 77.0137 4.48481L78.8266 3.57856V2.94921H78.2468V2.94771H70.6188V2.94921H70.0426V3.57856L71.8555 4.48481C71.8555 4.48481 71.857 4.48675 71.857 4.48772L71.926 4.51972C72.2827 4.72672 72.453 5.10797 72.4853 5.5163V5.62849L72.4933 19.013C72.4933 24.0064 70.483 26.8074 66.7839 26.9372L66.7729 26.964C66.5732 26.961 66.3729 26.9521 66.1747 26.9521C62.2664 26.9521 60.1394 24.1496 60.1394 19.013V8.35716C60.1394 6.82991 60.1343 6.00199 60.1372 5.49005C60.1746 5.09141 60.3464 4.72284 60.6972 4.51972L60.7633 4.48772L60.7677 4.48481L62.5798 3.57856V2.94921H62.0161V2.94771H54.394V2.94809Z" fill="#D2D8E6"/>
<path d="M140.758 0.839844L138.35 2.65667L138.468 2.932L141.858 1.69798L141.492 0.839844H140.758ZM125.007 3.45796C122.35 3.45423 120.28 5.507 120.28 7.96139C120.28 10.6468 122.438 12.5072 124.985 12.5072H125H125.029C127.576 12.5072 129.734 10.6468 129.734 7.96139C129.734 5.507 127.664 3.45409 125.007 3.45796ZM90.4304 3.46378C88.801 3.36726 87.2157 4.09217 87.2157 5.7322C87.2157 8.49548 91.612 7.96437 91.612 9.99782C91.612 10.9086 90.5184 11.5166 89.7918 11.5166C89.2781 11.5166 88.7496 11.4047 88.2579 11.207C87.612 10.934 87.1423 10.4029 87.1423 10.4029L86.9514 10.4364L87.4432 12.3453H87.5606C87.5606 12.3453 87.6413 12.1655 87.8542 12.2185C88.4414 12.3796 89.0432 12.4557 89.6524 12.4557C91.8836 12.4557 93.1387 11.0347 93.0799 9.64126V9.63977C92.9699 7.0861 88.6762 7.37478 88.6762 5.58943C88.6762 4.68885 89.5937 4.34527 90.3276 4.34527C90.5992 4.34527 91.0322 4.4036 91.3478 4.53466C91.5827 4.62529 92.0304 4.90391 92.302 5.23399C92.3387 5.28889 92.3607 5.32432 92.3607 5.32432H92.368V5.32574H92.4634L92.5955 5.32723L92.1331 3.57306H91.9717C91.9056 3.69517 91.6487 3.65027 91.6487 3.65027C91.1937 3.53181 90.9001 3.4922 90.4304 3.46378ZM133.88 3.46378C132.251 3.36726 130.658 4.09217 130.658 5.7322C130.658 8.49548 135.062 7.96437 135.062 9.99782C135.062 10.9086 133.968 11.5166 133.242 11.5166C132.721 11.5166 132.192 11.4047 131.701 11.207C131.062 10.934 130.592 10.4029 130.592 10.4029L130.401 10.4364L130.893 12.3453H131.011C131.011 12.3453 131.091 12.1655 131.304 12.2185V12.217C131.884 12.3789 132.493 12.4557 133.095 12.4557C135.334 12.4557 136.589 11.0347 136.53 9.64126V9.63977C136.42 7.0861 132.119 7.37478 132.119 5.58943C132.119 4.68885 133.044 4.34527 133.778 4.34527C134.049 4.34527 134.482 4.4036 134.791 4.53466C135.033 4.62529 135.473 4.90391 135.745 5.23399C135.781 5.28889 135.811 5.32432 135.811 5.32432H135.818V5.32574H135.906L136.046 5.32723L135.583 3.57306H135.422C135.356 3.69517 135.099 3.65027 135.099 3.65027C134.636 3.53181 134.343 3.4922 133.88 3.46378ZM151.635 3.46378C150.013 3.36726 148.42 4.09217 148.42 5.7322C148.42 8.49548 152.816 7.96437 152.816 9.99782C152.816 10.9086 151.73 11.5166 150.996 11.5166C150.482 11.5166 149.954 11.4047 149.462 11.207C148.816 10.934 148.354 10.4029 148.354 10.4029L148.156 10.4364L148.655 12.3453H148.772C148.772 12.3453 148.846 12.1655 149.066 12.2185V12.217C149.646 12.3789 150.248 12.4557 150.857 12.4557C153.088 12.4557 154.343 11.0347 154.292 9.64126V9.63977C154.182 7.0861 149.881 7.37478 149.881 5.58943C149.881 4.68885 150.805 4.34527 151.532 4.34527C151.804 4.34527 152.237 4.4036 152.552 4.53466C152.794 4.62529 153.235 4.90391 153.506 5.23399C153.543 5.28889 153.572 5.32432 153.572 5.32432V5.32574H153.668L153.8 5.32723L153.345 3.57306H153.183C153.117 3.69517 152.86 3.65027 152.86 3.65027C152.398 3.53181 152.104 3.4922 151.635 3.46378ZM155.106 3.5104L155.099 3.51913L154.571 5.34468H154.805L155.224 4.75904C155.334 4.61127 155.481 4.55361 155.635 4.55361H157.426V11.3868C157.426 11.5412 157.374 11.6919 157.235 11.7679L157.213 11.7799L156.611 12.0798V12.2901H159.569V12.0798L158.967 11.7799L158.945 11.7679C158.805 11.6919 158.754 11.5419 158.754 11.3883C158.754 11.3883 158.754 11.3845 158.747 11.3838V4.55361H160.53C160.684 4.55361 160.839 4.61127 160.949 4.75904L161.367 5.34468H161.602L161.066 3.5119V3.5104H160.993C160.839 3.57523 160.64 3.60671 160.339 3.60223H155.833C155.576 3.60685 155.334 3.57523 155.18 3.5104H155.106ZM169.022 3.5104V3.51913L168.486 5.34468H168.721L169.14 4.75904C169.25 4.61127 169.404 4.55361 169.558 4.55361H171.341V11.3868C171.341 11.5412 171.283 11.6919 171.158 11.7679L171.136 11.7799H171.129L170.527 12.0798V12.2901H173.485V12.0798L172.883 11.7799L172.861 11.7679C172.729 11.6919 172.67 11.5419 172.67 11.3883V11.3838V4.55361H174.453C174.6 4.55361 174.754 4.61127 174.864 4.75904L175.283 5.34468H175.518L174.982 3.5119V3.5104H174.908C174.754 3.57523 174.563 3.60671 174.255 3.60223H169.756C169.499 3.60685 169.25 3.57523 169.096 3.5104H169.022ZM142.049 3.53517C141.881 3.62752 141.756 3.60074 141.536 3.60074H137.11V3.60223H136.985V3.81199L137.587 4.11067V4.11216L137.609 4.1223C137.741 4.19824 137.8 4.35183 137.8 4.5055V4.51131C137.807 4.90391 137.8 5.3326 137.8 5.46851V10.4611V11.395C137.8 11.5509 137.741 11.7001 137.609 11.7769L137.587 11.7888L136.985 12.0902V12.2983H142.644L143.348 10.288H143.121L142.659 10.9526L142.651 10.9541V10.9586C142.614 11.0131 142.372 11.3271 141.873 11.3607H139.128V8.20904C139.128 8.20904 139.928 8.21203 140.442 8.21203C140.589 8.21203 140.743 8.26797 140.816 8.40448L140.831 8.42611V8.4276L141.095 9.03779H141.293V6.7273H141.095L140.824 7.05946C140.692 7.21604 140.589 7.25475 140.435 7.25475H139.128V4.49095H141.572C141.719 4.49095 141.873 4.55107 141.983 4.6978L142.446 5.34468H142.681L142.196 3.68234L142.159 3.53517H142.049ZM181.088 3.53517C180.92 3.62752 180.795 3.60074 180.575 3.60074H176.156V3.60223H176.024V3.81199L176.626 4.11067V4.11216L176.648 4.1223C176.787 4.19824 176.839 4.35183 176.839 4.5055C176.839 4.5055 176.839 4.51042 176.846 4.51131V5.46851V10.4611C176.846 10.602 176.846 11.0235 176.839 11.395C176.839 11.5509 176.787 11.7001 176.648 11.7769L176.626 11.7888L176.024 12.0902V12.2983H181.69L182.395 10.288H182.16L181.697 10.9526V10.9541L181.69 10.9586C181.653 11.0131 181.411 11.3271 180.919 11.3607H178.167L178.175 8.20904C178.175 8.20904 178.967 8.21203 179.481 8.21203C179.635 8.21203 179.782 8.26797 179.855 8.40448L179.87 8.42611V8.4276L180.134 9.03779H180.34V6.7273H180.134L179.87 7.05946C179.731 7.21604 179.635 7.25475 179.481 7.25475H178.175V4.49095H180.611C180.765 4.49095 180.92 4.55107 181.022 4.6978L181.492 5.34468H181.72L181.242 3.68234L181.198 3.53517H181.088ZM116.823 3.58619V3.79595L117.425 4.09612V4.09754L117.447 4.10925C117.572 4.18071 117.623 4.31879 117.638 4.46178V10.6438C117.594 12.5064 117.205 13.4739 115.341 14.1274V14.3556C115.341 14.3556 117.3 14.3437 118.188 13.2673C118.651 12.722 118.93 11.8918 118.988 10.6625V4.49237V4.49095C118.988 4.3352 119.04 4.18414 119.179 4.10925L119.201 4.09754V4.09612L119.803 3.79595V3.58619H116.823ZM95.9864 3.5891V3.79886L96.4561 4.04659C96.5662 4.11149 96.647 4.19459 96.647 4.32632C96.6396 4.41367 96.6249 4.46618 96.6249 4.46618C96.3093 5.32604 94.357 10.4118 94.357 10.4118C94.2249 10.7497 94.1148 11.0847 93.9533 11.3838C93.946 11.4002 93.9313 11.4174 93.924 11.4315C93.924 11.4435 93.9166 11.4539 93.9093 11.4681C93.8066 11.6314 93.6818 11.7098 93.5644 11.7769L92.9405 12.0872V12.2983H95.8249V12.0872L95.2231 11.7873L95.1937 11.7769C95.1864 11.7724 95.1864 11.7672 95.179 11.7627C95.179 11.7627 95.1717 11.759 95.1717 11.7553C95.0469 11.6575 95.0543 11.4867 95.0543 11.4867V11.4174C95.069 11.3748 95.0763 11.3301 95.091 11.2846C95.1277 11.1727 95.8616 9.25635 95.8616 9.25635H99.1644L99.9351 11.2816L99.9571 11.3562C100.023 11.5561 99.9424 11.6799 99.8837 11.7321V11.7336C99.8764 11.7396 99.8764 11.7433 99.869 11.7448C99.8543 11.756 99.8397 11.7665 99.825 11.7769L99.803 11.7873L99.2011 12.0872V12.2968H102.475V12.0872L101.851 11.7769C101.719 11.7001 101.572 11.6068 101.469 11.3838C101.271 11.0489 101.205 10.8005 101.051 10.4118L98.6653 4.29133C98.3938 3.59917 97.8727 3.5891 97.8727 3.5891H95.9864ZM102.842 3.5891V3.60223H102.724V3.81199L103.326 4.11216L103.341 4.1238C103.48 4.19966 103.539 4.35511 103.539 4.5084V11.4218C103.531 11.5673 103.48 11.7068 103.348 11.7784L103.333 11.7888H103.326L102.724 12.0917V12.2983H103.715V12.2946H104.449V12.2983H105.44V12.0917L104.838 11.7888L104.809 11.7784C104.691 11.7083 104.632 11.5725 104.625 11.4315V5.52535L108.713 11.21C108.713 11.21 109.543 12.3431 110.555 12.5072C110.555 12.5072 110.915 12.5766 111.311 12.5258V12.3804C111.275 12.3655 111.238 12.3528 111.194 12.3334C110.724 12.0962 110.629 11.5442 110.614 11.2003V4.49237C110.614 4.34243 110.665 4.19884 110.798 4.1238L110.82 4.11216L111.421 3.81199V3.60223H111.289V3.5891H108.823V3.60223H108.713V3.81199L109.308 4.11216H109.315L109.337 4.1238C109.469 4.19884 109.521 4.3475 109.521 4.49677V10.1828L105.065 3.98833C104.772 3.58507 104.295 3.5891 104.295 3.5891H102.842ZM163.349 3.5891V3.79886L163.818 4.04659C163.928 4.11149 164.002 4.19459 164.009 4.32632C164.002 4.41367 163.98 4.46618 163.98 4.46618C163.672 5.32604 161.719 10.4118 161.719 10.4118C161.587 10.7497 161.47 11.0847 161.316 11.3838C161.308 11.4002 161.294 11.4174 161.286 11.4315C161.279 11.4435 161.272 11.4539 161.264 11.4681C161.169 11.6314 161.044 11.7098 160.927 11.7769L160.303 12.0872V12.2983H163.187V12.0872L162.578 11.7873L162.556 11.7769C162.549 11.7724 162.541 11.7672 162.541 11.7627C162.541 11.7627 162.534 11.759 162.534 11.7553C162.409 11.6575 162.409 11.4867 162.409 11.4867H162.417C162.409 11.4643 162.417 11.442 162.417 11.4174C162.424 11.3748 162.439 11.3301 162.453 11.2846C162.483 11.1727 163.217 9.25635 163.217 9.25635H166.519L167.29 11.2816L167.312 11.3562C167.378 11.5561 167.305 11.6799 167.246 11.7321V11.7359C167.239 11.7396 167.231 11.7433 167.231 11.7448C167.217 11.756 167.202 11.7665 167.187 11.7769L167.165 11.7873L166.563 12.0872V12.2983H169.837V12.0872L169.213 11.7769C169.081 11.7001 168.934 11.6068 168.831 11.3838C168.633 11.0489 168.567 10.8005 168.413 10.4118L166.028 4.29133C165.749 3.59917 165.235 3.5891 165.235 3.5891H163.349ZM125.007 4.40062C126.989 4.40808 128.258 5.87229 128.258 7.84353C128.258 9.66513 127.003 11.5337 125.007 11.5613C123.011 11.5337 121.748 9.66513 121.748 7.84353C121.748 5.87229 123.018 4.40785 125.007 4.40062ZM97.4837 4.83185L98.7974 8.29483H96.1919L97.4837 4.83185ZM164.839 4.83185L166.152 8.29483H163.554L164.839 4.83185ZM136.148 19.3218C134.526 19.2249 132.934 19.9484 132.934 21.5903C132.934 24.3503 137.33 23.8229 137.33 25.8548C137.33 26.7664 136.236 27.3743 135.51 27.3743C134.989 27.3743 134.468 27.2624 133.968 27.064C133.33 26.7925 132.86 26.2629 132.86 26.2629L132.669 26.2935L133.161 28.2038H133.279C133.279 28.2038 133.359 28.0211 133.572 28.0755C134.152 28.2366 134.761 28.3142 135.363 28.3142C137.602 28.3142 138.857 26.8917 138.798 25.4983C138.688 22.9434 134.394 23.2313 134.394 21.4478C134.394 20.5489 135.312 20.2036 136.046 20.2036C136.317 20.2036 136.75 20.261 137.058 20.393C137.301 20.487 137.741 20.763 138.013 21.0935C138.057 21.1464 138.079 21.183 138.079 21.183H138.086V21.1837H138.174L138.313 21.1852L137.851 19.433H137.69C137.624 19.5538 137.367 19.5068 137.367 19.5068C136.912 19.3882 136.618 19.3494 136.148 19.3218ZM143.825 19.3688V19.3778L143.297 21.2001H143.525L143.95 20.619C144.06 20.4706 144.207 20.4132 144.361 20.4132V20.4117H146.145V27.2423V27.2438C146.145 27.3997 146.093 27.5504 145.961 27.6265L145.939 27.6354V27.6384L145.337 27.9383V28.1464H148.288V27.9383L147.686 27.6384V27.6369V27.6354L147.664 27.6265C147.532 27.5504 147.473 27.3989 147.473 27.2445V27.2423V20.4102H149.257V20.4132C149.411 20.4132 149.565 20.4706 149.668 20.619L150.093 21.2001H150.321L149.793 19.3688H149.712C149.558 19.4345 149.367 19.4651 149.059 19.4621H144.559C144.303 19.4651 144.06 19.4345 143.906 19.3688H143.825ZM123.546 19.392C123.37 19.4852 123.253 19.4591 123.025 19.4591H118.607V19.4621H118.482V19.6702L119.084 19.9708L119.106 19.982C119.238 20.0588 119.297 20.208 119.297 20.3639V20.3699C119.304 20.763 119.297 21.1897 119.297 21.3284V26.3196V27.255C119.297 27.4101 119.238 27.5601 119.106 27.6354L119.084 27.6459L118.482 27.9487V28.1583H124.141L124.845 26.145H124.618H124.611L124.148 26.8104V26.8119L124.141 26.8179C124.111 26.8716 123.869 27.1856 123.37 27.2169H120.625V24.0676C120.625 24.0676 121.425 24.069 121.939 24.069C122.086 24.069 122.24 24.1257 122.313 24.2622L122.321 24.2846C122.321 24.2854 122.328 24.2861 122.328 24.2861L122.585 24.8978H122.79V22.5824H122.585L122.321 22.9195C122.189 23.074 122.086 23.1127 121.932 23.1127H120.625V20.349H123.069C123.216 20.349 123.37 20.4079 123.473 20.5564L123.943 21.2001H124.178L123.693 19.5419L123.649 19.392H123.546ZM125.256 19.4427V19.653L125.858 19.9544L125.888 19.9663C126.02 20.0417 126.071 20.1931 126.071 20.346C126.071 20.346 126.078 20.3512 126.078 20.352V21.3105V26.2994V27.252C126.078 27.4057 126.02 27.5556 125.888 27.6309L125.866 27.6429L125.264 27.9412V28.1523H126.255V28.1509H127.238V28.1523H128.229V27.9412L127.627 27.6429H127.62L127.605 27.6309C127.466 27.5556 127.414 27.4042 127.414 27.2505C127.414 27.2505 127.414 27.2483 127.407 27.246C127.4 26.8865 127.407 26.4844 127.407 26.2979V24.3808H127.752L127.745 24.3853C127.745 24.3853 127.752 24.3816 127.774 24.3808H128.009C128.229 24.4047 128.545 24.5032 128.794 24.8426L128.934 25.0723V25.0738L130.152 27.1356C130.365 27.428 131.011 28.3194 132.713 28.1762L132.809 28.1703C132.897 28.1703 132.97 28.1635 133.014 28.1583V27.9502L132.398 27.6429C132.222 27.5608 132.053 27.4377 131.899 27.3035C131.789 27.2013 131.62 27.0103 131.62 27.0103C131.407 26.8275 130.152 24.63 130.152 24.63C129.968 24.2205 129.638 24.1287 129.462 24.1078C130.497 23.9034 131.392 23.0001 131.392 21.6925C131.392 20.4893 130.357 19.4457 128.603 19.4457H126.247V19.4427H125.256ZM105.572 19.4442V19.6545L106.181 19.9559L106.196 19.9663C106.335 20.0432 106.387 20.1939 106.387 20.3475V20.3505V26.3069C106.387 26.471 106.394 26.9059 106.387 27.252C106.387 27.4057 106.328 27.5616 106.196 27.6369L106.174 27.6459L105.572 27.9502V28.1583H108.53V27.9502L107.928 27.6459L107.906 27.6369C107.774 27.5616 107.722 27.4101 107.722 27.255H107.715C107.715 26.9007 107.722 26.4628 107.722 26.3069V20.3475C107.722 20.1939 107.774 20.0432 107.906 19.9663L107.928 19.9559L108.53 19.6545V19.4457V19.4442H105.572ZM139.598 19.4442V19.6545L140.2 19.9559L140.222 19.9663C140.354 20.0432 140.413 20.1939 140.413 20.3475V26.3069C140.413 26.471 140.42 26.9044 140.413 27.2505C140.413 27.4042 140.354 27.5601 140.214 27.6354L140.192 27.6459L139.591 27.9502V28.1583H142.556V27.9502L141.954 27.6459L141.932 27.6354C141.792 27.5601 141.741 27.4101 141.741 27.255C141.734 26.9007 141.741 26.4628 141.741 26.3069V20.3475C141.741 20.1939 141.792 20.0432 141.932 19.9663L141.954 19.9559L142.556 19.6545V19.4442H139.598ZM95.9717 19.4457V19.4621H95.8469V19.6702L96.4488 19.9708L96.4708 19.982C96.6029 20.0588 96.669 20.2103 96.669 20.3654V27.2796C96.6616 27.4251 96.6103 27.5638 96.4781 27.6354L96.4635 27.6459H96.4561L95.8543 27.9502V28.1583H96.8451V28.1523H97.5791V28.1583H98.5626V27.9502L97.9681 27.6459H97.9607L97.9461 27.6354C97.8213 27.5645 97.7626 27.431 97.7552 27.29V21.3851L101.836 27.0685C101.836 27.0685 102.673 28.2001 103.686 28.3649C103.686 28.3649 104.038 28.4358 104.442 28.3843V28.2389C104.405 28.2262 104.361 28.2098 104.317 28.1904C103.847 27.9532 103.752 27.4019 103.737 27.0573V20.3505C103.744 20.2013 103.796 20.0559 103.928 19.982L103.95 19.9708L104.552 19.6702V19.4621H104.42V19.4457H101.953V19.4621H101.836V19.6702L102.438 19.9708V19.9716L102.467 19.982C102.599 20.0588 102.651 20.2058 102.651 20.355V26.0398L98.1883 19.8455C97.902 19.4427 97.425 19.4457 97.425 19.4457H95.9717ZM109.308 19.4576V19.4606H109.073V19.6687L109.697 19.9805C109.829 20.0536 109.961 20.1424 110.071 20.3445L113.271 28.2851H113.741L117.007 20.3781C117.014 20.3759 117.014 20.3751 117.014 20.3751C117.117 20.1513 117.264 20.0573 117.396 19.9805L118.027 19.6687V19.4606H117.388V19.4576H115.421V19.4621H115.15V19.6702L115.752 19.9708L115.781 19.982C115.781 19.985 115.788 19.9895 115.796 19.9954C115.796 19.9954 115.979 20.114 115.921 20.3333C115.913 20.3445 115.913 20.3565 115.913 20.3669C115.906 20.3759 115.906 20.3871 115.899 20.3945C115.891 20.4229 115.884 20.4393 115.884 20.4393C115.833 20.581 115.766 20.7473 115.686 20.9599L113.711 25.9772L111.634 20.81C111.59 20.6899 111.524 20.5086 111.458 20.3169C111.429 20.1685 111.51 20.07 111.554 20.0245C111.554 20.0238 111.554 20.0215 111.561 20.02C111.561 20.0171 111.568 20.0141 111.568 20.0111C111.583 20.0007 111.598 19.9895 111.612 19.9805L111.634 19.9708V19.9693L112.236 19.6687V19.4606H111.568V19.4576H109.308ZM92.1698 19.4591V19.4621H91.979V19.6702L92.5809 19.9708L92.6102 19.982C92.7276 20.0499 92.7864 20.176 92.7937 20.3117V20.3475V24.8821C92.7937 26.5396 92.1258 27.4676 90.9001 27.5131L90.8928 27.5205C90.8267 27.519 90.7607 27.5175 90.6946 27.5175C89.4028 27.5175 88.6982 26.5874 88.6982 24.8821V21.2538C88.6982 20.7488 88.6909 20.4736 88.6909 20.3043C88.7056 20.1715 88.7643 20.0491 88.8817 19.982L88.9037 19.9716V19.9708L89.5056 19.6702V19.4621H89.3148V19.4606H86.79V19.4621H86.5918V19.6702L87.201 19.9708V19.9716L87.2157 19.982C87.3551 20.0588 87.4065 20.208 87.4065 20.3639V20.3669V24.8821C87.4065 25.8041 87.3845 26.6642 88.0524 27.4079C88.3459 27.7354 88.7276 27.9614 89.1386 28.1061C89.1386 28.1061 89.2047 28.1315 89.3221 28.1643C89.3735 28.177 89.4249 28.1919 89.4762 28.2053C90.0561 28.3478 91.2744 28.5492 92.39 28.0942C92.39 28.0927 92.3974 28.0897 92.4047 28.0882C92.4194 28.083 92.4414 28.0778 92.4487 28.071C92.8231 27.9256 93.168 27.7078 93.4396 27.4079C94.1001 26.6642 94.0781 25.8041 94.0781 24.8821L94.0855 20.3565V20.352C94.0855 20.1998 94.1442 20.0551 94.2689 19.982L94.291 19.9716V19.9708L94.8928 19.6702V19.4621H94.702V19.4591H92.1698ZM150.585 19.4606V19.6702L151.209 19.982C151.341 20.0588 151.473 20.1573 151.613 20.3714V20.3729C151.708 20.5116 151.796 20.6608 151.892 20.8212L154.057 24.3458V26.2994V27.2781C154.049 27.4198 153.998 27.5541 153.873 27.625L153.851 27.6354V27.6384L153.249 27.9368V28.1464H156.2V27.9368L155.598 27.6384V27.6354L155.576 27.625C155.444 27.5489 155.385 27.3989 155.385 27.2445V27.2423V24.3443L157.528 21.0487L157.961 20.3729C158.094 20.1513 158.233 20.0573 158.372 19.9805L158.996 19.6687V19.4606H158.585V19.4621H155.972V19.6702L156.574 19.9708V19.9716L156.596 19.982C156.604 19.985 156.611 19.9902 156.618 19.9954C156.618 19.9954 156.838 20.1372 156.721 20.3945C156.626 20.5817 154.901 23.2746 154.901 23.2746L153.161 20.3945C153.073 20.205 153.169 20.0782 153.227 20.0245C153.227 20.0238 153.227 20.023 153.235 20.0215C153.235 20.0186 153.235 20.0141 153.242 20.0111C153.257 20.0007 153.271 19.9895 153.286 19.9805L153.308 19.9708L153.91 19.6702V19.4606H150.585ZM128.479 20.2252C129.286 20.267 129.954 20.6593 129.976 21.735C130.012 23.2306 129.242 23.4932 128.361 23.5588H127.407V20.2326L128.479 20.2282V20.2252Z" fill="#D2D8E6"/>
</svg>
