<svg width="163" height="53" viewBox="0 0 163 53" fill="none" xmlns="http://www.w3.org/2000/svg">
<path d="M1.07884 1.04999C0.7976 1.04999 0.762451 1.12124 0.762451 1.33123V2.1027C0.762451 2.35019 0.798538 2.41909 1.00854 2.41909H2.6589C3.74767 2.41909 3.99286 2.98009 3.99286 4.21004V12.5672C3.99286 17.1671 4.13285 19.5221 4.55534 21.1021C5.11658 23.3145 6.34549 24.8583 8.73302 25.807C9.89179 26.2995 11.6481 26.5433 13.4731 26.5433C16.528 26.5433 18.6714 25.7359 20.0764 24.436C22.0425 22.751 22.8143 20.5395 23.0255 17.6608C23.1305 16.2908 23.2013 10.1458 23.2013 9.6532C23.2013 9.16196 23.2016 4.17526 23.2717 3.82527C23.3779 3.40403 23.4827 2.41911 24.7814 2.41911H26.2209C26.3971 2.41911 26.4318 2.2788 26.4318 2.06756V1.29806C26.4318 1.19181 26.3966 1.05002 26.0802 1.05002C25.764 1.05002 24.6408 1.15551 22.2172 1.15551C19.8647 1.15551 18.2502 1.05002 17.8989 1.05002C17.6876 1.05002 17.6528 1.12177 17.6528 1.29806V2.13984C17.6528 2.31483 17.6876 2.41912 17.8989 2.41912H19.4437C20.3575 2.41912 20.9188 3.05222 21.0238 3.96597C21.13 4.84345 21.1996 6.87909 21.1996 9.54781V17.0632C21.1996 19.6619 20.7422 21.7691 19.3735 23.2428C18.1448 24.5078 16.1072 25.1744 14.1061 25.1744C12.0699 25.1744 9.82219 24.542 8.52223 22.647C7.716 21.4533 7.43616 19.8023 7.40116 18.1862C7.36491 17.0637 7.22342 12.6035 7.22342 10.7412V8.42484C7.22342 6.6337 7.25874 4.17417 7.29374 3.86048C7.36373 3.08675 7.96177 2.41912 8.97919 2.41912H10.7369C10.9819 2.41912 11.0162 2.35125 11.0162 2.17499V1.26095C11.0162 1.12096 10.9811 1.05002 10.6998 1.05002C10.3136 1.05002 8.6281 1.15551 5.88948 1.15551C3.14955 1.15551 1.4291 1.05002 1.07911 1.05002L1.07884 1.04999ZM110.886 6.19434C109.512 6.19434 108.292 6.54081 107.3 7.34081C106.461 8.06579 105.659 9.24965 105.659 10.5458C105.659 12.4158 106.118 13.6355 106.995 14.4755C108.14 15.5055 109.971 16.1904 110.733 16.4578C112.756 17.2216 114.245 18.1754 114.245 20.3503C114.245 21.9915 112.412 22.9441 111.19 22.9441C109.779 22.9441 108.519 22.1816 107.948 21.0379C107.262 19.7779 107.263 18.9772 107.263 18.4422C107.263 18.2897 107.111 18.2134 106.958 18.1746L106.271 18.1004C106.118 18.1004 106.041 18.2142 106.003 18.3679C105.964 18.9779 105.698 22.0276 105.583 23.0963C105.546 23.2875 105.658 23.4419 105.888 23.5182C106.193 23.5944 106.384 23.518 106.462 23.3268L106.575 23.0201C106.652 22.7151 106.88 22.7527 107.147 22.944C108.025 23.6302 109.359 24.28 111.306 24.28C114.777 24.28 116.608 21.8385 116.608 18.9773C116.608 17.0686 116.15 16.1159 115.388 15.3134C114.434 14.3222 113.024 13.9024 111.269 13.2549C110.544 12.9874 109.169 12.4155 108.597 11.6904C108.177 11.1942 107.987 10.3926 107.987 9.82138C107.987 9.1339 108.598 7.49335 110.696 7.49335C111.801 7.49335 112.641 7.87584 113.214 8.52452C114.015 9.4395 114.32 10.7747 114.55 11.2334C114.587 11.3472 114.663 11.4233 114.776 11.3858L115.464 11.2334C115.579 11.1947 115.618 11.1167 115.618 11.003C115.581 10.468 115.235 7.98826 115.235 6.72959C115.235 6.5396 115.197 6.38781 114.892 6.38781C114.587 6.38781 114.472 6.38859 114.397 6.50106L114.245 6.76863C114.168 6.96113 113.977 6.91997 113.595 6.69251C113.137 6.46252 112.336 6.19447 110.886 6.19447L110.886 6.19434ZM127.425 6.46193C127.31 6.44943 127.326 6.44768 127.279 6.48143C127.231 6.51393 127.225 6.5523 127.208 6.61229C126.898 7.76605 126.236 10.1177 126.015 10.8115C125.978 10.964 125.977 11.1168 126.167 11.1943L126.855 11.4618C127.007 11.5381 127.122 11.423 127.199 11.2704C127.695 10.2792 128.496 9.0592 129.449 8.33302C130.861 7.95178 133.003 7.98928 133.728 7.98928V16.1921C133.728 18.4809 133.727 20.5038 133.612 21.9538C133.575 22.2588 133.308 22.5631 132.735 22.5631H131.21C131.056 22.5631 130.982 22.6395 130.982 22.8307V23.5924C130.982 23.8211 131.057 23.9361 131.286 23.9361C131.591 23.9361 134.072 23.8209 135.14 23.8209C136.398 23.8209 138.763 23.9361 139.03 23.9361C139.221 23.9361 139.298 23.8227 139.298 23.7076V22.9069C139.298 22.6781 139.221 22.5631 139.03 22.5631H137.581C136.971 22.5631 136.782 22.1822 136.704 21.571C136.667 21.266 136.665 18.4055 136.665 14.3993V7.98937C137.352 7.98937 140.143 8.02649 141.098 8.37022C141.898 9.09519 142.547 10.3539 143.005 11.3076C143.082 11.4989 143.196 11.5382 143.424 11.4619L144.073 11.2705C144.225 11.1955 144.302 11.1164 144.264 10.9639C144.142 10.3077 143.834 8.95405 143.606 7.91908C143.951 7.94408 144.491 8.04776 144.815 8.37025C145.426 8.94273 150.081 15.7716 150.424 16.4579V17.8329C150.424 20.084 150.424 21.4566 150.385 21.8016C150.348 22.3353 150.117 22.5633 148.897 22.5633H148.325C148.172 22.5633 148.096 22.678 148.096 22.7918V23.6316C148.096 23.8591 148.172 23.9363 148.362 23.9363C148.592 23.9363 150.804 23.821 151.643 23.821C152.903 23.821 155.039 23.9363 155.268 23.9363C155.497 23.9363 155.575 23.8212 155.575 23.6687V22.7547C155.575 22.6397 155.497 22.5633 155.307 22.5633H154.811C154.126 22.5633 153.514 22.5246 153.438 21.7234C153.362 21.2659 153.399 20.2359 153.362 19.2821V16.0771C154.239 14.7421 158.664 8.52291 159.236 8.21792C159.58 8.02668 160 7.91324 160.609 7.91324H160.992C161.145 7.91324 161.221 7.83562 161.221 7.64566V6.8449C161.221 6.61491 161.146 6.54022 160.953 6.54022C160.726 6.54022 159.389 6.65347 158.703 6.65347C157.559 6.65347 155.65 6.54022 155.422 6.54022C155.23 6.54022 155.155 6.65334 155.155 6.80583V7.64565C155.155 7.79814 155.23 7.91323 155.422 7.91323H156.033C156.872 7.91323 156.834 8.40868 156.528 9.0187C156.375 9.32369 153.21 13.9419 152.637 14.8955C152.027 13.9793 148.859 8.9042 148.629 8.56171C148.477 8.33297 148.516 7.91329 149.204 7.91329H149.776C150.005 7.91329 150.043 7.79817 150.043 7.64571V6.80589C150.043 6.61465 149.928 6.54028 149.776 6.54028C149.508 6.54028 146.915 6.65353 146.075 6.65353C145.16 6.65353 140.677 6.5984 139.946 6.6184C138.492 6.6784 137.149 6.72978 135.901 6.72978H134.378C130.187 6.72978 128.02 6.52847 127.425 6.46221L127.425 6.46193ZM45.7156 6.54003C45.5631 6.54003 45.489 6.61603 45.489 6.76853V7.64546C45.489 7.79795 45.5255 7.91304 45.7156 7.91304H46.403C48.0055 7.91304 48.3502 8.29381 48.3502 8.7138C48.3502 9.24753 48.4244 13.0627 48.4244 13.6727V15.3524C48.4244 16.6486 48.3877 21.4948 48.3502 21.8386C48.2727 22.5236 47.6633 22.5632 46.7096 22.5632H45.8698C45.7173 22.5632 45.6413 22.678 45.6413 22.7917V23.6315C45.6413 23.8215 45.7173 23.9362 45.8698 23.9362C46.0998 23.9362 48.3117 23.821 49.6079 23.821C51.3253 23.821 53.3107 23.9362 53.6157 23.9362C53.8057 23.9362 53.8442 23.8211 53.8442 23.6686V22.7546C53.8442 22.6396 53.8057 22.5632 53.6157 22.5632H53.0415C51.9353 22.5632 51.4784 22.0286 51.4009 21.1511C51.3634 20.5787 51.3638 16.1926 51.3638 15.9638V14.0557C51.3638 13.7882 51.4009 9.24749 51.4009 8.8663C51.4409 8.06508 51.783 7.91321 52.813 7.91321H53.4634C53.6533 7.91321 53.6919 7.79809 53.6919 7.64563V6.73159C53.6919 6.6166 53.6159 6.5402 53.4634 6.5402C53.1584 6.5402 51.2103 6.65345 50.104 6.65345C48.3116 6.69219 45.9456 6.5402 45.7156 6.5402L45.7156 6.54003ZM55.1587 6.54003C55.0049 6.54003 54.9302 6.61578 54.9302 6.72947V7.68257C54.9302 7.79756 54.9672 7.91304 55.1196 7.91304H55.5024C55.9974 7.91304 56.3029 8.21763 56.6079 8.63762C56.8754 9.01886 58.0209 12.4899 58.6683 14.2449L58.9359 15.0847C59.2409 15.9234 61.2618 21.4556 62.1018 23.7055C62.2168 24.0118 62.4062 24.2797 62.7112 24.2797C63.0174 24.2797 63.2075 24.1644 63.3225 23.9731C63.6275 23.4781 66.7573 15.9998 67.0998 15.1998C67.4823 14.2074 69.5407 9.21012 70.2657 8.48514C70.6107 8.14015 71.1442 7.9129 71.8691 7.9129H72.3984H72.4785H72.7793C74.3055 7.9129 74.5347 8.06602 74.6484 8.86599C74.6871 9.24848 74.7245 11.7282 74.7245 13.7507V16.1158V21.8774C74.7245 22.4112 74.61 22.5629 72.8163 22.5629H72.4746C72.2833 22.5629 72.207 22.6389 72.207 22.7915V23.6684C72.207 23.8209 72.2442 23.936 72.4355 23.936C72.893 23.936 74.992 23.8207 75.6795 23.8207C83.6918 23.8207 85.7122 23.936 85.9802 23.936C86.1327 23.936 86.3226 23.7457 86.4001 23.5532L87.7731 19.5103C87.8118 19.3965 87.7341 19.2822 87.6578 19.2447L87.0465 18.9009C86.9315 18.8247 86.7424 18.8632 86.5524 19.1294C86.1699 19.7407 84.834 21.4573 84.529 21.686C83.2315 22.7171 82.1629 22.7543 80.4842 22.7543C78.8442 22.7543 77.7382 22.6398 77.7382 20.8462C77.7382 20.3512 77.662 18.1364 77.662 16.8014V15.5045C78.0445 15.5045 79.3784 15.5058 80.5234 15.7721C81.5146 16.0009 81.7454 16.6125 81.9354 17.5651C81.9742 17.7176 82.0502 17.7174 82.1639 17.7174L82.9666 17.6413C83.0804 17.6413 83.1561 17.6043 83.1561 17.4518C83.1186 16.9544 83.0037 15.7711 83.0037 14.9324C83.0037 14.5887 83.0037 12.566 83.0799 12.2235C83.1186 12.071 83.0039 11.995 82.8514 11.995L82.0115 11.956C81.859 11.956 81.8221 11.9949 81.8221 12.1474C81.8221 13.3311 81.4396 13.8634 80.4471 14.1297C80.1421 14.2072 77.8921 14.3231 77.6621 14.3231V7.83506L81.7069 7.91318C82.0881 7.91318 82.6986 8.06544 83.1561 8.48543C83.8048 9.09541 85.6364 11.2317 85.7126 11.3467C85.8276 11.5367 85.9794 11.5366 86.0544 11.4991L86.6657 11.2315C86.7419 11.194 86.7423 11.1164 86.7047 10.9639C86.6257 10.6969 85.5587 7.41724 85.4827 7.07355C85.4057 6.61606 85.3297 6.54026 85.2537 6.54026C85.1012 6.54026 84.605 6.61639 84.2225 6.61639L75.6779 6.65351H69.8441C68.9666 6.65351 66.9817 6.54026 66.7542 6.54026C66.6017 6.54026 66.5257 6.65376 66.5257 6.76878V7.6457C66.5257 7.8357 66.6017 7.91328 66.7542 7.91328H67.1741C67.8216 7.91328 67.9749 8.10413 67.9749 8.29412C67.9749 8.67661 67.4796 9.70558 66.0296 13.9405C65.8383 14.5129 63.9681 19.2445 63.7406 20.0458H63.6254C63.3954 19.4358 61.9852 15.0081 61.6802 14.0558C60.6503 10.8509 60.0005 9.36319 60.0005 8.48572C60.0005 7.98823 60.5758 7.91347 61.0708 7.91347H61.9477C62.1002 7.91347 62.2153 7.83548 62.2153 7.683V6.80608C62.2153 6.61608 62.138 6.54046 61.9106 6.54046C61.6806 6.54046 59.3531 6.65371 58.4381 6.65371C57.4469 6.65371 55.3482 6.54046 55.157 6.54046L55.1587 6.54003ZM88.2867 6.54003C88.133 6.54003 88.0582 6.61453 88.0582 6.72947V7.64546C88.0582 7.79795 88.0956 7.91304 88.2106 7.91304H88.5934C89.6608 7.91304 90.0038 8.33217 90.0425 9.09461V12.7566V15.1237C90.0038 17.4512 90.0422 19.7021 90.0035 21.5707C90.0035 22.4107 89.5455 22.5629 88.6306 22.5629H88.1735C88.0198 22.5629 87.9431 22.6374 87.9431 22.7524V23.6312C87.9431 23.8225 88.0198 23.9379 88.1735 23.9379C88.4398 23.9379 90.3857 23.8226 91.3394 23.8226C92.5982 23.8226 94.6579 23.9379 94.9253 23.9379C95.1541 23.9379 95.232 23.8602 95.232 23.6703V22.7523C95.232 22.6373 95.1552 22.5629 95.0015 22.5629H94.0093C93.2469 22.5629 93.0192 22.1428 92.943 21.6078V17.4889V16.5729C93.2092 16.4954 93.5519 16.4968 93.9332 16.4968C95.5356 16.4968 96.1082 17.3355 97.482 19.7018C97.8245 20.273 99.503 23.3652 100.228 23.8988C100.878 23.8601 101.794 23.8227 102.671 23.8227C103.053 23.8227 103.509 23.8598 103.853 23.8598C104.234 23.8986 104.539 23.938 104.617 23.938C104.769 23.938 104.845 23.8229 104.845 23.6704V22.9067C104.845 22.6793 104.808 22.563 104.656 22.563C103.968 22.563 103.472 22.5244 102.937 22.1431C102.212 21.6081 101.335 20.4642 100.8 19.7018C99.2364 17.488 98.4746 16.3059 97.5971 16.1159V16.0377C100.611 14.9703 102.099 13.4457 102.099 10.8133C102.099 9.93457 101.602 8.82945 100.763 8.02828C99.808 7.1883 98.0929 6.54012 95.8041 6.54012C95.3079 6.54012 91.9883 6.65337 91.5308 6.65337C90.8445 6.65337 88.478 6.54012 88.2868 6.54012L88.2867 6.54003ZM117.425 6.54003C117.272 6.54003 117.198 6.61603 117.198 6.76853V7.64546C117.198 7.79795 117.235 7.91304 117.425 7.91304H118.112C119.715 7.91304 120.06 8.29381 120.06 8.7138C120.06 9.24753 120.134 13.0627 120.134 13.6727V15.3524C120.134 16.6486 120.097 21.4948 120.06 21.8386C119.982 22.5236 119.371 22.5632 118.417 22.5632H117.577C117.425 22.5632 117.351 22.678 117.351 22.7917V23.6315C117.351 23.8215 117.425 23.9362 117.577 23.9362C117.807 23.9362 120.021 23.821 121.317 23.821C123.035 23.821 125.018 23.9362 125.323 23.9362C125.513 23.9362 125.552 23.8211 125.552 23.6686V22.7546C125.552 22.6396 125.513 22.5632 125.323 22.5632H124.751C123.645 22.5632 123.188 22.0286 123.11 21.1511C123.073 20.5787 123.073 16.1926 123.073 15.9638V14.0557C123.073 13.7882 123.11 9.24749 123.11 8.8663C123.149 8.06508 123.492 7.91321 124.522 7.91321H125.171C125.361 7.91321 125.399 7.79809 125.399 7.64563V6.73159C125.399 6.6166 125.323 6.5402 125.171 6.5402C124.866 6.5402 122.92 6.65345 121.813 6.65345C120.021 6.69219 117.655 6.5402 117.425 6.5402L117.425 6.54003ZM94.0836 7.76069C95.6097 7.76069 96.6797 8.10412 97.7085 8.75286C98.3959 9.21034 98.9682 10.2393 98.9682 11.3856C98.9682 12.3768 98.3197 15.3523 94.0836 15.3523C93.5886 15.3523 93.2073 15.3136 92.941 15.2761V8.59853C92.941 7.9123 93.5111 7.76065 94.0836 7.76065V7.76069ZM23.7966 25.7642C20.5855 25.7642 18.2928 29.8935 18.2928 32.9359C18.2928 34.7708 19.4516 36.051 20.7792 36.051C24.2803 36.051 26.3806 31.2463 26.3806 28.5902C26.3806 26.949 25.4142 25.7642 23.7967 25.7642H23.7966ZM24.2067 26.8754C25.0042 26.8754 25.4387 27.4782 25.4137 28.2269C25.4137 29.8207 22.9289 34.8907 20.4177 34.8907C19.8378 34.8907 19.3065 34.4327 19.3065 33.6602C19.3065 32.5241 19.8836 31.0519 20.7049 29.7483C21.9124 27.7921 23.1931 26.8753 24.2068 26.8753L24.2067 26.8754ZM144.283 28.4224C144.055 28.4224 143.902 28.5355 143.824 28.688C143.482 28.993 142.413 29.6804 141.688 29.7954C141.345 29.8704 141.268 29.9855 141.307 30.063C141.268 30.1767 141.383 30.3688 141.459 30.4438C141.727 30.5588 141.497 30.9787 141.42 31.2074C141.192 31.8562 138.941 37.0447 138.674 37.5784C137.759 39.4871 135.813 44.0642 135.545 44.3692C135.24 44.7891 134.631 45.1699 133.981 45.1699H133.541C132.434 45.1699 131.977 44.6373 131.901 43.7599C131.863 43.1874 131.862 38.8005 131.862 38.5705V36.6643C131.862 36.3968 131.901 31.8562 131.901 31.4749C131.939 30.6737 132.281 30.5218 133.311 30.5218H133.961C134.151 30.5218 134.19 30.4067 134.19 30.2542V29.3383C134.19 29.2233 134.114 29.1469 133.961 29.1469C133.656 29.1469 131.709 29.2601 130.602 29.2601C128.809 29.2989 126.444 29.1469 126.215 29.1469C126.063 29.1469 125.987 29.2229 125.987 29.3754V30.2542C125.987 30.4067 126.025 30.5218 126.215 30.5218H126.901C128.503 30.5218 128.848 30.9026 128.848 31.3226C128.848 31.8563 128.924 35.6715 128.924 36.2814V37.9592C128.924 39.2567 128.887 44.1022 128.848 44.4472C128.771 45.1322 128.161 45.1698 127.207 45.1698H126.367C126.215 45.1698 126.139 45.2833 126.139 45.3983V46.2401C126.139 46.4301 126.215 46.5448 126.367 46.5448C126.596 46.5448 128.81 46.4296 130.107 46.4296H136.422C137.033 46.4296 139.054 46.5448 139.359 46.5448C139.55 46.5448 139.59 46.4297 139.59 46.2772V45.4374C139.59 45.2837 139.551 45.1698 139.322 45.1698H138.369C137.567 45.1698 137.454 44.6745 137.682 43.9121C137.834 43.4546 139.054 40.2877 139.207 39.8302H145.349C145.654 40.7077 146.685 43.759 146.837 44.5215C146.837 44.8264 146.684 45.1699 146.226 45.1699H145.617C145.464 45.1699 145.427 45.2834 145.427 45.3984V46.2011C145.427 46.3536 145.465 46.5448 145.732 46.5448C146.227 46.5448 148.478 46.4296 149.203 46.4296C150.08 46.4296 152.102 46.5448 152.562 46.5448C152.79 46.5448 152.828 46.3161 152.828 46.2011V45.3984C152.828 45.2834 152.789 45.1699 152.636 45.1699H151.912C151.263 45.1699 150.616 44.8268 150.119 44.1406C149.852 43.7594 148.213 39.2572 147.64 37.3498C147.144 35.8236 145.198 30.3678 144.664 28.8402C144.588 28.574 144.512 28.4223 144.283 28.4223L144.283 28.4224ZM88.8949 28.8032C86.1861 28.8032 83.8586 29.6051 82.065 31.1313C80.2338 32.7324 79.2408 35.0608 79.2408 37.387C79.2408 40.3631 80.0049 42.423 81.5298 44.1017C83.3235 46.0866 86.376 46.8887 88.3597 46.8887C90.8008 46.8887 92.8624 46.3526 94.8849 45.3614C95.1511 45.2464 95.3029 45.1315 95.3029 44.9415C95.3029 44.7515 95.1896 44.5223 95.1896 44.1798V41.2404C95.1896 40.5916 95.9138 40.4396 96.2951 40.4396H96.9435C97.0585 40.4396 97.1349 40.3261 97.1349 40.2111V39.2951C97.1349 39.1814 97.0589 39.1056 96.9064 39.1056C96.7539 39.1056 95.0376 39.1818 93.6253 39.1818C91.5665 39.1818 89.694 39.1056 89.4653 39.1056C89.3128 39.1056 89.2759 39.1814 89.2759 39.2951V40.2111C89.2759 40.3261 89.3129 40.4025 89.4653 40.4025H90.3833C91.3745 40.4025 92.2504 40.6676 92.2504 41.5451V42.959C92.2504 43.7215 92.1757 44.2171 91.6782 44.5996C91.0682 45.0945 89.8484 45.4374 88.5123 45.4374C87.4448 45.4374 85.9197 44.8644 84.8523 43.7207C83.3635 42.1557 82.5222 39.9826 82.5222 37.0451C82.5222 35.3289 83.3628 33.3047 84.5066 32.0472C85.919 30.5211 87.4067 30.1021 88.5905 30.1021C90.3442 30.1021 91.4133 30.8634 92.4419 31.9321C93.3569 32.8471 94.0064 34.0299 94.2739 34.641C94.3864 34.946 94.4655 34.9832 94.5805 34.9457L95.3032 34.7172C95.4182 34.6785 95.4575 34.6025 95.4575 34.4125C95.38 33.7251 94.8852 30.1769 94.8852 29.9869C94.8852 29.7194 94.8078 29.567 94.4653 29.567C94.1603 29.567 94.0455 29.6821 93.9692 29.8345L93.7778 30.1763C93.7028 30.2913 93.5489 30.2914 93.2427 30.024C92.5177 29.4915 90.7263 28.8033 88.8952 28.8033L88.8949 28.8032ZM54.9038 29.147C54.7513 29.147 54.6773 29.223 54.6773 29.3755V30.2544C54.6773 30.4069 54.7138 30.5219 54.9038 30.5219H55.5913C57.1925 30.5219 57.5385 30.9027 57.5385 31.3227C57.5385 31.8564 57.6127 35.6716 57.6127 36.2816V37.9593C57.6127 39.2568 57.576 44.1023 57.5385 44.4473C57.461 45.1323 56.8516 45.17 55.8979 45.17H55.0581C54.9056 45.17 54.8296 45.2835 54.8296 45.3985V46.2402C54.8296 46.4302 54.9056 46.5449 55.0581 46.5449C55.2881 46.5449 57.4988 46.4297 58.7962 46.4297C60.5136 46.4297 62.4989 46.5449 62.8039 46.5449C62.9939 46.5449 63.0304 46.4298 63.0304 46.2773V45.3614C63.0304 45.2464 62.9939 45.17 62.8039 45.17H62.2297C61.1235 45.17 60.6666 44.6373 60.5891 43.7599C60.5516 43.1874 60.552 38.8006 60.552 38.5706V36.6644C60.552 36.3969 60.5891 31.8563 60.5891 31.4751C60.6279 30.6738 60.9725 30.522 62.0012 30.522H62.6515C62.8415 30.522 62.8781 30.4069 62.8781 30.2544V29.3384C62.8781 29.2234 62.8041 29.147 62.6515 29.147C62.3465 29.147 60.3997 29.2603 59.2922 29.2603C57.4998 29.299 55.1338 29.147 54.9038 29.147L54.9038 29.147ZM64.345 29.147C64.1925 29.147 64.1165 29.2234 64.1165 29.3384V30.2524C64.1165 30.4049 64.1538 30.52 64.2688 30.52H64.6497C65.7171 30.52 66.0632 30.9398 66.1007 31.7036V35.3655V37.7327C66.0632 40.0588 66.0995 42.3097 66.0617 44.1797C66.0617 45.0184 65.6017 45.1699 64.6867 45.1699H64.2297C64.0772 45.1699 64.0012 45.2463 64.0012 45.3613V46.2382C64.0012 46.4295 64.0772 46.5449 64.2297 46.5449C64.4972 46.5449 66.4419 46.4296 67.3956 46.4296C68.6556 46.4296 70.7171 46.5449 70.9834 46.5449C71.2134 46.5449 71.2881 46.4672 71.2881 46.2773V45.3613C71.2881 45.2463 71.2121 45.1699 71.0596 45.1699H70.0674C69.3037 45.1699 69.0766 44.7518 68.9991 44.2168V40.0958V39.1799C69.2666 39.1036 69.6087 39.1037 69.9912 39.1037C71.5937 39.1037 72.1643 39.9438 73.538 42.3087C73.8818 42.8812 75.561 45.9734 76.286 46.5058C76.9347 46.4683 77.8498 46.4297 78.7273 46.4297C79.1098 46.4297 79.5671 46.4687 79.9109 46.4687C80.2921 46.5062 80.5975 46.5448 80.6725 46.5448C80.825 46.5448 80.903 46.4297 80.903 46.2772V45.5136C80.903 45.2848 80.8641 45.1698 80.7116 45.1698C80.0266 45.1698 79.5298 45.1331 78.9949 44.7519C78.2699 44.2169 77.3919 43.071 76.8581 42.3085C75.2932 40.0961 74.5306 38.9138 73.6531 38.7226V38.6465C76.6668 37.5791 78.155 36.0526 78.155 33.4202C78.155 32.5415 77.6591 31.4376 76.819 30.6352C75.8653 29.7964 74.1501 29.147 71.8602 29.147C71.3652 29.147 68.0455 29.2602 67.5868 29.2602C66.9006 29.2602 64.5347 29.147 64.3447 29.147L64.345 29.147ZM96.538 29.147C96.3856 29.147 96.3095 29.223 96.3095 29.3755V30.2544C96.3095 30.4069 96.3468 30.5219 96.538 30.5219H97.2255C98.828 30.5219 99.1707 30.9027 99.1707 31.3227C99.1707 31.8564 99.2468 35.6716 99.2468 36.2816V37.9593C99.2468 39.2568 99.2082 44.1023 99.1707 44.4473C99.0944 45.1323 98.4851 45.17 97.5301 45.17H96.6903C96.5378 45.17 96.4618 45.2835 96.4618 45.3985V46.2402C96.4618 46.4302 96.5378 46.5449 96.6903 46.5449C96.919 46.5449 99.133 46.4297 100.43 46.4297C102.147 46.4297 104.131 46.5449 104.436 46.5449C104.627 46.5449 104.665 46.4298 104.665 46.2773V45.3614C104.665 45.2464 104.627 45.17 104.436 45.17H103.864C102.758 45.17 102.299 44.6373 102.221 43.7599C102.184 43.1874 102.184 38.8006 102.184 38.5706V36.6644C102.184 36.3969 102.221 31.8563 102.221 31.4751C102.261 30.6738 102.605 30.522 103.635 30.522H104.284C104.475 30.522 104.512 30.4069 104.512 30.2544V29.3384C104.512 29.2234 104.436 29.147 104.284 29.147C103.979 29.147 102.033 29.2603 100.926 29.2603C99.1345 29.2963 96.7676 29.1443 96.5386 29.1443L96.538 29.147ZM105.979 29.147C105.827 29.147 105.751 29.2605 105.751 29.3755V30.2915C105.751 30.444 105.827 30.52 105.979 30.52H106.323C107.392 30.52 108.344 31.1689 108.344 32.5414V36.5491C108.344 40.8602 108.269 43.5699 108.231 44.0274C108.116 44.9049 107.506 45.17 107.124 45.17H106.247C106.133 45.17 106.094 45.209 106.094 45.2852V46.2774C106.094 46.4674 106.131 46.5449 106.208 46.5449C106.513 46.5449 108.231 46.4297 108.764 46.4297C109.87 46.4297 111.397 46.5449 111.665 46.5449C111.855 46.5449 111.854 46.4669 111.854 46.3145V45.4004C111.854 45.2467 111.855 45.17 111.665 45.17H110.862C110.482 45.17 110.063 44.7526 109.948 43.8751C109.872 43.5301 109.719 39.7147 109.719 37.4261V32.1998H109.796C110.406 32.886 113.496 37.0071 114.411 38.0746C114.831 38.5708 116.471 40.5148 118.225 42.6135C119.79 44.4834 121.088 46.047 121.354 46.3145C121.506 46.4294 121.89 46.6973 122.233 46.6973C122.69 46.6973 122.805 46.3152 122.805 45.9727V37.0451C122.805 35.4814 122.729 33.0776 122.92 31.3227C122.995 30.7877 123.186 30.52 124.139 30.52H124.52C124.672 30.52 124.75 30.4049 124.75 30.2524V29.4516C124.75 29.2229 124.673 29.147 124.483 29.147C124.215 29.147 122.883 29.2602 122.08 29.2602C120.859 29.2602 119.219 29.147 118.952 29.147C118.762 29.147 118.684 29.2233 118.684 29.3384V30.2524C118.684 30.4436 118.762 30.52 118.952 30.52H119.6C120.248 30.52 120.82 30.75 121.01 31.2074C121.201 31.6649 121.317 33.8784 121.317 34.7933C121.393 36.0145 121.43 37.1964 121.43 39.3713V41.8907H121.278C120.82 41.3932 117.273 36.9291 116.586 36.1291C115.785 35.1754 111.397 29.6432 111.282 29.4907C111.129 29.2607 110.903 29.186 110.368 29.186C109.91 29.186 109.108 29.2603 108.497 29.2603C108.078 29.2603 107.468 29.2235 106.971 29.186C106.476 29.186 106.055 29.147 105.979 29.147L105.979 29.147ZM70.3652 30.3677C71.8914 30.3677 72.9581 30.7123 73.9881 31.3598C74.6743 31.8173 75.2479 32.8463 75.2479 33.9925C75.2479 34.9825 74.6001 37.9592 70.3652 37.9592C69.869 37.9592 69.4862 37.9225 69.2187 37.885V31.2074C69.2187 30.5211 69.7927 30.3676 70.3652 30.3676V30.3677ZM142.72 31.6645C142.834 31.6645 142.872 31.8173 142.947 32.0473C143.024 32.3523 144.818 38.0746 144.97 38.6096H139.781C139.971 38.2271 142.3 32.3894 142.413 32.0844C142.528 31.7794 142.605 31.6645 142.72 31.6645V31.6645ZM25.4835 6.53924C25.331 6.53924 25.255 6.65274 25.255 6.76774V7.68373C25.255 7.83622 25.331 7.91224 25.4835 7.91224H25.8253C26.8953 7.91224 27.8487 8.5612 27.8487 9.93368V13.9395C27.8487 18.2505 27.771 20.9603 27.7335 21.4178C27.6185 22.2952 27.0093 22.5622 26.628 22.5622H25.7511C25.6361 22.5622 25.5987 22.6 25.5987 22.6775V23.6696C25.5987 23.8596 25.6365 23.9372 25.714 23.9372C26.019 23.9372 27.7335 23.822 28.2685 23.822C28.878 23.822 29.5655 23.8531 30.1494 23.8845C29.8921 24.493 29.6455 25.125 29.4052 25.8142H27.3038C27.1113 25.8142 26.9444 26.2014 26.8956 26.3689L26.7999 26.781C26.7524 26.9497 26.8111 27.0661 26.9307 27.0661H29.0791L26.6299 35.2299C25.3262 39.6959 24.0224 41.7258 22.8624 41.7258C22.67 41.7258 22.501 41.5569 22.4523 41.3156C22.381 40.9044 22.0188 40.2278 21.3175 40.2278C20.69 40.2278 20.2805 40.7118 20.2805 41.2668C20.2805 42.0406 21.0525 42.6907 22.0186 42.6907C24.601 42.6907 26.3175 40.0106 27.7899 36.2457C28.9974 33.1546 30.1058 29.0224 30.7333 27.0661L34.0008 27.0974C34.7382 27.0974 35.0889 27.4513 35.4402 28.2576C35.8965 29.3113 37.547 34.4023 38.3893 36.8959L38.7409 38.0893C39.1984 39.3542 42.0416 47.361 43.1666 50.5909C43.3403 51.0484 43.481 51.3995 43.7622 51.3995C43.9385 51.3995 44.1132 51.2225 44.2544 50.9425C44.4294 50.59 48.9581 39.4238 49.3793 38.2648C49.9768 36.7899 52.787 29.592 53.6993 28.4682C54.3656 27.6608 55.0341 27.0972 56.1915 27.0972H57.1407C57.3519 27.0972 57.3867 26.993 57.3867 26.853V25.9742C57.3867 25.7992 57.3519 25.73 57.1407 25.73C56.8244 25.73 55.9467 25.8335 53.383 25.8335C51.1718 25.8335 49.5567 25.73 49.2405 25.73C49.0655 25.73 49.0296 25.7991 49.0296 25.9742V26.7808C49.0296 26.992 49.064 27.0972 49.2053 27.0972H50.1194C50.9968 27.0972 51.2404 27.4833 51.2404 27.9057C51.2404 28.3957 51.0315 29.0282 50.7502 29.9057C50.224 31.4518 48.8899 35.49 48.5374 36.4387C48.2574 37.2474 45.5169 44.4819 44.7094 46.1318C43.9019 43.9894 41.8659 37.9482 41.4459 36.6145C40.8134 34.647 39.5145 30.4696 39.3033 29.2046C39.1983 28.7121 39.1608 28.2913 39.1608 28.0112C39.1608 27.4138 39.6548 27.0972 40.6372 27.0972H42.3227C42.5689 27.0972 42.602 26.9571 42.602 26.7808V25.9742C42.602 25.8342 42.5686 25.7301 42.2524 25.7301C41.9361 25.7301 40.3554 25.8336 37.4067 25.8336C34.668 25.8336 31.3111 25.7437 31.3111 25.7437C32.1086 23.0388 32.5934 19.8513 34.8384 19.8513C35.5621 19.8513 35.8048 20.3092 35.8286 20.5505C35.9011 21.0817 36.1186 21.5172 36.891 21.5172C37.3748 21.5172 37.8559 21.1559 37.8559 20.406C37.8559 20.2911 37.818 20.1641 37.7582 20.0368C39.304 21.8843 40.5926 23.4427 40.8577 23.7066C41.0102 23.8216 41.3929 24.0894 41.7366 24.0894C42.1941 24.0894 42.3069 23.7054 42.3069 23.3629V14.4353C42.3069 12.8716 42.2309 10.4678 42.4222 8.7129C42.4984 8.17916 42.6903 7.91214 43.6428 7.91214H44.0256C44.1781 7.91214 44.2541 7.79702 44.2541 7.64457V6.8438C44.2541 6.61381 44.1765 6.53912 43.9866 6.53912C43.7191 6.53912 42.3855 6.65237 41.5842 6.65237C40.3618 6.65237 38.7229 6.53912 38.4554 6.53912C38.2642 6.53912 38.1878 6.61362 38.1878 6.72856V7.64456C38.1878 7.8358 38.2642 7.91213 38.4554 7.91213H39.1038C39.7513 7.91213 40.324 8.14017 40.5139 8.59766C40.7064 9.0564 40.8205 11.2686 40.8205 12.1836C40.8955 13.406 40.9338 14.5886 40.9338 16.7635V19.2811H40.7814C40.3239 18.7848 36.7756 14.3207 36.0882 13.5194C35.2882 12.5657 30.8993 7.03351 30.7855 6.88101C30.633 6.65102 30.4045 6.57633 29.8695 6.57633C29.412 6.57633 28.6105 6.65245 28.0005 6.65245C27.5805 6.65245 26.9701 6.61383 26.4751 6.57633C25.9789 6.57633 25.5605 6.5392 25.483 6.5392L25.4835 6.53924ZM29.2216 9.58995H29.2997C29.9097 10.2774 32.9998 14.3973 33.9148 15.4648C34.2846 15.9029 35.7685 17.6632 37.2761 19.4627C36.9083 19.1857 36.3729 18.9803 35.6843 18.9803C34.1144 18.9803 32.7884 19.8503 32.1122 20.6228C31.5788 21.2155 31.16 21.8683 30.7842 22.5622H30.3662C29.985 22.5622 29.5659 22.1429 29.4522 21.2654C29.3747 20.9216 29.2217 17.107 29.2217 14.8184V9.59002L29.2216 9.58995Z" fill="#D2D8E6"/>
</svg>
